<svg width="81" height="80" viewBox="0 0 81 80" fill="none" xmlns="http://www.w3.org/2000/svg">
<g filter="url(#filter0_i_1_9248)">
<rect width="81" height="80" rx="20" fill="url(#paint0_linear_1_9248)"/>
<path d="M38.3125 60.875H30C28.7402 60.875 27.532 60.3746 26.6412 59.4838C25.7504 58.593 25.25 57.3848 25.25 56.125V22.875C25.25 21.6152 25.7504 20.407 26.6412 19.5162C27.532 18.6254 28.7402 18.125 30 18.125H49C50.2598 18.125 51.468 18.6254 52.3588 19.5162C53.2496 20.407 53.75 21.6152 53.75 22.875V41.875M58.5 60.875L63.25 56.125L58.5 51.375M51.375 51.375L46.625 56.125L51.375 60.875M37.125 20.5H41.875M39.5 51.375V51.3988" stroke="#F8F8F8" stroke-width="4.16667" stroke-linecap="round" stroke-linejoin="round"/>
</g>
<defs>
<filter id="filter0_i_1_9248" x="-2" y="-4" width="83" height="84" filterUnits="userSpaceOnUse" color-interpolation-filters="sRGB">
<feFlood flood-opacity="0" result="BackgroundImageFix"/>
<feBlend mode="normal" in="SourceGraphic" in2="BackgroundImageFix" result="shape"/>
<feColorMatrix in="SourceAlpha" type="matrix" values="0 0 0 0 0 0 0 0 0 0 0 0 0 0 0 0 0 0 127 0" result="hardAlpha"/>
<feOffset dx="-2" dy="-4"/>
<feGaussianBlur stdDeviation="2"/>
<feComposite in2="hardAlpha" operator="arithmetic" k2="-1" k3="1"/>
<feColorMatrix type="matrix" values="0 0 0 0 0 0 0 0 0 0 0 0 0 0 0 0 0 0 0.25 0"/>
<feBlend mode="normal" in2="shape" result="effect1_innerShadow_1_9248"/>
</filter>
<linearGradient id="paint0_linear_1_9248" x1="16.2" y1="-1.19209e-07" x2="64.4192" y2="80.5311" gradientUnits="userSpaceOnUse">
<stop stop-color="#0886E3"/>
<stop offset="1" stop-color="#C1E1F6"/>
</linearGradient>
</defs>
</svg>
