<svg width="82" height="80" viewBox="0 0 82 80" fill="none" xmlns="http://www.w3.org/2000/svg">
<g filter="url(#filter0_i_1_9263)">
<rect width="82" height="80" rx="20" fill="url(#paint0_linear_1_9263)"/>
<g clip-path="url(#clip0_1_9263)">
<path opacity="0.2" fill-rule="evenodd" clip-rule="evenodd" d="M46.0499 22.4H43.1999C40.6723 22.4004 38.2164 23.2403 36.218 24.7878C34.2196 26.3354 32.7918 28.503 32.159 30.95H31.7999C28.7764 30.95 25.8768 32.1511 23.7389 34.289C21.601 36.4269 20.3999 39.3266 20.3999 42.35C20.3999 45.3735 21.601 48.2731 23.7389 50.411C25.8768 52.549 28.7764 53.75 31.7999 53.75H54.5999C57.403 53.7541 60.1093 52.7253 62.2019 50.8601C64.2944 48.995 65.6264 46.4243 65.9434 43.6392C66.2603 40.854 65.5401 38.0498 63.9202 35.7621C62.3003 33.4744 59.8944 31.8638 57.162 31.2379C56.5815 28.7256 55.1669 26.4841 53.1488 24.8791C51.1308 23.2741 48.6284 22.4002 46.0499 22.4Z" fill="#F8F8F8"/>
<path fill-rule="evenodd" clip-rule="evenodd" d="M40.3499 19.55H37.4999C34.9724 19.5504 32.5165 20.3903 30.5181 21.9379C28.5197 23.4854 27.0919 25.653 26.459 28.1H26.0999C23.0765 28.1 20.1768 29.3011 18.0389 31.439C15.901 33.5769 14.7 36.4766 14.7 39.5C14.7 42.5235 15.901 45.4232 18.0389 47.5611C20.1768 49.699 23.0765 50.9001 26.0999 50.9001H48.8999C51.703 50.9041 54.4094 49.8753 56.5019 48.0102C58.5944 46.145 59.9264 43.5743 60.2434 40.7892C60.5604 38.0041 59.8401 35.1998 58.2203 32.9121C56.6004 30.6245 54.1944 29.0138 51.4621 28.3879C50.8816 25.8756 49.4669 23.6341 47.4489 22.0291C45.4308 20.4241 42.9284 19.5502 40.3499 19.55ZM28.6678 30.95L29.2178 28.8125C29.6928 26.9771 30.7639 25.3514 32.2629 24.1908C33.762 23.0301 35.6041 22.4002 37.4999 22.4H40.3499C44.3542 22.4 47.7998 25.1788 48.6833 29.0263L49.0823 30.7648L50.8208 31.1666C52.8644 31.6419 54.6621 32.8517 55.8717 34.566C57.0814 36.2803 57.6188 38.3794 57.3816 40.4641C57.1444 42.5487 56.1493 44.4735 54.5854 45.8722C53.0215 47.271 50.9981 48.046 48.8999 48.0501H26.0999C23.8323 48.0501 21.6576 47.1493 20.0542 45.5458C18.4508 43.9424 17.55 41.7677 17.55 39.5C17.55 37.2324 18.4508 35.0577 20.0542 33.4543C21.6576 31.8509 23.8323 30.95 26.0999 30.95H28.6678Z" fill="#F8F8F8"/>
<path d="M40.35 58.0251C40.35 58.403 40.1999 58.7655 39.9326 59.0327C39.6654 59.3 39.3029 59.4501 38.925 59.4501C38.5471 59.4501 38.1846 59.3 37.9174 59.0327C37.6501 58.7655 37.5 58.403 37.5 58.0251V36.6501C37.5 36.2722 37.6501 35.9097 37.9174 35.6425C38.1846 35.3752 38.5471 35.2251 38.925 35.2251C39.3029 35.2251 39.6654 35.3752 39.9326 35.6425C40.1999 35.9097 40.35 36.2722 40.35 36.6501V58.0251Z" fill="#F8F8F8"/>
<path d="M32.6891 43.4615C32.3926 43.6766 32.0246 43.7692 31.6616 43.7202C31.2986 43.6712 30.9685 43.4842 30.7396 43.1982C30.5108 42.9122 30.4009 42.549 30.4328 42.1841C30.4646 41.8192 30.6358 41.4805 30.9107 41.2385L38.0357 35.5385C38.3322 35.3234 38.7001 35.2308 39.0631 35.2798C39.4261 35.3288 39.7563 35.5158 39.9852 35.8018C40.214 36.0878 40.3239 36.451 40.292 36.8159C40.2602 37.1808 40.089 37.5194 39.8141 37.7615L32.6891 43.4615Z" fill="#F8F8F8"/>
<path d="M46.9392 41.2386C47.2141 41.4806 47.3853 41.8193 47.4171 42.1842C47.449 42.5491 47.3391 42.9123 47.1102 43.1983C46.8814 43.4843 46.5512 43.6713 46.1882 43.7203C45.8252 43.7693 45.4573 43.6767 45.1608 43.4616L38.0358 37.7616C37.8797 37.6484 37.7483 37.5047 37.6494 37.3392C37.5504 37.1737 37.4861 36.9899 37.4603 36.7988C37.4345 36.6078 37.4478 36.4135 37.4992 36.2277C37.5507 36.0419 37.6393 35.8685 37.7598 35.7179C37.8802 35.5674 38.0299 35.4428 38.1999 35.3518C38.3699 35.2608 38.5565 35.2053 38.7486 35.1885C38.9407 35.1717 39.1341 35.1941 39.3173 35.2543C39.5004 35.3145 39.6695 35.4112 39.8142 35.5386L46.9392 41.2386Z" fill="#F8F8F8"/>
</g>
</g>
<defs>
<filter id="filter0_i_1_9263" x="-2" y="-4" width="84" height="84" filterUnits="userSpaceOnUse" color-interpolation-filters="sRGB">
<feFlood flood-opacity="0" result="BackgroundImageFix"/>
<feBlend mode="normal" in="SourceGraphic" in2="BackgroundImageFix" result="shape"/>
<feColorMatrix in="SourceAlpha" type="matrix" values="0 0 0 0 0 0 0 0 0 0 0 0 0 0 0 0 0 0 127 0" result="hardAlpha"/>
<feOffset dx="-2" dy="-4"/>
<feGaussianBlur stdDeviation="2"/>
<feComposite in2="hardAlpha" operator="arithmetic" k2="-1" k3="1"/>
<feColorMatrix type="matrix" values="0 0 0 0 0 0 0 0 0 0 0 0 0 0 0 0 0 0 0.25 0"/>
<feBlend mode="normal" in2="shape" result="effect1_innerShadow_1_9263"/>
</filter>
<linearGradient id="paint0_linear_1_9263" x1="16.4" y1="-1.19209e-07" x2="64.3379" y2="81.0496" gradientUnits="userSpaceOnUse">
<stop stop-color="#0886E3"/>
<stop offset="1" stop-color="#A3D1EB"/>
</linearGradient>
<clipPath id="clip0_1_9263">
<rect width="57" height="57" fill="white" transform="translate(9 11)"/>
</clipPath>
</defs>
</svg>
