<svg width="257" height="115" viewBox="0 0 257 115" fill="none" xmlns="http://www.w3.org/2000/svg">
<path d="M149.691 41.146V49.451H147.935V41.146H149.691Z" fill="#07547D"/>
<path d="M156.101 43.5345C156.069 43.2074 155.93 42.9533 155.684 42.7722C155.437 42.591 155.103 42.5005 154.681 42.5005C154.395 42.5005 154.153 42.541 153.955 42.6221C153.758 42.7005 153.606 42.81 153.501 42.9506C153.398 43.0912 153.347 43.2507 153.347 43.4291C153.341 43.5778 153.372 43.7075 153.44 43.8184C153.51 43.9292 153.606 44.0252 153.728 44.1063C153.85 44.1847 153.99 44.2536 154.15 44.3131C154.309 44.3699 154.48 44.4186 154.661 44.4591L155.408 44.6375C155.77 44.7186 156.103 44.8268 156.406 44.9619C156.709 45.0971 156.971 45.2634 157.193 45.4607C157.415 45.6581 157.586 45.8906 157.708 46.1582C157.833 46.4259 157.896 46.7327 157.899 47.0787C157.896 47.587 157.766 48.0276 157.509 48.4007C157.255 48.7711 156.887 49.059 156.406 49.2645C155.927 49.4672 155.349 49.5686 154.673 49.5686C154.002 49.5686 153.418 49.4659 152.921 49.2604C152.426 49.055 152.039 48.7508 151.76 48.348C151.484 47.9425 151.339 47.441 151.326 46.8435H153.026C153.045 47.122 153.125 47.3545 153.265 47.541C153.409 47.7249 153.599 47.8641 153.837 47.9587C154.078 48.0506 154.35 48.0966 154.653 48.0966C154.951 48.0966 155.209 48.0533 155.428 47.9668C155.65 47.8803 155.821 47.76 155.943 47.6059C156.065 47.4518 156.126 47.2747 156.126 47.0747C156.126 46.8881 156.07 46.7313 155.959 46.6043C155.851 46.4772 155.692 46.3691 155.481 46.2799C155.272 46.1907 155.017 46.1096 154.714 46.0366L153.809 45.8095C153.108 45.6392 152.555 45.3729 152.15 45.0106C151.744 44.6483 151.542 44.1604 151.545 43.5467C151.542 43.0439 151.676 42.6045 151.947 42.2288C152.22 41.853 152.595 41.5597 153.071 41.3488C153.547 41.1379 154.088 41.0325 154.694 41.0325C155.31 41.0325 155.849 41.1379 156.308 41.3488C156.771 41.5597 157.131 41.853 157.388 42.2288C157.645 42.6045 157.777 43.0398 157.785 43.5345H156.101Z" fill="#07547D"/>
<path d="M167.173 45.2985C167.173 46.2042 167.002 46.9747 166.658 47.61C166.317 48.2453 165.852 48.7305 165.262 49.0658C164.676 49.3983 164.016 49.5646 163.282 49.5646C162.544 49.5646 161.881 49.3969 161.294 49.0617C160.707 48.7265 160.244 48.2412 159.903 47.6059C159.562 46.9706 159.392 46.2015 159.392 45.2985C159.392 44.3929 159.562 43.6224 159.903 42.9871C160.244 42.3518 160.707 41.8679 161.294 41.5353C161.881 41.2001 162.544 41.0325 163.282 41.0325C164.016 41.0325 164.676 41.2001 165.262 41.5353C165.852 41.8679 166.317 42.3518 166.658 42.9871C167.002 43.6224 167.173 44.3929 167.173 45.2985ZM165.392 45.2985C165.392 44.7119 165.304 44.2171 165.129 43.8143C164.955 43.4115 164.711 43.106 164.394 42.8979C164.078 42.6897 163.707 42.5856 163.282 42.5856C162.858 42.5856 162.487 42.6897 162.171 42.8979C161.854 43.106 161.608 43.4115 161.432 43.8143C161.259 44.2171 161.173 44.7119 161.173 45.2985C161.173 45.8852 161.259 46.3799 161.432 46.7827C161.608 47.1855 161.854 47.491 162.171 47.6992C162.487 47.9073 162.858 48.0114 163.282 48.0114C163.707 48.0114 164.078 47.9073 164.394 47.6992C164.711 47.491 164.955 47.1855 165.129 46.7827C165.304 46.3799 165.392 45.8852 165.392 45.2985Z" fill="#07547D"/>
<path d="M174.991 41.0325C175.418 41.0325 175.83 41.1041 176.224 41.2474C176.622 41.3907 176.976 41.6191 177.287 41.9327C177.601 42.2463 177.849 42.6627 178.03 43.1817C178.214 43.6981 178.307 44.332 178.31 45.0836C178.31 45.7892 178.23 46.4191 178.071 46.9733C177.914 47.5248 177.688 47.9939 177.393 48.3804C177.098 48.767 176.742 49.0617 176.326 49.2645C175.909 49.4645 175.444 49.5646 174.93 49.5646C174.376 49.5646 173.886 49.4578 173.461 49.2442C173.037 49.0279 172.695 48.7346 172.435 48.3642C172.178 47.9912 172.022 47.5721 171.968 47.1071H173.701C173.768 47.4099 173.91 47.6451 174.127 47.8127C174.343 47.9776 174.611 48.0601 174.93 48.0601C175.471 48.0601 175.882 47.8249 176.164 47.3545C176.445 46.8814 176.587 46.2339 176.59 45.4121H176.533C176.408 45.6554 176.241 45.8649 176.03 46.0406C175.819 46.2136 175.577 46.3475 175.303 46.4421C175.033 46.5367 174.745 46.584 174.439 46.584C173.95 46.584 173.513 46.4691 173.129 46.2393C172.745 46.0095 172.442 45.6932 172.22 45.2904C171.998 44.8876 171.887 44.428 171.887 43.9117C171.884 43.3547 172.013 42.8587 172.273 42.4234C172.532 41.9882 172.895 41.6475 173.36 41.4015C173.828 41.1528 174.372 41.0298 174.991 41.0325ZM175.003 42.4112C174.73 42.4112 174.487 42.4761 174.273 42.6059C174.062 42.7357 173.894 42.91 173.77 43.129C173.648 43.348 173.589 43.5927 173.591 43.863C173.591 44.136 173.651 44.3821 173.77 44.601C173.892 44.8173 174.057 44.9903 174.265 45.1201C174.476 45.2472 174.717 45.3107 174.987 45.3107C175.19 45.3107 175.378 45.2728 175.551 45.1971C175.724 45.1214 175.874 45.0174 176.001 44.8849C176.131 44.7497 176.233 44.5943 176.306 44.4186C176.379 44.2428 176.415 44.0563 176.415 43.8589C176.412 43.5967 176.35 43.3561 176.229 43.1371C176.107 42.9181 175.939 42.7424 175.725 42.61C175.512 42.4775 175.271 42.4112 175.003 42.4112Z" fill="#07547D"/>
<path d="M183.242 49.6335C182.544 49.6308 181.944 49.4591 181.441 49.1185C180.94 48.7779 180.555 48.2845 180.284 47.6384C180.017 46.9922 179.884 46.215 179.887 45.3066C179.887 44.401 180.021 43.6291 180.288 42.9911C180.559 42.3531 180.944 41.8679 181.445 41.5353C181.948 41.2001 182.547 41.0325 183.242 41.0325C183.937 41.0325 184.535 41.2001 185.036 41.5353C185.539 41.8706 185.925 42.3572 186.196 42.9952C186.466 43.6305 186.6 44.401 186.598 45.3066C186.598 46.2177 186.462 46.9963 186.192 47.6424C185.924 48.2885 185.54 48.7819 185.04 49.1225C184.539 49.4632 183.94 49.6335 183.242 49.6335ZM183.242 48.1777C183.718 48.1777 184.098 47.9384 184.382 47.4599C184.666 46.9814 184.807 46.2637 184.804 45.3066C184.804 44.6767 184.739 44.1523 184.61 43.7332C184.482 43.3142 184.301 42.9992 184.066 42.7884C183.833 42.5775 183.559 42.4721 183.242 42.4721C182.769 42.4721 182.39 42.7086 182.106 43.1817C181.822 43.6548 181.679 44.3631 181.676 45.3066C181.676 45.9446 181.74 46.4772 181.867 46.9044C181.997 47.3288 182.179 47.6478 182.414 47.8614C182.65 48.0723 182.926 48.1777 183.242 48.1777Z" fill="#07547D"/>
<path d="M191.565 49.6335C190.868 49.6308 190.267 49.4591 189.764 49.1185C189.264 48.7779 188.878 48.2845 188.608 47.6384C188.34 46.9922 188.207 46.215 188.21 45.3066C188.21 44.401 188.344 43.6291 188.612 42.9911C188.882 42.3531 189.268 41.8679 189.768 41.5353C190.271 41.2001 190.87 41.0325 191.565 41.0325C192.261 41.0325 192.858 41.2001 193.359 41.5353C193.862 41.8706 194.249 42.3572 194.519 42.9952C194.79 43.6305 194.923 44.401 194.921 45.3066C194.921 46.2177 194.786 46.9963 194.515 47.6424C194.247 48.2885 193.863 48.7819 193.363 49.1225C192.862 49.4632 192.263 49.6335 191.565 49.6335ZM191.565 48.1777C192.041 48.1777 192.421 47.9384 192.705 47.4599C192.989 46.9814 193.13 46.2637 193.127 45.3066C193.127 44.6767 193.063 44.1523 192.933 43.7332C192.806 43.3142 192.624 42.9992 192.389 42.7884C192.156 42.5775 191.882 42.4721 191.565 42.4721C191.092 42.4721 190.713 42.7086 190.429 43.1817C190.145 43.6548 190.002 44.3631 189.999 45.3066C189.999 45.9446 190.063 46.4772 190.19 46.9044C190.32 47.3288 190.502 47.6478 190.738 47.8614C190.973 48.0723 191.249 48.1777 191.565 48.1777Z" fill="#07547D"/>
<path d="M200.246 41.146V49.451H198.489V42.8127H198.44L196.537 44.0049V42.4477L198.594 41.146H200.246Z" fill="#07547D"/>
<path d="M203.704 48.4859C203.436 48.4859 203.206 48.3913 203.014 48.202C202.825 48.0128 202.73 47.783 202.73 47.5126C202.73 47.2477 202.825 47.0206 203.014 46.8314C203.206 46.6421 203.436 46.5475 203.704 46.5475C203.964 46.5475 204.191 46.6421 204.386 46.8314C204.58 47.0206 204.678 47.2477 204.678 47.5126C204.678 47.6911 204.632 47.8546 204.54 48.0033C204.451 48.1493 204.333 48.2669 204.187 48.3561C204.041 48.4426 203.88 48.4859 203.704 48.4859ZM203.704 44.4104C203.436 44.4104 203.206 44.3158 203.014 44.1266C202.825 43.9373 202.73 43.7075 202.73 43.4372C202.73 43.1723 202.825 42.9465 203.014 42.76C203.206 42.5708 203.436 42.4761 203.704 42.4761C203.964 42.4761 204.191 42.5708 204.386 42.76C204.58 42.9465 204.678 43.1723 204.678 43.4372C204.678 43.6183 204.632 43.7832 204.54 43.9319C204.451 44.0779 204.333 44.1942 204.187 44.2807C204.041 44.3672 203.88 44.4104 203.704 44.4104Z" fill="#07547D"/>
<path d="M206.538 49.451V48.1858L209.495 45.4486C209.747 45.2053 209.958 44.9863 210.128 44.7916C210.301 44.597 210.433 44.4064 210.522 44.2198C210.611 44.0306 210.656 43.8265 210.656 43.6075C210.656 43.3642 210.6 43.1547 210.489 42.979C210.379 42.8005 210.227 42.664 210.035 42.5694C209.843 42.4721 209.625 42.4234 209.382 42.4234C209.128 42.4234 208.906 42.4748 208.716 42.5775C208.527 42.6802 208.381 42.8276 208.278 43.0195C208.175 43.2115 208.124 43.4399 208.124 43.7048H206.456C206.456 43.1615 206.58 42.6897 206.826 42.2896C207.072 41.8895 207.417 41.5799 207.86 41.361C208.304 41.142 208.815 41.0325 209.394 41.0325C209.989 41.0325 210.507 41.1379 210.948 41.3488C211.392 41.557 211.736 41.8462 211.983 42.2166C212.229 42.587 212.352 43.0114 212.352 43.4899C212.352 43.8035 212.29 44.1131 212.165 44.4186C212.043 44.724 211.826 45.0633 211.512 45.4364C211.198 45.8068 210.756 46.2515 210.185 46.7705L208.972 47.9587V48.0155H212.461V49.451H206.538Z" fill="#07547D"/>
<path d="M217.449 49.6335C216.751 49.6308 216.151 49.4591 215.648 49.1185C215.147 48.7779 214.762 48.2845 214.492 47.6384C214.224 46.9922 214.091 46.215 214.094 45.3066C214.094 44.401 214.228 43.6291 214.496 42.9911C214.766 42.3531 215.152 41.8679 215.652 41.5353C216.155 41.2001 216.754 41.0325 217.449 41.0325C218.145 41.0325 218.742 41.2001 219.243 41.5353C219.746 41.8706 220.133 42.3572 220.403 42.9952C220.674 43.6305 220.807 44.401 220.805 45.3066C220.805 46.2177 220.67 46.9963 220.399 47.6424C220.131 48.2885 219.747 48.7819 219.247 49.1225C218.746 49.4632 218.147 49.6335 217.449 49.6335ZM217.449 48.1777C217.925 48.1777 218.305 47.9384 218.589 47.4599C218.873 46.9814 219.014 46.2637 219.011 45.3066C219.011 44.6767 218.947 44.1523 218.817 43.7332C218.69 43.3142 218.508 42.9992 218.273 42.7884C218.04 42.5775 217.766 42.4721 217.449 42.4721C216.976 42.4721 216.597 42.7086 216.313 43.1817C216.029 43.6548 215.886 44.3631 215.883 45.3066C215.883 45.9446 215.947 46.4772 216.074 46.9044C216.204 47.3288 216.386 47.6478 216.622 47.8614C216.857 48.0723 217.133 48.1777 217.449 48.1777Z" fill="#07547D"/>
<path d="M226.13 41.146V49.451H224.373V42.8127H224.324L222.421 44.0049V42.4477L224.478 41.146H226.13Z" fill="#07547D"/>
<path d="M231.596 49.5646C231.023 49.5646 230.512 49.4591 230.063 49.2483C229.616 49.0374 229.262 48.7468 229 48.3764C228.737 48.006 228.601 47.5816 228.59 47.1031H230.294C230.313 47.4248 230.448 47.6857 230.7 47.8857C230.951 48.0858 231.25 48.1858 231.596 48.1858C231.872 48.1858 232.116 48.125 232.327 48.0033C232.54 47.879 232.707 47.7073 232.826 47.4883C232.947 47.2666 233.008 47.0125 233.008 46.7259C233.008 46.434 232.946 46.1771 232.822 45.9555C232.7 45.7338 232.531 45.5608 232.315 45.4364C232.098 45.312 231.851 45.2485 231.572 45.2458C231.329 45.2458 231.092 45.2958 230.862 45.3958C230.635 45.4959 230.458 45.6324 230.33 45.8054L228.768 45.5256L229.162 41.146H234.242V42.5816H230.61L230.395 44.6619H230.444C230.59 44.4564 230.811 44.2861 231.105 44.1509C231.4 44.0157 231.73 43.9482 232.095 43.9482C232.596 43.9482 233.042 44.0658 233.434 44.301C233.827 44.5362 234.136 44.8592 234.363 45.2701C234.591 45.6784 234.703 46.1488 234.7 46.6813C234.703 47.2409 234.573 47.7384 234.311 48.1736C234.051 48.6062 233.687 48.9468 233.219 49.1955C232.754 49.4415 232.213 49.5646 231.596 49.5646Z" fill="#07547D"/>
<path d="M149.691 54.7614V63.0664H147.935V54.7614H149.691Z" fill="#07547D"/>
<path d="M156.101 57.1499C156.069 56.8228 155.93 56.5686 155.684 56.3875C155.437 56.2064 155.103 56.1158 154.681 56.1158C154.395 56.1158 154.153 56.1564 153.955 56.2375C153.758 56.3159 153.606 56.4254 153.501 56.5659C153.398 56.7065 153.347 56.866 153.347 57.0445C153.341 57.1931 153.372 57.3229 153.44 57.4338C153.51 57.5446 153.606 57.6406 153.728 57.7217C153.85 57.8001 153.99 57.869 154.15 57.9285C154.309 57.9853 154.48 58.0339 154.661 58.0745L155.408 58.2529C155.77 58.334 156.103 58.4421 156.406 58.5773C156.709 58.7125 156.971 58.8787 157.193 59.0761C157.415 59.2734 157.586 59.5059 157.708 59.7736C157.833 60.0412 157.896 60.3481 157.899 60.6941C157.896 61.2023 157.766 61.643 157.509 62.0161C157.255 62.3865 156.887 62.6744 156.406 62.8798C155.927 63.0826 155.349 63.184 154.673 63.184C154.002 63.184 153.418 63.0812 152.921 62.8758C152.426 62.6703 152.039 62.3662 151.76 61.9634C151.484 61.5578 151.339 61.0564 151.326 60.4589H153.026C153.045 60.7374 153.125 60.9699 153.265 61.1564C153.409 61.3402 153.599 61.4794 153.837 61.5741C154.078 61.666 154.35 61.7119 154.653 61.7119C154.951 61.7119 155.209 61.6687 155.428 61.5822C155.65 61.4957 155.821 61.3754 155.943 61.2213C156.065 61.0672 156.126 60.8901 156.126 60.69C156.126 60.5035 156.07 60.3467 155.959 60.2196C155.851 60.0926 155.692 59.9844 155.481 59.8952C155.272 59.806 155.017 59.7249 154.714 59.6519L153.809 59.4248C153.108 59.2545 152.555 58.9882 152.15 58.626C151.744 58.2637 151.542 57.7757 151.545 57.1621C151.542 56.6592 151.676 56.2199 151.947 55.8441C152.22 55.4683 152.595 55.175 153.071 54.9642C153.547 54.7533 154.088 54.6479 154.694 54.6479C155.31 54.6479 155.849 54.7533 156.308 54.9642C156.771 55.175 157.131 55.4683 157.388 55.8441C157.645 56.2199 157.777 56.6552 157.785 57.1499H156.101Z" fill="#07547D"/>
<path d="M167.173 58.9139C167.173 59.8195 167.002 60.59 166.658 61.2253C166.317 61.8606 165.852 62.3459 165.262 62.6811C164.676 63.0137 164.016 63.1799 163.282 63.1799C162.544 63.1799 161.881 63.0123 161.294 62.6771C160.707 62.3418 160.244 61.8566 159.903 61.2213C159.562 60.586 159.392 59.8168 159.392 58.9139C159.392 58.0082 159.562 57.2378 159.903 56.6024C160.244 55.9671 160.707 55.4832 161.294 55.1507C161.881 54.8155 162.544 54.6479 163.282 54.6479C164.016 54.6479 164.676 54.8155 165.262 55.1507C165.852 55.4832 166.317 55.9671 166.658 56.6024C167.002 57.2378 167.173 58.0082 167.173 58.9139ZM165.392 58.9139C165.392 58.3272 165.304 57.8325 165.129 57.4297C164.955 57.0269 164.711 56.7214 164.394 56.5132C164.078 56.3051 163.707 56.201 163.282 56.201C162.858 56.201 162.487 56.3051 162.171 56.5132C161.854 56.7214 161.608 57.0269 161.432 57.4297C161.259 57.8325 161.173 58.3272 161.173 58.9139C161.173 59.5005 161.259 59.9953 161.432 60.3981C161.608 60.8009 161.854 61.1064 162.171 61.3145C162.487 61.5227 162.858 61.6268 163.282 61.6268C163.707 61.6268 164.078 61.5227 164.394 61.3145C164.711 61.1064 164.955 60.8009 165.129 60.3981C165.304 59.9953 165.392 59.5005 165.392 58.9139Z" fill="#07547D"/>
<path d="M171.985 63.0664V61.8012L174.942 59.0639C175.194 58.8206 175.405 58.6016 175.575 58.407C175.748 58.2123 175.88 58.0218 175.969 57.8352C176.058 57.646 176.103 57.4419 176.103 57.2229C176.103 56.9796 176.047 56.7701 175.936 56.5943C175.826 56.4159 175.674 56.2794 175.482 56.1848C175.29 56.0874 175.072 56.0388 174.829 56.0388C174.574 56.0388 174.353 56.0901 174.163 56.1929C173.974 56.2956 173.828 56.4429 173.725 56.6349C173.622 56.8268 173.571 57.0553 173.571 57.3202H171.903C171.903 56.7768 172.026 56.3051 172.273 55.905C172.519 55.5048 172.864 55.1953 173.307 54.9763C173.751 54.7573 174.262 54.6479 174.841 54.6479C175.436 54.6479 175.954 54.7533 176.395 54.9642C176.838 55.1723 177.183 55.4616 177.43 55.832C177.676 56.2023 177.799 56.6268 177.799 57.1053C177.799 57.4189 177.737 57.7284 177.612 58.0339C177.49 58.3394 177.273 58.6787 176.959 59.0518C176.645 59.4221 176.203 59.8668 175.632 60.3859L174.419 61.5741V61.6308H177.908V63.0664H171.985Z" fill="#07547D"/>
<path d="M182.896 63.2489C182.198 63.2461 181.598 63.0745 181.095 62.7338C180.594 62.3932 180.209 61.8998 179.939 61.2537C179.671 60.6076 179.538 59.8304 179.541 58.922C179.541 58.0163 179.675 57.2445 179.943 56.6065C180.213 55.9685 180.599 55.4832 181.099 55.1507C181.602 54.8155 182.201 54.6479 182.896 54.6479C183.591 54.6479 184.189 54.8155 184.69 55.1507C185.193 55.4859 185.58 55.9725 185.85 56.6106C186.121 57.2459 186.254 58.0163 186.252 58.922C186.252 59.8331 186.116 60.6116 185.846 61.2578C185.578 61.9039 185.194 62.3973 184.694 62.7379C184.193 63.0785 183.594 63.2489 182.896 63.2489ZM182.896 61.793C183.372 61.793 183.752 61.5538 184.036 61.0753C184.32 60.5968 184.461 59.879 184.458 58.922C184.458 58.2921 184.393 57.7676 184.264 57.3486C184.137 56.9296 183.955 56.6146 183.72 56.4037C183.487 56.1929 183.213 56.0874 182.896 56.0874C182.423 56.0874 182.044 56.324 181.76 56.7971C181.476 57.2702 181.333 57.9785 181.33 58.922C181.33 59.56 181.394 60.0926 181.521 60.5197C181.651 60.9442 181.833 61.2632 182.069 61.4767C182.304 61.6876 182.58 61.793 182.896 61.793Z" fill="#07547D"/>
<path d="M191.219 63.2489C190.522 63.2461 189.921 63.0745 189.418 62.7338C188.918 62.3932 188.532 61.8998 188.262 61.2537C187.994 60.6076 187.861 59.8304 187.864 58.922C187.864 58.0163 187.998 57.2445 188.266 56.6065C188.536 55.9685 188.922 55.4832 189.422 55.1507C189.925 54.8155 190.524 54.6479 191.219 54.6479C191.915 54.6479 192.512 54.8155 193.013 55.1507C193.516 55.4859 193.903 55.9725 194.173 56.6106C194.444 57.2459 194.578 58.0163 194.575 58.922C194.575 59.8331 194.44 60.6116 194.169 61.2578C193.901 61.9039 193.517 62.3973 193.017 62.7379C192.516 63.0785 191.917 63.2489 191.219 63.2489ZM191.219 61.793C191.696 61.793 192.076 61.5538 192.36 61.0753C192.644 60.5968 192.784 59.879 192.782 58.922C192.782 58.2921 192.717 57.7676 192.587 57.3486C192.46 56.9296 192.278 56.6146 192.043 56.4037C191.81 56.1929 191.536 56.0874 191.219 56.0874C190.746 56.0874 190.367 56.324 190.083 56.7971C189.799 57.2702 189.656 57.9785 189.653 58.922C189.653 59.56 189.717 60.0926 189.844 60.5197C189.974 60.9442 190.156 61.2632 190.392 61.4767C190.627 61.6876 190.903 61.793 191.219 61.793Z" fill="#07547D"/>
<path d="M199.543 63.2489C198.845 63.2461 198.244 63.0745 197.741 62.7338C197.241 62.3932 196.855 61.8998 196.585 61.2537C196.317 60.6076 196.185 59.8304 196.187 58.922C196.187 58.0163 196.321 57.2445 196.589 56.6065C196.859 55.9685 197.245 55.4832 197.745 55.1507C198.248 54.8155 198.847 54.6479 199.543 54.6479C200.238 54.6479 200.836 54.8155 201.336 55.1507C201.839 55.4859 202.226 55.9725 202.496 56.6106C202.767 57.2459 202.901 58.0163 202.898 58.922C202.898 59.8331 202.763 60.6116 202.492 61.2578C202.225 61.9039 201.84 62.3973 201.34 62.7379C200.84 63.0785 200.241 63.2489 199.543 63.2489ZM199.543 61.793C200.019 61.793 200.399 61.5538 200.683 61.0753C200.967 60.5968 201.107 59.879 201.105 58.922C201.105 58.2921 201.04 57.7676 200.91 57.3486C200.783 56.9296 200.602 56.6146 200.366 56.4037C200.134 56.1929 199.859 56.0874 199.543 56.0874C199.069 56.0874 198.691 56.324 198.407 56.7971C198.123 57.2702 197.979 57.9785 197.977 58.922C197.977 59.56 198.04 60.0926 198.167 60.5197C198.297 60.9442 198.48 61.2632 198.715 61.4767C198.95 61.6876 199.226 61.793 199.543 61.793Z" fill="#07547D"/>
<path d="M207.866 63.2489C207.168 63.2461 206.567 63.0745 206.064 62.7338C205.564 62.3932 205.179 61.8998 204.908 61.2537C204.64 60.6076 204.508 59.8304 204.51 58.922C204.51 58.0163 204.644 57.2445 204.912 56.6065C205.183 55.9685 205.568 55.4832 206.068 55.1507C206.572 54.8155 207.171 54.6479 207.866 54.6479C208.561 54.6479 209.159 54.8155 209.659 55.1507C210.162 55.4859 210.549 55.9725 210.82 56.6106C211.09 57.2459 211.224 58.0163 211.221 58.922C211.221 59.8331 211.086 60.6116 210.816 61.2578C210.548 61.9039 210.164 62.3973 209.663 62.7379C209.163 63.0785 208.564 63.2489 207.866 63.2489ZM207.866 61.793C208.342 61.793 208.722 61.5538 209.006 61.0753C209.29 60.5968 209.431 59.879 209.428 58.922C209.428 58.2921 209.363 57.7676 209.233 57.3486C209.106 56.9296 208.925 56.6146 208.689 56.4037C208.457 56.1929 208.182 56.0874 207.866 56.0874C207.392 56.0874 207.014 56.324 206.73 56.7971C206.446 57.2702 206.302 57.9785 206.3 58.922C206.3 59.56 206.363 60.0926 206.49 60.5197C206.62 60.9442 206.803 61.2632 207.038 61.4767C207.273 61.6876 207.549 61.793 207.866 61.793Z" fill="#07547D"/>
<path d="M216.83 58.2286V59.5992H213.04V58.2286H216.83Z" fill="#07547D"/>
<path d="M222.359 54.7614V63.0664H220.602V56.4281H220.553L218.65 57.6203V56.0631L220.707 54.7614H222.359Z" fill="#07547D"/>
<path d="M225.817 62.1012C225.549 62.1012 225.319 62.0066 225.127 61.8174C224.938 61.6281 224.843 61.3983 224.843 61.128C224.843 60.8631 224.938 60.636 225.127 60.4467C225.319 60.2575 225.549 60.1629 225.817 60.1629C226.077 60.1629 226.304 60.2575 226.499 60.4467C226.694 60.636 226.791 60.8631 226.791 61.128C226.791 61.3064 226.745 61.47 226.653 61.6187C226.564 61.7647 226.446 61.8823 226.3 61.9715C226.154 62.058 225.993 62.1012 225.817 62.1012ZM225.817 58.0258C225.549 58.0258 225.319 57.9312 225.127 57.7419C224.938 57.5527 224.843 57.3229 224.843 57.0526C224.843 56.7876 224.938 56.5619 225.127 56.3754C225.319 56.1861 225.549 56.0915 225.817 56.0915C226.077 56.0915 226.304 56.1861 226.499 56.3754C226.694 56.5619 226.791 56.7876 226.791 57.0526C226.791 57.2337 226.745 57.3986 226.653 57.5473C226.564 57.6933 226.446 57.8095 226.3 57.896C226.154 57.9825 225.993 58.0258 225.817 58.0258Z" fill="#07547D"/>
<path d="M228.651 63.0664V61.8012L231.609 59.0639C231.86 58.8206 232.071 58.6016 232.241 58.407C232.415 58.2123 232.546 58.0218 232.635 57.8352C232.724 57.646 232.769 57.4419 232.769 57.2229C232.769 56.9796 232.714 56.7701 232.603 56.5943C232.492 56.4159 232.34 56.2794 232.148 56.1848C231.956 56.0874 231.738 56.0388 231.495 56.0388C231.241 56.0388 231.019 56.0901 230.83 56.1929C230.64 56.2956 230.494 56.4429 230.391 56.6349C230.289 56.8268 230.237 57.0553 230.237 57.3202H228.57C228.57 56.7768 228.693 56.3051 228.939 55.905C229.185 55.5048 229.53 55.1953 229.973 54.9763C230.417 54.7573 230.928 54.6479 231.507 54.6479C232.102 54.6479 232.62 54.7533 233.061 54.9642C233.505 55.1723 233.85 55.4616 234.096 55.832C234.342 56.2023 234.465 56.6268 234.465 57.1053C234.465 57.4189 234.403 57.7284 234.278 58.0339C234.157 58.3394 233.939 58.6787 233.625 59.0518C233.311 59.4221 232.869 59.8668 232.298 60.3859L231.085 61.5741V61.6308H234.574V63.0664H228.651Z" fill="#07547D"/>
<path d="M239.562 63.2489C238.865 63.2461 238.264 63.0745 237.761 62.7338C237.261 62.3932 236.875 61.8998 236.605 61.2537C236.337 60.6076 236.204 59.8304 236.207 58.922C236.207 58.0163 236.341 57.2445 236.609 56.6065C236.879 55.9685 237.265 55.4832 237.765 55.1507C238.268 54.8155 238.867 54.6479 239.562 54.6479C240.258 54.6479 240.855 54.8155 241.356 55.1507C241.859 55.4859 242.246 55.9725 242.516 56.6106C242.787 57.2459 242.921 58.0163 242.918 58.922C242.918 59.8331 242.783 60.6116 242.512 61.2578C242.244 61.9039 241.86 62.3973 241.36 62.7379C240.859 63.0785 240.26 63.2489 239.562 63.2489ZM239.562 61.793C240.039 61.793 240.419 61.5538 240.703 61.0753C240.987 60.5968 241.127 59.879 241.125 58.922C241.125 58.2921 241.06 57.7676 240.93 57.3486C240.803 56.9296 240.621 56.6146 240.386 56.4037C240.154 56.1929 239.879 56.0874 239.562 56.0874C239.089 56.0874 238.71 56.324 238.426 56.7971C238.142 57.2702 237.999 57.9785 237.996 58.922C237.996 59.56 238.06 60.0926 238.187 60.5197C238.317 60.9442 238.499 61.2632 238.735 61.4767C238.97 61.6876 239.246 61.793 239.562 61.793Z" fill="#07547D"/>
<path d="M248.243 54.7614V63.0664H246.486V56.4281H246.437L244.534 57.6203V56.0631L246.591 54.7614H248.243Z" fill="#07547D"/>
<path d="M253.774 63.1799C253.15 63.1799 252.594 63.0785 252.107 62.8758C251.623 62.6703 251.243 62.3905 250.967 62.0364C250.691 61.6822 250.553 61.2807 250.553 60.832C250.553 60.4859 250.631 60.1683 250.788 59.879C250.948 59.587 251.164 59.3451 251.437 59.1531C251.711 58.9585 252.016 58.8341 252.354 58.7801V58.7233C251.911 58.6341 251.551 58.4192 251.275 58.0785C250.999 57.7352 250.861 57.3364 250.861 56.8822C250.861 56.4524 250.987 56.0699 251.239 55.7346C251.49 55.3967 251.835 55.1318 252.273 54.9398C252.714 54.7452 253.215 54.6479 253.774 54.6479C254.334 54.6479 254.833 54.7452 255.272 54.9398C255.712 55.1345 256.059 55.4008 256.31 55.7387C256.562 56.0739 256.689 56.4551 256.692 56.8822C256.689 57.3391 256.548 57.7379 256.27 58.0785C255.991 58.4192 255.634 58.6341 255.199 58.7233V58.7801C255.531 58.8341 255.833 58.9585 256.103 59.1531C256.377 59.3451 256.593 59.587 256.753 59.879C256.915 60.1683 256.997 60.4859 257 60.832C256.997 61.2807 256.858 61.6822 256.582 62.0364C256.306 62.3905 255.925 62.6703 255.438 62.8758C254.954 63.0785 254.399 63.1799 253.774 63.1799ZM253.774 61.8904C254.053 61.8904 254.296 61.8404 254.505 61.7403C254.713 61.6376 254.875 61.497 254.992 61.3186C255.111 61.1375 255.17 60.9293 255.17 60.6941C255.17 60.4535 255.109 60.2413 254.988 60.0574C254.866 59.8709 254.701 59.7249 254.493 59.6195C254.284 59.5113 254.045 59.4573 253.774 59.4573C253.507 59.4573 253.267 59.5113 253.056 59.6195C252.845 59.7249 252.679 59.8709 252.557 60.0574C252.438 60.2413 252.379 60.4535 252.379 60.6941C252.379 60.9293 252.437 61.1375 252.553 61.3186C252.669 61.497 252.833 61.6376 253.044 61.7403C253.255 61.8404 253.499 61.8904 253.774 61.8904ZM253.774 58.1799C254.007 58.1799 254.214 58.1326 254.395 58.038C254.576 57.9433 254.718 57.8122 254.821 57.6446C254.924 57.477 254.975 57.2837 254.975 57.0647C254.975 56.8485 254.924 56.6592 254.821 56.497C254.718 56.3321 254.578 56.2037 254.399 56.1118C254.221 56.0171 254.012 55.9698 253.774 55.9698C253.539 55.9698 253.331 56.0171 253.15 56.1118C252.968 56.2037 252.826 56.3321 252.724 56.497C252.624 56.6592 252.573 56.8485 252.573 57.0647C252.573 57.2837 252.625 57.477 252.728 57.6446C252.83 57.8122 252.972 57.9433 253.154 58.038C253.335 58.1326 253.542 58.1799 253.774 58.1799Z" fill="#07547D"/>
<path d="M149.691 68.3768V76.6817H147.935V68.3768H149.691Z" fill="#07547D"/>
<path d="M156.101 70.7652C156.069 70.4381 155.93 70.184 155.684 70.0029C155.437 69.8217 155.103 69.7312 154.681 69.7312C154.395 69.7312 154.153 69.7717 153.955 69.8528C153.758 69.9312 153.606 70.0407 153.501 70.1813C153.398 70.3219 153.347 70.4814 153.347 70.6598C153.341 70.8085 153.372 70.9383 153.44 71.0491C153.51 71.16 153.606 71.2559 153.728 71.337C153.85 71.4154 153.99 71.4844 154.15 71.5438C154.309 71.6006 154.48 71.6493 154.661 71.6898L155.408 71.8683C155.77 71.9494 156.103 72.0575 156.406 72.1927C156.709 72.3278 156.971 72.4941 157.193 72.6914C157.415 72.8888 157.586 73.1213 157.708 73.3889C157.833 73.6566 157.896 73.9634 157.899 74.3095C157.896 74.8177 157.766 75.2584 157.509 75.6314C157.255 76.0018 156.887 76.2897 156.406 76.4952C155.927 76.698 155.349 76.7993 154.673 76.7993C154.002 76.7993 153.418 76.6966 152.921 76.4911C152.426 76.2857 152.039 75.9815 151.76 75.5787C151.484 75.1732 151.339 74.6717 151.326 74.0743H153.026C153.045 74.3527 153.125 74.5852 153.265 74.7717C153.409 74.9556 153.599 75.0948 153.837 75.1894C154.078 75.2813 154.35 75.3273 154.653 75.3273C154.951 75.3273 155.209 75.2841 155.428 75.1975C155.65 75.111 155.821 74.9907 155.943 74.8366C156.065 74.6825 156.126 74.5055 156.126 74.3054C156.126 74.1189 156.07 73.9621 155.959 73.835C155.851 73.7079 155.692 73.5998 155.481 73.5106C155.272 73.4214 155.017 73.3403 154.714 73.2673L153.809 73.0402C153.108 72.8699 152.555 72.6036 152.15 72.2413C151.744 71.8791 151.542 71.3911 151.545 70.7774C151.542 70.2746 151.676 69.8353 151.947 69.4595C152.22 69.0837 152.595 68.7904 153.071 68.5795C153.547 68.3686 154.088 68.2632 154.694 68.2632C155.31 68.2632 155.849 68.3686 156.308 68.5795C156.771 68.7904 157.131 69.0837 157.388 69.4595C157.645 69.8353 157.777 70.2705 157.785 70.7652H156.101Z" fill="#07547D"/>
<path d="M167.173 72.5292C167.173 73.4349 167.002 74.2054 166.658 74.8407C166.317 75.476 165.852 75.9613 165.262 76.2965C164.676 76.629 164.016 76.7953 163.282 76.7953C162.544 76.7953 161.881 76.6277 161.294 76.2924C160.707 75.9572 160.244 75.4719 159.903 74.8366C159.562 74.2013 159.392 73.4322 159.392 72.5292C159.392 71.6236 159.562 70.8531 159.903 70.2178C160.244 69.5825 160.707 69.0986 161.294 68.7661C161.881 68.4308 162.544 68.2632 163.282 68.2632C164.016 68.2632 164.676 68.4308 165.262 68.7661C165.852 69.0986 166.317 69.5825 166.658 70.2178C167.002 70.8531 167.173 71.6236 167.173 72.5292ZM165.392 72.5292C165.392 71.9426 165.304 71.4479 165.129 71.0451C164.955 70.6422 164.711 70.3368 164.394 70.1286C164.078 69.9204 163.707 69.8163 163.282 69.8163C162.858 69.8163 162.487 69.9204 162.171 70.1286C161.854 70.3368 161.608 70.6422 161.432 71.0451C161.259 71.4479 161.173 71.9426 161.173 72.5292C161.173 73.1159 161.259 73.6106 161.432 74.0134C161.608 74.4162 161.854 74.7217 162.171 74.9299C162.487 75.1381 162.858 75.2422 163.282 75.2422C163.707 75.2422 164.078 75.1381 164.394 74.9299C164.711 74.7217 164.955 74.4162 165.129 74.0134C165.304 73.6106 165.392 73.1159 165.392 72.5292Z" fill="#07547D"/>
<path d="M171.985 76.6817V75.4165L174.942 72.6793C175.194 72.436 175.405 72.217 175.575 72.0223C175.748 71.8277 175.88 71.6371 175.969 71.4506C176.058 71.2613 176.103 71.0572 176.103 70.8382C176.103 70.5949 176.047 70.3854 175.936 70.2097C175.826 70.0313 175.674 69.8947 175.482 69.8001C175.29 69.7028 175.072 69.6541 174.829 69.6541C174.574 69.6541 174.353 69.7055 174.163 69.8082C173.974 69.911 173.828 70.0583 173.725 70.2502C173.622 70.4422 173.571 70.6706 173.571 70.9356H171.903C171.903 70.3922 172.026 69.9204 172.273 69.5203C172.519 69.1202 172.864 68.8107 173.307 68.5917C173.751 68.3727 174.262 68.2632 174.841 68.2632C175.436 68.2632 175.954 68.3686 176.395 68.5795C176.838 68.7877 177.183 69.077 177.43 69.4473C177.676 69.8177 177.799 70.2421 177.799 70.7206C177.799 71.0342 177.737 71.3438 177.612 71.6493C177.49 71.9548 177.273 72.294 176.959 72.6671C176.645 73.0375 176.203 73.4822 175.632 74.0013L174.419 75.1894V75.2462H177.908V76.6817H171.985Z" fill="#07547D"/>
<path d="M179.967 76.6817L183.412 69.8691V69.8123H179.399V68.3768H185.229V69.8326L181.781 76.6817H179.967Z" fill="#07547D"/>
<path d="M189.97 76.8642C189.272 76.8615 188.671 76.6898 188.168 76.3492C187.668 76.0086 187.283 75.5152 187.012 74.8691C186.744 74.223 186.612 73.4457 186.614 72.5374C186.614 71.6317 186.748 70.8599 187.016 70.2219C187.287 69.5838 187.672 69.0986 188.172 68.7661C188.676 68.4308 189.275 68.2632 189.97 68.2632C190.665 68.2632 191.263 68.4308 191.763 68.7661C192.266 69.1013 192.653 69.5879 192.924 70.2259C193.194 70.8612 193.328 71.6317 193.325 72.5374C193.325 73.4484 193.19 74.227 192.92 74.8731C192.652 75.5192 192.268 76.0126 191.767 76.3533C191.267 76.6939 190.668 76.8642 189.97 76.8642ZM189.97 75.4084C190.446 75.4084 190.826 75.1692 191.11 74.6906C191.394 74.2121 191.535 73.4944 191.532 72.5374C191.532 71.9075 191.467 71.383 191.337 70.964C191.21 70.5449 191.029 70.23 190.793 70.0191C190.561 69.8082 190.286 69.7028 189.97 69.7028C189.496 69.7028 189.118 69.9393 188.834 70.4124C188.55 70.8856 188.406 71.5939 188.404 72.5374C188.404 73.1754 188.467 73.7079 188.594 74.1351C188.724 74.5595 188.907 74.8785 189.142 75.0921C189.377 75.303 189.653 75.4084 189.97 75.4084Z" fill="#07547D"/>
<path d="M198.293 76.8642C197.595 76.8615 196.995 76.6898 196.492 76.3492C195.991 76.0086 195.606 75.5152 195.335 74.8691C195.067 74.223 194.935 73.4457 194.938 72.5374C194.938 71.6317 195.071 70.8599 195.339 70.2219C195.61 69.5838 195.995 69.0986 196.496 68.7661C196.999 68.4308 197.598 68.2632 198.293 68.2632C198.988 68.2632 199.586 68.4308 200.086 68.7661C200.589 69.1013 200.976 69.5879 201.247 70.2259C201.517 70.8612 201.651 71.6317 201.648 72.5374C201.648 73.4484 201.513 74.227 201.243 74.8731C200.975 75.5192 200.591 76.0126 200.09 76.3533C199.59 76.6939 198.991 76.8642 198.293 76.8642ZM198.293 75.4084C198.769 75.4084 199.149 75.1692 199.433 74.6906C199.717 74.2121 199.858 73.4944 199.855 72.5374C199.855 71.9075 199.79 71.383 199.66 70.964C199.533 70.5449 199.352 70.23 199.117 70.0191C198.884 69.8082 198.609 69.7028 198.293 69.7028C197.82 69.7028 197.441 69.9393 197.157 70.4124C196.873 70.8856 196.73 71.5939 196.727 72.5374C196.727 73.1754 196.79 73.7079 196.918 74.1351C197.047 74.5595 197.23 74.8785 197.465 75.0921C197.701 75.303 197.977 75.4084 198.293 75.4084Z" fill="#07547D"/>
<path d="M206.973 68.3768V76.6817H205.216V70.0434H205.168L203.265 71.2357V69.6785L205.322 68.3768H206.973Z" fill="#07547D"/>
<path d="M210.432 75.7166C210.164 75.7166 209.934 75.622 209.742 75.4327C209.553 75.2435 209.458 75.0137 209.458 74.7434C209.458 74.4784 209.553 74.2513 209.742 74.0621C209.934 73.8729 210.164 73.7782 210.432 73.7782C210.691 73.7782 210.919 73.8729 211.113 74.0621C211.308 74.2513 211.405 74.4784 211.405 74.7434C211.405 74.9218 211.359 75.0853 211.267 75.234C211.178 75.38 211.061 75.4976 210.914 75.5868C210.768 75.6733 210.607 75.7166 210.432 75.7166ZM210.432 71.6412C210.164 71.6412 209.934 71.5465 209.742 71.3573C209.553 71.1681 209.458 70.9383 209.458 70.6679C209.458 70.403 209.553 70.1773 209.742 69.9907C209.934 69.8015 210.164 69.7068 210.432 69.7068C210.691 69.7068 210.919 69.8015 211.113 69.9907C211.308 70.1773 211.405 70.403 211.405 70.6679C211.405 70.8491 211.359 71.014 211.267 71.1627C211.178 71.3086 211.061 71.4249 210.914 71.5114C210.768 71.5979 210.607 71.6412 210.432 71.6412Z" fill="#07547D"/>
<path d="M213.265 76.6817V75.4165L216.223 72.6793C216.475 72.436 216.686 72.217 216.856 72.0223C217.029 71.8277 217.16 71.6371 217.25 71.4506C217.339 71.2613 217.383 71.0572 217.383 70.8382C217.383 70.5949 217.328 70.3854 217.217 70.2097C217.106 70.0313 216.955 69.8947 216.763 69.8001C216.571 69.7028 216.353 69.6541 216.109 69.6541C215.855 69.6541 215.633 69.7055 215.444 69.8082C215.255 69.911 215.109 70.0583 215.006 70.2502C214.903 70.4422 214.852 70.6706 214.852 70.9356H213.184C213.184 70.3922 213.307 69.9204 213.553 69.5203C213.799 69.1202 214.144 68.8107 214.588 68.5917C215.032 68.3727 215.543 68.2632 216.122 68.2632C216.717 68.2632 217.235 68.3686 217.676 68.5795C218.119 68.7877 218.464 69.077 218.71 69.4473C218.956 69.8177 219.079 70.2421 219.079 70.7206C219.079 71.0342 219.017 71.3438 218.893 71.6493C218.771 71.9548 218.553 72.294 218.24 72.6671C217.926 73.0375 217.484 73.4822 216.913 74.0013L215.7 75.1894V75.2462H219.189V76.6817H213.265Z" fill="#07547D"/>
<path d="M224.177 76.8642C223.479 76.8615 222.879 76.6898 222.376 76.3492C221.875 76.0086 221.49 75.5152 221.219 74.8691C220.951 74.223 220.819 73.4457 220.822 72.5374C220.822 71.6317 220.955 70.8599 221.223 70.2219C221.494 69.5838 221.879 69.0986 222.38 68.7661C222.883 68.4308 223.482 68.2632 224.177 68.2632C224.872 68.2632 225.47 68.4308 225.97 68.7661C226.473 69.1013 226.86 69.5879 227.131 70.2259C227.401 70.8612 227.535 71.6317 227.532 72.5374C227.532 73.4484 227.397 74.227 227.127 74.8731C226.859 75.5192 226.475 76.0126 225.974 76.3533C225.474 76.6939 224.875 76.8642 224.177 76.8642ZM224.177 75.4084C224.653 75.4084 225.033 75.1692 225.317 74.6906C225.601 74.2121 225.742 73.4944 225.739 72.5374C225.739 71.9075 225.674 71.383 225.544 70.964C225.417 70.5449 225.236 70.23 225.001 70.0191C224.768 69.8082 224.493 69.7028 224.177 69.7028C223.704 69.7028 223.325 69.9393 223.041 70.4124C222.757 70.8856 222.614 71.5939 222.611 72.5374C222.611 73.1754 222.674 73.7079 222.802 74.1351C222.931 74.5595 223.114 74.8785 223.349 75.0921C223.585 75.303 223.861 75.4084 224.177 75.4084Z" fill="#07547D"/>
<path d="M229.242 76.6817V75.4165L232.2 72.6793C232.451 72.436 232.662 72.217 232.833 72.0223C233.006 71.8277 233.137 71.6371 233.226 71.4506C233.316 71.2613 233.36 71.0572 233.36 70.8382C233.36 70.5949 233.305 70.3854 233.194 70.2097C233.083 70.0313 232.932 69.8947 232.74 69.8001C232.547 69.7028 232.33 69.6541 232.086 69.6541C231.832 69.6541 231.61 69.7055 231.421 69.8082C231.232 69.911 231.085 70.0583 230.983 70.2502C230.88 70.4422 230.829 70.6706 230.829 70.9356H229.161C229.161 70.3922 229.284 69.9204 229.53 69.5203C229.776 69.1202 230.121 68.8107 230.565 68.5917C231.008 68.3727 231.52 68.2632 232.098 68.2632C232.694 68.2632 233.212 68.3686 233.652 68.5795C234.096 68.7877 234.441 69.077 234.687 69.4473C234.933 69.8177 235.056 70.2421 235.056 70.7206C235.056 71.0342 234.994 71.3438 234.87 71.6493C234.748 71.9548 234.53 72.294 234.216 72.6671C233.903 73.0375 233.46 73.4822 232.89 74.0013L231.677 75.1894V75.2462H235.166V76.6817H229.242Z" fill="#07547D"/>
<path d="M236.896 76.6817V75.4165L239.854 72.6793C240.105 72.436 240.316 72.217 240.487 72.0223C240.66 71.8277 240.791 71.6371 240.88 71.4506C240.969 71.2613 241.014 71.0572 241.014 70.8382C241.014 70.5949 240.959 70.3854 240.848 70.2097C240.737 70.0313 240.585 69.8947 240.393 69.8001C240.201 69.7028 239.983 69.6541 239.74 69.6541C239.486 69.6541 239.264 69.7055 239.075 69.8082C238.885 69.911 238.739 70.0583 238.636 70.2502C238.534 70.4422 238.482 70.6706 238.482 70.9356H236.815C236.815 70.3922 236.938 69.9204 237.184 69.5203C237.43 69.1202 237.775 68.8107 238.218 68.5917C238.662 68.3727 239.173 68.2632 239.752 68.2632C240.347 68.2632 240.865 68.3686 241.306 68.5795C241.75 68.7877 242.095 69.077 242.341 69.4473C242.587 69.8177 242.71 70.2421 242.71 70.7206C242.71 71.0342 242.648 71.3438 242.523 71.6493C242.402 71.9548 242.184 72.294 241.87 72.6671C241.556 73.0375 241.114 73.4822 240.543 74.0013L239.33 75.1894V75.2462H242.82V76.6817H236.896Z" fill="#07547D"/>
<path d="M147.935 81.9921H150.101L152.389 87.572H152.487L154.775 81.9921H156.942V90.2971H155.238V84.8916H155.169L153.018 90.2565H151.858L149.708 84.8713H149.639V90.2971H147.935V81.9921Z" fill="#07547D"/>
<path d="M163.354 84.3806C163.321 84.0535 163.182 83.7994 162.936 83.6182C162.69 83.4371 162.356 83.3465 161.934 83.3465C161.647 83.3465 161.405 83.3871 161.208 83.4682C161.01 83.5466 160.859 83.6561 160.753 83.7967C160.65 83.9372 160.599 84.0968 160.599 84.2752C160.594 84.4239 160.625 84.5536 160.692 84.6645C160.763 84.7753 160.859 84.8713 160.98 84.9524C161.102 85.0308 161.243 85.0997 161.402 85.1592C161.562 85.216 161.732 85.2646 161.914 85.3052L162.66 85.4836C163.023 85.5647 163.355 85.6729 163.658 85.808C163.961 85.9432 164.224 86.1095 164.445 86.3068C164.667 86.5042 164.839 86.7367 164.961 87.0043C165.085 87.2719 165.149 87.5788 165.151 87.9248C165.149 88.4331 165.019 88.8737 164.762 89.2468C164.508 89.6172 164.14 89.9051 163.658 90.1106C163.179 90.3133 162.602 90.4147 161.926 90.4147C161.255 90.4147 160.671 90.312 160.173 90.1065C159.678 89.901 159.291 89.5969 159.013 89.1941C158.737 88.7886 158.592 88.2871 158.578 87.6896H160.278C160.297 87.9681 160.377 88.2006 160.518 88.3871C160.661 88.5709 160.852 88.7102 161.09 88.8048C161.331 88.8967 161.603 88.9427 161.905 88.9427C162.203 88.9427 162.461 88.8994 162.68 88.8129C162.902 88.7264 163.074 88.6061 163.196 88.452C163.317 88.2979 163.378 88.1208 163.378 87.9208C163.378 87.7342 163.323 87.5774 163.212 87.4504C163.104 87.3233 162.944 87.2152 162.733 87.126C162.525 87.0367 162.269 86.9556 161.966 86.8826L161.062 86.6556C160.361 86.4852 159.808 86.2189 159.402 85.8567C158.996 85.4944 158.795 85.0065 158.798 84.3928C158.795 83.8899 158.929 83.4506 159.199 83.0748C159.472 82.6991 159.847 82.4057 160.323 82.1949C160.799 81.984 161.34 81.8786 161.946 81.8786C162.563 81.8786 163.101 81.984 163.561 82.1949C164.023 82.4057 164.383 82.6991 164.64 83.0748C164.897 83.4506 165.03 83.8859 165.038 84.3806H163.354Z" fill="#07547D"/>
<path d="M166.79 81.9921H168.957L171.245 87.572H171.342L173.631 81.9921H175.797V90.2971H174.093V84.8916H174.024L171.874 90.2565H170.713L168.563 84.8713H168.494V90.2971H166.79V81.9921Z" fill="#07547D"/>
<path d="M177.702 90.2971V81.9921H183.301V83.4398H179.459V85.4187H183.013V86.8664H179.459V88.8494H183.317V90.2971H177.702Z" fill="#07547D"/>
<path d="M188.256 90.2971V81.9921H191.534C192.162 81.9921 192.697 82.1043 193.141 82.3287C193.587 82.5504 193.927 82.8653 194.159 83.2735C194.395 83.6791 194.512 84.1562 194.512 84.705C194.512 85.2565 194.393 85.731 194.155 86.1284C193.917 86.5231 193.572 86.8259 193.121 87.0367C192.672 87.2476 192.128 87.353 191.49 87.353H189.295V85.9418H191.206C191.541 85.9418 191.82 85.8959 192.042 85.804C192.263 85.7121 192.428 85.5742 192.537 85.3903C192.647 85.2065 192.703 84.9781 192.703 84.705C192.703 84.4293 192.647 84.1968 192.537 84.0075C192.428 83.8183 192.262 83.675 192.037 83.5777C191.816 83.4777 191.536 83.4276 191.198 83.4276H190.013V90.2971H188.256ZM192.743 86.5177L194.809 90.2971H192.869L190.849 86.5177H192.743Z" fill="#07547D"/>
<path d="M198.918 90.4188C198.277 90.4188 197.725 90.289 197.263 90.0295C196.803 89.7672 196.449 89.3968 196.2 88.9183C195.951 88.4371 195.827 87.8681 195.827 87.2111C195.827 86.5704 195.951 86.0081 196.2 85.5242C196.449 85.0403 196.799 84.6631 197.251 84.3928C197.705 84.1224 198.238 83.9873 198.849 83.9873C199.26 83.9873 199.643 84.0535 199.998 84.186C200.355 84.3157 200.666 84.5117 200.931 84.774C201.198 85.0362 201.407 85.366 201.556 85.7634C201.704 86.1581 201.779 86.6204 201.779 87.1503V87.6247H196.516V86.5542H200.152C200.152 86.3055 200.098 86.0851 199.989 85.8932C199.881 85.7012 199.731 85.5512 199.539 85.4431C199.35 85.3322 199.129 85.2768 198.878 85.2768C198.615 85.2768 198.383 85.3376 198.18 85.4593C197.98 85.5782 197.823 85.7391 197.709 85.9418C197.596 86.1419 197.537 86.3649 197.535 86.6109V87.6288C197.535 87.937 197.592 88.2033 197.705 88.4277C197.821 88.652 197.985 88.8251 198.196 88.9467C198.407 89.0684 198.657 89.1292 198.947 89.1292C199.139 89.1292 199.315 89.1022 199.474 89.0481C199.634 88.994 199.77 88.9129 199.884 88.8048C199.998 88.6967 200.084 88.5642 200.144 88.4074L201.742 88.5128C201.661 88.8967 201.495 89.2319 201.243 89.5185C200.994 89.8024 200.672 90.024 200.277 90.1835C199.885 90.3403 199.432 90.4188 198.918 90.4188Z" fill="#07547D"/>
<path d="M206.171 92.7626C205.611 92.7626 205.131 92.6856 204.731 92.5315C204.333 92.3801 204.017 92.1733 203.782 91.911C203.546 91.6488 203.393 91.3541 203.323 91.027L204.922 90.8121C204.97 90.9365 205.047 91.0527 205.153 91.1608C205.258 91.269 205.398 91.3555 205.571 91.4204C205.747 91.488 205.96 91.5217 206.212 91.5217C206.588 91.5217 206.898 91.4298 207.141 91.246C207.387 91.0649 207.51 90.7607 207.51 90.3336V89.1941H207.437C207.361 89.3671 207.248 89.5307 207.096 89.6848C206.945 89.8389 206.75 89.9646 206.512 90.0619C206.274 90.1592 205.99 90.2079 205.66 90.2079C205.192 90.2079 204.766 90.0997 204.382 89.8835C204.001 89.6645 203.696 89.3306 203.469 88.8818C203.245 88.4304 203.132 87.8599 203.132 87.1706C203.132 86.465 203.247 85.8756 203.477 85.4025C203.707 84.9294 204.013 84.5753 204.394 84.3401C204.778 84.1049 205.199 83.9873 205.656 83.9873C206.005 83.9873 206.297 84.0467 206.532 84.1657C206.768 84.2819 206.957 84.4279 207.1 84.6036C207.247 84.7767 207.359 84.947 207.437 85.1146H207.502V84.0684H209.218V90.3579C209.218 90.8878 209.089 91.3312 208.829 91.688C208.569 92.0449 208.209 92.3125 207.75 92.4909C207.292 92.6721 206.766 92.7626 206.171 92.7626ZM206.208 88.9102C206.486 88.9102 206.722 88.8413 206.914 88.7034C207.109 88.5628 207.257 88.3628 207.36 88.1033C207.466 87.841 207.518 87.5274 207.518 87.1625C207.518 86.7975 207.467 86.4812 207.364 86.2135C207.261 85.9432 207.113 85.7337 206.918 85.585C206.723 85.4363 206.486 85.362 206.208 85.362C205.924 85.362 205.684 85.439 205.49 85.5931C205.295 85.7445 205.148 85.9554 205.047 86.2257C204.947 86.4961 204.897 86.8083 204.897 87.1625C204.897 87.522 204.947 87.8329 205.047 88.0951C205.15 88.3547 205.298 88.5561 205.49 88.6994C205.684 88.8399 205.924 88.9102 206.208 88.9102Z" fill="#07547D"/>
<path d="M211.051 90.2971V84.0684H212.779V90.2971H211.051ZM211.919 83.2654C211.662 83.2654 211.442 83.1803 211.258 83.01C211.077 82.8369 210.986 82.6301 210.986 82.3895C210.986 82.1516 211.077 81.9475 211.258 81.7772C211.442 81.6042 211.662 81.5177 211.919 81.5177C212.176 81.5177 212.395 81.6042 212.576 81.7772C212.76 81.9475 212.852 82.1516 212.852 82.3895C212.852 82.6301 212.76 82.8369 212.576 83.01C212.395 83.1803 212.176 83.2654 211.919 83.2654Z" fill="#07547D"/>
<path d="M219.806 85.8445L218.224 85.9418C218.197 85.8067 218.139 85.685 218.049 85.5769C217.96 85.466 217.842 85.3782 217.696 85.3133C217.553 85.2457 217.381 85.2119 217.181 85.2119C216.913 85.2119 216.687 85.2687 216.503 85.3822C216.319 85.4931 216.228 85.6418 216.228 85.8283C216.228 85.977 216.287 86.1027 216.406 86.2054C216.525 86.3082 216.729 86.3906 217.019 86.4528L218.147 86.6799C218.753 86.8042 219.204 87.0043 219.502 87.2801C219.799 87.5558 219.948 87.9181 219.948 88.3668C219.948 88.7751 219.828 89.1333 219.587 89.4415C219.349 89.7496 219.022 89.9903 218.605 90.1633C218.191 90.3336 217.714 90.4188 217.173 90.4188C216.348 90.4188 215.691 90.2471 215.201 89.9037C214.714 89.5577 214.429 89.0873 214.345 88.4925L216.045 88.4033C216.096 88.6547 216.221 88.8467 216.418 88.9792C216.616 89.1089 216.869 89.1738 217.177 89.1738C217.48 89.1738 217.723 89.1157 217.907 88.9994C218.094 88.8805 218.189 88.7277 218.191 88.5412C218.189 88.3844 218.122 88.256 217.992 88.156C217.863 88.0532 217.662 87.9748 217.392 87.9208L216.313 87.7058C215.704 87.5842 215.251 87.3733 214.954 87.0732C214.659 86.7732 214.511 86.3906 214.511 85.9256C214.511 85.5255 214.619 85.1808 214.836 84.8916C215.055 84.6023 215.362 84.3793 215.757 84.2225C216.155 84.0657 216.62 83.9873 217.153 83.9873C217.94 83.9873 218.559 84.1535 219.011 84.486C219.465 84.8186 219.73 85.2714 219.806 85.8445Z" fill="#07547D"/>
<path d="M224.808 84.0684V85.366H221.055V84.0684H224.808ZM221.907 82.5761H223.636V88.3831C223.636 88.5426 223.66 88.6669 223.709 88.7561C223.757 88.8426 223.825 88.9035 223.912 88.9386C224.001 88.9738 224.104 88.9913 224.22 88.9913C224.301 88.9913 224.382 88.9846 224.463 88.9711C224.545 88.9548 224.607 88.9427 224.65 88.9346L224.922 90.22C224.835 90.2471 224.714 90.2782 224.557 90.3133C224.4 90.3512 224.209 90.3741 223.985 90.3823C223.568 90.3985 223.203 90.3431 222.889 90.216C222.578 90.0889 222.336 89.8916 222.163 89.6239C221.99 89.3563 221.905 89.0184 221.907 88.6101V82.5761Z" fill="#07547D"/>
<path d="M229.164 90.4188C228.523 90.4188 227.972 90.289 227.509 90.0295C227.049 89.7672 226.695 89.3968 226.446 88.9183C226.197 88.4371 226.073 87.8681 226.073 87.2111C226.073 86.5704 226.197 86.0081 226.446 85.5242C226.695 85.0403 227.045 84.6631 227.497 84.3928C227.951 84.1224 228.484 83.9873 229.095 83.9873C229.507 83.9873 229.889 84.0535 230.244 84.186C230.601 84.3157 230.912 84.5117 231.177 84.774C231.445 85.0362 231.653 85.366 231.802 85.7634C231.95 86.1581 232.025 86.6204 232.025 87.1503V87.6247H226.763V86.5542H230.398C230.398 86.3055 230.344 86.0851 230.236 85.8932C230.127 85.7012 229.977 85.5512 229.785 85.4431C229.596 85.3322 229.375 85.2768 229.124 85.2768C228.862 85.2768 228.629 85.3376 228.426 85.4593C228.226 85.5782 228.069 85.7391 227.955 85.9418C227.842 86.1419 227.784 86.3649 227.781 86.6109V87.6288C227.781 87.937 227.838 88.2033 227.951 88.4277C228.068 88.652 228.231 88.8251 228.442 88.9467C228.653 89.0684 228.903 89.1292 229.193 89.1292C229.385 89.1292 229.561 89.1022 229.72 89.0481C229.88 88.994 230.017 88.9129 230.13 88.8048C230.244 88.6967 230.33 88.5642 230.39 88.4074L231.988 88.5128C231.907 88.8967 231.741 89.2319 231.489 89.5185C231.24 89.8024 230.919 90.024 230.524 90.1835C230.131 90.3403 229.678 90.4188 229.164 90.4188Z" fill="#07547D"/>
<path d="M233.61 90.2971V84.0684H235.286V85.1552H235.35C235.464 84.7686 235.655 84.4766 235.922 84.2792C236.19 84.0792 236.499 83.9791 236.848 83.9791C236.934 83.9791 237.027 83.9846 237.128 83.9954C237.228 84.0062 237.316 84.0211 237.391 84.04V85.5728C237.31 85.5485 237.198 85.5269 237.055 85.5079C236.911 85.489 236.78 85.4796 236.661 85.4796C236.407 85.4796 236.179 85.535 235.979 85.6458C235.782 85.754 235.625 85.9054 235.509 86.1C235.395 86.2946 235.338 86.519 235.338 86.7732V90.2971H233.61Z" fill="#07547D"/>
<path d="M241.292 90.4188C240.651 90.4188 240.099 90.289 239.637 90.0295C239.177 89.7672 238.822 89.3968 238.574 88.9183C238.325 88.4371 238.2 87.8681 238.2 87.2111C238.2 86.5704 238.325 86.0081 238.574 85.5242C238.822 85.0403 239.173 84.6631 239.624 84.3928C240.079 84.1224 240.612 83.9873 241.223 83.9873C241.634 83.9873 242.017 84.0535 242.371 84.186C242.728 84.3157 243.039 84.5117 243.304 84.774C243.572 85.0362 243.78 85.366 243.929 85.7634C244.078 86.1581 244.152 86.6204 244.152 87.1503V87.6247H238.89V86.5542H242.525C242.525 86.3055 242.471 86.0851 242.363 85.8932C242.255 85.7012 242.105 85.5512 241.913 85.4431C241.723 85.3322 241.503 85.2768 241.251 85.2768C240.989 85.2768 240.756 85.3376 240.554 85.4593C240.353 85.5782 240.196 85.7391 240.083 85.9418C239.969 86.1419 239.911 86.3649 239.908 86.6109V87.6288C239.908 87.937 239.965 88.2033 240.079 88.4277C240.195 88.652 240.359 88.8251 240.57 88.9467C240.781 89.0684 241.031 89.1292 241.32 89.1292C241.512 89.1292 241.688 89.1022 241.848 89.0481C242.007 88.994 242.144 88.9129 242.258 88.8048C242.371 88.6967 242.458 88.5642 242.517 88.4074L244.116 88.5128C244.035 88.8967 243.868 89.2319 243.617 89.5185C243.368 89.8024 243.046 90.024 242.651 90.1835C242.259 90.3403 241.806 90.4188 241.292 90.4188Z" fill="#07547D"/>
<path d="M248.034 90.3985C247.56 90.3985 247.132 90.2768 246.748 90.0335C246.366 89.7875 246.063 89.4266 245.839 88.9508C245.617 88.4723 245.506 87.8856 245.506 87.1908C245.506 86.4771 245.621 85.8837 245.851 85.4106C246.081 84.9348 246.386 84.5793 246.768 84.3441C247.152 84.1062 247.573 83.9873 248.03 83.9873C248.379 83.9873 248.669 84.0467 248.902 84.1657C249.137 84.2819 249.327 84.4279 249.47 84.6036C249.616 84.7767 249.727 84.947 249.803 85.1146H249.856V81.9921H251.58V90.2971H249.876V89.2995H249.803C249.722 89.4725 249.607 89.6442 249.458 89.8145C249.312 89.9821 249.121 90.1214 248.886 90.2322C248.653 90.343 248.369 90.3985 248.034 90.3985ZM248.581 89.0238C248.86 89.0238 249.095 88.9481 249.287 88.7967C249.482 88.6426 249.631 88.4277 249.734 88.1519C249.839 87.8762 249.892 87.5531 249.892 87.1827C249.892 86.8124 249.841 86.4906 249.738 86.2176C249.635 85.9445 249.486 85.7337 249.292 85.585C249.097 85.4363 248.86 85.362 248.581 85.362C248.297 85.362 248.058 85.439 247.863 85.5931C247.669 85.7472 247.521 85.9608 247.421 86.2338C247.321 86.5069 247.271 86.8232 247.271 87.1827C247.271 87.545 247.321 87.8653 247.421 88.1438C247.524 88.4196 247.671 88.6358 247.863 88.7926C248.058 88.9467 248.297 89.0238 248.581 89.0238Z" fill="#07547D"/>
<path d="M110.723 10.3354C107.839 7.04139 103.669 4.40613 102.252 3.52774C97.6378 1.33169 89.6388 -1.00458 78.3024 0.453291C72.2724 1.55133 66.3399 2.86868 59.3089 5.94337C52.278 9.01807 49.8611 10.3354 43.7087 14.0687C37.409 18.2967 30.063 23.6683 23.4945 29.2215C18.434 33.4998 13.8351 37.7234 10.5314 42.6173L27.2299 30.7587C30.8702 28.6797 36.2335 25.3789 37.9961 24.3903C40.7017 22.8727 41.0877 22.6595 45.2469 20.4374C49.4062 18.2153 66.1417 11.5602 75.6656 10.3354C80.2297 9.74849 83.5756 9.67661 87.7502 10.1159C91.9174 10.7353 94.2599 10.7641 99.8498 13.64C107.086 17.3627 109.722 19.7783 114.995 26.5861C114.995 26.5861 115.34 22.4201 114.995 19.7783C114.651 17.1429 113.607 13.6295 110.723 10.3354Z" fill="url(#paint0_linear_143_140)" fill-opacity="0.8"/>
<path d="M6.08206 100.314C8.53248 104.069 12.3822 107.342 13.6935 108.437C18.0566 111.328 25.8327 114.848 37.54 115C43.8137 114.754 50.0201 114.271 57.5937 112.164C65.1672 110.057 67.8082 109.069 74.5855 106.168C81.5835 102.786 89.8073 98.395 97.2688 93.7079C103.017 90.0969 108.29 86.4749 112.345 81.9868L93.7018 91.6115C89.7104 93.1964 83.7956 95.7724 81.8656 96.5216C78.9031 97.6715 78.4809 97.8322 73.9426 99.4875C69.4043 101.143 51.4728 105.485 41.6373 105.357C36.9239 105.296 33.5202 104.887 29.3495 103.841C25.2124 102.613 22.8408 102.247 17.5857 98.5264C10.7833 93.7099 8.45709 90.8807 4.08958 83.2177C4.08958 83.2177 3.13997 87.3932 3.10919 90.1221C3.07847 92.8444 3.63165 96.558 6.08206 100.314Z" fill="url(#paint1_linear_143_140)" fill-opacity="0.8"/>
<path d="M24.7164 64.5064C24.5527 65.3111 24.3549 66.4362 24.123 67.8818C23.8912 69.3138 23.7343 70.4253 23.6524 71.2163C20.7334 71.6391 18.1281 71.8505 15.8365 71.8505C13.6268 71.8505 11.5671 71.5777 9.6574 71.0322C7.76138 70.473 6.01541 69.5661 4.41949 68.3114C2.8372 67.0431 1.70505 65.5565 1.02303 63.8518C0.34101 62.147 0 60.2377 0 58.1238C0 55.6554 0.456953 53.4392 1.37086 51.4753C2.29841 49.4978 3.62152 47.8544 5.34021 46.5452C7.07254 45.2223 8.96856 44.2813 11.0283 43.7221C13.088 43.1493 15.2159 42.8629 17.412 42.8629C19.4307 42.8629 21.9269 43.1221 24.9005 43.6403L24.9415 45.3587C24.9687 46.1088 25.0097 46.9339 25.0642 47.834L25.2074 50.1661C23.6115 49.7842 22.3157 49.5251 21.3199 49.3887C20.3378 49.2523 19.4239 49.1841 18.5782 49.1841C16.7368 49.1841 15.0795 49.5524 13.6063 50.2888C12.1331 51.0253 10.9737 52.0958 10.128 53.5006C9.28229 54.9053 8.85944 56.46 8.85944 58.1648C8.85944 59.7195 9.21409 61.056 9.92339 62.1743C10.6327 63.279 11.5875 64.1382 12.7879 64.7519C14.0019 65.352 15.4955 65.652 17.2687 65.652C18.2372 65.652 19.2875 65.577 20.4197 65.427C21.5655 65.2633 22.9977 64.9565 24.7164 64.5064Z" fill="black"/>
<path d="M29.8504 71.3186L30.3619 67.1863L31.6304 52.8459L32.2647 43.3948C34.7745 43.4221 36.7456 43.4357 38.1778 43.4357C39.3645 43.4357 41.1787 43.4221 43.6203 43.3948C43.7977 44.5677 43.9477 45.461 44.0705 46.0747C44.1932 46.6747 44.4933 47.8613 44.9707 49.6342C45.4618 51.3935 45.8506 52.9209 46.137 54.2166C46.4371 55.4985 46.8804 57.7011 47.4669 60.8242C48.0671 58.683 48.6127 56.8419 49.1038 55.3008C49.5948 53.7597 50.2087 52.0072 50.9452 50.0433C51.6818 48.0795 52.1456 46.7975 52.3366 46.1974C52.5412 45.5837 52.814 44.6495 53.155 43.3948C55.201 43.4221 57.2062 43.4357 59.1704 43.4357C60.5072 43.4357 62.3623 43.4221 64.7357 43.3948C64.4765 47.9908 64.306 51.939 64.2242 55.2394C64.0468 61.7038 63.9582 66.1498 63.9582 68.5774C63.9582 69.082 63.9718 69.9957 63.9991 71.3186C62.1986 71.2913 60.9368 71.2777 60.2139 71.2777C59.1636 71.2777 57.8746 71.2913 56.3468 71.3186C56.456 70.0912 56.5924 67.1726 56.756 62.563C56.9197 57.9397 57.0016 54.9871 57.0016 53.7051C57.0016 53.146 56.9879 52.3686 56.9607 51.373L54.2803 59.699L50.4337 71.3186C48.6605 71.2913 47.4397 71.2777 46.7713 71.2777C45.9256 71.2777 44.6297 71.2913 42.8838 71.3186L40.3671 60.0673L38.8939 54.0734C38.8394 53.8415 38.778 53.5551 38.7098 53.2142C38.6416 52.8732 38.5325 52.2731 38.3824 51.4139L37.8709 57.0805L37.1957 68.7001L37.1343 71.3186C35.252 71.2913 34.0516 71.2777 33.5333 71.2777C32.824 71.2777 31.5963 71.2913 29.8504 71.3186Z" fill="black"/>
<path d="M70.1152 71.3186L70.6267 67.1863L71.8952 52.8459L72.5295 43.3948C75.0394 43.4221 77.0104 43.4357 78.4426 43.4357C79.6294 43.4357 81.4435 43.4221 83.8852 43.3948C84.0625 44.5677 84.2125 45.461 84.3353 46.0747C84.4581 46.6747 84.7581 47.8613 85.2356 49.6342C85.7266 51.3935 86.1154 52.9209 86.4018 54.2166C86.7019 55.4985 87.1452 57.7011 87.7317 60.8242C88.3319 58.683 88.8775 56.8419 89.3686 55.3008C89.8596 53.7597 90.4735 52.0072 91.21 50.0433C91.9466 48.0795 92.4104 46.7975 92.6014 46.1974C92.806 45.5837 93.0788 44.6495 93.4198 43.3948C95.4659 43.4221 97.471 43.4357 99.4352 43.4357C100.772 43.4357 102.627 43.4221 105 43.3948C104.741 47.9908 104.571 51.939 104.489 55.2394C104.312 61.7038 104.223 66.1498 104.223 68.5774C104.223 69.082 104.237 69.9957 104.264 71.3186C102.463 71.2913 101.202 71.2777 100.479 71.2777C99.4284 71.2777 98.1394 71.2913 96.6116 71.3186C96.7208 70.0912 96.8572 67.1726 97.0209 62.563C97.1845 57.9397 97.2664 54.9871 97.2664 53.7051C97.2664 53.146 97.2527 52.3686 97.2255 51.373L94.5451 59.699L90.6985 71.3186C88.9253 71.2913 87.7045 71.2777 87.0361 71.2777C86.1904 71.2777 84.8945 71.2913 83.1486 71.3186L80.6319 60.0673L79.1588 54.0734C79.1042 53.8415 79.0428 53.5551 78.9746 53.2142C78.9064 52.8732 78.7973 52.2731 78.6472 51.4139L78.1357 57.0805L77.4605 68.7001L77.3991 71.3186C75.5168 71.2913 74.3164 71.2777 73.7981 71.2777C73.0888 71.2777 71.8611 71.2913 70.1152 71.3186Z" fill="black"/>
<path d="M110.932 71.3186C111.724 60.3673 112.099 49.3001 112.099 43.3948C114.486 43.4221 116.082 43.4357 116.886 43.4357C117.255 43.4357 118.721 43.4221 121.285 43.3948C121.04 46.4634 120.842 49.3683 120.692 52.1095C120.501 55.9281 120.365 59.5013 120.283 62.8289C120.201 66.143 120.16 68.9729 120.16 71.3186L115.966 71.2777C115.147 71.2777 113.47 71.2913 110.932 71.3186Z" fill="black"/>
<path d="M122.604 34.9572C122.604 38.1106 120.046 40.6669 116.891 40.6669C113.736 40.6669 111.178 38.1106 111.178 34.9572C111.178 31.8039 113.736 29.2476 116.891 29.2476C120.046 29.2476 122.604 31.8039 122.604 34.9572Z" fill="url(#paint2_radial_143_140)"/>
<path d="M93.0163 81.513C93.1021 80.1919 93.1858 78.6264 93.2673 76.8164C93.3231 75.4997 93.3639 74.1379 93.3896 72.731L93.9883 72.7375C94.1127 72.7375 94.3037 72.7353 94.5612 72.731L94.3616 76.5076L94.22 80.3292L94.1942 81.513C93.9411 81.5044 93.7522 81.5001 93.6278 81.5001C93.5763 81.5001 93.3724 81.5044 93.0163 81.513Z" fill="black"/>
<path d="M101.835 80.49C101.783 80.7259 101.732 81.0262 101.68 81.3907C101.268 81.4937 100.91 81.5623 100.605 81.5966C100.305 81.6352 100.004 81.6545 99.7039 81.6545C99.1675 81.6545 98.6847 81.5902 98.2556 81.4615C97.8307 81.3328 97.4659 81.1098 97.1612 80.7924C96.8566 80.4707 96.6377 80.104 96.5047 79.6923C96.3716 79.2805 96.3051 78.8452 96.3051 78.3862C96.3051 77.7471 96.4274 77.1553 96.672 76.6105C96.9166 76.0615 97.2836 75.6305 97.7728 75.3174C98.2663 75.0043 98.8907 74.8477 99.646 74.8477C100.036 74.8477 100.41 74.9056 100.766 75.0214C101.122 75.1329 101.418 75.3045 101.654 75.5361C101.89 75.7677 102.073 76.0551 102.202 76.3982C102.33 76.7371 102.395 77.1081 102.395 77.5112C102.395 77.6657 102.382 77.8158 102.356 77.9616H97.4445C97.4273 78.1975 97.4187 78.3776 97.4187 78.502C97.4187 78.9524 97.5131 79.3684 97.702 79.7502C97.8908 80.1276 98.1697 80.415 98.5388 80.6123C98.9079 80.8053 99.3327 80.9018 99.8133 80.9018C100.367 80.9018 101.041 80.7645 101.835 80.49ZM97.496 77.4276H101.332C101.328 77.1574 101.311 76.9472 101.281 76.7971C101.251 76.647 101.195 76.4926 101.114 76.3339C101.032 76.1709 100.921 76.0315 100.779 75.9157C100.642 75.7956 100.474 75.7055 100.277 75.6455C100.084 75.5811 99.8734 75.549 99.646 75.549C99.4014 75.549 99.1675 75.5833 98.9443 75.6519C98.7255 75.7205 98.5302 75.8149 98.3586 75.935C98.1912 76.0551 98.0474 76.1966 97.9273 76.3596C97.8114 76.5183 97.7234 76.6727 97.6633 76.8228C97.6076 76.973 97.5518 77.1746 97.496 77.4276Z" fill="black"/>
<path d="M105.767 81.513L105.548 80.8632C105.475 80.653 105.304 80.1748 105.033 79.4285L103.418 74.9957C103.679 75 103.885 75.0021 104.036 75.0021C104.199 75.0021 104.392 75 104.615 74.9957L104.75 75.446C104.789 75.5747 104.855 75.7806 104.95 76.0637L106.462 80.5479L108.509 75.6326L108.754 74.9957C109.007 75 109.209 75.0021 109.359 75.0021C109.509 75.0021 109.711 75 109.964 74.9957L109.127 76.7907L107.447 80.5351L107.035 81.513C106.769 81.5044 106.561 81.5001 106.411 81.5001C106.256 81.5001 106.042 81.5044 105.767 81.513Z" fill="black"/>
<path d="M116.381 80.49C116.33 80.7259 116.278 81.0262 116.227 81.3907C115.815 81.4937 115.457 81.5623 115.152 81.5966C114.852 81.6352 114.551 81.6545 114.251 81.6545C113.714 81.6545 113.232 81.5902 112.802 81.4615C112.378 81.3328 112.013 81.1098 111.708 80.7924C111.403 80.4707 111.185 80.104 111.052 79.6923C110.918 79.2805 110.852 78.8452 110.852 78.3862C110.852 77.7471 110.974 77.1553 111.219 76.6105C111.463 76.0615 111.83 75.6305 112.32 75.3174C112.813 75.0043 113.438 74.8477 114.193 74.8477C114.583 74.8477 114.957 74.9056 115.313 75.0214C115.669 75.1329 115.965 75.3045 116.201 75.5361C116.437 75.7677 116.62 76.0551 116.748 76.3982C116.877 76.7371 116.941 77.1081 116.941 77.5112C116.941 77.6657 116.929 77.8158 116.903 77.9616H111.991C111.974 78.1975 111.966 78.3776 111.966 78.502C111.966 78.9524 112.06 79.3684 112.249 79.7502C112.438 80.1276 112.717 80.415 113.086 80.6123C113.455 80.8053 113.88 80.9018 114.36 80.9018C114.914 80.9018 115.588 80.7645 116.381 80.49ZM112.043 77.4276H115.879C115.875 77.1574 115.858 76.9472 115.828 76.7971C115.798 76.647 115.742 76.4926 115.66 76.3339C115.579 76.1709 115.467 76.0315 115.326 75.9157C115.188 75.7956 115.021 75.7055 114.824 75.6455C114.631 75.5811 114.42 75.549 114.193 75.549C113.948 75.549 113.714 75.5833 113.491 75.6519C113.272 75.7205 113.077 75.8149 112.905 75.935C112.738 76.0551 112.594 76.1966 112.474 76.3596C112.358 76.5183 112.27 76.6727 112.21 76.8228C112.154 76.973 112.099 77.1746 112.043 77.4276Z" fill="black"/>
<path d="M118.582 81.513C118.668 80.1919 118.752 78.6264 118.833 76.8164C118.889 75.4997 118.93 74.1379 118.956 72.731L119.554 72.7375C119.679 72.7375 119.87 72.7353 120.127 72.731L119.928 76.5076L119.786 80.3292L119.76 81.513C119.507 81.5044 119.318 81.5001 119.194 81.5001C119.142 81.5001 118.939 81.5044 118.582 81.513Z" fill="black"/>
<path d="M109.441 90.2971L109.545 88.9537L109.622 87.2746L109.672 85.6031C109.675 85.531 109.676 85.3393 109.676 85.0279C109.962 85.0331 110.231 85.0356 110.484 85.0356C110.672 85.0356 110.919 85.0318 111.225 85.0241C111.534 85.0163 111.801 85.0125 112.025 85.0125C112.328 85.0125 112.609 85.0305 112.867 85.0665C113.127 85.1025 113.353 85.1707 113.546 85.2711C113.739 85.3689 113.907 85.4924 114.048 85.6417C114.19 85.791 114.306 85.9569 114.396 86.1397C114.486 86.3198 114.554 86.5218 114.601 86.7457C114.65 86.967 114.674 87.1935 114.674 87.4251C114.674 87.8677 114.597 88.2898 114.442 88.6912C114.29 89.0901 114.063 89.4208 113.759 89.6833C113.455 89.9432 113.118 90.1105 112.747 90.1851C112.379 90.2598 111.96 90.2971 111.492 90.2971L110.178 90.2894C110.096 90.2894 109.85 90.2919 109.441 90.2971ZM110.626 89.4749C110.838 89.4852 111.046 89.4903 111.252 89.4903C111.486 89.4903 111.703 89.4787 111.901 89.4556C112.102 89.4324 112.274 89.3964 112.419 89.3475C112.563 89.296 112.707 89.2072 112.851 89.0811C112.998 88.955 113.118 88.8096 113.21 88.6449C113.303 88.4777 113.374 88.2924 113.423 88.0891C113.472 87.8858 113.496 87.6786 113.496 87.4676C113.496 87.0815 113.43 86.765 113.299 86.518C113.168 86.2683 112.994 86.0895 112.778 85.9814C112.564 85.8707 112.233 85.8154 111.785 85.8154C111.494 85.8154 111.161 85.8205 110.785 85.8308L110.626 89.4749Z" fill="black"/>
<path d="M115.72 90.2971L115.833 88.8186L115.914 87.1086L115.964 85.5529V85.0279C116.6 85.0331 117.263 85.0356 117.953 85.0356L118.694 85.0318L119.811 85.0279L119.764 85.8617L119.397 85.8424C119.297 85.8373 119.158 85.8334 118.98 85.8308C118.803 85.8283 118.621 85.827 118.436 85.827C118.034 85.827 117.774 85.8283 117.655 85.8308C117.54 85.8308 117.363 85.8347 117.126 85.8424L117.065 87.2128C117.417 87.2205 117.773 87.2244 118.131 87.2244C118.378 87.2244 118.795 87.2167 119.382 87.2012C119.361 87.4354 119.343 87.7159 119.328 88.0427C118.64 88.035 118.246 88.0312 118.146 88.0312C117.842 88.0312 117.464 88.0389 117.01 88.0543L116.949 89.498L117.374 89.5019C117.497 89.5019 117.78 89.4993 118.223 89.4942L119.061 89.4787L119.621 89.4517C119.596 89.7502 119.578 90.032 119.567 90.2971C118.898 90.2919 118.294 90.2894 117.756 90.2894L116.485 90.2932L115.72 90.2971Z" fill="black"/>
<path d="M122.325 90.2971L122.178 89.8107C122.157 89.7464 122.072 89.5006 121.923 89.0734L121.174 86.9426L120.486 85.0279C120.751 85.0331 120.972 85.0356 121.147 85.0356C121.255 85.0356 121.444 85.0331 121.714 85.0279L121.834 85.4564C121.86 85.5439 121.897 85.6623 121.946 85.8115L122.881 88.6411C122.937 88.8238 123.011 89.0644 123.101 89.3629L123.31 88.892C123.361 88.7762 123.468 88.5497 123.63 88.2126L124.847 85.6726C124.883 85.5979 124.919 85.5195 124.955 85.4371C124.991 85.3522 125.048 85.2158 125.125 85.0279C125.405 85.0331 125.619 85.0356 125.766 85.0356C125.853 85.0356 126.056 85.0331 126.372 85.0279L126.04 85.6456L123.928 89.8146L123.703 90.2971C123.369 90.2919 123.145 90.2894 123.031 90.2894C122.931 90.2894 122.695 90.2919 122.325 90.2971Z" fill="black"/>
<path d="M129.029 90.2971C129.037 90.1993 129.041 90.1208 129.041 90.0616L129.064 89.498C129.386 89.2098 129.679 88.9319 129.944 88.6642C130.212 88.394 130.485 88.1058 130.763 87.7995C131.041 87.4907 131.251 87.2424 131.393 87.0545C131.509 86.9027 131.586 86.7895 131.624 86.7148C131.663 86.6376 131.689 86.5733 131.702 86.5218C131.715 86.4678 131.721 86.4137 131.721 86.3597C131.721 86.2181 131.678 86.1036 131.593 86.0161C131.509 85.9261 131.391 85.8566 131.242 85.8077C131.095 85.7562 130.924 85.7305 130.728 85.7305C130.548 85.7305 130.352 85.7472 130.141 85.7807C129.93 85.8115 129.658 85.8694 129.326 85.9544L129.4 85.5645C129.415 85.4718 129.438 85.3161 129.469 85.0974C130.064 84.9893 130.636 84.9353 131.184 84.9353C131.434 84.9353 131.675 84.9597 131.906 85.0086C132.138 85.0549 132.344 85.136 132.524 85.2518C132.707 85.365 132.84 85.4976 132.922 85.6494C133.007 85.7987 133.05 85.9557 133.05 86.1204C133.05 86.2181 133.039 86.3159 133.019 86.4137C133.001 86.5089 132.974 86.5964 132.938 86.6762C132.868 86.8358 132.779 86.9966 132.671 87.1587C132.565 87.3209 132.398 87.537 132.169 87.8073C131.942 88.0775 131.694 88.3541 131.424 88.6372C131.156 88.9203 130.857 89.2175 130.528 89.5289H130.879L131.74 89.5251C132.026 89.5251 132.236 89.5225 132.37 89.5173C132.504 89.5096 132.665 89.4967 132.853 89.4787C132.847 89.5585 132.838 89.6627 132.826 89.7914C132.815 89.9175 132.802 90.0861 132.787 90.2971C132.202 90.2919 131.595 90.2894 130.964 90.2894C130.191 90.2894 129.546 90.2919 129.029 90.2971Z" fill="black"/>
<path d="M134.208 90.2971C134.218 90.1118 134.232 89.7657 134.25 89.2587L134.837 89.2664C134.889 89.2664 135.058 89.2638 135.343 89.2587C135.331 89.4466 135.32 89.6357 135.313 89.8261L135.289 90.2971L134.783 90.2894C134.763 90.2894 134.571 90.2919 134.208 90.2971Z" fill="black"/>
<path d="M138.726 84.9353C139.133 84.9353 139.481 85.0228 139.769 85.1978C140.06 85.3728 140.286 85.652 140.445 86.0354C140.605 86.4189 140.685 86.8667 140.685 87.3788C140.685 87.7828 140.636 88.1856 140.538 88.587C140.44 88.9885 140.305 89.3179 140.132 89.5752C139.96 89.8326 139.723 90.0333 139.422 90.1774C139.123 90.319 138.802 90.3897 138.46 90.3897C138.13 90.3897 137.836 90.3267 137.576 90.2006C137.318 90.0719 137.108 89.8931 136.946 89.664C136.784 89.4324 136.67 89.1738 136.606 88.8881C136.542 88.5999 136.51 88.3039 136.51 88.0003C136.51 87.5808 136.558 87.1678 136.656 86.7611C136.754 86.3545 136.894 86.0161 137.077 85.7459C137.263 85.4731 137.502 85.2698 137.796 85.136C138.089 85.0022 138.399 84.9353 138.726 84.9353ZM138.696 85.7382C138.598 85.7382 138.501 85.7575 138.406 85.7961C138.313 85.8347 138.222 85.899 138.132 85.9891C138.044 86.0766 137.971 86.1795 137.912 86.2979C137.855 86.4163 137.802 86.5604 137.753 86.7303C137.707 86.8975 137.67 87.0983 137.641 87.3325C137.615 87.5641 137.603 87.8008 137.603 88.0427C137.603 88.3927 137.637 88.6784 137.707 88.8997C137.779 89.1184 137.885 89.2883 138.024 89.4092C138.165 89.5302 138.327 89.5907 138.51 89.5907C138.611 89.5907 138.708 89.5714 138.804 89.5328C138.899 89.4916 138.996 89.4157 139.093 89.305C139.194 89.1944 139.283 89.0335 139.36 88.8225C139.44 88.6089 139.498 88.376 139.534 88.1238C139.57 87.869 139.588 87.6117 139.588 87.3518C139.588 86.994 139.553 86.6994 139.483 86.4678C139.417 86.2362 139.315 86.0573 139.178 85.9312C139.042 85.8025 138.881 85.7382 138.696 85.7382Z" fill="black"/>
<path d="M126.087 78.9695C125.975 77.2282 125.864 75.8428 125.752 74.8134C127.666 75.4568 129.395 75.7784 130.94 75.7784C131.893 75.7784 132.661 75.5897 133.245 75.2123C133.837 74.8263 134.133 74.3116 134.133 73.6682C134.133 73.042 133.833 72.5831 133.232 72.2914C132.64 71.9997 131.713 71.8539 130.451 71.8539C129.636 71.8539 128.889 71.9011 128.211 71.9954C128.331 70.6572 128.43 69.3405 128.507 68.0452C129.125 68.1567 129.773 68.2124 130.451 68.2124C131.224 68.2124 131.863 68.1653 132.369 68.0709C132.884 67.968 133.275 67.775 133.541 67.4919C133.807 67.2002 133.94 66.8871 133.94 66.5526C133.94 66.2523 133.833 65.9821 133.618 65.7419C133.412 65.5017 133.099 65.3345 132.678 65.2401C132.258 65.1372 131.734 65.0857 131.108 65.0857C130.567 65.0857 129.992 65.1157 129.383 65.1758C128.773 65.2358 127.945 65.3731 126.898 65.5875L127.541 62.6023C127.593 62.3364 127.644 62.0533 127.696 61.753C129.558 61.53 131.266 61.4185 132.82 61.4185C133.833 61.4185 134.807 61.4871 135.742 61.6244C136.678 61.7616 137.476 62.0147 138.137 62.3835C138.806 62.7438 139.296 63.2156 139.605 63.799C139.922 64.3823 140.081 65.0385 140.081 65.7677C140.081 66.2051 140.021 66.6255 139.901 67.0287C139.789 67.4318 139.613 67.8093 139.373 68.161C139.133 68.5041 138.849 68.8086 138.523 69.0746C138.197 69.3405 137.879 69.5549 137.571 69.7179C137.262 69.8809 136.85 70.0653 136.335 70.2712C136.875 70.3827 137.296 70.4985 137.596 70.6186C137.905 70.7387 138.214 70.9146 138.523 71.1462C138.832 71.3692 139.094 71.6352 139.309 71.944C139.523 72.2442 139.682 72.5831 139.785 72.9605C139.888 73.3379 139.939 73.7411 139.939 74.17C139.939 75.0193 139.742 75.8042 139.347 76.5248C138.961 77.2453 138.386 77.8458 137.622 78.3262C136.867 78.798 135.996 79.1368 135.009 79.3427C134.03 79.5486 133.043 79.6515 132.047 79.6515C131.078 79.6515 130.151 79.6 129.267 79.4971C128.391 79.4027 127.331 79.2269 126.087 78.9695Z" fill="#07547D"/>
<defs>
<linearGradient id="paint0_linear_143_140" x1="257.495" y1="10.5861" x2="219.113" y2="161.455" gradientUnits="userSpaceOnUse">
<stop stop-color="#3BB7F9" stop-opacity="0.03"/>
<stop offset="0.435" stop-color="#2F94C9"/>
<stop offset="1" stop-color="#06547D"/>
</linearGradient>
<linearGradient id="paint1_linear_143_140" x1="257.495" y1="10.5861" x2="219.113" y2="161.455" gradientUnits="userSpaceOnUse">
<stop stop-color="#3BB7F9" stop-opacity="0.03"/>
<stop offset="0.435" stop-color="#2F94C9"/>
<stop offset="1" stop-color="#06547D"/>
</linearGradient>
<radialGradient id="paint2_radial_143_140" cx="0" cy="0" r="1" gradientUnits="userSpaceOnUse" gradientTransform="translate(128.5 57.5) rotate(90) scale(57.5 128.5)">
<stop offset="0.544" stop-color="#0871BE" stop-opacity="0.44"/>
<stop offset="1" stop-color="#3BB7F9" stop-opacity="0.13"/>
</radialGradient>
</defs>
</svg>
