<svg width="585" height="263" viewBox="0 0 585 263" fill="none" xmlns="http://www.w3.org/2000/svg">
<path d="M340.641 94.0909V113H336.643V94.0909H340.641Z" fill="black"/>
<path d="M355.228 99.5291C355.154 98.7843 354.837 98.2057 354.277 97.7933C353.717 97.3809 352.957 97.1747 351.997 97.1747C351.344 97.1747 350.793 97.267 350.344 97.4517C349.895 97.6302 349.55 97.8795 349.31 98.1996C349.076 98.5196 348.959 98.8828 348.959 99.2891C348.947 99.6276 349.018 99.9231 349.171 100.175C349.332 100.428 349.55 100.646 349.827 100.831C350.104 101.009 350.424 101.166 350.787 101.302C351.15 101.431 351.538 101.542 351.951 101.634L353.649 102.04C354.474 102.225 355.231 102.471 355.921 102.779C356.61 103.087 357.207 103.465 357.712 103.915C358.217 104.364 358.608 104.893 358.885 105.503C359.168 106.112 359.312 106.811 359.318 107.599C359.312 108.756 359.017 109.759 358.432 110.609C357.854 111.452 357.016 112.107 355.921 112.575C354.831 113.037 353.517 113.268 351.978 113.268C350.452 113.268 349.122 113.034 347.99 112.566C346.863 112.098 345.983 111.406 345.349 110.489C344.721 109.565 344.392 108.424 344.361 107.063H348.23C348.273 107.697 348.454 108.227 348.774 108.651C349.101 109.07 349.535 109.387 350.076 109.602C350.624 109.812 351.243 109.916 351.932 109.916C352.609 109.916 353.197 109.818 353.696 109.621C354.2 109.424 354.591 109.15 354.868 108.799C355.145 108.448 355.284 108.045 355.284 107.589C355.284 107.165 355.158 106.808 354.905 106.518C354.659 106.229 354.296 105.983 353.816 105.78C353.342 105.577 352.76 105.392 352.071 105.226L350.012 104.709C348.417 104.321 347.159 103.715 346.235 102.89C345.312 102.065 344.854 100.954 344.86 99.5568C344.854 98.4119 345.158 97.4117 345.774 96.5561C346.395 95.7005 347.248 95.0327 348.331 94.5526C349.415 94.0724 350.646 93.8324 352.024 93.8324C353.428 93.8324 354.653 94.0724 355.699 94.5526C356.752 95.0327 357.57 95.7005 358.155 96.5561C358.74 97.4117 359.042 98.4027 359.06 99.5291H355.228Z" fill="black"/>
<path d="M380.424 103.545C380.424 105.607 380.033 107.362 379.251 108.808C378.476 110.255 377.417 111.36 376.075 112.123C374.74 112.88 373.238 113.259 371.57 113.259C369.889 113.259 368.381 112.877 367.045 112.114C365.71 111.35 364.654 110.245 363.879 108.799C363.103 107.353 362.715 105.601 362.715 103.545C362.715 101.483 363.103 99.7292 363.879 98.2827C364.654 96.8362 365.71 95.7344 367.045 94.9773C368.381 94.214 369.889 93.8324 371.57 93.8324C373.238 93.8324 374.74 94.214 376.075 94.9773C377.417 95.7344 378.476 96.8362 379.251 98.2827C380.033 99.7292 380.424 101.483 380.424 103.545ZM376.371 103.545C376.371 102.21 376.171 101.083 375.771 100.166C375.377 99.2491 374.82 98.5535 374.099 98.0795C373.379 97.6056 372.536 97.3686 371.57 97.3686C370.603 97.3686 369.76 97.6056 369.04 98.0795C368.32 98.5535 367.759 99.2491 367.359 100.166C366.965 101.083 366.768 102.21 366.768 103.545C366.768 104.881 366.965 106.008 367.359 106.925C367.759 107.842 368.32 108.537 369.04 109.011C369.76 109.485 370.603 109.722 371.57 109.722C372.536 109.722 373.379 109.485 374.099 109.011C374.82 108.537 375.377 107.842 375.771 106.925C376.171 106.008 376.371 104.881 376.371 103.545Z" fill="black"/>
<path d="M398.214 93.8324C399.186 93.8324 400.122 93.9955 401.021 94.3217C401.926 94.648 402.732 95.1681 403.44 95.8821C404.154 96.5961 404.717 97.544 405.129 98.7259C405.548 99.9015 405.76 101.345 405.766 103.056C405.766 104.663 405.585 106.097 405.222 107.359C404.865 108.614 404.351 109.682 403.68 110.562C403.009 111.443 402.199 112.114 401.252 112.575C400.304 113.031 399.245 113.259 398.075 113.259C396.814 113.259 395.699 113.015 394.733 112.529C393.767 112.037 392.988 111.369 392.397 110.526C391.812 109.676 391.458 108.722 391.335 107.663H395.278C395.432 108.353 395.755 108.888 396.247 109.27C396.74 109.645 397.349 109.833 398.075 109.833C399.306 109.833 400.242 109.298 400.882 108.227C401.522 107.149 401.845 105.675 401.852 103.804H401.722C401.439 104.358 401.058 104.835 400.578 105.235C400.097 105.629 399.546 105.934 398.925 106.149C398.309 106.365 397.654 106.472 396.958 106.472C395.844 106.472 394.85 106.211 393.976 105.688C393.102 105.164 392.413 104.444 391.908 103.527C391.403 102.61 391.151 101.563 391.151 100.388C391.145 99.1198 391.437 97.9903 392.028 96.9993C392.619 96.0083 393.444 95.2327 394.502 94.6726C395.567 94.1063 396.804 93.8262 398.214 93.8324ZM398.242 96.9716C397.62 96.9716 397.066 97.1193 396.58 97.4148C396.1 97.7102 395.718 98.1072 395.435 98.6058C395.158 99.1044 395.022 99.6615 395.029 100.277C395.029 100.899 395.164 101.459 395.435 101.957C395.712 102.45 396.087 102.844 396.561 103.139C397.041 103.428 397.589 103.573 398.205 103.573C398.666 103.573 399.094 103.487 399.488 103.315C399.882 103.142 400.224 102.905 400.513 102.604C400.808 102.296 401.039 101.942 401.205 101.542C401.372 101.142 401.455 100.717 401.455 100.268C401.448 99.6707 401.307 99.1229 401.03 98.6243C400.753 98.1257 400.371 97.7256 399.885 97.424C399.399 97.1224 398.851 96.9716 398.242 96.9716Z" fill="black"/>
<path d="M416.99 113.415C415.402 113.409 414.036 113.018 412.891 112.243C411.752 111.467 410.875 110.344 410.26 108.873C409.65 107.402 409.349 105.632 409.355 103.564C409.355 101.502 409.659 99.7446 410.269 98.2919C410.884 96.8392 411.761 95.7344 412.9 94.9773C414.045 94.214 415.408 93.8324 416.99 93.8324C418.572 93.8324 419.933 94.214 421.071 94.9773C422.216 95.7405 423.096 96.8485 423.712 98.3011C424.328 99.7476 424.632 101.502 424.626 103.564C424.626 105.638 424.318 107.411 423.703 108.882C423.093 110.353 422.219 111.477 421.081 112.252C419.942 113.028 418.578 113.415 416.99 113.415ZM416.99 110.101C418.074 110.101 418.939 109.556 419.585 108.467C420.231 107.377 420.551 105.743 420.545 103.564C420.545 102.13 420.397 100.936 420.102 99.9815C419.813 99.0275 419.4 98.3104 418.865 97.8303C418.335 97.3501 417.711 97.1101 416.99 97.1101C415.913 97.1101 415.051 97.6487 414.405 98.7259C413.759 99.803 413.433 101.416 413.426 103.564C413.426 105.017 413.571 106.229 413.86 107.202C414.156 108.168 414.571 108.894 415.107 109.381C415.642 109.861 416.27 110.101 416.99 110.101Z" fill="black"/>
<path d="M435.931 113.415C434.343 113.409 432.976 113.018 431.831 112.243C430.693 111.467 429.815 110.344 429.2 108.873C428.591 107.402 428.289 105.632 428.295 103.564C428.295 101.502 428.6 99.7446 429.209 98.2919C429.825 96.8392 430.702 95.7344 431.841 94.9773C432.985 94.214 434.349 93.8324 435.931 93.8324C437.513 93.8324 438.873 94.214 440.012 94.9773C441.157 95.7405 442.037 96.8485 442.652 98.3011C443.268 99.7476 443.573 101.502 443.566 103.564C443.566 105.638 443.259 107.411 442.643 108.882C442.034 110.353 441.16 111.477 440.021 112.252C438.882 113.028 437.519 113.415 435.931 113.415ZM435.931 110.101C437.014 110.101 437.879 109.556 438.525 108.467C439.172 107.377 439.492 105.743 439.485 103.564C439.485 102.13 439.338 100.936 439.042 99.9815C438.753 99.0275 438.341 98.3104 437.805 97.8303C437.276 97.3501 436.651 97.1101 435.931 97.1101C434.854 97.1101 433.992 97.6487 433.346 98.7259C432.699 99.803 432.373 101.416 432.367 103.564C432.367 105.017 432.512 106.229 432.801 107.202C433.096 108.168 433.512 108.894 434.047 109.381C434.583 109.861 435.211 110.101 435.931 110.101Z" fill="black"/>
<path d="M455.684 94.0909V113H451.686V97.8857H451.575L447.245 100.6V97.0547L451.926 94.0909H455.684Z" fill="black"/>
<path d="M463.554 110.803C462.944 110.803 462.421 110.587 461.984 110.156C461.553 109.725 461.338 109.202 461.338 108.587C461.338 107.983 461.553 107.466 461.984 107.036C462.421 106.605 462.944 106.389 463.554 106.389C464.145 106.389 464.662 106.605 465.105 107.036C465.548 107.466 465.77 107.983 465.77 108.587C465.77 108.993 465.665 109.365 465.456 109.704C465.253 110.036 464.985 110.304 464.652 110.507C464.32 110.704 463.954 110.803 463.554 110.803ZM463.554 101.523C462.944 101.523 462.421 101.308 461.984 100.877C461.553 100.446 461.338 99.9231 461.338 99.3075C461.338 98.7043 461.553 98.1903 461.984 97.7656C462.421 97.3348 462.944 97.1193 463.554 97.1193C464.145 97.1193 464.662 97.3348 465.105 97.7656C465.548 98.1903 465.77 98.7043 465.77 99.3075C465.77 99.7199 465.665 100.095 465.456 100.434C465.253 100.766 464.985 101.031 464.652 101.228C464.32 101.425 463.954 101.523 463.554 101.523Z" fill="black"/>
<path d="M470.002 113V110.119L476.733 103.887C477.305 103.333 477.785 102.835 478.173 102.391C478.567 101.948 478.866 101.514 479.069 101.089C479.272 100.659 479.373 100.194 479.373 99.6953C479.373 99.1413 479.247 98.6643 478.995 98.2642C478.742 97.8579 478.398 97.5471 477.961 97.3317C477.524 97.1101 477.028 96.9993 476.474 96.9993C475.896 96.9993 475.391 97.1162 474.96 97.3501C474.529 97.584 474.197 97.9195 473.963 98.3565C473.729 98.7936 473.612 99.3137 473.612 99.9169H469.817C469.817 98.6797 470.097 97.6056 470.657 96.6946C471.218 95.7836 472.002 95.0788 473.012 94.5803C474.021 94.0817 475.185 93.8324 476.502 93.8324C477.856 93.8324 479.035 94.0724 480.038 94.5526C481.048 95.0265 481.832 95.6851 482.393 96.5284C482.953 97.3717 483.233 98.3381 483.233 99.4276C483.233 100.142 483.091 100.846 482.808 101.542C482.531 102.237 482.036 103.01 481.322 103.859C480.608 104.703 479.601 105.715 478.302 106.897L475.542 109.602V109.732H483.482V113H470.002Z" fill="black"/>
<path d="M494.833 113.415C493.245 113.409 491.878 113.018 490.734 112.243C489.595 111.467 488.718 110.344 488.102 108.873C487.493 107.402 487.191 105.632 487.197 103.564C487.197 101.502 487.502 99.7446 488.111 98.2919C488.727 96.8392 489.604 95.7344 490.743 94.9773C491.888 94.214 493.251 93.8324 494.833 93.8324C496.415 93.8324 497.775 94.214 498.914 94.9773C500.059 95.7405 500.939 96.8485 501.555 98.3011C502.17 99.7476 502.475 101.502 502.469 103.564C502.469 105.638 502.161 107.411 501.545 108.882C500.936 110.353 500.062 111.477 498.923 112.252C497.784 113.028 496.421 113.415 494.833 113.415ZM494.833 110.101C495.916 110.101 496.781 109.556 497.427 108.467C498.074 107.377 498.394 105.743 498.388 103.564C498.388 102.13 498.24 100.936 497.944 99.9815C497.655 99.0275 497.243 98.3104 496.707 97.8303C496.178 97.3501 495.553 97.1101 494.833 97.1101C493.756 97.1101 492.894 97.6487 492.248 98.7259C491.601 99.803 491.275 101.416 491.269 103.564C491.269 105.017 491.414 106.229 491.703 107.202C491.998 108.168 492.414 108.894 492.949 109.381C493.485 109.861 494.113 110.101 494.833 110.101Z" fill="black"/>
<path d="M514.586 94.0909V113H510.588V97.8857H510.477L506.147 100.6V97.0547L510.828 94.0909H514.586Z" fill="black"/>
<path d="M527.026 113.259C525.721 113.259 524.558 113.018 523.536 112.538C522.521 112.058 521.714 111.397 521.117 110.553C520.52 109.71 520.209 108.744 520.185 107.654H524.062C524.106 108.387 524.413 108.981 524.986 109.436C525.558 109.892 526.238 110.119 527.026 110.119C527.654 110.119 528.208 109.981 528.688 109.704C529.174 109.421 529.553 109.03 529.824 108.531C530.101 108.027 530.239 107.448 530.239 106.795C530.239 106.131 530.098 105.546 529.815 105.041C529.538 104.536 529.153 104.143 528.66 103.859C528.168 103.576 527.605 103.432 526.971 103.425C526.417 103.425 525.878 103.539 525.355 103.767C524.838 103.995 524.435 104.306 524.146 104.7L520.591 104.062L521.486 94.0909H533.046V97.3594H524.783L524.293 102.096H524.404C524.736 101.628 525.238 101.24 525.909 100.933C526.58 100.625 527.331 100.471 528.162 100.471C529.301 100.471 530.316 100.739 531.209 101.274C532.101 101.81 532.806 102.545 533.323 103.481C533.84 104.41 534.096 105.481 534.089 106.694C534.096 107.968 533.8 109.101 533.203 110.092C532.612 111.076 531.784 111.852 530.719 112.418C529.661 112.978 528.43 113.259 527.026 113.259Z" fill="black"/>
<path d="M340.641 125.091V144H336.643V125.091H340.641Z" fill="black"/>
<path d="M355.228 130.529C355.154 129.784 354.837 129.206 354.277 128.793C353.717 128.381 352.957 128.175 351.997 128.175C351.344 128.175 350.793 128.267 350.344 128.452C349.895 128.63 349.55 128.88 349.31 129.2C349.076 129.52 348.959 129.883 348.959 130.289C348.947 130.628 349.018 130.923 349.171 131.175C349.332 131.428 349.55 131.646 349.827 131.831C350.104 132.009 350.424 132.166 350.787 132.302C351.15 132.431 351.538 132.542 351.951 132.634L353.649 133.04C354.474 133.225 355.231 133.471 355.921 133.779C356.61 134.087 357.207 134.465 357.712 134.915C358.217 135.364 358.608 135.893 358.885 136.503C359.168 137.112 359.312 137.811 359.318 138.599C359.312 139.756 359.017 140.759 358.432 141.609C357.854 142.452 357.016 143.107 355.921 143.575C354.831 144.037 353.517 144.268 351.978 144.268C350.452 144.268 349.122 144.034 347.99 143.566C346.863 143.098 345.983 142.406 345.349 141.489C344.721 140.565 344.392 139.424 344.361 138.063H348.23C348.273 138.697 348.454 139.227 348.774 139.651C349.101 140.07 349.535 140.387 350.076 140.602C350.624 140.812 351.243 140.916 351.932 140.916C352.609 140.916 353.197 140.818 353.696 140.621C354.2 140.424 354.591 140.15 354.868 139.799C355.145 139.448 355.284 139.045 355.284 138.589C355.284 138.165 355.158 137.808 354.905 137.518C354.659 137.229 354.296 136.983 353.816 136.78C353.342 136.577 352.76 136.392 352.071 136.226L350.012 135.709C348.417 135.321 347.159 134.715 346.235 133.89C345.312 133.065 344.854 131.954 344.86 130.557C344.854 129.412 345.158 128.412 345.774 127.556C346.395 126.701 347.248 126.033 348.331 125.553C349.415 125.072 350.646 124.832 352.024 124.832C353.428 124.832 354.653 125.072 355.699 125.553C356.752 126.033 357.57 126.701 358.155 127.556C358.74 128.412 359.042 129.403 359.06 130.529H355.228Z" fill="black"/>
<path d="M380.424 134.545C380.424 136.607 380.033 138.362 379.251 139.808C378.476 141.255 377.417 142.36 376.075 143.123C374.74 143.88 373.238 144.259 371.57 144.259C369.889 144.259 368.381 143.877 367.045 143.114C365.71 142.35 364.654 141.245 363.879 139.799C363.103 138.352 362.715 136.601 362.715 134.545C362.715 132.483 363.103 130.729 363.879 129.283C364.654 127.836 365.71 126.734 367.045 125.977C368.381 125.214 369.889 124.832 371.57 124.832C373.238 124.832 374.74 125.214 376.075 125.977C377.417 126.734 378.476 127.836 379.251 129.283C380.033 130.729 380.424 132.483 380.424 134.545ZM376.371 134.545C376.371 133.21 376.171 132.083 375.771 131.166C375.377 130.249 374.82 129.553 374.099 129.08C373.379 128.606 372.536 128.369 371.57 128.369C370.603 128.369 369.76 128.606 369.04 129.08C368.32 129.553 367.759 130.249 367.359 131.166C366.965 132.083 366.768 133.21 366.768 134.545C366.768 135.881 366.965 137.008 367.359 137.925C367.759 138.842 368.32 139.537 369.04 140.011C369.76 140.485 370.603 140.722 371.57 140.722C372.536 140.722 373.379 140.485 374.099 140.011C374.82 139.537 375.377 138.842 375.771 137.925C376.171 137.008 376.371 135.881 376.371 134.545Z" fill="black"/>
<path d="M391.372 144V141.119L398.103 134.887C398.676 134.333 399.156 133.835 399.543 133.391C399.937 132.948 400.236 132.514 400.439 132.089C400.642 131.659 400.744 131.194 400.744 130.695C400.744 130.141 400.618 129.664 400.365 129.264C400.113 128.858 399.768 128.547 399.331 128.332C398.894 128.11 398.399 127.999 397.845 127.999C397.266 127.999 396.761 128.116 396.33 128.35C395.899 128.584 395.567 128.92 395.333 129.357C395.099 129.794 394.982 130.314 394.982 130.917H391.188C391.188 129.68 391.468 128.606 392.028 127.695C392.588 126.784 393.373 126.079 394.382 125.58C395.392 125.082 396.555 124.832 397.872 124.832C399.226 124.832 400.405 125.072 401.408 125.553C402.418 126.027 403.203 126.685 403.763 127.528C404.323 128.372 404.603 129.338 404.603 130.428C404.603 131.142 404.462 131.846 404.178 132.542C403.901 133.237 403.406 134.01 402.692 134.859C401.978 135.703 400.971 136.715 399.673 137.897L396.912 140.602V140.732H404.852V144H391.372Z" fill="black"/>
<path d="M416.203 144.415C414.615 144.409 413.249 144.018 412.104 143.243C410.965 142.467 410.088 141.344 409.472 139.873C408.863 138.402 408.561 136.632 408.568 134.564C408.568 132.502 408.872 130.745 409.482 129.292C410.097 127.839 410.974 126.734 412.113 125.977C413.258 125.214 414.621 124.832 416.203 124.832C417.785 124.832 419.146 125.214 420.284 125.977C421.429 126.741 422.309 127.848 422.925 129.301C423.54 130.748 423.845 132.502 423.839 134.564C423.839 136.638 423.531 138.411 422.916 139.882C422.306 141.353 421.432 142.477 420.293 143.252C419.155 144.028 417.791 144.415 416.203 144.415ZM416.203 141.101C417.287 141.101 418.151 140.556 418.798 139.467C419.444 138.377 419.764 136.743 419.758 134.564C419.758 133.13 419.61 131.936 419.315 130.982C419.025 130.027 418.613 129.31 418.078 128.83C417.548 128.35 416.923 128.11 416.203 128.11C415.126 128.11 414.264 128.649 413.618 129.726C412.972 130.803 412.646 132.416 412.639 134.564C412.639 136.017 412.784 137.229 413.073 138.202C413.369 139.168 413.784 139.894 414.32 140.381C414.855 140.861 415.483 141.101 416.203 141.101Z" fill="black"/>
<path d="M435.144 144.415C433.556 144.409 432.189 144.018 431.044 143.243C429.905 142.467 429.028 141.344 428.413 139.873C427.803 138.402 427.502 136.632 427.508 134.564C427.508 132.502 427.813 130.745 428.422 129.292C429.038 127.839 429.915 126.734 431.053 125.977C432.198 125.214 433.562 124.832 435.144 124.832C436.726 124.832 438.086 125.214 439.225 125.977C440.37 126.741 441.25 127.848 441.865 129.301C442.481 130.748 442.785 132.502 442.779 134.564C442.779 136.638 442.472 138.411 441.856 139.882C441.247 141.353 440.373 142.477 439.234 143.252C438.095 144.028 436.732 144.415 435.144 144.415ZM435.144 141.101C436.227 141.101 437.092 140.556 437.738 139.467C438.384 138.377 438.704 136.743 438.698 134.564C438.698 133.13 438.551 131.936 438.255 130.982C437.966 130.027 437.553 129.31 437.018 128.83C436.489 128.35 435.864 128.11 435.144 128.11C434.066 128.11 433.205 128.649 432.558 129.726C431.912 130.803 431.586 132.416 431.58 134.564C431.58 136.017 431.724 137.229 432.014 138.202C432.309 139.168 432.725 139.894 433.26 140.381C433.796 140.861 434.423 141.101 435.144 141.101Z" fill="black"/>
<path d="M454.084 144.415C452.496 144.409 451.13 144.018 449.985 143.243C448.846 142.467 447.969 141.344 447.353 139.873C446.744 138.402 446.442 136.632 446.448 134.564C446.448 132.502 446.753 130.745 447.362 129.292C447.978 127.839 448.855 126.734 449.994 125.977C451.139 125.214 452.502 124.832 454.084 124.832C455.666 124.832 457.026 125.214 458.165 125.977C459.31 126.741 460.19 127.848 460.806 129.301C461.421 130.748 461.726 132.502 461.72 134.564C461.72 136.638 461.412 138.411 460.796 139.882C460.187 141.353 459.313 142.477 458.174 143.252C457.036 144.028 455.672 144.415 454.084 144.415ZM454.084 141.101C455.167 141.101 456.032 140.556 456.679 139.467C457.325 138.377 457.645 136.743 457.639 134.564C457.639 133.13 457.491 131.936 457.196 130.982C456.906 130.027 456.494 129.31 455.958 128.83C455.429 128.35 454.804 128.11 454.084 128.11C453.007 128.11 452.145 128.649 451.499 129.726C450.853 130.803 450.526 132.416 450.52 134.564C450.52 136.017 450.665 137.229 450.954 138.202C451.25 139.168 451.665 139.894 452.201 140.381C452.736 140.861 453.364 141.101 454.084 141.101Z" fill="black"/>
<path d="M473.024 144.415C471.436 144.409 470.07 144.018 468.925 143.243C467.786 142.467 466.909 141.344 466.294 139.873C465.684 138.402 465.383 136.632 465.389 134.564C465.389 132.502 465.693 130.745 466.303 129.292C466.918 127.839 467.796 126.734 468.934 125.977C470.079 125.214 471.443 124.832 473.024 124.832C474.606 124.832 475.967 125.214 477.105 125.977C478.25 126.741 479.13 127.848 479.746 129.301C480.362 130.748 480.666 132.502 480.66 134.564C480.66 136.638 480.352 138.411 479.737 139.882C479.127 141.353 478.253 142.477 477.115 143.252C475.976 144.028 474.613 144.415 473.024 144.415ZM473.024 141.101C474.108 141.101 474.973 140.556 475.619 139.467C476.265 138.377 476.585 136.743 476.579 134.564C476.579 133.13 476.431 131.936 476.136 130.982C475.847 130.027 475.434 129.31 474.899 128.83C474.369 128.35 473.745 128.11 473.024 128.11C471.947 128.11 471.086 128.649 470.439 129.726C469.793 130.803 469.467 132.416 469.461 134.564C469.461 136.017 469.605 137.229 469.894 138.202C470.19 139.168 470.605 139.894 471.141 140.381C471.676 140.861 472.304 141.101 473.024 141.101Z" fill="black"/>
<path d="M493.424 132.985V136.106H484.8V132.985H493.424Z" fill="black"/>
<path d="M506.005 125.091V144H502.007V128.886H501.896L497.566 131.6V128.055L502.247 125.091H506.005Z" fill="black"/>
<path d="M513.875 141.803C513.266 141.803 512.742 141.587 512.305 141.156C511.874 140.725 511.659 140.202 511.659 139.587C511.659 138.983 511.874 138.466 512.305 138.036C512.742 137.605 513.266 137.389 513.875 137.389C514.466 137.389 514.983 137.605 515.426 138.036C515.869 138.466 516.091 138.983 516.091 139.587C516.091 139.993 515.986 140.365 515.777 140.704C515.574 141.036 515.306 141.304 514.974 141.507C514.641 141.704 514.275 141.803 513.875 141.803ZM513.875 132.523C513.266 132.523 512.742 132.308 512.305 131.877C511.874 131.446 511.659 130.923 511.659 130.308C511.659 129.704 511.874 129.19 512.305 128.766C512.742 128.335 513.266 128.119 513.875 128.119C514.466 128.119 514.983 128.335 515.426 128.766C515.869 129.19 516.091 129.704 516.091 130.308C516.091 130.72 515.986 131.095 515.777 131.434C515.574 131.766 515.306 132.031 514.974 132.228C514.641 132.425 514.275 132.523 513.875 132.523Z" fill="black"/>
<path d="M520.323 144V141.119L527.054 134.887C527.626 134.333 528.107 133.835 528.494 133.391C528.888 132.948 529.187 132.514 529.39 132.089C529.593 131.659 529.695 131.194 529.695 130.695C529.695 130.141 529.568 129.664 529.316 129.264C529.064 128.858 528.719 128.547 528.282 128.332C527.845 128.11 527.349 127.999 526.795 127.999C526.217 127.999 525.712 128.116 525.281 128.35C524.85 128.584 524.518 128.92 524.284 129.357C524.05 129.794 523.933 130.314 523.933 130.917H520.138C520.138 129.68 520.419 128.606 520.979 127.695C521.539 126.784 522.324 126.079 523.333 125.58C524.343 125.082 525.506 124.832 526.823 124.832C528.177 124.832 529.356 125.072 530.359 125.553C531.369 126.027 532.154 126.685 532.714 127.528C533.274 128.372 533.554 129.338 533.554 130.428C533.554 131.142 533.412 131.846 533.129 132.542C532.852 133.237 532.357 134.01 531.643 134.859C530.929 135.703 529.922 136.715 528.624 137.897L525.863 140.602V140.732H533.803V144H520.323Z" fill="black"/>
<path d="M545.154 144.415C543.566 144.409 542.2 144.018 541.055 143.243C539.916 142.467 539.039 141.344 538.423 139.873C537.814 138.402 537.512 136.632 537.518 134.564C537.518 132.502 537.823 130.745 538.433 129.292C539.048 127.839 539.925 126.734 541.064 125.977C542.209 125.214 543.572 124.832 545.154 124.832C546.736 124.832 548.096 125.214 549.235 125.977C550.38 126.741 551.26 127.848 551.876 129.301C552.491 130.748 552.796 132.502 552.79 134.564C552.79 136.638 552.482 138.411 551.867 139.882C551.257 141.353 550.383 142.477 549.244 143.252C548.106 144.028 546.742 144.415 545.154 144.415ZM545.154 141.101C546.237 141.101 547.102 140.556 547.749 139.467C548.395 138.377 548.715 136.743 548.709 134.564C548.709 133.13 548.561 131.936 548.266 130.982C547.976 130.027 547.564 129.31 547.028 128.83C546.499 128.35 545.874 128.11 545.154 128.11C544.077 128.11 543.215 128.649 542.569 129.726C541.923 130.803 541.596 132.416 541.59 134.564C541.59 136.017 541.735 137.229 542.024 138.202C542.32 139.168 542.735 139.894 543.271 140.381C543.806 140.861 544.434 141.101 545.154 141.101Z" fill="black"/>
<path d="M564.907 125.091V144H560.909V128.886H560.798L556.468 131.6V128.055L561.149 125.091H564.907Z" fill="black"/>
<path d="M577.495 144.259C576.073 144.259 574.808 144.028 573.7 143.566C572.599 143.098 571.734 142.461 571.106 141.655C570.478 140.848 570.164 139.934 570.164 138.913C570.164 138.125 570.343 137.402 570.7 136.743C571.063 136.078 571.555 135.527 572.177 135.09C572.799 134.647 573.494 134.364 574.264 134.241V134.111C573.254 133.908 572.435 133.419 571.808 132.643C571.18 131.862 570.866 130.954 570.866 129.92C570.866 128.941 571.152 128.07 571.725 127.307C572.297 126.537 573.082 125.934 574.079 125.497C575.082 125.054 576.221 124.832 577.495 124.832C578.769 124.832 579.905 125.054 580.902 125.497C581.905 125.94 582.693 126.547 583.266 127.316C583.838 128.079 584.128 128.947 584.134 129.92C584.128 130.96 583.807 131.868 583.173 132.643C582.539 133.419 581.727 133.908 580.736 134.111V134.241C581.493 134.364 582.179 134.647 582.795 135.09C583.417 135.527 583.909 136.078 584.272 136.743C584.641 137.402 584.829 138.125 584.835 138.913C584.829 139.934 584.512 140.848 583.884 141.655C583.256 142.461 582.389 143.098 581.281 143.566C580.179 144.028 578.917 144.259 577.495 144.259ZM577.495 141.322C578.129 141.322 578.683 141.209 579.157 140.981C579.631 140.747 580 140.427 580.265 140.021C580.536 139.608 580.671 139.134 580.671 138.599C580.671 138.051 580.533 137.568 580.256 137.149C579.979 136.724 579.603 136.392 579.129 136.152C578.655 135.906 578.111 135.783 577.495 135.783C576.886 135.783 576.341 135.906 575.861 136.152C575.381 136.392 575.002 136.724 574.725 137.149C574.454 137.568 574.319 138.051 574.319 138.599C574.319 139.134 574.451 139.608 574.716 140.021C574.981 140.427 575.353 140.747 575.833 140.981C576.313 141.209 576.867 141.322 577.495 141.322ZM577.495 132.874C578.024 132.874 578.495 132.767 578.908 132.551C579.32 132.336 579.643 132.037 579.877 131.656C580.111 131.274 580.228 130.834 580.228 130.335C580.228 129.843 580.111 129.412 579.877 129.043C579.643 128.667 579.323 128.375 578.917 128.165C578.511 127.95 578.037 127.842 577.495 127.842C576.96 127.842 576.486 127.95 576.073 128.165C575.661 128.375 575.338 128.667 575.104 129.043C574.876 129.412 574.762 129.843 574.762 130.335C574.762 130.834 574.879 131.274 575.113 131.656C575.347 132.037 575.67 132.336 576.083 132.551C576.495 132.767 576.966 132.874 577.495 132.874Z" fill="black"/>
<path d="M340.641 156.091V175H336.643V156.091H340.641Z" fill="black"/>
<path d="M355.228 161.529C355.154 160.784 354.837 160.206 354.277 159.793C353.717 159.381 352.957 159.175 351.997 159.175C351.344 159.175 350.793 159.267 350.344 159.452C349.895 159.63 349.55 159.88 349.31 160.2C349.076 160.52 348.959 160.883 348.959 161.289C348.947 161.628 349.018 161.923 349.171 162.175C349.332 162.428 349.55 162.646 349.827 162.831C350.104 163.009 350.424 163.166 350.787 163.302C351.15 163.431 351.538 163.542 351.951 163.634L353.649 164.04C354.474 164.225 355.231 164.471 355.921 164.779C356.61 165.087 357.207 165.465 357.712 165.915C358.217 166.364 358.608 166.893 358.885 167.503C359.168 168.112 359.312 168.811 359.318 169.599C359.312 170.756 359.017 171.759 358.432 172.609C357.854 173.452 357.016 174.107 355.921 174.575C354.831 175.037 353.517 175.268 351.978 175.268C350.452 175.268 349.122 175.034 347.99 174.566C346.863 174.098 345.983 173.406 345.349 172.489C344.721 171.565 344.392 170.424 344.361 169.063H348.23C348.273 169.697 348.454 170.227 348.774 170.651C349.101 171.07 349.535 171.387 350.076 171.602C350.624 171.812 351.243 171.916 351.932 171.916C352.609 171.916 353.197 171.818 353.696 171.621C354.2 171.424 354.591 171.15 354.868 170.799C355.145 170.448 355.284 170.045 355.284 169.589C355.284 169.165 355.158 168.808 354.905 168.518C354.659 168.229 354.296 167.983 353.816 167.78C353.342 167.577 352.76 167.392 352.071 167.226L350.012 166.709C348.417 166.321 347.159 165.715 346.235 164.89C345.312 164.065 344.854 162.954 344.86 161.557C344.854 160.412 345.158 159.412 345.774 158.556C346.395 157.701 347.248 157.033 348.331 156.553C349.415 156.072 350.646 155.832 352.024 155.832C353.428 155.832 354.653 156.072 355.699 156.553C356.752 157.033 357.57 157.701 358.155 158.556C358.74 159.412 359.042 160.403 359.06 161.529H355.228Z" fill="black"/>
<path d="M380.424 165.545C380.424 167.607 380.033 169.362 379.251 170.808C378.476 172.255 377.417 173.36 376.075 174.123C374.74 174.88 373.238 175.259 371.57 175.259C369.889 175.259 368.381 174.877 367.045 174.114C365.71 173.35 364.654 172.245 363.879 170.799C363.103 169.352 362.715 167.601 362.715 165.545C362.715 163.483 363.103 161.729 363.879 160.283C364.654 158.836 365.71 157.734 367.045 156.977C368.381 156.214 369.889 155.832 371.57 155.832C373.238 155.832 374.74 156.214 376.075 156.977C377.417 157.734 378.476 158.836 379.251 160.283C380.033 161.729 380.424 163.483 380.424 165.545ZM376.371 165.545C376.371 164.21 376.171 163.083 375.771 162.166C375.377 161.249 374.82 160.553 374.099 160.08C373.379 159.606 372.536 159.369 371.57 159.369C370.603 159.369 369.76 159.606 369.04 160.08C368.32 160.553 367.759 161.249 367.359 162.166C366.965 163.083 366.768 164.21 366.768 165.545C366.768 166.881 366.965 168.008 367.359 168.925C367.759 169.842 368.32 170.537 369.04 171.011C369.76 171.485 370.603 171.722 371.57 171.722C372.536 171.722 373.379 171.485 374.099 171.011C374.82 170.537 375.377 169.842 375.771 168.925C376.171 168.008 376.371 166.881 376.371 165.545Z" fill="black"/>
<path d="M391.372 175V172.119L398.103 165.887C398.676 165.333 399.156 164.835 399.543 164.391C399.937 163.948 400.236 163.514 400.439 163.089C400.642 162.659 400.744 162.194 400.744 161.695C400.744 161.141 400.618 160.664 400.365 160.264C400.113 159.858 399.768 159.547 399.331 159.332C398.894 159.11 398.399 158.999 397.845 158.999C397.266 158.999 396.761 159.116 396.33 159.35C395.899 159.584 395.567 159.92 395.333 160.357C395.099 160.794 394.982 161.314 394.982 161.917H391.188C391.188 160.68 391.468 159.606 392.028 158.695C392.588 157.784 393.373 157.079 394.382 156.58C395.392 156.082 396.555 155.832 397.872 155.832C399.226 155.832 400.405 156.072 401.408 156.553C402.418 157.027 403.203 157.685 403.763 158.528C404.323 159.372 404.603 160.338 404.603 161.428C404.603 162.142 404.462 162.846 404.178 163.542C403.901 164.237 403.406 165.01 402.692 165.859C401.978 166.703 400.971 167.715 399.673 168.897L396.912 171.602V171.732H404.852V175H391.372Z" fill="black"/>
<path d="M409.537 175L417.376 159.489V159.359H408.244V156.091H421.512V159.406L413.664 175H409.537Z" fill="black"/>
<path d="M432.3 175.415C430.712 175.409 429.345 175.018 428.2 174.243C427.062 173.467 426.185 172.344 425.569 170.873C424.96 169.402 424.658 167.632 424.664 165.564C424.664 163.502 424.969 161.745 425.578 160.292C426.194 158.839 427.071 157.734 428.21 156.977C429.355 156.214 430.718 155.832 432.3 155.832C433.882 155.832 435.242 156.214 436.381 156.977C437.526 157.741 438.406 158.848 439.022 160.301C439.637 161.748 439.942 163.502 439.936 165.564C439.936 167.638 439.628 169.411 439.012 170.882C438.403 172.353 437.529 173.477 436.39 174.252C435.251 175.028 433.888 175.415 432.3 175.415ZM432.3 172.101C433.383 172.101 434.248 171.556 434.894 170.467C435.541 169.377 435.861 167.743 435.855 165.564C435.855 164.13 435.707 162.936 435.411 161.982C435.122 161.027 434.71 160.31 434.174 159.83C433.645 159.35 433.02 159.11 432.3 159.11C431.223 159.11 430.361 159.649 429.715 160.726C429.068 161.803 428.742 163.416 428.736 165.564C428.736 167.017 428.881 168.229 429.17 169.202C429.465 170.168 429.881 170.894 430.416 171.381C430.952 171.861 431.58 172.101 432.3 172.101Z" fill="black"/>
<path d="M451.24 175.415C449.652 175.409 448.286 175.018 447.141 174.243C446.002 173.467 445.125 172.344 444.509 170.873C443.9 169.402 443.598 167.632 443.605 165.564C443.605 163.502 443.909 161.745 444.519 160.292C445.134 158.839 446.011 157.734 447.15 156.977C448.295 156.214 449.658 155.832 451.24 155.832C452.822 155.832 454.183 156.214 455.321 156.977C456.466 157.741 457.346 158.848 457.962 160.301C458.577 161.748 458.882 163.502 458.876 165.564C458.876 167.638 458.568 169.411 457.953 170.882C457.343 172.353 456.469 173.477 455.331 174.252C454.192 175.028 452.828 175.415 451.24 175.415ZM451.24 172.101C452.324 172.101 453.188 171.556 453.835 170.467C454.481 169.377 454.801 167.743 454.795 165.564C454.795 164.13 454.647 162.936 454.352 161.982C454.062 161.027 453.65 160.31 453.115 159.83C452.585 159.35 451.96 159.11 451.24 159.11C450.163 159.11 449.301 159.649 448.655 160.726C448.009 161.803 447.683 163.416 447.676 165.564C447.676 167.017 447.821 168.229 448.11 169.202C448.406 170.168 448.821 170.894 449.357 171.381C449.892 171.861 450.52 172.101 451.24 172.101Z" fill="black"/>
<path d="M470.993 156.091V175H466.995V159.886H466.885L462.554 162.6V159.055L467.235 156.091H470.993Z" fill="black"/>
<path d="M478.863 172.803C478.254 172.803 477.731 172.587 477.294 172.156C476.863 171.725 476.647 171.202 476.647 170.587C476.647 169.983 476.863 169.466 477.294 169.036C477.731 168.605 478.254 168.389 478.863 168.389C479.454 168.389 479.971 168.605 480.414 169.036C480.858 169.466 481.079 169.983 481.079 170.587C481.079 170.993 480.975 171.365 480.765 171.704C480.562 172.036 480.294 172.304 479.962 172.507C479.63 172.704 479.263 172.803 478.863 172.803ZM478.863 163.523C478.254 163.523 477.731 163.308 477.294 162.877C476.863 162.446 476.647 161.923 476.647 161.308C476.647 160.704 476.863 160.19 477.294 159.766C477.731 159.335 478.254 159.119 478.863 159.119C479.454 159.119 479.971 159.335 480.414 159.766C480.858 160.19 481.079 160.704 481.079 161.308C481.079 161.72 480.975 162.095 480.765 162.434C480.562 162.766 480.294 163.031 479.962 163.228C479.63 163.425 479.263 163.523 478.863 163.523Z" fill="black"/>
<path d="M485.311 175V172.119L492.042 165.887C492.615 165.333 493.095 164.835 493.483 164.391C493.877 163.948 494.175 163.514 494.378 163.089C494.581 162.659 494.683 162.194 494.683 161.695C494.683 161.141 494.557 160.664 494.304 160.264C494.052 159.858 493.707 159.547 493.27 159.332C492.833 159.11 492.338 158.999 491.784 158.999C491.205 158.999 490.7 159.116 490.27 159.35C489.839 159.584 489.506 159.92 489.272 160.357C489.039 160.794 488.922 161.314 488.922 161.917H485.127C485.127 160.68 485.407 159.606 485.967 158.695C486.527 157.784 487.312 157.079 488.321 156.58C489.331 156.082 490.494 155.832 491.811 155.832C493.166 155.832 494.344 156.072 495.348 156.553C496.357 157.027 497.142 157.685 497.702 158.528C498.262 159.372 498.542 160.338 498.542 161.428C498.542 162.142 498.401 162.846 498.118 163.542C497.841 164.237 497.345 165.01 496.631 165.859C495.917 166.703 494.911 167.715 493.612 168.897L490.851 171.602V171.732H498.792V175H485.311Z" fill="black"/>
<path d="M510.142 175.415C508.554 175.409 507.188 175.018 506.043 174.243C504.904 173.467 504.027 172.344 503.412 170.873C502.802 169.402 502.501 167.632 502.507 165.564C502.507 163.502 502.812 161.745 503.421 160.292C504.036 158.839 504.914 157.734 506.052 156.977C507.197 156.214 508.561 155.832 510.142 155.832C511.724 155.832 513.085 156.214 514.223 156.977C515.368 157.741 516.249 158.848 516.864 160.301C517.48 161.748 517.784 163.502 517.778 165.564C517.778 167.638 517.47 169.411 516.855 170.882C516.245 172.353 515.371 173.477 514.233 174.252C513.094 175.028 511.731 175.415 510.142 175.415ZM510.142 172.101C511.226 172.101 512.091 171.556 512.737 170.467C513.383 169.377 513.703 167.743 513.697 165.564C513.697 164.13 513.549 162.936 513.254 161.982C512.965 161.027 512.552 160.31 512.017 159.83C511.487 159.35 510.863 159.11 510.142 159.11C509.065 159.11 508.204 159.649 507.557 160.726C506.911 161.803 506.585 163.416 506.579 165.564C506.579 167.017 506.723 168.229 507.013 169.202C507.308 170.168 507.723 170.894 508.259 171.381C508.794 171.861 509.422 172.101 510.142 172.101Z" fill="black"/>
<path d="M521.669 175V172.119L528.4 165.887C528.972 165.333 529.452 164.835 529.84 164.391C530.234 163.948 530.532 163.514 530.736 163.089C530.939 162.659 531.04 162.194 531.04 161.695C531.04 161.141 530.914 160.664 530.662 160.264C530.409 159.858 530.065 159.547 529.628 159.332C529.191 159.11 528.695 158.999 528.141 158.999C527.562 158.999 527.058 159.116 526.627 159.35C526.196 159.584 525.864 159.92 525.63 160.357C525.396 160.794 525.279 161.314 525.279 161.917H521.484C521.484 160.68 521.764 159.606 522.324 158.695C522.884 157.784 523.669 157.079 524.679 156.58C525.688 156.082 526.852 155.832 528.169 155.832C529.523 155.832 530.702 156.072 531.705 156.553C532.714 157.027 533.499 157.685 534.059 158.528C534.62 159.372 534.9 160.338 534.9 161.428C534.9 162.142 534.758 162.846 534.475 163.542C534.198 164.237 533.702 165.01 532.988 165.859C532.274 166.703 531.268 167.715 529.969 168.897L527.209 171.602V171.732H535.149V175H521.669Z" fill="black"/>
<path d="M539.086 175V172.119L545.817 165.887C546.389 165.333 546.869 164.835 547.257 164.391C547.651 163.948 547.949 163.514 548.153 163.089C548.356 162.659 548.457 162.194 548.457 161.695C548.457 161.141 548.331 160.664 548.079 160.264C547.826 159.858 547.482 159.547 547.045 159.332C546.608 159.11 546.112 158.999 545.558 158.999C544.979 158.999 544.475 159.116 544.044 159.35C543.613 159.584 543.281 159.92 543.047 160.357C542.813 160.794 542.696 161.314 542.696 161.917H538.901C538.901 160.68 539.181 159.606 539.741 158.695C540.301 157.784 541.086 157.079 542.096 156.58C543.105 156.082 544.268 155.832 545.586 155.832C546.94 155.832 548.119 156.072 549.122 156.553C550.131 157.027 550.916 157.685 551.476 158.528C552.036 159.372 552.317 160.338 552.317 161.428C552.317 162.142 552.175 162.846 551.892 163.542C551.615 164.237 551.119 165.01 550.405 165.859C549.691 166.703 548.685 167.715 547.386 168.897L544.626 171.602V171.732H552.566V175H539.086Z" fill="black"/>
<path d="M336.643 187.091H341.574L346.781 199.795H347.003L352.21 187.091H357.141V206H353.263V193.692H353.106L348.212 205.908H345.572L340.678 193.646H340.521V206H336.643V187.091Z" fill="black"/>
<path d="M371.732 192.529C371.658 191.784 371.341 191.206 370.781 190.793C370.221 190.381 369.461 190.175 368.501 190.175C367.848 190.175 367.297 190.267 366.848 190.452C366.399 190.63 366.054 190.88 365.814 191.2C365.58 191.52 365.463 191.883 365.463 192.289C365.451 192.628 365.522 192.923 365.675 193.175C365.835 193.428 366.054 193.646 366.331 193.831C366.608 194.009 366.928 194.166 367.291 194.302C367.654 194.431 368.042 194.542 368.454 194.634L370.153 195.04C370.978 195.225 371.735 195.471 372.425 195.779C373.114 196.087 373.711 196.465 374.216 196.915C374.721 197.364 375.111 197.893 375.388 198.503C375.672 199.112 375.816 199.811 375.822 200.599C375.816 201.756 375.521 202.759 374.936 203.609C374.357 204.452 373.52 205.107 372.425 205.575C371.335 206.037 370.021 206.268 368.482 206.268C366.956 206.268 365.626 206.034 364.494 205.566C363.367 205.098 362.487 204.406 361.853 203.489C361.225 202.565 360.896 201.424 360.865 200.063H364.734C364.777 200.697 364.958 201.227 365.278 201.651C365.605 202.07 366.039 202.387 366.58 202.602C367.128 202.812 367.747 202.916 368.436 202.916C369.113 202.916 369.701 202.818 370.2 202.621C370.704 202.424 371.095 202.15 371.372 201.799C371.649 201.448 371.788 201.045 371.788 200.589C371.788 200.165 371.661 199.808 371.409 199.518C371.163 199.229 370.8 198.983 370.32 198.78C369.846 198.577 369.264 198.392 368.575 198.226L366.516 197.709C364.921 197.321 363.663 196.715 362.739 195.89C361.816 195.065 361.357 193.954 361.364 192.557C361.357 191.412 361.662 190.412 362.278 189.556C362.899 188.701 363.752 188.033 364.835 187.553C365.919 187.072 367.15 186.832 368.528 186.832C369.932 186.832 371.157 187.072 372.203 187.553C373.256 188.033 374.074 188.701 374.659 189.556C375.244 190.412 375.545 191.403 375.564 192.529H371.732Z" fill="black"/>
<path d="M379.551 187.091H384.482L389.689 199.795H389.911L395.118 187.091H400.049V206H396.171V193.692H396.014L391.12 205.908H388.48L383.586 193.646H383.429V206H379.551V187.091Z" fill="black"/>
<path d="M404.383 206V187.091H417.124V190.387H408.38V194.893H416.468V198.189H408.38V202.704H417.161V206H404.383Z" fill="black"/>
<path d="M428.4 206V187.091H435.86C437.288 187.091 438.507 187.346 439.516 187.857C440.532 188.362 441.305 189.079 441.834 190.009C442.369 190.932 442.637 192.018 442.637 193.268C442.637 194.523 442.366 195.604 441.825 196.509C441.283 197.407 440.498 198.097 439.47 198.577C438.449 199.057 437.211 199.297 435.759 199.297H430.764V196.084H435.112C435.876 196.084 436.51 195.979 437.014 195.77C437.519 195.561 437.895 195.247 438.141 194.828C438.393 194.41 438.519 193.889 438.519 193.268C438.519 192.64 438.393 192.111 438.141 191.68C437.895 191.249 437.516 190.923 437.005 190.701C436.5 190.473 435.863 190.359 435.094 190.359H432.398V206H428.4ZM438.612 197.395L443.311 206H438.898L434.3 197.395H438.612Z" fill="black"/>
<path d="M452.663 206.277C451.204 206.277 449.949 205.982 448.896 205.391C447.85 204.794 447.043 203.95 446.477 202.861C445.911 201.765 445.628 200.469 445.628 198.974C445.628 197.515 445.911 196.235 446.477 195.133C447.043 194.031 447.841 193.172 448.868 192.557C449.903 191.941 451.115 191.634 452.506 191.634C453.442 191.634 454.313 191.784 455.119 192.086C455.932 192.381 456.64 192.828 457.243 193.425C457.852 194.022 458.326 194.773 458.665 195.678C459.003 196.576 459.172 197.629 459.172 198.835V199.915H447.197V197.478H455.47C455.47 196.912 455.347 196.41 455.101 195.973C454.854 195.536 454.513 195.194 454.076 194.948C453.645 194.696 453.143 194.57 452.571 194.57C451.974 194.57 451.444 194.708 450.983 194.985C450.527 195.256 450.17 195.622 449.912 196.084C449.653 196.539 449.521 197.047 449.515 197.607V199.925C449.515 200.626 449.644 201.233 449.903 201.744C450.167 202.255 450.54 202.648 451.02 202.925C451.5 203.202 452.069 203.341 452.728 203.341C453.165 203.341 453.565 203.279 453.928 203.156C454.291 203.033 454.602 202.848 454.861 202.602C455.119 202.356 455.316 202.054 455.452 201.697L459.089 201.938C458.905 202.812 458.526 203.575 457.954 204.227C457.387 204.874 456.655 205.378 455.756 205.741C454.864 206.098 453.833 206.277 452.663 206.277Z" fill="black"/>
<path d="M469.168 211.614C467.894 211.614 466.802 211.438 465.891 211.087C464.986 210.743 464.266 210.272 463.73 209.675C463.195 209.078 462.847 208.407 462.687 207.662L466.325 207.173C466.435 207.456 466.611 207.72 466.851 207.967C467.091 208.213 467.408 208.41 467.802 208.558C468.202 208.711 468.688 208.788 469.261 208.788C470.116 208.788 470.821 208.579 471.375 208.161C471.935 207.748 472.215 207.056 472.215 206.083V203.489H472.049C471.877 203.883 471.618 204.255 471.273 204.606C470.929 204.957 470.486 205.243 469.944 205.464C469.402 205.686 468.756 205.797 468.005 205.797C466.94 205.797 465.971 205.551 465.097 205.058C464.229 204.56 463.536 203.799 463.019 202.778C462.508 201.75 462.253 200.451 462.253 198.881C462.253 197.275 462.515 195.933 463.038 194.856C463.561 193.779 464.256 192.972 465.124 192.437C465.998 191.901 466.956 191.634 467.996 191.634C468.79 191.634 469.455 191.769 469.99 192.04C470.526 192.304 470.957 192.637 471.283 193.037C471.615 193.431 471.871 193.819 472.049 194.2H472.197V191.818H476.102V206.138C476.102 207.345 475.807 208.354 475.216 209.167C474.625 209.979 473.806 210.589 472.76 210.995C471.72 211.407 470.523 211.614 469.168 211.614ZM469.251 202.842C469.885 202.842 470.421 202.685 470.858 202.371C471.301 202.051 471.64 201.596 471.874 201.005C472.114 200.408 472.234 199.694 472.234 198.863C472.234 198.032 472.117 197.312 471.883 196.702C471.649 196.087 471.31 195.61 470.867 195.271C470.424 194.933 469.885 194.763 469.251 194.763C468.605 194.763 468.06 194.939 467.617 195.29C467.174 195.634 466.839 196.115 466.611 196.73C466.383 197.346 466.269 198.057 466.269 198.863C466.269 199.682 466.383 200.389 466.611 200.986C466.845 201.577 467.18 202.036 467.617 202.362C468.06 202.682 468.605 202.842 469.251 202.842Z" fill="black"/>
<path d="M480.272 206V191.818H484.206V206H480.272ZM482.248 189.99C481.663 189.99 481.162 189.796 480.743 189.408C480.331 189.014 480.125 188.544 480.125 187.996C480.125 187.454 480.331 186.989 480.743 186.602C481.162 186.208 481.663 186.011 482.248 186.011C482.833 186.011 483.331 186.208 483.744 186.602C484.162 186.989 484.372 187.454 484.372 187.996C484.372 188.544 484.162 189.014 483.744 189.408C483.331 189.796 482.833 189.99 482.248 189.99Z" fill="black"/>
<path d="M500.196 195.862L496.595 196.084C496.534 195.776 496.401 195.499 496.198 195.253C495.995 195 495.727 194.8 495.395 194.653C495.069 194.499 494.678 194.422 494.222 194.422C493.613 194.422 493.099 194.551 492.68 194.81C492.262 195.062 492.053 195.401 492.053 195.825C492.053 196.164 492.188 196.45 492.459 196.684C492.73 196.918 493.194 197.106 493.853 197.247L496.42 197.764C497.799 198.047 498.826 198.503 499.504 199.131C500.181 199.759 500.519 200.583 500.519 201.605C500.519 202.535 500.245 203.35 499.697 204.052C499.156 204.754 498.411 205.301 497.463 205.695C496.521 206.083 495.435 206.277 494.204 206.277C492.326 206.277 490.831 205.886 489.717 205.104C488.609 204.317 487.959 203.245 487.768 201.891L491.637 201.688C491.754 202.261 492.037 202.698 492.487 202.999C492.936 203.295 493.511 203.442 494.213 203.442C494.902 203.442 495.456 203.31 495.875 203.045C496.3 202.775 496.515 202.427 496.521 202.002C496.515 201.645 496.364 201.353 496.069 201.125C495.773 200.891 495.318 200.713 494.702 200.589L492.246 200.1C490.861 199.823 489.831 199.343 489.153 198.66C488.482 197.977 488.147 197.106 488.147 196.047C488.147 195.136 488.393 194.351 488.886 193.692C489.384 193.034 490.083 192.526 490.982 192.169C491.886 191.812 492.945 191.634 494.158 191.634C495.949 191.634 497.358 192.012 498.386 192.769C499.42 193.526 500.024 194.557 500.196 195.862Z" fill="black"/>
<path d="M511.579 191.818V194.773H503.039V191.818H511.579ZM504.978 188.42H508.911V201.642C508.911 202.005 508.966 202.288 509.077 202.491C509.188 202.688 509.342 202.827 509.539 202.907C509.742 202.987 509.976 203.027 510.24 203.027C510.425 203.027 510.61 203.012 510.794 202.981C510.979 202.944 511.121 202.916 511.219 202.898L511.838 205.825C511.641 205.886 511.364 205.957 511.007 206.037C510.65 206.123 510.216 206.175 509.705 206.194C508.757 206.231 507.926 206.105 507.212 205.815C506.504 205.526 505.953 205.077 505.559 204.467C505.165 203.858 504.971 203.089 504.978 202.159V188.42Z" fill="black"/>
<path d="M521.492 206.277C520.033 206.277 518.778 205.982 517.725 205.391C516.679 204.794 515.872 203.95 515.306 202.861C514.74 201.765 514.457 200.469 514.457 198.974C514.457 197.515 514.74 196.235 515.306 195.133C515.872 194.031 516.669 193.172 517.697 192.557C518.732 191.941 519.944 191.634 521.335 191.634C522.271 191.634 523.142 191.784 523.948 192.086C524.761 192.381 525.468 192.828 526.072 193.425C526.681 194.022 527.155 194.773 527.494 195.678C527.832 196.576 528.001 197.629 528.001 198.835V199.915H516.026V197.478H524.299C524.299 196.912 524.176 196.41 523.93 195.973C523.683 195.536 523.342 195.194 522.905 194.948C522.474 194.696 521.972 194.57 521.4 194.57C520.803 194.57 520.273 194.708 519.812 194.985C519.356 195.256 518.999 195.622 518.741 196.084C518.482 196.539 518.35 197.047 518.344 197.607V199.925C518.344 200.626 518.473 201.233 518.731 201.744C518.996 202.255 519.369 202.648 519.849 202.925C520.329 203.202 520.898 203.341 521.557 203.341C521.994 203.341 522.394 203.279 522.757 203.156C523.12 203.033 523.431 202.848 523.69 202.602C523.948 202.356 524.145 202.054 524.28 201.697L527.918 201.938C527.734 202.812 527.355 203.575 526.783 204.227C526.216 204.874 525.484 205.378 524.585 205.741C523.693 206.098 522.662 206.277 521.492 206.277Z" fill="black"/>
<path d="M531.608 206V191.818H535.421V194.293H535.569C535.828 193.412 536.261 192.748 536.871 192.298C537.48 191.843 538.182 191.615 538.976 191.615C539.173 191.615 539.385 191.627 539.613 191.652C539.841 191.677 540.041 191.71 540.213 191.754V195.244C540.029 195.188 539.773 195.139 539.447 195.096C539.121 195.053 538.822 195.031 538.551 195.031C537.973 195.031 537.456 195.157 537 195.41C536.551 195.656 536.194 196.001 535.929 196.444C535.671 196.887 535.541 197.398 535.541 197.977V206H531.608Z" fill="black"/>
<path d="M549.09 206.277C547.631 206.277 546.375 205.982 545.323 205.391C544.276 204.794 543.47 203.95 542.904 202.861C542.337 201.765 542.054 200.469 542.054 198.974C542.054 197.515 542.337 196.235 542.904 195.133C543.47 194.031 544.267 193.172 545.295 192.557C546.329 191.941 547.542 191.634 548.933 191.634C549.868 191.634 550.739 191.784 551.546 192.086C552.358 192.381 553.066 192.828 553.669 193.425C554.279 194.022 554.753 194.773 555.091 195.678C555.43 196.576 555.599 197.629 555.599 198.835V199.915H543.624V197.478H551.896C551.896 196.912 551.773 196.41 551.527 195.973C551.281 195.536 550.939 195.194 550.502 194.948C550.071 194.696 549.57 194.57 548.997 194.57C548.4 194.57 547.871 194.708 547.409 194.985C546.954 195.256 546.597 195.622 546.338 196.084C546.08 196.539 545.947 197.047 545.941 197.607V199.925C545.941 200.626 546.07 201.233 546.329 201.744C546.594 202.255 546.966 202.648 547.446 202.925C547.926 203.202 548.496 203.341 549.154 203.341C549.591 203.341 549.991 203.279 550.355 203.156C550.718 203.033 551.029 202.848 551.287 202.602C551.546 202.356 551.743 202.054 551.878 201.697L555.516 201.938C555.331 202.812 554.953 203.575 554.38 204.227C553.814 204.874 553.081 205.378 552.183 205.741C551.29 206.098 550.259 206.277 549.09 206.277Z" fill="black"/>
<path d="M564.432 206.231C563.354 206.231 562.379 205.954 561.505 205.4C560.637 204.84 559.947 204.018 559.437 202.935C558.932 201.845 558.679 200.509 558.679 198.928C558.679 197.303 558.941 195.951 559.464 194.874C559.987 193.791 560.683 192.982 561.551 192.446C562.425 191.904 563.382 191.634 564.422 191.634C565.216 191.634 565.878 191.769 566.407 192.04C566.943 192.304 567.374 192.637 567.7 193.037C568.032 193.431 568.285 193.819 568.457 194.2H568.577V187.091H572.501V206H568.623V203.729H568.457C568.272 204.123 568.011 204.513 567.672 204.901C567.34 205.283 566.906 205.6 566.37 205.852C565.841 206.105 565.195 206.231 564.432 206.231ZM565.678 203.101C566.312 203.101 566.847 202.928 567.284 202.584C567.728 202.233 568.066 201.744 568.3 201.116C568.54 200.488 568.66 199.752 568.66 198.909C568.66 198.066 568.543 197.333 568.309 196.712C568.076 196.09 567.737 195.61 567.294 195.271C566.851 194.933 566.312 194.763 565.678 194.763C565.032 194.763 564.487 194.939 564.044 195.29C563.601 195.641 563.265 196.127 563.037 196.749C562.81 197.37 562.696 198.09 562.696 198.909C562.696 199.734 562.81 200.463 563.037 201.097C563.271 201.725 563.607 202.218 564.044 202.575C564.487 202.925 565.032 203.101 565.678 203.101Z" fill="black"/>
<path d="M251.965 23.9401C245.402 16.4401 235.913 10.44 232.687 8.44006C222.187 3.44001 203.984 -1.8793 178.187 1.44003C164.465 3.94009 150.965 6.93948 134.965 13.9401C118.965 20.9407 113.465 23.9401 99.4647 32.4401C85.129 42.0667 68.4123 54.297 53.4649 66.9407C41.9491 76.6817 31.4837 86.2982 23.9656 97.4407L61.9652 70.4407C70.2492 65.707 82.4541 58.1917 86.4651 55.9407C92.6219 52.4854 93.5003 52 102.965 46.9407C112.43 41.8813 150.514 26.7287 172.187 23.9401C182.573 22.6037 190.187 22.4401 199.687 23.4403C209.17 24.8505 214.5 24.916 227.221 31.464C243.687 39.94 249.687 45.4401 261.686 60.9404C261.686 60.9404 262.471 51.4549 261.686 45.4401C260.904 39.4396 258.527 31.4401 251.965 23.9401Z" fill="url(#paint0_linear_268_136)" fill-opacity="0.8"/>
<path d="M13.8407 228.806C19.4169 237.357 28.1775 244.808 31.1614 247.301C41.0904 253.883 58.7857 261.898 85.4271 262.245C99.7036 261.684 113.827 260.585 131.062 255.788C148.296 250.991 154.306 248.741 169.729 242.135C185.654 234.435 204.368 224.438 221.347 213.766C234.429 205.544 246.427 197.297 255.655 187.079L213.23 208.993C204.147 212.601 190.687 218.467 186.295 220.172C179.554 222.79 178.593 223.156 168.266 226.925C157.938 230.694 117.133 240.58 94.751 240.289C84.0251 240.149 76.2796 239.219 66.7887 236.837C57.3742 234.042 51.9773 233.209 40.0187 224.737C24.539 213.77 19.2454 207.329 9.3066 189.881C9.3066 189.881 7.14563 199.388 7.07558 205.602C7.00569 211.8 8.26451 220.255 13.8407 228.806Z" fill="url(#paint1_linear_268_136)" fill-opacity="0.8"/>
<path d="M56.2454 147.279C55.873 149.111 55.4229 151.673 54.8952 154.964C54.3675 158.224 54.0105 160.755 53.8243 162.556C47.1816 163.519 41.2529 164 36.0381 164C31.0096 164 26.3225 163.379 21.9768 162.137C17.6622 160.864 13.6891 158.799 10.0573 155.942C6.45665 153.054 3.88029 149.67 2.32827 145.788C0.776254 141.907 0.000244141 137.56 0.000244141 132.747C0.000244141 127.126 1.0401 122.08 3.1198 117.609C5.23055 113.107 8.24147 109.365 12.1526 106.384C16.0947 103.372 20.4093 101.229 25.0964 99.9562C29.7835 98.6521 34.6258 98 39.6233 98C44.2173 98 49.8977 98.59 56.6645 99.7699L56.7576 103.682C56.8197 105.39 56.9128 107.269 57.037 109.318L57.3629 114.628C53.7312 113.759 50.7823 113.169 48.5164 112.858C46.2815 112.548 44.2018 112.392 42.2773 112.392C38.0868 112.392 34.3154 113.231 30.963 114.908C27.6107 116.584 24.9722 119.022 23.0477 122.22C21.1232 125.418 20.161 128.958 20.161 132.84C20.161 136.38 20.968 139.423 22.5821 141.969C24.1962 144.484 26.3691 146.44 29.1006 147.838C31.8632 149.204 35.2621 149.887 39.2974 149.887C41.5013 149.887 43.8914 149.716 46.4677 149.375C49.0751 149.002 52.3343 148.303 56.2454 147.279Z" fill="black"/>
<path d="M67.9284 162.789L69.0924 153.38L71.9792 120.73L73.4226 99.211C79.134 99.2731 83.6193 99.3042 86.8786 99.3042C89.5791 99.3042 93.7075 99.2731 99.2637 99.211C99.6672 101.881 100.009 103.915 100.288 105.313C100.567 106.679 101.25 109.38 102.337 113.417C103.454 117.423 104.339 120.9 104.991 123.85C105.674 126.769 106.682 131.784 108.017 138.895C109.383 134.02 110.624 129.828 111.742 126.319C112.859 122.81 114.256 118.82 115.932 114.349C117.609 109.877 118.664 106.958 119.099 105.592C119.564 104.195 120.185 102.068 120.961 99.211C125.617 99.2731 130.18 99.3042 134.65 99.3042C137.692 99.3042 141.913 99.2731 147.314 99.211C146.724 109.675 146.336 118.665 146.15 126.179C145.747 140.898 145.545 151.02 145.545 156.548C145.545 157.697 145.576 159.777 145.638 162.789C141.541 162.727 138.669 162.696 137.024 162.696C134.634 162.696 131.701 162.727 128.224 162.789C128.473 159.994 128.783 153.349 129.156 142.854C129.528 132.327 129.714 125.605 129.714 122.686C129.714 121.413 129.683 119.643 129.621 117.376L123.522 136.333L114.768 162.789C110.733 162.727 107.955 162.696 106.434 162.696C104.51 162.696 101.561 162.727 97.5875 162.789L91.8606 137.171L88.5082 123.524C88.384 122.996 88.2444 122.344 88.0892 121.568C87.934 120.792 87.6856 119.426 87.3442 117.469L86.1802 130.371L84.6437 156.827L84.504 162.789C80.2204 162.727 77.4889 162.696 76.3093 162.696C74.6952 162.696 71.9016 162.727 67.9284 162.789Z" fill="black"/>
<path d="M159.556 162.789L160.72 153.38L163.607 120.73L165.05 99.211C170.762 99.2731 175.247 99.3042 178.506 99.3042C181.207 99.3042 185.335 99.2731 190.891 99.211C191.295 101.881 191.636 103.915 191.916 105.313C192.195 106.679 192.878 109.38 193.964 113.417C195.082 117.423 195.966 120.9 196.618 123.85C197.301 126.769 198.31 131.784 199.645 138.895C201.01 134.02 202.252 129.828 203.369 126.319C204.487 122.81 205.884 118.82 207.56 114.349C209.236 109.877 210.291 106.958 210.726 105.592C211.192 104.195 211.812 102.068 212.588 99.211C217.245 99.2731 221.807 99.3042 226.277 99.3042C229.319 99.3042 233.541 99.2731 238.942 99.211C238.352 109.675 237.964 118.665 237.778 126.179C237.374 140.898 237.172 151.02 237.172 156.548C237.172 157.697 237.203 159.777 237.266 162.789C233.168 162.727 230.297 162.696 228.652 162.696C226.262 162.696 223.328 162.727 219.852 162.789C220.1 159.994 220.411 153.349 220.783 142.854C221.156 132.327 221.342 125.605 221.342 122.686C221.342 121.413 221.311 119.643 221.249 117.376L215.149 136.333L206.396 162.789C202.361 162.727 199.583 162.696 198.062 162.696C196.137 162.696 193.188 162.727 189.215 162.789L183.488 137.171L180.136 123.524C180.012 122.996 179.872 122.344 179.717 121.568C179.561 120.792 179.313 119.426 178.972 117.469L177.808 130.371L176.271 156.827L176.132 162.789C171.848 162.727 169.116 162.696 167.937 162.696C166.323 162.696 163.529 162.727 159.556 162.789Z" fill="black"/>
<path d="M252.441 162.789C254.241 137.855 255.095 112.656 255.095 99.211C260.527 99.2731 264.158 99.3042 265.99 99.3042C266.828 99.3042 270.165 99.2731 276 99.211C275.442 106.198 274.991 112.812 274.65 119.053C274.215 127.747 273.905 135.883 273.719 143.459C273.533 151.005 273.439 157.448 273.439 162.789L263.895 162.696C262.032 162.696 258.214 162.727 252.441 162.789Z" fill="black"/>
<path d="M279 80C279 87.1797 273.18 93 266 93C258.821 93 253 87.1797 253 80C253 72.8203 258.821 67 266 67C273.18 67 279 72.8203 279 80Z" fill="url(#paint2_radial_268_136)"/>
<path d="M211.67 186C211.865 182.992 212.056 179.428 212.241 175.307C212.368 172.309 212.461 169.208 212.52 166.005L213.882 166.02C214.165 166.02 214.6 166.015 215.186 166.005L214.732 174.604L214.409 183.305L214.351 186C213.775 185.98 213.345 185.971 213.062 185.971C212.945 185.971 212.481 185.98 211.67 186Z" fill="black"/>
<path d="M231.737 183.671C231.62 184.208 231.503 184.892 231.386 185.722C230.448 185.956 229.633 186.112 228.94 186.19C228.256 186.278 227.572 186.322 226.889 186.322C225.668 186.322 224.569 186.176 223.593 185.883C222.626 185.59 221.796 185.082 221.103 184.359C220.409 183.627 219.911 182.792 219.608 181.854C219.306 180.917 219.154 179.926 219.154 178.881C219.154 177.426 219.433 176.078 219.989 174.838C220.546 173.588 221.381 172.606 222.494 171.894C223.617 171.181 225.038 170.824 226.757 170.824C227.646 170.824 228.495 170.956 229.306 171.22C230.116 171.474 230.79 171.864 231.327 172.392C231.864 172.919 232.279 173.573 232.572 174.354C232.865 175.126 233.012 175.971 233.012 176.889C233.012 177.24 232.982 177.582 232.924 177.914H221.747C221.708 178.451 221.689 178.861 221.689 179.145C221.689 180.17 221.903 181.117 222.333 181.986C222.763 182.846 223.398 183.5 224.237 183.949C225.077 184.389 226.044 184.608 227.138 184.608C228.398 184.608 229.931 184.296 231.737 183.671ZM221.864 176.698H230.595C230.585 176.083 230.546 175.604 230.478 175.263C230.409 174.921 230.282 174.569 230.097 174.208C229.911 173.837 229.657 173.52 229.335 173.256C229.023 172.982 228.642 172.777 228.192 172.641C227.753 172.494 227.274 172.421 226.757 172.421C226.2 172.421 225.668 172.499 225.16 172.655C224.662 172.812 224.218 173.026 223.827 173.3C223.446 173.573 223.119 173.896 222.846 174.267C222.582 174.628 222.382 174.979 222.245 175.321C222.118 175.663 221.991 176.122 221.864 176.698Z" fill="black"/>
<path d="M240.686 186L240.188 184.521C240.022 184.042 239.632 182.953 239.016 181.254L235.34 171.161C235.935 171.171 236.404 171.176 236.746 171.176C237.117 171.176 237.557 171.171 238.064 171.161L238.372 172.187C238.46 172.479 238.611 172.948 238.826 173.593L242.268 183.803L246.927 172.611L247.483 171.161C248.059 171.171 248.518 171.176 248.86 171.176C249.202 171.176 249.661 171.171 250.237 171.161L248.333 175.248L244.51 183.773L243.572 186C242.967 185.98 242.493 185.971 242.151 185.971C241.8 185.971 241.311 185.98 240.686 186Z" fill="black"/>
<path d="M264.84 183.671C264.723 184.208 264.606 184.892 264.489 185.722C263.551 185.956 262.736 186.112 262.043 186.19C261.359 186.278 260.675 186.322 259.992 186.322C258.771 186.322 257.673 186.176 256.696 185.883C255.729 185.59 254.899 185.082 254.206 184.359C253.512 183.627 253.014 182.792 252.712 181.854C252.409 180.917 252.257 179.926 252.257 178.881C252.257 177.426 252.536 176.078 253.092 174.838C253.649 173.588 254.484 172.606 255.597 171.894C256.72 171.181 258.141 170.824 259.86 170.824C260.749 170.824 261.598 170.956 262.409 171.22C263.219 171.474 263.893 171.864 264.43 172.392C264.967 172.919 265.382 173.573 265.675 174.354C265.968 175.126 266.115 175.971 266.115 176.889C266.115 177.24 266.086 177.582 266.027 177.914H254.85C254.811 178.451 254.792 178.861 254.792 179.145C254.792 180.17 255.007 181.117 255.436 181.986C255.866 182.846 256.501 183.5 257.34 183.949C258.18 184.389 259.147 184.608 260.241 184.608C261.501 184.608 263.034 184.296 264.84 183.671ZM254.967 176.698H263.698C263.688 176.083 263.649 175.604 263.581 175.263C263.512 174.921 263.385 174.569 263.2 174.208C263.014 173.837 262.76 173.52 262.438 173.256C262.126 172.982 261.745 172.777 261.296 172.641C260.856 172.494 260.378 172.421 259.86 172.421C259.303 172.421 258.771 172.499 258.263 172.655C257.765 172.812 257.321 173.026 256.93 173.3C256.549 173.573 256.222 173.896 255.949 174.267C255.685 174.628 255.485 174.979 255.348 175.321C255.221 175.663 255.094 176.122 254.967 176.698Z" fill="black"/>
<path d="M269.849 186C270.044 182.992 270.235 179.428 270.42 175.307C270.547 172.309 270.64 169.208 270.699 166.005L272.061 166.02C272.344 166.02 272.779 166.015 273.365 166.005L272.911 174.604L272.588 183.305L272.53 186C271.954 185.98 271.524 185.971 271.241 185.971C271.124 185.971 270.66 185.98 269.849 186Z" fill="black"/>
<path d="M249.046 206L249.283 202.941L249.459 199.118L249.573 195.312C249.579 195.148 249.582 194.712 249.582 194.003C250.233 194.015 250.845 194.021 251.419 194.021C251.847 194.021 252.409 194.012 253.107 193.994C253.81 193.977 254.416 193.968 254.926 193.968C255.617 193.968 256.256 194.009 256.842 194.091C257.434 194.173 257.949 194.328 258.389 194.557C258.828 194.779 259.209 195.061 259.531 195.4C259.854 195.74 260.117 196.118 260.323 196.534C260.528 196.944 260.683 197.404 260.788 197.914C260.9 198.418 260.955 198.934 260.955 199.461C260.955 200.469 260.78 201.43 260.428 202.344C260.082 203.252 259.564 204.005 258.872 204.603C258.181 205.194 257.413 205.575 256.57 205.745C255.732 205.915 254.78 206 253.713 206L250.725 205.982C250.537 205.982 249.978 205.988 249.046 206ZM251.744 204.128C252.225 204.151 252.699 204.163 253.168 204.163C253.701 204.163 254.194 204.137 254.645 204.084C255.102 204.031 255.494 203.949 255.823 203.838C256.151 203.721 256.479 203.519 256.807 203.231C257.141 202.944 257.413 202.613 257.624 202.238C257.835 201.857 257.996 201.436 258.108 200.973C258.219 200.51 258.275 200.038 258.275 199.558C258.275 198.679 258.125 197.958 257.826 197.396C257.528 196.827 257.132 196.42 256.64 196.174C256.154 195.922 255.401 195.796 254.381 195.796C253.719 195.796 252.96 195.808 252.105 195.831L251.744 204.128Z" fill="black"/>
<path d="M263.336 206L263.591 202.634L263.776 198.74L263.89 195.198V194.003C265.337 194.015 266.846 194.021 268.417 194.021L270.104 194.012L272.644 194.003L272.539 195.901L271.704 195.857C271.475 195.846 271.159 195.837 270.754 195.831C270.35 195.825 269.937 195.822 269.515 195.822C268.601 195.822 268.009 195.825 267.74 195.831C267.476 195.831 267.075 195.84 266.536 195.857L266.395 198.978C267.198 198.995 268.006 199.004 268.821 199.004C269.383 199.004 270.333 198.986 271.668 198.951C271.622 199.484 271.581 200.123 271.545 200.867C269.981 200.85 269.085 200.841 268.856 200.841C268.165 200.841 267.303 200.858 266.272 200.894L266.131 204.181L267.098 204.189C267.379 204.189 268.024 204.184 269.032 204.172L270.939 204.137L272.213 204.075C272.155 204.755 272.114 205.396 272.09 206C270.567 205.988 269.193 205.982 267.968 205.982L265.077 205.991L263.336 206Z" fill="black"/>
<path d="M278.365 206L278.031 204.893C277.984 204.746 277.791 204.187 277.451 203.214L275.746 198.362L274.181 194.003C274.785 194.015 275.286 194.021 275.684 194.021C275.93 194.021 276.361 194.015 276.976 194.003L277.249 194.979C277.307 195.178 277.392 195.447 277.504 195.787L279.631 202.229C279.76 202.646 279.927 203.193 280.132 203.873L280.606 202.801C280.723 202.537 280.967 202.021 281.336 201.254L284.104 195.471C284.186 195.301 284.268 195.122 284.35 194.935C284.432 194.741 284.561 194.431 284.737 194.003C285.376 194.015 285.862 194.021 286.196 194.021C286.395 194.021 286.855 194.015 287.576 194.003L286.82 195.409L282.013 204.901L281.503 206C280.741 205.988 280.231 205.982 279.973 205.982C279.745 205.982 279.209 205.988 278.365 206Z" fill="black"/>
<path d="M293.621 206C293.639 205.777 293.648 205.599 293.648 205.464L293.701 204.181C294.433 203.524 295.101 202.892 295.704 202.282C296.314 201.667 296.935 201.011 297.568 200.313C298.201 199.61 298.678 199.045 299 198.617C299.264 198.271 299.44 198.014 299.528 197.844C299.616 197.668 299.674 197.521 299.703 197.404C299.733 197.281 299.747 197.158 299.747 197.035C299.747 196.713 299.651 196.452 299.457 196.253C299.264 196.048 298.997 195.89 298.658 195.778C298.324 195.661 297.934 195.603 297.489 195.603C297.078 195.603 296.633 195.641 296.153 195.717C295.672 195.787 295.054 195.919 294.298 196.112L294.465 195.225C294.5 195.014 294.553 194.659 294.623 194.161C295.977 193.915 297.278 193.792 298.526 193.792C299.094 193.792 299.642 193.848 300.169 193.959C300.697 194.064 301.165 194.249 301.576 194.513C301.992 194.771 302.293 195.072 302.481 195.418C302.674 195.758 302.771 196.115 302.771 196.49C302.771 196.713 302.747 196.936 302.701 197.158C302.66 197.375 302.598 197.574 302.516 197.756C302.358 198.119 302.156 198.485 301.91 198.854C301.669 199.224 301.288 199.716 300.767 200.331C300.251 200.946 299.686 201.576 299.071 202.221C298.461 202.865 297.782 203.542 297.032 204.251H297.831L299.791 204.242C300.442 204.242 300.919 204.236 301.224 204.225C301.529 204.207 301.895 204.178 302.323 204.137C302.311 204.318 302.29 204.556 302.261 204.849C302.238 205.136 302.208 205.52 302.173 206C300.843 205.988 299.46 205.982 298.025 205.982C296.267 205.982 294.799 205.988 293.621 206Z" fill="black"/>
<path d="M305.407 206C305.43 205.578 305.463 204.79 305.504 203.636L306.84 203.653C306.957 203.653 307.34 203.647 307.991 203.636C307.962 204.063 307.938 204.494 307.921 204.928L307.868 206L306.716 205.982C306.67 205.982 306.233 205.988 305.407 206Z" fill="black"/>
<path d="M315.689 193.792C316.615 193.792 317.406 193.991 318.062 194.39C318.725 194.788 319.237 195.424 319.601 196.297C319.964 197.17 320.145 198.189 320.145 199.355C320.145 200.275 320.034 201.192 319.811 202.106C319.589 203.021 319.281 203.771 318.889 204.356C318.496 204.942 317.957 205.399 317.271 205.728C316.592 206.05 315.862 206.211 315.083 206.211C314.333 206.211 313.662 206.067 313.07 205.78C312.484 205.487 312.007 205.08 311.638 204.559C311.268 204.031 311.011 203.442 310.864 202.792C310.718 202.136 310.644 201.462 310.644 200.771C310.644 199.815 310.756 198.875 310.978 197.949C311.201 197.023 311.52 196.253 311.936 195.638C312.358 195.017 312.903 194.554 313.571 194.249C314.239 193.944 314.945 193.792 315.689 193.792ZM315.619 195.62C315.396 195.62 315.177 195.664 314.96 195.752C314.749 195.84 314.541 195.986 314.336 196.191C314.137 196.391 313.97 196.625 313.835 196.895C313.706 197.164 313.586 197.492 313.475 197.879C313.369 198.26 313.284 198.717 313.22 199.25C313.161 199.777 313.132 200.316 313.132 200.867C313.132 201.664 313.211 202.314 313.369 202.818C313.533 203.316 313.773 203.703 314.09 203.979C314.412 204.254 314.781 204.392 315.197 204.392C315.426 204.392 315.648 204.348 315.865 204.26C316.082 204.166 316.302 203.993 316.524 203.741C316.753 203.489 316.955 203.123 317.131 202.643C317.312 202.156 317.444 201.626 317.526 201.052C317.608 200.472 317.649 199.886 317.649 199.294C317.649 198.479 317.57 197.809 317.412 197.281C317.26 196.754 317.028 196.347 316.718 196.06C316.407 195.767 316.041 195.62 315.619 195.62Z" fill="black"/>
<path d="M286.926 180.209C286.672 176.244 286.418 173.09 286.164 170.746C290.52 172.211 294.455 172.943 297.971 172.943C300.139 172.943 301.887 172.514 303.215 171.654C304.563 170.775 305.237 169.604 305.237 168.139C305.237 166.713 304.553 165.668 303.186 165.004C301.838 164.34 299.729 164.008 296.858 164.008C295.002 164.008 293.303 164.115 291.76 164.33C292.033 161.283 292.258 158.285 292.434 155.336C293.84 155.59 295.315 155.717 296.858 155.717C298.615 155.717 300.071 155.609 301.223 155.395C302.395 155.16 303.283 154.721 303.889 154.076C304.494 153.412 304.797 152.699 304.797 151.938C304.797 151.254 304.553 150.639 304.065 150.092C303.596 149.545 302.883 149.164 301.926 148.949C300.969 148.715 299.778 148.598 298.352 148.598C297.121 148.598 295.813 148.666 294.426 148.803C293.039 148.939 291.155 149.252 288.772 149.74L290.237 142.943C290.354 142.338 290.471 141.693 290.588 141.01C294.826 140.502 298.713 140.248 302.248 140.248C304.553 140.248 306.77 140.404 308.899 140.717C311.028 141.029 312.844 141.605 314.348 142.445C315.871 143.266 316.985 144.34 317.688 145.668C318.41 146.996 318.772 148.49 318.772 150.15C318.772 151.146 318.635 152.104 318.362 153.021C318.108 153.939 317.707 154.799 317.16 155.6C316.614 156.381 315.969 157.074 315.227 157.68C314.485 158.285 313.762 158.773 313.059 159.145C312.356 159.516 311.418 159.936 310.246 160.404C311.477 160.658 312.434 160.922 313.117 161.195C313.821 161.469 314.524 161.869 315.227 162.396C315.93 162.904 316.526 163.51 317.014 164.213C317.502 164.896 317.864 165.668 318.098 166.527C318.332 167.387 318.449 168.305 318.449 169.281C318.449 171.215 318 173.002 317.102 174.643C316.223 176.283 314.914 177.65 313.176 178.744C311.457 179.818 309.475 180.59 307.229 181.059C305.002 181.527 302.756 181.762 300.49 181.762C298.283 181.762 296.174 181.645 294.162 181.41C292.17 181.195 289.758 180.795 286.926 180.209Z" fill="#07547D"/>
<defs>
<linearGradient id="paint0_linear_268_136" x1="585.961" y1="24.5108" x2="498.532" y2="367.992" gradientUnits="userSpaceOnUse">
<stop stop-color="#3BB7F9" stop-opacity="0.03"/>
<stop offset="0.435" stop-color="#2F94C9"/>
<stop offset="1" stop-color="#06547D"/>
</linearGradient>
<linearGradient id="paint1_linear_268_136" x1="585.961" y1="24.5108" x2="498.532" y2="367.992" gradientUnits="userSpaceOnUse">
<stop stop-color="#3BB7F9" stop-opacity="0.03"/>
<stop offset="0.435" stop-color="#2F94C9"/>
<stop offset="1" stop-color="#06547D"/>
</linearGradient>
<radialGradient id="paint2_radial_268_136" cx="0" cy="0" r="1" gradientUnits="userSpaceOnUse" gradientTransform="translate(292.418 131.326) rotate(90) scale(130.918 292.418)">
<stop offset="0.544" stop-color="#0871BE" stop-opacity="0.44"/>
<stop offset="1" stop-color="#3BB7F9" stop-opacity="0.13"/>
</radialGradient>
</defs>
</svg>
