<?xml version="1.0" encoding="UTF-8"?>
<!DOCTYPE svg PUBLIC "-//W3C//DTD SVG 1.1//EN" "http://www.w3.org/Graphics/SVG/1.1/DTD/svg11.dtd">
<svg xmlns="http://www.w3.org/2000/svg" version="1.1" width="512px" height="512px" style="shape-rendering:geometricPrecision; text-rendering:geometricPrecision; image-rendering:optimizeQuality; fill-rule:evenodd; clip-rule:evenodd" xmlns:xlink="http://www.w3.org/1999/xlink">
<g><path style="opacity:0.953" fill="#54c9f1" d="M 115.5,100.5 C 114.506,109.986 114.173,119.652 114.5,129.5C 108.535,124.036 102.702,118.37 97,112.5C 93.0997,100.07 97.5997,94.5698 110.5,96C 112.66,96.9959 114.327,98.4959 115.5,100.5 Z"/></g>
<g><path style="opacity:0.958" fill="#3082ec" d="M 400.5,125.5 C 400.5,115.833 400.5,106.167 400.5,96.5C 413.249,94.4317 417.749,99.765 414,112.5C 409.631,117.037 405.131,121.37 400.5,125.5 Z"/></g>
<g><path style="opacity:0.988" fill="#3084ed" d="M 400.5,96.5 C 400.5,106.167 400.5,115.833 400.5,125.5C 398.833,127.833 396.833,129.833 394.5,131.5C 394.5,121.5 394.5,111.5 394.5,101.5C 395.911,99.086 397.911,97.4194 400.5,96.5 Z"/></g>
<g><path style="opacity:0.969" fill="#52c5f1" d="M 115.5,100.5 C 121.5,105.833 127.167,111.5 132.5,117.5C 132.5,127.5 132.5,137.5 132.5,147.5C 126.167,141.833 120.167,135.833 114.5,129.5C 114.173,119.652 114.506,109.986 115.5,100.5 Z"/></g>
<g><path style="opacity:0.963" fill="#3286ed" d="M 394.5,101.5 C 394.5,111.5 394.5,121.5 394.5,131.5C 391.167,135.5 387.5,139.167 383.5,142.5C 383.5,132.5 383.5,122.5 383.5,112.5C 386.833,108.5 390.5,104.833 394.5,101.5 Z"/></g>
<g><path style="opacity:0.972" fill="#3388ee" d="M 383.5,112.5 C 383.5,122.5 383.5,132.5 383.5,142.5C 381.5,145.167 379.167,147.5 376.5,149.5C 375.506,140.014 375.173,130.348 375.5,120.5C 377.833,117.5 380.5,114.833 383.5,112.5 Z"/></g>
<g><path style="opacity:0.982" fill="#51c2f0" d="M 132.5,117.5 C 135.167,119.5 137.5,121.833 139.5,124.5C 139.5,134.5 139.5,144.5 139.5,154.5C 136.833,152.5 134.5,150.167 132.5,147.5C 132.5,137.5 132.5,127.5 132.5,117.5 Z"/></g>
<g><path style="opacity:0.962" fill="#358cee" d="M 375.5,120.5 C 375.173,130.348 375.506,140.014 376.5,149.5C 368.167,158.5 359.5,167.167 350.5,175.5C 350.827,165.652 350.494,155.986 349.5,146.5C 357.833,137.5 366.5,128.833 375.5,120.5 Z"/></g>
<g><path style="opacity:0.964" fill="#4fbef0" d="M 139.5,124.5 C 148.167,132.5 156.5,140.833 164.5,149.5C 164.5,159.5 164.5,169.5 164.5,179.5C 155.833,171.5 147.5,163.167 139.5,154.5C 139.5,144.5 139.5,134.5 139.5,124.5 Z"/></g>
<g><path style="opacity:0.98" fill="#3791ee" d="M 349.5,146.5 C 350.494,155.986 350.827,165.652 350.5,175.5C 346.5,180.167 342.167,184.5 337.5,188.5C 337.5,178.5 337.5,168.5 337.5,158.5C 341.167,154.167 345.167,150.167 349.5,146.5 Z"/></g>
<g><path style="opacity:0.972" fill="#4cb8f0" d="M 164.5,149.5 C 173.833,158.167 182.833,167.167 191.5,176.5C 190.506,185.986 190.173,195.652 190.5,205.5C 181.5,197.167 172.833,188.5 164.5,179.5C 164.5,169.5 164.5,159.5 164.5,149.5 Z"/></g>
<g><path style="opacity:0.963" fill="#3994ee" d="M 337.5,158.5 C 337.5,168.5 337.5,178.5 337.5,188.5C 333.5,193.167 329.167,197.5 324.5,201.5C 324.5,191.5 324.5,181.5 324.5,171.5C 328.5,166.833 332.833,162.5 337.5,158.5 Z"/></g>
<g><path style="opacity:0.968" fill="#3b99ee" d="M 324.5,171.5 C 324.5,181.5 324.5,191.5 324.5,201.5C 315.167,211.5 305.5,221.167 295.5,230.5C 295.5,220.5 295.5,210.5 295.5,200.5C 304.833,190.5 314.5,180.833 324.5,171.5 Z"/></g>
<g><path style="opacity:0.968" fill="#48b2f0" d="M 191.5,176.5 C 201.167,185.5 210.5,194.833 219.5,204.5C 219.5,214.5 219.5,224.5 219.5,234.5C 209.5,225.167 199.833,215.5 190.5,205.5C 190.173,195.652 190.506,185.986 191.5,176.5 Z"/></g>
<g><path style="opacity:0.973" fill="#3d9def" d="M 295.5,200.5 C 295.5,210.5 295.5,220.5 295.5,230.5C 293.5,233.167 291.167,235.5 288.5,237.5C 288.5,227.5 288.5,217.5 288.5,207.5C 290.5,204.833 292.833,202.5 295.5,200.5 Z"/></g>
<g><path style="opacity:0.963" fill="#45acef" d="M 219.5,204.5 C 226.833,211.167 233.833,218.167 240.5,225.5C 239.506,234.986 239.173,244.652 239.5,254.5C 232.5,248.167 225.833,241.5 219.5,234.5C 219.5,224.5 219.5,214.5 219.5,204.5 Z"/></g>
<g><path style="opacity:0.975" fill="#3fa0ef" d="M 288.5,207.5 C 288.5,217.5 288.5,227.5 288.5,237.5C 283.167,243.5 277.5,249.167 271.5,254.5C 270.506,245.014 270.173,235.348 270.5,225.5C 276.167,219.167 282.167,213.167 288.5,207.5 Z"/></g>
<g><path style="opacity:0.994" fill="#44a9ef" d="M 240.5,225.5 C 242.167,226.5 243.5,227.833 244.5,229.5C 244.17,246.675 244.503,263.675 245.5,280.5C 244.167,282.5 242.5,284.167 240.5,285.5C 239.833,276.167 239.167,266.833 238.5,257.5C 239.11,256.609 239.443,255.609 239.5,254.5C 239.173,244.652 239.506,234.986 240.5,225.5 Z"/></g>
<g><path style="opacity:0.976" fill="#42a5ef" d="M 270.5,225.5 C 270.173,235.348 270.506,245.014 271.5,254.5C 271.5,255.167 271.5,255.833 271.5,256.5C 270.506,265.986 270.173,275.652 270.5,285.5C 265.52,280.855 260.52,276.188 255.5,271.5C 252.147,274.522 248.813,277.522 245.5,280.5C 244.503,263.675 244.17,246.675 244.5,229.5C 248.147,232.811 251.813,236.145 255.5,239.5C 260.52,234.812 265.52,230.145 270.5,225.5 Z"/></g>
<g><path style="opacity:0.983" fill="#3fa0ef" d="M 271.5,256.5 C 277.5,261.833 283.167,267.5 288.5,273.5C 288.827,283.348 288.494,293.014 287.5,302.5C 281.5,297.167 275.833,291.5 270.5,285.5C 270.173,275.652 270.506,265.986 271.5,256.5 Z"/></g>
<g><path style="opacity:0.974" fill="#45acef" d="M 238.5,257.5 C 239.167,266.833 239.833,276.167 240.5,285.5C 234.167,292.5 227.5,299.167 220.5,305.5C 219.506,296.014 219.173,286.348 219.5,276.5C 225.5,269.833 231.833,263.5 238.5,257.5 Z"/></g>
<g><path style="opacity:0.981" fill="#3e9def" d="M 288.5,273.5 C 291.167,275.5 293.5,277.833 295.5,280.5C 295.827,290.348 295.494,300.014 294.5,309.5C 291.833,307.5 289.5,305.167 287.5,302.5C 288.494,293.014 288.827,283.348 288.5,273.5 Z"/></g>
<g><path style="opacity:0.968" fill="#48b1ef" d="M 219.5,276.5 C 219.173,286.348 219.506,296.014 220.5,305.5C 210.833,315.833 200.833,325.833 190.5,335.5C 190.5,325.5 190.5,315.5 190.5,305.5C 199.833,295.5 209.5,285.833 219.5,276.5 Z"/></g>
<g><path style="opacity:0.962" fill="#3b99ee" d="M 295.5,280.5 C 305.833,290.167 315.833,300.167 325.5,310.5C 324.506,319.986 324.173,329.652 324.5,339.5C 314.167,329.833 304.167,319.833 294.5,309.5C 295.494,300.014 295.827,290.348 295.5,280.5 Z"/></g>
<g><path style="opacity:0.965" fill="#4cb8f1" d="M 190.5,305.5 C 190.5,315.5 190.5,325.5 190.5,335.5C 182.167,344.5 173.5,353.167 164.5,361.5C 164.5,351.5 164.5,341.5 164.5,331.5C 172.833,322.5 181.5,313.833 190.5,305.5 Z"/></g>
<g><path style="opacity:0.97" fill="#3994ee" d="M 325.5,310.5 C 329.833,314.167 333.833,318.167 337.5,322.5C 337.5,332.5 337.5,342.5 337.5,352.5C 332.833,348.5 328.5,344.167 324.5,339.5C 324.173,329.652 324.506,319.986 325.5,310.5 Z"/></g>
<g><path style="opacity:0.973" fill="#3791ee" d="M 337.5,322.5 C 342.5,326.833 347.167,331.5 351.5,336.5C 350.506,345.986 350.173,355.652 350.5,365.5C 345.833,361.5 341.5,357.167 337.5,352.5C 337.5,342.5 337.5,332.5 337.5,322.5 Z"/></g>
<g><path style="opacity:0.966" fill="#4fbef1" d="M 164.5,331.5 C 164.5,341.5 164.5,351.5 164.5,361.5C 156.5,370.167 148.167,378.5 139.5,386.5C 139.5,376.5 139.5,366.5 139.5,356.5C 147.5,347.833 155.833,339.5 164.5,331.5 Z"/></g>
<g><path style="opacity:0.972" fill="#358cee" d="M 351.5,336.5 C 359.833,344.167 367.833,352.167 375.5,360.5C 375.5,370.5 375.5,380.5 375.5,390.5C 366.833,382.5 358.5,374.167 350.5,365.5C 350.173,355.652 350.506,345.986 351.5,336.5 Z"/></g>
<g><path style="opacity:0.992" fill="#51c2f1" d="M 139.5,356.5 C 139.5,366.5 139.5,376.5 139.5,386.5C 137.5,389.167 135.167,391.5 132.5,393.5C 132.5,383.5 132.5,373.5 132.5,363.5C 134.5,360.833 136.833,358.5 139.5,356.5 Z"/></g>
<g><path style="opacity:0.962" fill="#3388ee" d="M 375.5,360.5 C 378.833,363.167 381.833,366.167 384.5,369.5C 383.506,378.986 383.173,388.652 383.5,398.5C 380.5,396.167 377.833,393.5 375.5,390.5C 375.5,380.5 375.5,370.5 375.5,360.5 Z"/></g>
<g><path style="opacity:0.967" fill="#52c5f1" d="M 132.5,363.5 C 132.5,373.5 132.5,383.5 132.5,393.5C 127.167,399.5 121.5,405.167 115.5,410.5C 114.506,401.014 114.173,391.348 114.5,381.5C 120.167,375.167 126.167,369.167 132.5,363.5 Z"/></g>
<g><path style="opacity:0.989" fill="#3286ed" d="M 384.5,369.5 C 388.167,372.5 391.5,375.833 394.5,379.5C 394.5,389.5 394.5,399.5 394.5,409.5C 390.5,406.167 386.833,402.5 383.5,398.5C 383.173,388.652 383.506,378.986 384.5,369.5 Z"/></g>
<g><path style="opacity:0.99" fill="#3084ed" d="M 394.5,379.5 C 396.833,381.167 398.833,383.167 400.5,385.5C 400.5,395.167 400.5,404.833 400.5,414.5C 397.911,413.581 395.911,411.914 394.5,409.5C 394.5,399.5 394.5,389.5 394.5,379.5 Z"/></g>
<g><path style="opacity:0.956" fill="#54c9f1" d="M 114.5,381.5 C 114.173,391.348 114.506,401.014 115.5,410.5C 112.012,415.189 107.345,416.689 101.5,415C 97.1981,413.065 95.1981,409.732 95.5,405C 95.4944,402.7 95.9944,400.534 97,398.5C 102.702,392.63 108.535,386.964 114.5,381.5 Z"/></g>
<g><path style="opacity:0.975" fill="#3082ed" d="M 400.5,385.5 C 405.131,389.63 409.631,393.963 414,398.5C 417.749,411.235 413.249,416.568 400.5,414.5C 400.5,404.833 400.5,395.167 400.5,385.5 Z"/></g>
</svg>
