<svg width="82" height="80" viewBox="0 0 82 80" fill="none" xmlns="http://www.w3.org/2000/svg">
<g filter="url(#filter0_i_1_9260)">
<rect width="82" height="80" rx="20" fill="url(#paint0_linear_1_9260)"/>
<path d="M60.9502 40.0036C60.9185 45.0623 60.7028 50.1736 61.0988 55.2268C63.1234 50.3186 63.6599 45.1185 63.7224 40.0172C63.63 34.9042 63.1225 29.7122 61.0988 24.7904C60.7354 29.8446 60.9185 34.9458 60.9502 40.0036ZM68.1875 40.0181C68.0688 32.3612 67.3982 24.6545 64.9449 17.1833C64.9857 24.9345 65.4443 32.6793 65.4108 40.4323C65.379 47.9016 64.9631 55.3691 64.9449 62.8348C67.4072 55.3727 68.0688 47.6696 68.1875 40.0181ZM57.501 35.6002L57.3759 35.573C56.9065 23.6694 54.5738 14.625 51.769 14.625C51.2288 14.625 50.7078 14.9667 50.212 15.592C49.1354 16.79 35.3133 31.928 23.4749 33.3916C22.0893 33.5629 20.7652 33.7052 19.5364 33.8076C18.1063 33.9281 16.8049 33.9952 15.683 33.9952C15.683 33.9952 13.8125 36.9061 13.8125 40.0199C13.8125 43.1383 15.6866 46.0447 15.6866 46.0447C16.8086 46.0447 18.1117 46.1117 19.5418 46.2305C20.0629 46.2749 20.6085 46.3293 21.1613 46.3863V58.5319H28.4856L35.6794 51.8112C43.7124 57.1091 50.2583 64.4914 50.2583 64.4914V64.4669C50.7395 65.0542 51.2461 65.375 51.769 65.375C54.5738 65.375 56.9065 56.3306 57.3768 44.427L57.5019 44.4007C58.2659 44.4007 58.8867 42.4287 58.8867 40.0009C58.8857 37.5703 58.265 35.6002 57.501 35.6002ZM51.769 16.5263C53.064 17.6655 55.0732 24.2883 55.5489 35.1715L48.0796 33.5321C48.6741 23.6304 50.5401 17.6057 51.769 16.5263ZM24.8234 42.3254C23.9969 42.3254 23.3245 41.5252 23.3245 40.5419C23.3245 39.5559 23.9969 38.7566 24.8234 38.7566C25.6517 38.7566 26.3206 39.5559 26.3206 40.5419C26.3215 41.5261 25.6517 42.3254 24.8234 42.3254ZM28.4856 51.687V47.9786C29.3819 48.3293 30.2791 48.7326 31.169 49.1803L28.4856 51.687ZM28.4856 46.0483V36.5934H24.2588C24.4129 36.0343 24.5869 35.505 24.7673 35.0265C33.7119 33.3853 43.214 25.1647 48.1784 20.3054C46.8943 24.9572 46.0732 32.0495 46.0732 40C46.0732 47.9732 46.8988 55.0836 48.1911 59.7354C43.9236 55.5585 36.2621 48.8658 28.4856 46.0483ZM51.769 63.4737C50.541 62.3943 48.6741 56.3687 48.0796 46.467L55.5489 44.8276C55.0732 55.7108 53.064 62.3345 51.769 63.4737Z" fill="#F8F8F8"/>
</g>
<defs>
<filter id="filter0_i_1_9260" x="-2" y="-4" width="84" height="84" filterUnits="userSpaceOnUse" color-interpolation-filters="sRGB">
<feFlood flood-opacity="0" result="BackgroundImageFix"/>
<feBlend mode="normal" in="SourceGraphic" in2="BackgroundImageFix" result="shape"/>
<feColorMatrix in="SourceAlpha" type="matrix" values="0 0 0 0 0 0 0 0 0 0 0 0 0 0 0 0 0 0 127 0" result="hardAlpha"/>
<feOffset dx="-2" dy="-4"/>
<feGaussianBlur stdDeviation="2"/>
<feComposite in2="hardAlpha" operator="arithmetic" k2="-1" k3="1"/>
<feColorMatrix type="matrix" values="0 0 0 0 0 0 0 0 0 0 0 0 0 0 0 0 0 0 0.25 0"/>
<feBlend mode="normal" in2="shape" result="effect1_innerShadow_1_9260"/>
</filter>
<linearGradient id="paint0_linear_1_9260" x1="16.4" y1="-1.19209e-07" x2="64.3379" y2="81.0496" gradientUnits="userSpaceOnUse">
<stop stop-color="#0886E3"/>
<stop offset="1" stop-color="#B3DEFD"/>
</linearGradient>
</defs>
</svg>
