<?xml version="1.0" encoding="UTF-8"?>
<!DOCTYPE svg PUBLIC "-//W3C//DTD SVG 1.1//EN" "http://www.w3.org/Graphics/SVG/1.1/DTD/svg11.dtd">
<svg xmlns="http://www.w3.org/2000/svg" version="1.1" width="246px" height="59px" style="shape-rendering:geometricPrecision; text-rendering:geometricPrecision; image-rendering:optimizeQuality; fill-rule:evenodd; clip-rule:evenodd" xmlns:xlink="http://www.w3.org/1999/xlink">
<g><path style="opacity:0.643" fill="#0b5584" d="M 245.5,14.5 C 245.5,21.1667 245.5,27.8333 245.5,34.5C 244.542,34.9528 243.708,35.6195 243,36.5C 242.817,39.3647 242.317,42.0314 241.5,44.5C 241.828,32.9877 241.495,21.6544 240.5,10.5C 239.974,8.76967 238.974,7.43634 237.5,6.5C 236.5,5.83333 235.5,5.16667 234.5,4.5C 159.874,3.33961 85.2071,3.17294 10.5,4C 8.97331,5.03191 7.63997,6.19858 6.5,7.5C 5.59872,8.29049 4.93205,9.29049 4.5,10.5C 3.66175,10.8417 3.32842,11.5084 3.5,12.5C 2.5,12.5 1.5,12.5 0.5,12.5C 1.87887,6.95524 5.2122,3.12191 10.5,1C 85.1667,0.333333 159.833,0.333333 234.5,1C 240.641,3.62713 244.308,8.12713 245.5,14.5 Z"/></g>
<g><path style="opacity:0.795" fill="#0059d6" d="M 234.5,4.5 C 235.739,7.71523 234.906,10.3819 232,12.5C 231.05,11.9777 230.216,11.311 229.5,10.5C 227.291,11.1062 225.124,11.7728 223,12.5C 222.333,11.8333 221.667,11.1667 221,10.5C 218.429,11.2453 215.929,11.5787 213.5,11.5C 212.808,10.9747 212.308,10.3081 212,9.5C 211.196,10.8045 210.029,11.4712 208.5,11.5C 205.003,10.4098 201.503,10.7432 198,12.5C 195.945,11.3078 193.945,11.3078 192,12.5C 191.612,11.572 190.945,10.9054 190,10.5C 188.441,11.0294 186.941,11.696 185.5,12.5C 183.522,11.8686 181.355,11.8686 179,12.5C 178.333,11.8333 177.667,11.1667 177,10.5C 173.543,9.85762 170.21,10.5243 167,12.5C 163.059,11.3991 159.392,11.3991 156,12.5C 153.53,10.2691 151.197,10.2691 149,12.5C 145.505,12.2749 141.505,11.6082 137,10.5C 136.692,11.3081 136.192,11.9747 135.5,12.5C 132.997,12.7146 130.497,12.048 128,10.5C 125.519,11.0217 123.186,11.0217 121,10.5C 120.333,13.1667 119.667,13.1667 119,10.5C 114.577,10.9996 109.911,11.6663 105,12.5C 103.739,12.2409 102.739,11.5742 102,10.5C 100.667,11.8333 99.3333,11.8333 98,10.5C 97,11.1667 96,11.8333 95,12.5C 92.6667,11.1667 90.3333,11.1667 88,12.5C 85.4822,10.5362 82.8155,9.86951 80,10.5C 79.3333,11.1667 78.6667,11.8333 78,12.5C 71.5157,10.6035 65.1824,10.6035 59,12.5C 47.9508,11.8193 36.9508,11.8193 26,12.5C 25.195,14.9011 24.3617,14.7344 23.5,12C 21.236,11.7638 19.0693,11.2638 17,10.5C 16.3333,11.1667 15.6667,11.8333 15,12.5C 12.2041,12.0372 9.37081,12.0372 6.5,12.5C 6.5,10.8333 6.5,9.16667 6.5,7.5C 7.63997,6.19858 8.97331,5.03191 10.5,4C 85.2071,3.17294 159.874,3.33961 234.5,4.5 Z"/></g>
<g><path style="opacity:0.796" fill="#025fd0" d="M 234.5,4.5 C 235.5,5.16667 236.5,5.83333 237.5,6.5C 239.156,11.7576 238.656,16.7576 236,21.5C 228.182,21.3489 220.016,21.3489 211.5,21.5C 211.5,19.8333 211.5,18.1667 211.5,16.5C 210.5,16.5 209.5,16.5 208.5,16.5C 208.5,19.8333 208.5,23.1667 208.5,26.5C 207.603,25.4019 206.77,25.4019 206,26.5C 205.768,25.2625 205.268,24.2625 204.5,23.5C 199.638,21.2955 196.305,22.6288 194.5,27.5C 193.717,29.0758 192.55,30.4092 191,31.5C 191.07,28.008 190.237,25.008 188.5,22.5C 188.631,21.7611 188.464,21.0944 188,20.5C 179.974,20.4869 171.807,20.8202 163.5,21.5C 162.824,20.3984 162.158,19.3984 161.5,18.5C 156.695,17.5128 151.695,17.1795 146.5,17.5C 146.5,18.5 146.5,19.5 146.5,20.5C 136.789,20.8777 127.789,20.8777 119.5,20.5C 120.404,19.791 120.737,18.791 120.5,17.5C 119.167,17.5 117.833,17.5 116.5,17.5C 116.5,18.5 116.5,19.5 116.5,20.5C 112.245,20.5522 107.578,20.5522 102.5,20.5C 101.74,18.0155 100.74,18.0155 99.5,20.5C 93.697,20.9699 87.8637,21.3033 82,21.5C 80.6974,21.0217 79.5307,20.355 78.5,19.5C 75.0568,17.2794 71.3901,16.9461 67.5,18.5C 48.076,18.4093 28.2426,18.4093 8,18.5C 7.12682,18.2645 6.29349,17.9312 5.5,17.5C 4.52577,15.2573 4.19244,12.924 4.5,10.5C 4.93205,9.29049 5.59872,8.29049 6.5,7.5C 6.5,9.16667 6.5,10.8333 6.5,12.5C 9.37081,12.0372 12.2041,12.0372 15,12.5C 15.6667,11.8333 16.3333,11.1667 17,10.5C 19.0693,11.2638 21.236,11.7638 23.5,12C 24.3617,14.7344 25.195,14.9011 26,12.5C 36.9508,11.8193 47.9508,11.8193 59,12.5C 65.1824,10.6035 71.5157,10.6035 78,12.5C 78.6667,11.8333 79.3333,11.1667 80,10.5C 82.8155,9.86951 85.4822,10.5362 88,12.5C 90.3333,11.1667 92.6667,11.1667 95,12.5C 96,11.8333 97,11.1667 98,10.5C 99.3333,11.8333 100.667,11.8333 102,10.5C 102.739,11.5742 103.739,12.2409 105,12.5C 109.911,11.6663 114.577,10.9996 119,10.5C 119.667,13.1667 120.333,13.1667 121,10.5C 123.186,11.0217 125.519,11.0217 128,10.5C 130.497,12.048 132.997,12.7146 135.5,12.5C 136.192,11.9747 136.692,11.3081 137,10.5C 141.505,11.6082 145.505,12.2749 149,12.5C 151.197,10.2691 153.53,10.2691 156,12.5C 159.392,11.3991 163.059,11.3991 167,12.5C 170.21,10.5243 173.543,9.85762 177,10.5C 177.667,11.1667 178.333,11.8333 179,12.5C 181.355,11.8686 183.522,11.8686 185.5,12.5C 186.941,11.696 188.441,11.0294 190,10.5C 190.945,10.9054 191.612,11.572 192,12.5C 193.945,11.3078 195.945,11.3078 198,12.5C 201.503,10.7432 205.003,10.4098 208.5,11.5C 210.029,11.4712 211.196,10.8045 212,9.5C 212.308,10.3081 212.808,10.9747 213.5,11.5C 215.929,11.5787 218.429,11.2453 221,10.5C 221.667,11.1667 222.333,11.8333 223,12.5C 225.124,11.7728 227.291,11.1062 229.5,10.5C 230.216,11.311 231.05,11.9777 232,12.5C 234.906,10.3819 235.739,7.71523 234.5,4.5 Z"/></g>
<g><path style="opacity:1" fill="#d7e5f5" d="M 78.5,19.5 C 78.6309,20.3764 78.2975,21.0431 77.5,21.5C 67.793,19.37 64.793,22.87 68.5,32C 73.3431,34.9032 76.0098,33.7365 76.5,28.5C 75.1667,28.5 73.8333,28.5 72.5,28.5C 72.5,27.5 72.5,26.5 72.5,25.5C 74.8333,25.5 77.1667,25.5 79.5,25.5C 79.5,27.8333 79.5,30.1667 79.5,32.5C 79.4226,33.7498 78.756,34.5831 77.5,35C 68.7976,37.4961 64.131,34.3294 63.5,25.5C 64.063,22.7052 65.3963,20.3718 67.5,18.5C 71.3901,16.9461 75.0568,17.2794 78.5,19.5 Z"/></g>
<g><path style="opacity:1" fill="#dbe8f7" d="M 161.5,18.5 C 161.5,18.8333 161.5,19.1667 161.5,19.5C 159.5,19.5 157.5,19.5 155.5,19.5C 155.5,24.8333 155.5,30.1667 155.5,35.5C 154.5,35.5 153.5,35.5 152.5,35.5C 152.5,34.1667 152.5,32.8333 152.5,31.5C 152.5,27.8333 152.5,24.1667 152.5,20.5C 150.5,20.5 148.5,20.5 146.5,20.5C 146.5,19.5 146.5,18.5 146.5,17.5C 151.695,17.1795 156.695,17.5128 161.5,18.5 Z"/></g>
<g><path style="opacity:0.795" fill="#0364ca" d="M 4.5,10.5 C 4.19244,12.924 4.52577,15.2573 5.5,17.5C 6.29349,17.9312 7.12682,18.2645 8,18.5C 28.2426,18.4093 48.076,18.4093 67.5,18.5C 65.3963,20.3718 64.063,22.7052 63.5,25.5C 44.4524,25.5317 24.4524,25.5317 3.5,25.5C 3.5,21.1667 3.5,16.8333 3.5,12.5C 3.32842,11.5084 3.66175,10.8417 4.5,10.5 Z"/></g>
<g><path style="opacity:1" fill="#deeaf7" d="M 102.5,20.5 C 102.821,22.0481 103.821,22.7148 105.5,22.5C 105.5,23.5 105.5,24.5 105.5,25.5C 104.5,25.5 103.5,25.5 102.5,25.5C 102.5,27.8333 102.5,30.1667 102.5,32.5C 103.398,33.1577 104.398,33.8243 105.5,34.5C 103.833,35.8333 102.167,35.8333 100.5,34.5C 99.9807,30.3229 98.9807,26.3229 97.5,22.5C 98.8333,22.5 99.5,21.8333 99.5,20.5C 100.74,18.0155 101.74,18.0155 102.5,20.5 Z"/></g>
<g><path style="opacity:0.949" fill="#bad2f1" d="M 119.5,20.5 C 118.5,20.5 117.5,20.5 116.5,20.5C 116.5,19.5 116.5,18.5 116.5,17.5C 117.833,17.5 119.167,17.5 120.5,17.5C 120.737,18.791 120.404,19.791 119.5,20.5 Z"/></g>
<g><path style="opacity:0.796" fill="#1069c8" d="M 78.5,19.5 C 79.5307,20.355 80.6974,21.0217 82,21.5C 87.8637,21.3033 93.697,20.9699 99.5,20.5C 99.5,21.8333 98.8333,22.5 97.5,22.5C 96.8999,23.9002 95.8999,24.9002 94.5,25.5C 89.8664,21.027 86.1997,21.6936 83.5,27.5C 82.5489,28.9187 82.2155,30.5853 82.5,32.5C 81.5,32.5 80.5,32.5 79.5,32.5C 79.5,30.1667 79.5,27.8333 79.5,25.5C 77.1667,25.5 74.8333,25.5 72.5,25.5C 72.5,26.5 72.5,27.5 72.5,28.5C 73.8333,28.5 75.1667,28.5 76.5,28.5C 76.0098,33.7365 73.3431,34.9032 68.5,32C 64.793,22.87 67.793,19.37 77.5,21.5C 78.2975,21.0431 78.6309,20.3764 78.5,19.5 Z"/></g>
<g><path style="opacity:0.796" fill="#0667c7" d="M 102.5,20.5 C 107.578,20.5522 112.245,20.5522 116.5,20.5C 117.5,20.5 118.5,20.5 119.5,20.5C 127.789,20.8777 136.789,20.8777 146.5,20.5C 148.5,20.5 150.5,20.5 152.5,20.5C 152.5,24.1667 152.5,27.8333 152.5,31.5C 148.855,32.9356 145.355,32.6022 142,30.5C 140.951,31.5171 139.784,31.6838 138.5,31C 137.047,29.3513 136.047,27.5179 135.5,25.5C 135.047,24.5416 134.381,23.7083 133.5,23C 130.458,23.5229 127.458,23.3562 124.5,22.5C 124.5,25.1667 124.5,27.8333 124.5,30.5C 123.292,31.2341 121.959,31.5674 120.5,31.5C 120.806,28.6146 120.473,25.9479 119.5,23.5C 118.791,22.596 117.791,22.2627 116.5,22.5C 117.082,26.3155 116.248,29.6488 114,32.5C 112.684,29.972 111.517,29.972 110.5,32.5C 107.932,32.0284 105.265,32.0284 102.5,32.5C 102.5,30.1667 102.5,27.8333 102.5,25.5C 103.5,25.5 104.5,25.5 105.5,25.5C 105.5,24.5 105.5,23.5 105.5,22.5C 103.821,22.7148 102.821,22.0481 102.5,20.5 Z"/></g>
<g><path style="opacity:0.796" fill="#0868c7" d="M 161.5,18.5 C 162.158,19.3984 162.824,20.3984 163.5,21.5C 171.807,20.8202 179.974,20.4869 188,20.5C 188.464,21.0944 188.631,21.7611 188.5,22.5C 187.833,22.5 187.5,22.8333 187.5,23.5C 187.664,26.1873 187.497,28.854 187,31.5C 185.604,33.5268 183.938,33.8602 182,32.5C 181.502,29.1832 181.335,25.8499 181.5,22.5C 180.5,22.5 179.5,22.5 178.5,22.5C 178.5,25.5 178.5,28.5 178.5,31.5C 177.85,31.8039 177.183,32.1373 176.5,32.5C 175.83,30.7086 175.163,29.0419 174.5,27.5C 173.157,22.9221 170.157,21.4221 165.5,23C 162.875,25.1962 161.875,28.0295 162.5,31.5C 160.854,31.542 159.188,31.542 157.5,31.5C 156.511,27.8927 156.177,24.226 156.5,20.5C 158.415,20.7845 160.081,20.4511 161.5,19.5C 161.5,19.1667 161.5,18.8333 161.5,18.5 Z"/></g>
<g><path style="opacity:1" fill="#e9f1f9" d="M 94.5,25.5 C 94.5,26.8333 94.5,28.1667 94.5,29.5C 91.4281,29.1826 88.4281,29.5159 85.5,30.5C 87.4944,33.5682 90.1611,34.2348 93.5,32.5C 94.7112,33.2739 94.7112,34.1072 93.5,35C 86.2528,37.5362 82.9195,35.0362 83.5,27.5C 86.1997,21.6936 89.8664,21.027 94.5,25.5 Z"/></g>
<g><path style="opacity:1" fill="#e4eef8" d="M 174.5,27.5 C 175.003,34.1623 172.003,36.6623 165.5,35C 163.944,34.2798 162.944,33.1132 162.5,31.5C 161.875,28.0295 162.875,25.1962 165.5,23C 170.157,21.4221 173.157,22.9221 174.5,27.5 Z"/></g>
<g><path style="opacity:1" fill="#ebf3fa" d="M 187.5,23.5 C 188.794,25.0478 189.461,27.0478 189.5,29.5C 189.167,31.5 188.833,33.5 188.5,35.5C 185.576,35.674 182.576,35.3407 179.5,34.5C 179.443,33.391 179.11,32.391 178.5,31.5C 178.5,28.5 178.5,25.5 178.5,22.5C 179.5,22.5 180.5,22.5 181.5,22.5C 181.335,25.8499 181.502,29.1832 182,32.5C 183.938,33.8602 185.604,33.5268 187,31.5C 187.497,28.854 187.664,26.1873 187.5,23.5 Z"/></g>
<g><path style="opacity:0.795" fill="#4180cf" d="M 87.5,24.5 C 89.9582,24.2275 91.6249,25.2275 92.5,27.5C 90.1667,28.8333 87.8333,28.8333 85.5,27.5C 86.1925,26.4822 86.8592,25.4822 87.5,24.5 Z"/></g>
<g><path style="opacity:0.795" fill="#1e70c7" d="M 166.5,24.5 C 168.144,24.2865 169.644,24.6198 171,25.5C 171.769,28.0991 171.602,30.5991 170.5,33C 168.888,33.7203 167.388,33.5536 166,32.5C 165.278,29.7395 165.445,27.0728 166.5,24.5 Z"/></g>
<g><path style="opacity:0.973" fill="#e3edf9" d="M 211.5,21.5 C 211.369,22.3764 211.702,23.0431 212.5,23.5C 218.043,21.8694 220.377,24.0361 219.5,30C 219.167,31.8333 218.833,33.6667 218.5,35.5C 217.676,32.2152 217.176,28.8818 217,25.5C 215.612,24.4464 214.112,24.2797 212.5,25C 211.544,28.3936 211.211,31.8936 211.5,35.5C 210.5,35.5 209.5,35.5 208.5,35.5C 208.5,32.5 208.5,29.5 208.5,26.5C 208.5,23.1667 208.5,19.8333 208.5,16.5C 209.5,16.5 210.5,16.5 211.5,16.5C 211.5,18.1667 211.5,19.8333 211.5,21.5 Z"/></g>
<g><path style="opacity:0.796" fill="#0b69b9" d="M 237.5,6.5 C 238.974,7.43634 239.974,8.76967 240.5,10.5C 240.666,17.175 240.5,23.8417 240,30.5C 238.885,33.8946 237.385,37.0613 235.5,40C 158.447,41.0372 81.4471,41.2038 4.5,40.5C 8.44511,39.1745 12.7784,38.5079 17.5,38.5C 31.7382,38.4857 46.0716,38.819 60.5,39.5C 65.8333,38.8333 71.1667,38.1667 76.5,37.5C 93.61,38.6957 110.777,38.6957 128,37.5C 135.519,38.6033 143.019,39.27 150.5,39.5C 157.358,37.9528 163.858,37.6195 170,38.5C 173.854,38.5745 177.02,37.2411 179.5,34.5C 182.576,35.3407 185.576,35.674 188.5,35.5C 188.833,33.5 189.167,31.5 189.5,29.5C 189.461,27.0478 188.794,25.0478 187.5,23.5C 187.5,22.8333 187.833,22.5 188.5,22.5C 190.237,25.008 191.07,28.008 191,31.5C 192.55,30.4092 193.717,29.0758 194.5,27.5C 193.825,34.1816 196.825,36.6816 203.5,35C 204.711,34.1072 204.711,33.2739 203.5,32.5C 196.602,33.7513 194.935,31.2513 198.5,25C 200.235,24.3486 201.902,24.5153 203.5,25.5C 204.298,25.0431 204.631,24.3764 204.5,23.5C 205.268,24.2625 205.768,25.2625 206,26.5C 206.77,25.4019 207.603,25.4019 208.5,26.5C 208.5,29.5 208.5,32.5 208.5,35.5C 209.5,35.5 210.5,35.5 211.5,35.5C 211.211,31.8936 211.544,28.3936 212.5,25C 214.112,24.2797 215.612,24.4464 217,25.5C 217.176,28.8818 217.676,32.2152 218.5,35.5C 218.833,33.6667 219.167,31.8333 219.5,30C 220.377,24.0361 218.043,21.8694 212.5,23.5C 211.702,23.0431 211.369,22.3764 211.5,21.5C 220.016,21.3489 228.182,21.3489 236,21.5C 238.656,16.7576 239.156,11.7576 237.5,6.5 Z"/></g>
<g><path style="opacity:1" fill="#e9f1f9" d="M 204.5,23.5 C 204.631,24.3764 204.298,25.0431 203.5,25.5C 201.902,24.5153 200.235,24.3486 198.5,25C 194.935,31.2513 196.602,33.7513 203.5,32.5C 204.711,33.2739 204.711,34.1072 203.5,35C 196.825,36.6816 193.825,34.1816 194.5,27.5C 196.305,22.6288 199.638,21.2955 204.5,23.5 Z"/></g>
<g><path style="opacity:0.796" fill="#126fbf" d="M 161.5,19.5 C 160.081,20.4511 158.415,20.7845 156.5,20.5C 156.177,24.226 156.511,27.8927 157.5,31.5C 159.188,31.542 160.854,31.542 162.5,31.5C 162.944,33.1132 163.944,34.2798 165.5,35C 172.003,36.6623 175.003,34.1623 174.5,27.5C 175.163,29.0419 175.83,30.7086 176.5,32.5C 177.183,32.1373 177.85,31.8039 178.5,31.5C 179.11,32.391 179.443,33.391 179.5,34.5C 177.02,37.2411 173.854,38.5745 170,38.5C 163.858,37.6195 157.358,37.9528 150.5,39.5C 143.019,39.27 135.519,38.6033 128,37.5C 110.777,38.6957 93.61,38.6957 76.5,37.5C 71.1667,38.1667 65.8333,38.8333 60.5,39.5C 46.0716,38.819 31.7382,38.4857 17.5,38.5C 12.7784,38.5079 8.44511,39.1745 4.5,40.5C 4.5,42.1667 4.5,43.8333 4.5,45.5C 3.50929,39.021 3.17596,32.3543 3.5,25.5C 24.4524,25.5317 44.4524,25.5317 63.5,25.5C 64.131,34.3294 68.7976,37.4961 77.5,35C 78.756,34.5831 79.4226,33.7498 79.5,32.5C 80.5,32.5 81.5,32.5 82.5,32.5C 82.2155,30.5853 82.5489,28.9187 83.5,27.5C 82.9195,35.0362 86.2528,37.5362 93.5,35C 94.7112,34.1072 94.7112,33.2739 93.5,32.5C 90.1611,34.2348 87.4944,33.5682 85.5,30.5C 88.4281,29.5159 91.4281,29.1826 94.5,29.5C 94.5,28.1667 94.5,26.8333 94.5,25.5C 95.8999,24.9002 96.8999,23.9002 97.5,22.5C 98.9807,26.3229 99.9807,30.3229 100.5,34.5C 102.167,35.8333 103.833,35.8333 105.5,34.5C 104.398,33.8243 103.398,33.1577 102.5,32.5C 105.265,32.0284 107.932,32.0284 110.5,32.5C 111.517,29.972 112.684,29.972 114,32.5C 116.248,29.6488 117.082,26.3155 116.5,22.5C 117.791,22.2627 118.791,22.596 119.5,23.5C 120.473,25.9479 120.806,28.6146 120.5,31.5C 121.959,31.5674 123.292,31.2341 124.5,30.5C 124.5,32.1667 124.5,33.8333 124.5,35.5C 125.5,35.5 126.5,35.5 127.5,35.5C 127.335,32.1501 127.502,28.8168 128,25.5C 129.667,24.1667 131.333,24.1667 133,25.5C 134.161,38.8171 134.994,38.8171 135.5,25.5C 136.047,27.5179 137.047,29.3513 138.5,31C 139.784,31.6838 140.951,31.5171 142,30.5C 145.355,32.6022 148.855,32.9356 152.5,31.5C 152.5,32.8333 152.5,34.1667 152.5,35.5C 153.5,35.5 154.5,35.5 155.5,35.5C 155.5,30.1667 155.5,24.8333 155.5,19.5C 157.5,19.5 159.5,19.5 161.5,19.5 Z"/></g>
<g><path style="opacity:1" fill="#ebf2fa" d="M 135.5,25.5 C 134.994,38.8171 134.161,38.8171 133,25.5C 131.333,24.1667 129.667,24.1667 128,25.5C 127.502,28.8168 127.335,32.1501 127.5,35.5C 126.5,35.5 125.5,35.5 124.5,35.5C 124.5,33.8333 124.5,32.1667 124.5,30.5C 124.5,27.8333 124.5,25.1667 124.5,22.5C 127.458,23.3562 130.458,23.5229 133.5,23C 134.381,23.7083 135.047,24.5416 135.5,25.5 Z"/></g>
<g><path style="opacity:1" fill="#fefffe" d="M 119.5,23.5 C 119.824,27.5546 119.491,31.5546 118.5,35.5C 118.167,33.5 117.833,31.5 117.5,29.5C 117.539,27.0478 118.206,25.0478 119.5,23.5 Z"/></g>
<g><path style="opacity:0.795" fill="#045ba7" d="M 240.5,10.5 C 241.495,21.6544 241.828,32.9877 241.5,44.5C 241.5,45.1667 241.167,45.5 240.5,45.5C 240.66,43.8008 240.494,42.1341 240,40.5C 239.4,42.9096 238.234,44.9096 236.5,46.5C 235.504,46.4142 234.671,46.7476 234,47.5C 233.544,46.2559 234.044,45.4226 235.5,45C 160.302,45.0903 84.6354,45.0903 8.5,45C 6.88066,45.2355 5.88066,46.0689 5.5,47.5C 4.66175,47.1583 4.32842,46.4916 4.5,45.5C 4.5,43.8333 4.5,42.1667 4.5,40.5C 81.4471,41.2038 158.447,41.0372 235.5,40C 237.385,37.0613 238.885,33.8946 240,30.5C 240.5,23.8417 240.666,17.175 240.5,10.5 Z"/></g>
<g><path style="opacity:0.439" fill="#2786ba" d="M 0.5,12.5 C 1.5,12.5 2.5,12.5 3.5,12.5C 3.5,16.8333 3.5,21.1667 3.5,25.5C 3.17596,32.3543 3.50929,39.021 4.5,45.5C 4.32842,46.4916 4.66175,47.1583 5.5,47.5C 6.5,50.5 8.5,52.5 11.5,53.5C 84.9989,54.6655 158.666,54.8322 232.5,54C 236.785,52.5525 239.452,49.7192 240.5,45.5C 241.167,45.5 241.5,45.1667 241.5,44.5C 242.317,42.0314 242.817,39.3647 243,36.5C 243.708,35.6195 244.542,34.9528 245.5,34.5C 245.5,37.5 245.5,40.5 245.5,43.5C 244.361,49.4923 241.028,53.9923 235.5,57C 160.5,57.6667 85.5,57.6667 10.5,57C 6.08863,55.5902 2.92197,52.7569 1,48.5C 0.500129,36.5046 0.333462,24.5046 0.5,12.5 Z"/></g>
<g><path style="opacity:0.8" fill="#023d80" d="M 240.5,45.5 C 239.452,49.7192 236.785,52.5525 232.5,54C 158.666,54.8322 84.9989,54.6655 11.5,53.5C 11.3893,52.8826 11.056,52.3826 10.5,52C 83.8333,51.6667 157.167,51.3333 230.5,51C 233.47,50.6921 235.47,49.1921 236.5,46.5C 238.234,44.9096 239.4,42.9096 240,40.5C 240.494,42.1341 240.66,43.8008 240.5,45.5 Z"/></g>
<g><path style="opacity:0.796" fill="#024c98" d="M 236.5,46.5 C 235.47,49.1921 233.47,50.6921 230.5,51C 157.167,51.3333 83.8333,51.6667 10.5,52C 11.056,52.3826 11.3893,52.8826 11.5,53.5C 8.5,52.5 6.5,50.5 5.5,47.5C 5.88066,46.0689 6.88066,45.2355 8.5,45C 84.6354,45.0903 160.302,45.0903 235.5,45C 234.044,45.4226 233.544,46.2559 234,47.5C 234.671,46.7476 235.504,46.4142 236.5,46.5 Z"/></g>
</svg>
