<svg width="163" height="79" viewBox="0 0 163 79" fill="none" xmlns="http://www.w3.org/2000/svg">
<path d="M20.8356 54.0799C20.8356 55.6322 20.4015 56.9833 19.5333 58.1331C18.6941 59.283 17.4932 60.1885 15.9305 60.8497C14.3679 61.4821 12.4579 61.7983 10.2007 61.7983C8.26188 61.7983 6.35195 61.5396 4.47096 61.0222C2.61891 60.5047 1.12859 59.8292 0 58.9955L2.04015 54.7698C3.08193 55.5459 4.35521 56.164 5.86 56.6239C7.36479 57.0839 8.89852 57.3139 10.4612 57.3139C12.3132 57.3139 13.601 57.0408 14.3244 56.4946C15.0479 55.9484 15.4096 55.3016 15.4096 54.5542C15.4096 53.8643 15.1347 53.3181 14.5849 52.9156C14.064 52.5132 13.355 52.197 12.4579 51.967C11.5898 51.7083 10.6348 51.4783 9.59304 51.2771C8.55126 51.0471 7.50948 50.7884 6.4677 50.5009C5.42593 50.2134 4.47096 49.811 3.60281 49.2935C2.73467 48.7761 2.02568 48.0862 1.47585 47.2238C0.954963 46.3614 0.694519 45.269 0.694519 43.9467C0.694519 42.4231 1.12859 41.0864 1.99674 39.9365C2.86489 38.7867 4.0803 37.8955 5.64296 37.2631C7.23457 36.6307 9.10109 36.3145 11.2425 36.3145C12.7762 36.3145 14.31 36.4869 15.8437 36.8319C17.4064 37.1481 18.7665 37.6799 19.924 38.4273L18.0575 42.6531C16.9578 41.9344 15.8003 41.4457 14.5849 41.187C13.3984 40.8995 12.2264 40.7558 11.0689 40.7558C9.33259 40.7558 8.07378 41.0289 7.29244 41.5751C6.54005 42.1213 6.16385 42.8112 6.16385 43.6448C6.16385 44.3348 6.4243 44.8809 6.94518 45.2834C7.49501 45.6858 8.204 46.0164 9.07215 46.2752C9.9403 46.5051 10.8953 46.7207 11.937 46.922C13.0078 47.1232 14.0495 47.3819 15.0624 47.6981C16.1041 47.9856 17.0591 48.388 17.9273 48.9055C18.8243 49.3942 19.5333 50.0553 20.0542 50.889C20.5751 51.7226 20.8356 52.7863 20.8356 54.0799Z" fill="black"/>
<path d="M39.8053 61.7983C37.1719 61.7983 34.8134 61.2521 32.7299 60.1598C30.6752 59.0386 29.0547 57.5151 27.8682 55.5891C26.6818 53.663 26.0885 51.4783 26.0885 49.0348C26.0885 46.5914 26.6818 44.421 27.8682 42.5237C29.0547 40.5977 30.6752 39.0885 32.7299 37.9961C34.8134 36.875 37.1574 36.3145 39.7619 36.3145C42.3952 36.3145 44.7392 36.875 46.7939 37.9961C48.8774 39.0885 50.5124 40.5977 51.6989 42.5237C52.8854 44.421 53.4786 46.5914 53.4786 49.0348C53.4786 51.4783 52.8854 53.663 51.6989 55.5891C50.5124 57.5151 48.8774 59.0386 46.7939 60.1598C44.7392 61.2521 42.4097 61.7983 39.8053 61.7983ZM39.7619 57.1845C41.3535 57.1845 42.757 56.8395 43.9724 56.1496C45.2167 55.431 46.1862 54.4536 46.8807 53.2175C47.5752 51.9814 47.9225 50.5871 47.9225 49.0348C47.9225 47.4538 47.5607 46.0596 46.8373 44.8522C46.1427 43.6161 45.1878 42.6531 43.9724 41.9632C42.757 41.2732 41.3679 40.9283 39.8053 40.9283C38.2426 40.9283 36.8391 41.2732 35.5947 41.9632C34.3504 42.6531 33.3665 43.6161 32.643 44.8522C31.9485 46.0596 31.6013 47.4538 31.6013 49.0348C31.6013 50.5871 31.9485 51.9814 32.643 53.2175C33.3665 54.4536 34.3504 55.431 35.5947 56.1496C36.8391 56.8395 38.2281 57.1845 39.7619 57.1845Z" fill="black"/>
<path d="M65.8914 47.9137H78.4362V52.2688H65.8914V47.9137ZM66.5859 61.3671H61.1166V36.7025H79.912V41.1008H66.5859V61.3671Z" fill="black"/>
<path d="M91.8799 61.3671V41.1439H83.7193V36.7025H105.51V41.1439H97.3492V61.3671H91.8799Z" fill="black"/>
<path d="M116.352 46.7495H128.94V50.9752H116.352V46.7495ZM117.089 57.012H130.893V61.3671H111.62V36.7025H130.415V41.1008H117.089V57.012Z" fill="black"/>
<path d="M143.621 55.6753L143.317 49.3367L155.732 36.7025H161.809L150.957 48.1724L147.875 51.3202L143.621 55.6753ZM138.716 61.3671V36.7025H144.185V61.3671H138.716ZM155.992 61.3671L146.833 50.544L150.392 46.6201L162.46 61.3671H155.992Z" fill="black"/>
<path d="M29.9434 22.2984L39.9902 0H44.8203L54.8285 22.2984H49.9983L41.5745 2.49492H43.1974L34.6963 22.2984H29.9434ZM34.9281 17.4645L36.2419 13.7221H47.7571L49.0709 17.4645H34.9281Z" fill="black"/>
<path d="M59.921 22.2984V0H63.9397L77.2711 16.295H75.4549V0H80.2851V22.2984H76.2664L62.9351 6.00341H64.7899V22.2984H59.921Z" fill="black"/>
<path d="M94.3959 22.2984V13.3323L95.3233 16.4509L85.4311 0H90.609L98.3373 12.7085H95.6324L103.361 0H108.307L98.4146 16.4509L99.3034 13.3323V22.2984H94.3959Z" fill="black"/>
<path d="M108.268 22.2984L118.315 0H123.145L133.153 22.2984H128.323L119.899 2.49492H121.522L113.021 22.2984H108.268ZM113.253 17.4645L114.566 13.7221H126.082L127.395 17.4645H113.253Z" fill="black"/>
<path d="M3.72159 76.6924C2.93182 76.6924 2.26126 76.5371 1.70992 76.2266C1.15857 75.9161 0.733886 75.4751 0.435861 74.9035C0.145287 74.3319 0 73.6509 0 72.8605C0 72.0702 0.145287 71.3927 0.435861 70.8282C0.733886 70.2566 1.15857 69.8155 1.70992 69.505C2.26126 69.1945 2.93182 69.0393 3.72159 69.0393C4.28038 69.0393 4.77957 69.1204 5.21916 69.2827C5.65875 69.445 6.04246 69.6814 6.37028 69.9919L6.02383 70.6906C5.6662 70.3942 5.31229 70.1789 4.96212 70.0449C4.61194 69.9037 4.20215 69.8332 3.73276 69.8332C2.83124 69.8332 2.14578 70.0978 1.67639 70.6271C1.207 71.1563 0.972306 71.9008 0.972306 72.8605C0.972306 73.8203 1.207 74.5683 1.67639 75.1046C2.14578 75.6339 2.83124 75.8985 3.73276 75.8985C4.20215 75.8985 4.61194 75.8314 4.96212 75.6974C5.31229 75.5562 5.6662 75.3339 6.02383 75.0305L6.37028 75.7397C6.04246 76.0431 5.65875 76.2795 5.21916 76.4489C4.77957 76.6112 4.28038 76.6924 3.72159 76.6924Z" fill="#39789A"/>
<path d="M10.2979 76.6924C9.76148 76.6924 9.29209 76.583 8.88976 76.3642C8.49487 76.1384 8.1894 75.8209 7.97333 75.4116C7.75726 74.9952 7.64923 74.5048 7.64923 73.9402C7.64923 73.3686 7.75726 72.8782 7.97333 72.4689C8.1894 72.0596 8.49487 71.7456 8.88976 71.5268C9.29209 71.301 9.76148 71.1881 10.2979 71.1881C10.8418 71.1881 11.3112 71.301 11.7061 71.5268C12.1084 71.7456 12.4176 72.0596 12.6337 72.4689C12.8572 72.8782 12.969 73.3686 12.969 73.9402C12.969 74.5048 12.8572 74.9952 12.6337 75.4116C12.4176 75.8209 12.1084 76.1384 11.7061 76.3642C11.3112 76.583 10.8418 76.6924 10.2979 76.6924ZM10.2979 75.9937C10.8344 75.9937 11.2591 75.8209 11.572 75.4751C11.8849 75.1222 12.0414 74.6106 12.0414 73.9402C12.0414 73.2628 11.8812 72.7511 11.5608 72.4054C11.2479 72.0525 10.8269 71.8761 10.2979 71.8761C9.76893 71.8761 9.34797 72.0525 9.03504 72.4054C8.72212 72.7511 8.56566 73.2628 8.56566 73.9402C8.56566 74.6106 8.72212 75.1222 9.03504 75.4751C9.34797 75.8209 9.76893 75.9937 10.2979 75.9937Z" fill="#39789A"/>
<path d="M14.9392 76.5971V72.5112C14.9392 72.3136 14.928 72.1125 14.9056 71.9079C14.8907 71.6962 14.8721 71.488 14.8498 71.2833H15.7215L15.8332 72.4477H15.6991C15.863 72.0384 16.1238 71.7279 16.4814 71.5162C16.8465 71.2974 17.2675 71.1881 17.7443 71.1881C18.4074 71.1881 18.9066 71.3574 19.2419 71.6962C19.5846 72.0278 19.756 72.5536 19.756 73.2734V76.5971H18.8507V73.3263C18.8507 72.8252 18.7427 72.4618 18.5266 72.236C18.318 72.0031 17.9902 71.8867 17.5432 71.8867C17.0216 71.8867 16.6081 72.0384 16.3026 72.3419C15.9972 72.6453 15.8444 73.0511 15.8444 73.5592V76.5971H14.9392Z" fill="#39789A"/>
<path d="M23.9127 76.6924C23.4657 76.6924 23.0485 76.6359 22.661 76.523C22.2736 76.403 21.9532 76.2372 21.6999 76.0255L22.0128 75.4221C22.2885 75.6268 22.5865 75.7785 22.9069 75.8773C23.2347 75.9761 23.5737 76.0255 23.9239 76.0255C24.371 76.0255 24.7062 75.9514 24.9298 75.8032C25.1607 75.648 25.2762 75.4363 25.2762 75.1681C25.2762 74.9635 25.2017 74.8011 25.0527 74.6812C24.9111 74.5542 24.6764 74.4554 24.3486 74.3848L23.3092 74.1837C22.8324 74.0849 22.4748 73.919 22.2364 73.6862C21.9979 73.4462 21.8787 73.1428 21.8787 72.7758C21.8787 72.4653 21.9644 72.1937 22.1358 71.9608C22.3071 71.7209 22.5567 71.5338 22.8846 71.3998C23.2124 71.2586 23.5961 71.1881 24.0357 71.1881C24.4455 71.1881 24.8217 71.248 25.1644 71.368C25.5146 71.4809 25.8052 71.6468 26.0362 71.8655L25.7121 72.4583C25.4886 72.2536 25.2315 72.1019 24.9409 72.0031C24.6578 71.8973 24.3635 71.8443 24.058 71.8443C23.6184 71.8443 23.2869 71.929 23.0634 72.0984C22.8473 72.2607 22.7393 72.4759 22.7393 72.7441C22.7393 72.9487 22.8063 73.1181 22.9404 73.2522C23.082 73.3792 23.2981 73.4745 23.5886 73.538L24.628 73.7391C25.1346 73.845 25.5109 74.0108 25.7568 74.2366C26.0101 74.4554 26.1368 74.7518 26.1368 75.1258C26.1368 75.4433 26.0436 75.7221 25.8574 75.962C25.6711 76.1949 25.4103 76.3748 25.075 76.5018C24.7472 76.6289 24.3598 76.6924 23.9127 76.6924Z" fill="#39789A"/>
<path d="M30.1276 76.6924C29.4645 76.6924 28.9616 76.5195 28.6189 76.1737C28.2836 75.8279 28.1159 75.2987 28.1159 74.5859V71.2833H29.0212V74.5647C29.0212 75.0517 29.1255 75.4116 29.3341 75.6444C29.5427 75.8703 29.8668 75.9832 30.3064 75.9832C30.7982 75.9832 31.1931 75.8314 31.4911 75.528C31.7891 75.2246 31.9381 74.8188 31.9381 74.3107V71.2833H32.8434V76.5971H31.9605V75.401H32.1058C31.9493 75.8103 31.696 76.1278 31.3458 76.3536C31.0031 76.5795 30.597 76.6924 30.1276 76.6924Z" fill="#39789A"/>
<path d="M35.1584 76.5971V68.8064H36.0637V76.5971H35.1584Z" fill="#39789A"/>
<path d="M40.3696 76.6924C39.8182 76.6924 39.3973 76.5442 39.1067 76.2478C38.8161 75.9444 38.6708 75.4892 38.6708 74.8823V71.9502H37.5756V71.2833H38.6708V69.8332L39.5761 69.5897V71.2833H41.1854V71.9502H39.5761V74.787C39.5761 75.2104 39.6506 75.5139 39.7996 75.6974C39.9561 75.8738 40.187 75.962 40.4925 75.962C40.6341 75.962 40.7607 75.9514 40.8725 75.9302C40.9842 75.902 41.0848 75.8703 41.1742 75.835V76.5548C41.0699 76.5971 40.9433 76.6289 40.7943 76.65C40.6527 76.6783 40.5111 76.6924 40.3696 76.6924Z" fill="#39789A"/>
<path d="M44.9809 76.6924C44.4817 76.6924 44.0458 76.583 43.6733 76.3642C43.3008 76.1384 43.0102 75.8209 42.8016 75.4116C42.6004 75.0023 42.4998 74.5118 42.4998 73.9402C42.4998 73.3616 42.6004 72.8676 42.8016 72.4583C43.0102 72.049 43.3008 71.735 43.6733 71.5162C44.0458 71.2974 44.4817 71.1881 44.9809 71.1881C45.4875 71.1881 45.9234 71.3116 46.2884 71.5585C46.661 71.7985 46.9068 72.1266 47.0261 72.543H46.892L47.0149 71.2833H47.8866C47.8643 71.488 47.8419 71.6962 47.8195 71.9079C47.8046 72.1125 47.7972 72.3136 47.7972 72.5112V76.5971H46.892V75.3481H47.0149C46.8957 75.7644 46.6498 76.0925 46.2773 76.3325C45.9047 76.5724 45.4726 76.6924 44.9809 76.6924ZM45.1597 75.9937C45.6961 75.9937 46.1208 75.8209 46.4337 75.4751C46.7467 75.1222 46.9031 74.6106 46.9031 73.9402C46.9031 73.2628 46.7467 72.7511 46.4337 72.4054C46.1208 72.0525 45.6961 71.8761 45.1597 71.8761C44.6307 71.8761 44.206 72.0525 43.8856 72.4054C43.5727 72.7511 43.4162 73.2628 43.4162 73.9402C43.4162 74.6106 43.5727 75.1222 43.8856 75.4751C44.206 75.8209 44.6307 75.9937 45.1597 75.9937Z" fill="#39789A"/>
<path d="M50.1063 76.5971V72.5112C50.1063 72.3136 50.0951 72.1125 50.0727 71.9079C50.0578 71.6962 50.0392 71.488 50.0168 71.2833H50.8886L51.0003 72.4477H50.8662C51.0301 72.0384 51.2909 71.7279 51.6485 71.5162C52.0136 71.2974 52.4346 71.1881 52.9114 71.1881C53.5745 71.1881 54.0737 71.3574 54.409 71.6962C54.7517 72.0278 54.9231 72.5536 54.9231 73.2734V76.5971H54.0178V73.3263C54.0178 72.8252 53.9098 72.4618 53.6937 72.236C53.4851 72.0031 53.1573 71.8867 52.7103 71.8867C52.1887 71.8867 51.7752 72.0384 51.4697 72.3419C51.1642 72.6453 51.0115 73.0511 51.0115 73.5592V76.5971H50.1063Z" fill="#39789A"/>
<path d="M59.5716 76.6924C59.0202 76.6924 58.5397 76.5795 58.1299 76.3536C57.7275 76.1278 57.4146 75.8067 57.1911 75.3904C56.975 74.974 56.867 74.4801 56.867 73.9085C56.867 73.3298 56.9788 72.8394 57.2023 72.4371C57.4258 72.0278 57.7387 71.7173 58.1411 71.5056C58.5508 71.2939 59.0277 71.1881 59.5716 71.1881C59.9292 71.1881 60.2757 71.248 60.6109 71.368C60.9537 71.488 61.2368 71.6573 61.4603 71.8761L61.1362 72.49C60.9127 72.2854 60.6668 72.1337 60.3986 72.0349C60.1378 71.9361 59.8808 71.8867 59.6274 71.8867C59.0463 71.8867 58.5955 72.0596 58.2752 72.4054C57.9548 72.7511 57.7946 73.2557 57.7946 73.919C57.7946 74.5753 57.9548 75.0834 58.2752 75.4433C58.5955 75.8032 59.0463 75.9832 59.6274 75.9832C59.8733 75.9832 60.1266 75.9373 60.3874 75.8456C60.6556 75.7538 60.9052 75.6021 61.1362 75.3904L61.4603 75.9937C61.2293 76.2196 60.9425 76.3925 60.5998 76.5124C60.257 76.6324 59.9143 76.6924 59.5716 76.6924Z" fill="#39789A"/>
<path d="M63.1258 78.9999L62.9134 78.2907C63.2636 78.2131 63.5542 78.1214 63.7852 78.0155C64.0236 77.9167 64.221 77.7826 64.3775 77.6133C64.534 77.4439 64.6681 77.2322 64.7798 76.9782L65.0704 76.3536L65.048 76.7135L62.6005 71.2833H63.584L65.6068 75.9514H65.3163L67.3168 71.2833H68.2667L65.6739 77.0417C65.5249 77.3804 65.361 77.6627 65.1822 77.8885C65.0033 78.1214 64.8096 78.3084 64.601 78.4495C64.3998 78.5977 64.1763 78.7141 63.9305 78.7988C63.6846 78.8835 63.4164 78.9505 63.1258 78.9999Z" fill="#39789A"/>
<path d="M75.9892 76.6924C75.3559 76.6924 74.7896 76.6147 74.2905 76.4595C73.7913 76.3042 73.3554 76.082 72.9829 75.7926L73.3181 75.094C73.5789 75.2775 73.8397 75.4327 74.1005 75.5598C74.3687 75.6797 74.6555 75.7715 74.961 75.835C75.2665 75.8914 75.6092 75.9197 75.9892 75.9197C76.6523 75.9197 77.144 75.8032 77.4644 75.5703C77.7848 75.3375 77.945 75.027 77.945 74.6388C77.945 74.3072 77.8332 74.0531 77.6097 73.8767C77.3862 73.7003 76.995 73.5592 76.4362 73.4533L75.2628 73.231C74.54 73.0899 73.9999 72.8605 73.6423 72.543C73.2921 72.2254 73.117 71.795 73.117 71.2516C73.117 70.807 73.2362 70.4189 73.4746 70.0872C73.7205 69.7555 74.0632 69.498 74.5028 69.3145C74.9424 69.131 75.4528 69.0393 76.0339 69.0393C76.5927 69.0393 77.1031 69.1204 77.565 69.2827C78.0269 69.438 78.4218 69.6673 78.7496 69.9708L78.4255 70.6482C78.0754 70.3518 77.7066 70.1401 77.3191 70.0131C76.9391 69.879 76.507 69.812 76.0227 69.812C75.4118 69.812 74.9275 69.939 74.5699 70.1931C74.2197 70.44 74.0446 70.7788 74.0446 71.2092C74.0446 71.555 74.1563 71.8267 74.3799 72.0243C74.6034 72.2148 74.9722 72.3595 75.4863 72.4583L76.6709 72.6806C77.4309 72.8288 77.9897 73.0511 78.3473 73.3474C78.7049 73.6438 78.8838 74.0602 78.8838 74.5965C78.8838 75.0058 78.7645 75.3692 78.5261 75.6868C78.2952 76.0043 77.9636 76.2513 77.5315 76.4277C77.0993 76.6042 76.5852 76.6924 75.9892 76.6924Z" fill="#39789A"/>
<path d="M83.3323 76.6924C82.4531 76.6924 81.7602 76.4524 81.2536 75.9726C80.7469 75.4857 80.4936 74.8117 80.4936 73.9508C80.4936 73.3933 80.6054 72.9099 80.8289 72.5006C81.0524 72.0843 81.3653 71.7632 81.7677 71.5374C82.17 71.3045 82.6319 71.1881 83.1535 71.1881C83.6676 71.1881 84.0997 71.2904 84.4499 71.495C84.8001 71.6997 85.0683 71.9925 85.2546 72.3736C85.4408 72.7476 85.534 73.1922 85.534 73.7073V74.0249H81.1865V73.4851H84.9416L84.7517 73.6227C84.7517 73.0581 84.6175 72.6171 84.3493 72.2995C84.0811 71.982 83.6825 71.8232 83.1535 71.8232C82.5947 71.8232 82.1588 72.0102 81.8459 72.3842C81.533 72.7511 81.3765 73.2487 81.3765 73.8767V73.972C81.3765 74.6353 81.5479 75.1399 81.8906 75.4857C82.2408 75.8244 82.7288 75.9937 83.3547 75.9937C83.6899 75.9937 84.0029 75.9479 84.2934 75.8561C84.5915 75.7573 84.8746 75.5986 85.1428 75.3798L85.4557 75.9832C85.2099 76.209 84.8969 76.3854 84.517 76.5124C84.1444 76.6324 83.7495 76.6924 83.3323 76.6924Z" fill="#39789A"/>
<path d="M87.4556 76.5971V72.5641C87.4556 72.3524 87.4482 72.1372 87.4333 71.9184C87.4258 71.6997 87.4109 71.488 87.3886 71.2833H88.2603L88.372 72.5747L88.2156 72.5853C88.2901 72.2678 88.4205 72.0067 88.6067 71.802C88.793 71.5974 89.0128 71.4456 89.2661 71.3468C89.5194 71.241 89.7839 71.1881 90.0596 71.1881C90.1714 71.1881 90.2682 71.1916 90.3502 71.1987C90.4396 71.2057 90.5216 71.2234 90.5961 71.2516L90.5849 72.0137C90.4731 71.9784 90.3688 71.9573 90.272 71.9502C90.1825 71.9361 90.0782 71.929 89.959 71.929C89.6312 71.929 89.3443 72.0031 89.0985 72.1513C88.8601 72.2995 88.6775 72.49 88.5509 72.7229C88.4316 72.9558 88.372 73.2028 88.372 73.4639V76.5971H87.4556Z" fill="#39789A"/>
<path d="M94.0891 76.5971L91.6863 71.2833H92.6698L94.6815 75.962H94.3797L96.4137 71.2833H97.3525L94.9497 76.5971H94.0891Z" fill="#39789A"/>
<path d="M98.9311 76.5971V71.2833H99.8364V76.5971H98.9311ZM98.8194 70.0766V69.1134H99.937V70.0766H98.8194Z" fill="#39789A"/>
<path d="M104.511 76.6924C103.96 76.6924 103.479 76.5795 103.069 76.3536C102.667 76.1278 102.354 75.8067 102.131 75.3904C101.915 74.974 101.806 74.4801 101.806 73.9085C101.806 73.3298 101.918 72.8394 102.142 72.4371C102.365 72.0278 102.678 71.7173 103.081 71.5056C103.49 71.2939 103.967 71.1881 104.511 71.1881C104.869 71.1881 105.215 71.248 105.55 71.368C105.893 71.488 106.176 71.6573 106.4 71.8761L106.076 72.49C105.852 72.2854 105.606 72.1337 105.338 72.0349C105.077 71.9361 104.82 71.8867 104.567 71.8867C103.986 71.8867 103.535 72.0596 103.215 72.4054C102.894 72.7511 102.734 73.2557 102.734 73.919C102.734 74.5753 102.894 75.0834 103.215 75.4433C103.535 75.8032 103.986 75.9832 104.567 75.9832C104.813 75.9832 105.066 75.9373 105.327 75.8456C105.595 75.7538 105.845 75.6021 106.076 75.3904L106.4 75.9937C106.169 76.2196 105.882 76.3925 105.539 76.5124C105.197 76.6324 104.854 76.6924 104.511 76.6924Z" fill="#39789A"/>
<path d="M110.628 76.6924C109.749 76.6924 109.056 76.4524 108.549 75.9726C108.043 75.4857 107.79 74.8117 107.79 73.9508C107.79 73.3933 107.901 72.9099 108.125 72.5006C108.348 72.0843 108.661 71.7632 109.064 71.5374C109.466 71.3045 109.928 71.1881 110.449 71.1881C110.963 71.1881 111.396 71.2904 111.746 71.495C112.096 71.6997 112.364 71.9925 112.55 72.3736C112.737 72.7476 112.83 73.1922 112.83 73.7073V74.0249H108.482V73.4851H112.238L112.048 73.6227C112.048 73.0581 111.913 72.6171 111.645 72.2995C111.377 71.982 110.978 71.8232 110.449 71.8232C109.891 71.8232 109.455 72.0102 109.142 72.3842C108.829 72.7511 108.672 73.2487 108.672 73.8767V73.972C108.672 74.6353 108.844 75.1399 109.187 75.4857C109.537 75.8244 110.025 75.9937 110.651 75.9937C110.986 75.9937 111.299 75.9479 111.589 75.8561C111.887 75.7573 112.17 75.5986 112.439 75.3798L112.752 75.9832C112.506 76.209 112.193 76.3854 111.813 76.5124C111.44 76.6324 111.045 76.6924 110.628 76.6924Z" fill="#39789A"/>
<path d="M116.64 76.6924C116.193 76.6924 115.776 76.6359 115.389 76.523C115.001 76.403 114.681 76.2372 114.427 76.0255L114.74 75.4221C115.016 75.6268 115.314 75.7785 115.634 75.8773C115.962 75.9761 116.301 76.0255 116.651 76.0255C117.098 76.0255 117.434 75.9514 117.657 75.8032C117.888 75.648 118.004 75.4363 118.004 75.1681C118.004 74.9635 117.929 74.8011 117.78 74.6812C117.639 74.5542 117.404 74.4554 117.076 74.3848L116.037 74.1837C115.56 74.0849 115.202 73.919 114.964 73.6862C114.725 73.4462 114.606 73.1428 114.606 72.7758C114.606 72.4653 114.692 72.1937 114.863 71.9608C115.035 71.7209 115.284 71.5338 115.612 71.3998C115.94 71.2586 116.324 71.1881 116.763 71.1881C117.173 71.1881 117.549 71.248 117.892 71.368C118.242 71.4809 118.533 71.6468 118.764 71.8655L118.44 72.4583C118.216 72.2536 117.959 72.1019 117.668 72.0031C117.385 71.8973 117.091 71.8443 116.786 71.8443C116.346 71.8443 116.014 71.929 115.791 72.0984C115.575 72.2607 115.467 72.4759 115.467 72.7441C115.467 72.9487 115.534 73.1181 115.668 73.2522C115.81 73.3792 116.026 73.4745 116.316 73.538L117.356 73.7391C117.862 73.845 118.238 74.0108 118.484 74.2366C118.738 74.4554 118.864 74.7518 118.864 75.1258C118.864 75.4433 118.771 75.7221 118.585 75.962C118.399 76.1949 118.138 76.3748 117.803 76.5018C117.475 76.6289 117.087 76.6924 116.64 76.6924Z" fill="#39789A"/>
<path d="M124.45 76.5971V69.1345H127.658C128.485 69.1345 129.122 69.3251 129.569 69.7061C130.016 70.0801 130.24 70.6024 130.24 71.2727C130.24 71.929 130.016 72.4512 129.569 72.8394C129.122 73.2204 128.485 73.411 127.658 73.411H125.378V76.5971H124.45ZM125.378 72.6806H127.568C128.142 72.6806 128.574 72.5571 128.865 72.3101C129.163 72.0631 129.312 71.7173 129.312 71.2727C129.312 70.8211 129.163 70.4718 128.865 70.2248C128.574 69.9778 128.142 69.8543 127.568 69.8543H125.378V72.6806Z" fill="#39789A"/>
<path d="M133.842 76.5971L131.439 71.2833H132.423L134.435 75.962H134.133L136.167 71.2833H137.106L134.703 76.5971H133.842Z" fill="#39789A"/>
<path d="M140.772 76.6924C140.22 76.6924 139.799 76.5442 139.509 76.2478C139.218 75.9444 139.073 75.4892 139.073 74.8823V71.9502H137.978V71.2833H139.073V69.8332L139.978 69.5897V71.2833H141.588V71.9502H139.978V74.787C139.978 75.2104 140.053 75.5139 140.202 75.6974C140.358 75.8738 140.589 75.962 140.895 75.962C141.036 75.962 141.163 75.9514 141.275 75.9302C141.386 75.902 141.487 75.8703 141.576 75.835V76.5548C141.472 76.5971 141.346 76.6289 141.196 76.65C141.055 76.6783 140.913 76.6924 140.772 76.6924Z" fill="#39789A"/>
<path d="M146.822 76.5971V69.1345H147.75V75.835H151.728V76.5971H146.822Z" fill="#39789A"/>
<path d="M155.087 76.6924C154.535 76.6924 154.114 76.5442 153.824 76.2478C153.533 75.9444 153.388 75.4892 153.388 74.8823V71.9502H152.293V71.2833H153.388V69.8332L154.293 69.5897V71.2833H155.902V71.9502H154.293V74.787C154.293 75.2104 154.368 75.5139 154.517 75.6974C154.673 75.8738 154.904 75.962 155.21 75.962C155.351 75.962 155.478 75.9514 155.59 75.9302C155.701 75.902 155.802 75.8703 155.891 75.835V76.5548C155.787 76.5971 155.66 76.6289 155.511 76.65C155.37 76.6783 155.228 76.6924 155.087 76.6924Z" fill="#39789A"/>
<path d="M159.632 76.6924C159.14 76.6924 158.708 76.583 158.336 76.3642C157.963 76.1384 157.673 75.8209 157.464 75.4116C157.263 75.0023 157.162 74.5118 157.162 73.9402C157.162 73.3616 157.263 72.8676 157.464 72.4583C157.673 72.049 157.963 71.735 158.336 71.5162C158.708 71.2974 159.14 71.1881 159.632 71.1881C160.139 71.1881 160.575 71.308 160.94 71.548C161.312 71.7879 161.562 72.1125 161.689 72.5218H161.554V68.8064H162.46V76.5971H161.566V75.3269H161.689C161.569 75.7503 161.323 76.0855 160.951 76.3325C160.578 76.5724 160.139 76.6924 159.632 76.6924ZM159.822 75.9937C160.351 75.9937 160.776 75.8209 161.096 75.4751C161.417 75.1222 161.577 74.6106 161.577 73.9402C161.577 73.2628 161.417 72.7511 161.096 72.4054C160.776 72.0525 160.351 71.8761 159.822 71.8761C159.293 71.8761 158.868 72.0525 158.548 72.4054C158.235 72.7511 158.079 73.2628 158.079 73.9402C158.079 74.6106 158.235 75.1222 158.548 75.4751C158.868 75.8209 159.293 75.9937 159.822 75.9937Z" fill="#39789A"/>
</svg>
