<?xml version="1.0" encoding="UTF-8"?>
<!DOCTYPE svg PUBLIC "-//W3C//DTD SVG 1.1//EN" "http://www.w3.org/Graphics/SVG/1.1/DTD/svg11.dtd">
<svg xmlns="http://www.w3.org/2000/svg" version="1.1" width="512px" height="512px" style="shape-rendering:geometricPrecision; text-rendering:geometricPrecision; image-rendering:optimizeQuality; fill-rule:evenodd; clip-rule:evenodd" xmlns:xlink="http://www.w3.org/1999/xlink">
<g><path style="opacity:0.985" fill="#34c3fe" d="M 232.5,-0.5 C 239.833,-0.5 247.167,-0.5 254.5,-0.5C 254.5,12.8333 254.5,26.1667 254.5,39.5C 245.336,40.4281 236.003,41.0948 226.5,41.5C 224.518,28.2076 223.851,14.5409 224.5,0.5C 227.385,0.8064 230.052,0.473067 232.5,-0.5 Z"/></g>
<g><path style="opacity:0.985" fill="#3abefe" d="M 254.5,-0.5 C 262.5,-0.5 270.5,-0.5 278.5,-0.5C 284.7,0.570561 291.033,1.57056 297.5,2.5C 297.829,16.3435 297.496,30.0102 296.5,43.5C 282.549,41.4367 268.549,40.1034 254.5,39.5C 254.5,26.1667 254.5,12.8333 254.5,-0.5 Z"/></g>
<g><path style="opacity:0.985" fill="#2ec8fe" d="M 224.5,0.5 C 223.851,14.5409 224.518,28.2076 226.5,41.5C 215.13,43.5112 203.797,46.1779 192.5,49.5C 191.518,35.5787 191.185,21.5787 191.5,7.5C 202.204,4.29119 213.204,1.95786 224.5,0.5 Z"/></g>
<g><path style="opacity:0.983" fill="#41b8fe" d="M 297.5,2.5 C 317.756,5.39292 337.089,11.0596 355.5,19.5C 354.833,34.1667 354.167,48.8333 353.5,63.5C 335.292,54.4315 316.292,47.7648 296.5,43.5C 297.496,30.0102 297.829,16.3435 297.5,2.5 Z"/></g>
<g><path style="opacity:0.982" fill="#28cdfe" d="M 191.5,7.5 C 191.185,21.5787 191.518,35.5787 192.5,49.5C 180.495,53.3362 168.829,58.0029 157.5,63.5C 157.5,48.5 157.5,33.5 157.5,18.5C 168.431,13.6343 179.764,9.9676 191.5,7.5 Z"/></g>
<g><path style="opacity:0.987" fill="#22d3fe" d="M 157.5,18.5 C 157.5,33.5 157.5,48.5 157.5,63.5C 148.343,68.5781 139.343,73.9114 130.5,79.5C 130.5,63.5 130.5,47.5 130.5,31.5C 139.065,26.3852 148.065,22.0518 157.5,18.5 Z"/></g>
<g><path style="opacity:0.985" fill="#47b2fe" d="M 355.5,19.5 C 378.244,28.6257 398.911,40.9591 417.5,56.5C 417.83,75.3408 417.497,94.0075 416.5,112.5C 398.253,92.553 377.253,76.2196 353.5,63.5C 354.167,48.8333 354.833,34.1667 355.5,19.5 Z"/></g>
<g><path style="opacity:0.982" fill="#1cd9fe" d="M 130.5,31.5 C 130.5,47.5 130.5,63.5 130.5,79.5C 120.564,87.4302 110.897,95.7636 101.5,104.5C 100.503,87.0079 100.17,69.3412 100.5,51.5C 109.661,43.6899 119.661,37.0233 130.5,31.5 Z"/></g>
<g><path style="opacity:0.983" fill="#15defe" d="M 100.5,51.5 C 100.17,69.3412 100.503,87.0079 101.5,104.5C 92.4245,114.901 83.7578,125.568 75.5,136.5C 75.5,115.5 75.5,94.5 75.5,73.5C 82.6217,64.7068 90.955,57.3734 100.5,51.5 Z"/></g>
<g><path style="opacity:0.986" fill="#4baffe" d="M 417.5,56.5 C 427.801,65.1334 437.467,74.4667 446.5,84.5C 446.831,107.673 446.498,130.673 445.5,153.5C 437.075,138.993 427.408,125.327 416.5,112.5C 417.497,94.0075 417.83,75.3408 417.5,56.5 Z"/></g>
<g><path style="opacity:0.981" fill="#0fe4fe" d="M 75.5,73.5 C 75.5,94.5 75.5,115.5 75.5,136.5C 65.9126,152.343 57.9126,169.01 51.5,186.5C 50.8333,158.5 50.1667,130.5 49.5,102.5C 56.713,91.6154 65.3797,81.9488 75.5,73.5 Z"/></g>
<g><path style="opacity:0.984" fill="#4dadfe" d="M 446.5,84.5 C 484.023,126.69 505.69,176.024 511.5,232.5C 511.5,247.5 511.5,262.5 511.5,277.5C 506.893,322.151 492.059,363.151 467,400.5C 460.555,406.202 453.055,408.036 444.5,406C 433.248,400.657 429.081,391.824 432,379.5C 473.845,315.901 481.845,248.234 456,176.5C 452.488,168.812 448.988,161.145 445.5,153.5C 446.498,130.673 446.831,107.673 446.5,84.5 Z"/></g>
<g><path style="opacity:0.986" fill="#09e9fe" d="M 49.5,102.5 C 50.1667,130.5 50.8333,158.5 51.5,186.5C 36.8333,232.5 36.8333,278.5 51.5,324.5C 50.502,352.662 50.1687,380.995 50.5,409.5C 39.9481,395.913 30.9481,381.246 23.5,365.5C 24.8333,292.167 24.8333,218.833 23.5,145.5C 30.6122,130.093 39.2788,115.76 49.5,102.5 Z"/></g>
<g><path style="opacity:0.991" fill="#27cffe" d="M 191.5,155.5 C 191.5,168.833 191.5,182.167 191.5,195.5C 180.495,195.667 169.495,195.5 158.5,195C 145.296,188.318 141.796,178.151 148,164.5C 150.596,160.61 154.096,157.777 158.5,156C 169.495,155.5 180.495,155.333 191.5,155.5 Z"/></g>
<g><path style="opacity:1" fill="#2ec8fe" d="M 191.5,155.5 C 202.5,155.5 213.5,155.5 224.5,155.5C 224.5,168.833 224.5,182.167 224.5,195.5C 213.5,195.5 202.5,195.5 191.5,195.5C 191.5,182.167 191.5,168.833 191.5,155.5 Z"/></g>
<g><path style="opacity:1" fill="#34c3fe" d="M 224.5,155.5 C 234.5,155.5 244.5,155.5 254.5,155.5C 254.5,168.833 254.5,182.167 254.5,195.5C 244.5,195.5 234.5,195.5 224.5,195.5C 224.5,182.167 224.5,168.833 224.5,155.5 Z"/></g>
<g><path style="opacity:1" fill="#3abefe" d="M 254.5,155.5 C 268.833,155.5 283.167,155.5 297.5,155.5C 297.5,168.833 297.5,182.167 297.5,195.5C 283.167,195.5 268.833,195.5 254.5,195.5C 254.5,182.167 254.5,168.833 254.5,155.5 Z"/></g>
<g><path style="opacity:0.998" fill="#41b7fe" d="M 297.5,155.5 C 315.836,155.333 334.17,155.5 352.5,156C 365.704,162.682 369.204,172.849 363,186.5C 360.404,190.39 356.904,193.223 352.5,195C 334.17,195.5 315.836,195.667 297.5,195.5C 297.5,182.167 297.5,168.833 297.5,155.5 Z"/></g>
<g><path style="opacity:0.972" fill="#03eefe" d="M 23.5,145.5 C 24.8333,218.833 24.8333,292.167 23.5,365.5C 10.6468,337.745 2.64682,308.745 -0.5,278.5C -0.5,263.167 -0.5,247.833 -0.5,232.5C 2.64682,202.255 10.6468,173.255 23.5,145.5 Z"/></g>
<g><path style="opacity:0.992" fill="#27cffe" d="M 191.5,235.5 C 191.5,248.833 191.5,262.167 191.5,275.5C 180.495,275.667 169.495,275.5 158.5,275C 145.296,268.318 141.796,258.151 148,244.5C 150.596,240.61 154.096,237.777 158.5,236C 169.495,235.5 180.495,235.333 191.5,235.5 Z"/></g>
<g><path style="opacity:1" fill="#2ec8fe" d="M 191.5,235.5 C 202.5,235.5 213.5,235.5 224.5,235.5C 224.5,248.833 224.5,262.167 224.5,275.5C 213.5,275.5 202.5,275.5 191.5,275.5C 191.5,262.167 191.5,248.833 191.5,235.5 Z"/></g>
<g><path style="opacity:1" fill="#34c3fe" d="M 224.5,235.5 C 234.5,235.5 244.5,235.5 254.5,235.5C 254.5,248.833 254.5,262.167 254.5,275.5C 244.5,275.5 234.5,275.5 224.5,275.5C 224.5,262.167 224.5,248.833 224.5,235.5 Z"/></g>
<g><path style="opacity:1" fill="#3abefe" d="M 254.5,235.5 C 268.833,235.5 283.167,235.5 297.5,235.5C 297.5,248.833 297.5,262.167 297.5,275.5C 283.167,275.5 268.833,275.5 254.5,275.5C 254.5,262.167 254.5,248.833 254.5,235.5 Z"/></g>
<g><path style="opacity:0.998" fill="#41b8fe" d="M 297.5,235.5 C 315.836,235.333 334.17,235.5 352.5,236C 365.704,242.682 369.204,252.849 363,266.5C 360.404,270.39 356.904,273.223 352.5,275C 334.17,275.5 315.836,275.667 297.5,275.5C 297.5,262.167 297.5,248.833 297.5,235.5 Z"/></g>
<g><path style="opacity:0.991" fill="#26d0fe" d="M 171.5,315.5 C 171.5,328.833 171.5,342.167 171.5,355.5C 151.855,357.022 143.355,348.022 146,328.5C 151.067,317.715 159.567,313.382 171.5,315.5 Z"/></g>
<g><path style="opacity:1" fill="#29ccfe" d="M 171.5,315.5 C 178.167,315.5 184.833,315.5 191.5,315.5C 191.5,328.833 191.5,342.167 191.5,355.5C 184.833,355.5 178.167,355.5 171.5,355.5C 171.5,342.167 171.5,328.833 171.5,315.5 Z"/></g>
<g><path style="opacity:1" fill="#2ec8fe" d="M 191.5,315.5 C 202.5,315.5 213.5,315.5 224.5,315.5C 224.5,328.833 224.5,342.167 224.5,355.5C 213.5,355.5 202.5,355.5 191.5,355.5C 191.5,342.167 191.5,328.833 191.5,315.5 Z"/></g>
<g><path style="opacity:1" fill="#34c3fe" d="M 224.5,315.5 C 234.5,315.5 244.5,315.5 254.5,315.5C 254.5,328.833 254.5,342.167 254.5,355.5C 244.5,355.5 234.5,355.5 224.5,355.5C 224.5,342.167 224.5,328.833 224.5,315.5 Z"/></g>
<g><path style="opacity:1" fill="#3abefe" d="M 254.5,315.5 C 268.833,315.5 283.167,315.5 297.5,315.5C 297.5,328.833 297.5,342.167 297.5,355.5C 283.167,355.5 268.833,355.5 254.5,355.5C 254.5,342.167 254.5,328.833 254.5,315.5 Z"/></g>
<g><path style="opacity:0.998" fill="#41b7fe" d="M 297.5,315.5 C 315.836,315.333 334.17,315.5 352.5,316C 365.704,322.682 369.204,332.849 363,346.5C 360.404,350.39 356.904,353.223 352.5,355C 334.17,355.5 315.836,355.667 297.5,355.5C 297.5,342.167 297.5,328.833 297.5,315.5 Z"/></g>
<g><path style="opacity:0.98" fill="#0fe4fe" d="M 51.5,324.5 C 57.9103,341.985 65.9103,358.652 75.5,374.5C 75.5,395.5 75.5,416.5 75.5,437.5C 65.7688,429.337 57.4354,420.004 50.5,409.5C 50.1687,380.995 50.502,352.662 51.5,324.5 Z"/></g>
<g><path style="opacity:0.983" fill="#15defe" d="M 75.5,374.5 C 83.7578,385.432 92.4245,396.099 101.5,406.5C 100.503,423.992 100.17,441.659 100.5,459.5C 91.1881,453.334 82.8548,446 75.5,437.5C 75.5,416.5 75.5,395.5 75.5,374.5 Z"/></g>
<g><path style="opacity:0.987" fill="#1cd9fe" d="M 101.5,406.5 C 110.897,415.236 120.564,423.57 130.5,431.5C 130.83,447.342 130.496,463.009 129.5,478.5C 118.97,473.407 109.303,467.074 100.5,459.5C 100.17,441.659 100.503,423.992 101.5,406.5 Z"/></g>
<g><path style="opacity:0.983" fill="#22d3fe" d="M 130.5,431.5 C 139.343,437.089 148.343,442.422 157.5,447.5C 157.5,462.5 157.5,477.5 157.5,492.5C 147.57,488.868 138.237,484.202 129.5,478.5C 130.496,463.009 130.83,447.342 130.5,431.5 Z"/></g>
<g><path style="opacity:0.981" fill="#46b3fe" d="M 354.5,492.5 C 354.816,477.422 354.483,462.422 353.5,447.5C 359.346,444.076 365.346,440.91 371.5,438C 391.25,436.083 399.75,444.916 397,464.5C 395.698,468.274 393.531,471.441 390.5,474C 378.912,480.961 366.912,487.128 354.5,492.5 Z"/></g>
<g><path style="opacity:0.983" fill="#41b8fe" d="M 353.5,447.5 C 354.483,462.422 354.816,477.422 354.5,492.5C 338.585,498.895 322.251,503.895 305.5,507.5C 305.5,493.5 305.5,479.5 305.5,465.5C 321.939,460.906 337.939,454.906 353.5,447.5 Z"/></g>
<g><path style="opacity:0.984" fill="#28cefe" d="M 157.5,447.5 C 168.596,452.754 179.93,457.421 191.5,461.5C 191.5,475.5 191.5,489.5 191.5,503.5C 179.764,501.032 168.431,497.366 157.5,492.5C 157.5,477.5 157.5,462.5 157.5,447.5 Z"/></g>
<g><path style="opacity:0.985" fill="#2dc9fe" d="M 191.5,461.5 C 199.796,463.657 208.129,465.657 216.5,467.5C 216.185,481.579 216.518,495.579 217.5,509.5C 208.581,508.119 199.914,506.119 191.5,503.5C 191.5,489.5 191.5,475.5 191.5,461.5 Z"/></g>
<g><path style="opacity:0.983" fill="#3bbdfe" d="M 305.5,465.5 C 305.5,479.5 305.5,493.5 305.5,507.5C 296.019,508.759 286.686,510.093 277.5,511.5C 272.167,511.5 266.833,511.5 261.5,511.5C 263.454,498.079 264.121,484.412 263.5,470.5C 277.662,470.143 291.662,468.477 305.5,465.5 Z"/></g>
<g><path style="opacity:0.983" fill="#34c3fe" d="M 216.5,467.5 C 232.143,470.147 247.81,471.147 263.5,470.5C 264.121,484.412 263.454,498.079 261.5,511.5C 251.833,511.5 242.167,511.5 232.5,511.5C 227.694,510.407 222.694,509.741 217.5,509.5C 216.518,495.579 216.185,481.579 216.5,467.5 Z"/></g>
</svg>
