<?xml version="1.0" encoding="UTF-8"?>
<!DOCTYPE svg PUBLIC "-//W3C//DTD SVG 1.1//EN" "http://www.w3.org/Graphics/SVG/1.1/DTD/svg11.dtd">
<svg xmlns="http://www.w3.org/2000/svg" version="1.1" width="74px" height="74px" style="shape-rendering:geometricPrecision; text-rendering:geometricPrecision; image-rendering:optimizeQuality; fill-rule:evenodd; clip-rule:evenodd" xmlns:xlink="http://www.w3.org/1999/xlink">
<g><path style="opacity:0.89" fill="#0870be" d="M 7.5,9.5 C 26.8362,9.33338 46.1695,9.50005 65.5,10C 66.9308,10.4652 68.0975,11.2986 69,12.5C 69.4997,20.8267 69.6664,29.16 69.5,37.5C 65.5,38.1667 63.8333,36.5 64.5,32.5C 45.8333,32.5 27.1667,32.5 8.5,32.5C 8.5,41.1667 8.5,49.8333 8.5,58.5C 20.5046,58.3335 32.5046,58.5001 44.5,59C 45.8333,60.3333 45.8333,61.6667 44.5,63C 32.1667,63.6667 19.8333,63.6667 7.5,63C 6.06919,62.5348 4.90252,61.7014 4,60.5C 3.33333,44.5 3.33333,28.5 4,12.5C 5.14508,11.3636 6.31174,10.3636 7.5,9.5 Z M 8.5,14.5 C 27.1667,14.5 45.8333,14.5 64.5,14.5C 64.5,18.8333 64.5,23.1667 64.5,27.5C 45.8333,27.5 27.1667,27.5 8.5,27.5C 8.5,23.1667 8.5,18.8333 8.5,14.5 Z"/></g>
<g><path style="opacity:0.872" fill="#0870bd" d="M 13.5,17.5 C 17.7069,17.6938 19.0402,19.6938 17.5,23.5C 15.6471,24.7596 13.8138,24.7596 12,23.5C 11.2568,21.1261 11.7568,19.1261 13.5,17.5 Z"/></g>
<g><path style="opacity:0.861" fill="#0870be" d="M 22.5,17.5 C 26.9346,17.7521 28.268,19.9188 26.5,24C 20.7377,24.4178 19.4044,22.2511 22.5,17.5 Z"/></g>
<g><path style="opacity:0.948" fill="#0870be" d="M 58.5,41.5 C 63.428,43.4272 67.0946,46.7605 69.5,51.5C 67.7048,55.3426 65.5381,55.3426 63,51.5C 62.6667,55.5 62.3333,59.5 62,63.5C 60.9207,65.3937 59.5874,65.727 58,64.5C 57.6667,59.8333 57.3333,55.1667 57,50.5C 55.6106,52.2273 53.9439,53.5606 52,54.5C 50.5,54.3333 49.6667,53.5 49.5,52C 52.3222,48.3447 55.3222,44.8447 58.5,41.5 Z"/></g>
</svg>
