<svg width="644" height="378" viewBox="0 0 644 378" fill="none" xmlns="http://www.w3.org/2000/svg">
<path d="M79.7184 128.636V149H75.413V128.636H79.7184ZM95.4275 134.493C95.348 133.691 95.0066 133.068 94.4034 132.624C93.8002 132.179 92.9815 131.957 91.9474 131.957C91.2448 131.957 90.6515 132.057 90.1676 132.256C89.6837 132.448 89.3125 132.716 89.054 133.061C88.8021 133.406 88.6761 133.797 88.6761 134.234C88.6629 134.599 88.7391 134.917 88.9048 135.189C89.0772 135.461 89.3125 135.696 89.6108 135.895C89.9091 136.087 90.2538 136.256 90.6449 136.402C91.036 136.541 91.4536 136.661 91.8977 136.76L93.7273 137.197C94.6155 137.396 95.4309 137.661 96.1733 137.993C96.9157 138.324 97.5587 138.732 98.1023 139.216C98.6458 139.7 99.0668 140.27 99.365 140.926C99.67 141.582 99.8257 142.335 99.8324 143.183C99.8257 144.429 99.5076 145.51 98.8778 146.425C98.2547 147.333 97.3532 148.039 96.1733 148.543C95 149.04 93.5847 149.288 91.9275 149.288C90.2836 149.288 88.8518 149.036 87.6321 148.533C86.419 148.029 85.4711 147.283 84.7883 146.295C84.1122 145.301 83.7576 144.071 83.7244 142.607H87.8906C87.937 143.289 88.1326 143.859 88.4773 144.317C88.8286 144.768 89.2959 145.109 89.8793 145.341C90.4692 145.566 91.1354 145.679 91.8778 145.679C92.607 145.679 93.24 145.573 93.777 145.361C94.3205 145.149 94.7415 144.854 95.0398 144.476C95.3381 144.098 95.4872 143.664 95.4872 143.173C95.4872 142.716 95.3513 142.331 95.0795 142.02C94.8144 141.708 94.4233 141.443 93.9062 141.224C93.3958 141.006 92.7694 140.807 92.027 140.628L89.8097 140.071C88.0928 139.653 86.7372 139 85.7429 138.112C84.7486 137.224 84.2547 136.027 84.2614 134.523C84.2547 133.29 84.5829 132.213 85.2457 131.291C85.9152 130.37 86.8333 129.651 88 129.134C89.1667 128.616 90.4924 128.358 91.9773 128.358C93.4886 128.358 94.8078 128.616 95.9347 129.134C97.0682 129.651 97.9498 130.37 98.5795 131.291C99.2093 132.213 99.5341 133.28 99.554 134.493H95.4275ZM122.561 138.818C122.561 141.039 122.14 142.928 121.299 144.486C120.463 146.044 119.323 147.233 117.878 148.055C116.44 148.871 114.822 149.278 113.026 149.278C111.216 149.278 109.592 148.867 108.154 148.045C106.715 147.223 105.578 146.034 104.743 144.476C103.908 142.918 103.49 141.032 103.49 138.818C103.49 136.598 103.908 134.708 104.743 133.151C105.578 131.593 106.715 130.406 108.154 129.591C109.592 128.769 111.216 128.358 113.026 128.358C114.822 128.358 116.44 128.769 117.878 129.591C119.323 130.406 120.463 131.593 121.299 133.151C122.14 134.708 122.561 136.598 122.561 138.818ZM118.196 138.818C118.196 137.38 117.981 136.167 117.55 135.179C117.126 134.191 116.526 133.442 115.75 132.932C114.975 132.421 114.067 132.166 113.026 132.166C111.985 132.166 111.077 132.421 110.301 132.932C109.526 133.442 108.923 134.191 108.492 135.179C108.068 136.167 107.855 137.38 107.855 138.818C107.855 140.257 108.068 141.47 108.492 142.457C108.923 143.445 109.526 144.194 110.301 144.705C111.077 145.215 111.985 145.47 113.026 145.47C114.067 145.47 114.975 145.215 115.75 144.705C116.526 144.194 117.126 143.445 117.55 142.457C117.981 141.47 118.196 140.257 118.196 138.818ZM141.72 128.358C142.767 128.358 143.775 128.534 144.742 128.885C145.717 129.236 146.585 129.796 147.348 130.565C148.116 131.334 148.723 132.355 149.167 133.628C149.618 134.894 149.847 136.448 149.853 138.291C149.853 140.021 149.658 141.566 149.267 142.925C148.882 144.277 148.329 145.427 147.606 146.375C146.884 147.323 146.012 148.045 144.991 148.543C143.97 149.033 142.83 149.278 141.571 149.278C140.212 149.278 139.012 149.017 137.971 148.493C136.93 147.963 136.092 147.243 135.456 146.335C134.826 145.42 134.445 144.393 134.312 143.253H138.558C138.724 143.995 139.072 144.572 139.602 144.983C140.132 145.387 140.788 145.589 141.571 145.589C142.896 145.589 143.904 145.013 144.593 143.859C145.283 142.699 145.631 141.112 145.637 139.097H145.498C145.193 139.693 144.782 140.207 144.265 140.638C143.748 141.062 143.155 141.39 142.485 141.622C141.822 141.854 141.116 141.97 140.367 141.97C139.168 141.97 138.097 141.688 137.156 141.125C136.215 140.562 135.472 139.786 134.929 138.798C134.385 137.811 134.113 136.684 134.113 135.418C134.107 134.052 134.421 132.836 135.058 131.768C135.694 130.701 136.582 129.866 137.723 129.263C138.869 128.653 140.202 128.351 141.72 128.358ZM141.75 131.739C141.08 131.739 140.483 131.898 139.96 132.216C139.443 132.534 139.032 132.962 138.727 133.499C138.429 134.036 138.283 134.635 138.289 135.298C138.289 135.968 138.435 136.571 138.727 137.108C139.025 137.638 139.429 138.062 139.94 138.381C140.457 138.692 141.047 138.848 141.71 138.848C142.207 138.848 142.668 138.755 143.092 138.57C143.516 138.384 143.884 138.129 144.196 137.804C144.514 137.473 144.762 137.091 144.941 136.661C145.12 136.23 145.21 135.772 145.21 135.288C145.203 134.645 145.051 134.055 144.752 133.518C144.454 132.982 144.043 132.551 143.519 132.226C142.996 131.901 142.406 131.739 141.75 131.739ZM161.941 149.447C160.23 149.441 158.759 149.02 157.526 148.185C156.299 147.349 155.355 146.14 154.692 144.555C154.036 142.971 153.711 141.065 153.718 138.838C153.718 136.617 154.046 134.725 154.702 133.161C155.365 131.596 156.309 130.406 157.536 129.591C158.769 128.769 160.237 128.358 161.941 128.358C163.644 128.358 165.109 128.769 166.335 129.591C167.568 130.413 168.516 131.606 169.179 133.17C169.842 134.728 170.17 136.617 170.164 138.838C170.164 141.072 169.832 142.981 169.169 144.565C168.513 146.15 167.572 147.359 166.345 148.195C165.119 149.03 163.651 149.447 161.941 149.447ZM161.941 145.878C163.107 145.878 164.039 145.291 164.735 144.118C165.431 142.945 165.775 141.185 165.769 138.838C165.769 137.294 165.61 136.008 165.291 134.98C164.98 133.953 164.536 133.18 163.959 132.663C163.389 132.146 162.716 131.888 161.941 131.888C160.781 131.888 159.853 132.468 159.156 133.628C158.46 134.788 158.109 136.525 158.103 138.838C158.103 140.402 158.258 141.708 158.57 142.756C158.888 143.796 159.335 144.579 159.912 145.102C160.489 145.619 161.165 145.878 161.941 145.878ZM182.338 149.447C180.628 149.441 179.156 149.02 177.923 148.185C176.697 147.349 175.752 146.14 175.089 144.555C174.433 142.971 174.108 141.065 174.115 138.838C174.115 136.617 174.443 134.725 175.099 133.161C175.762 131.596 176.707 130.406 177.933 129.591C179.166 128.769 180.634 128.358 182.338 128.358C184.042 128.358 185.506 128.769 186.733 129.591C187.966 130.413 188.914 131.606 189.577 133.17C190.239 134.728 190.568 136.617 190.561 138.838C190.561 141.072 190.229 142.981 189.567 144.565C188.91 146.15 187.969 147.359 186.743 148.195C185.516 149.03 184.048 149.447 182.338 149.447ZM182.338 145.878C183.505 145.878 184.436 145.291 185.132 144.118C185.828 142.945 186.173 141.185 186.166 138.838C186.166 137.294 186.007 136.008 185.689 134.98C185.377 133.953 184.933 133.18 184.356 132.663C183.786 132.146 183.113 131.888 182.338 131.888C181.178 131.888 180.25 132.468 179.554 133.628C178.858 134.788 178.506 136.525 178.5 138.838C178.5 140.402 178.656 141.708 178.967 142.756C179.285 143.796 179.733 144.579 180.31 145.102C180.886 145.619 181.562 145.878 182.338 145.878ZM203.61 128.636V149H199.305V132.723H199.186L194.522 135.646V131.828L199.563 128.636H203.61ZM212.086 146.634C211.429 146.634 210.866 146.402 210.395 145.938C209.931 145.473 209.699 144.91 209.699 144.247C209.699 143.598 209.931 143.041 210.395 142.577C210.866 142.113 211.429 141.881 212.086 141.881C212.722 141.881 213.279 142.113 213.756 142.577C214.233 143.041 214.472 143.598 214.472 144.247C214.472 144.685 214.359 145.086 214.134 145.45C213.915 145.808 213.627 146.097 213.269 146.315C212.911 146.527 212.517 146.634 212.086 146.634ZM212.086 136.641C211.429 136.641 210.866 136.409 210.395 135.945C209.931 135.481 209.699 134.917 209.699 134.254C209.699 133.605 209.931 133.051 210.395 132.594C210.866 132.13 211.429 131.898 212.086 131.898C212.722 131.898 213.279 132.13 213.756 132.594C214.233 133.051 214.472 133.605 214.472 134.254C214.472 134.698 214.359 135.103 214.134 135.467C213.915 135.825 213.627 136.11 213.269 136.322C212.911 136.535 212.517 136.641 212.086 136.641ZM219.03 149V145.898L226.279 139.186C226.895 138.589 227.412 138.053 227.83 137.575C228.254 137.098 228.575 136.631 228.794 136.173C229.013 135.709 229.122 135.209 229.122 134.672C229.122 134.075 228.986 133.562 228.715 133.131C228.443 132.693 228.072 132.358 227.601 132.126C227.13 131.888 226.597 131.768 226 131.768C225.377 131.768 224.833 131.894 224.369 132.146C223.905 132.398 223.547 132.759 223.296 133.23C223.044 133.701 222.918 134.261 222.918 134.911H218.831C218.831 133.578 219.133 132.421 219.736 131.44C220.339 130.459 221.184 129.7 222.271 129.163C223.359 128.626 224.611 128.358 226.03 128.358C227.488 128.358 228.758 128.616 229.838 129.134C230.925 129.644 231.77 130.353 232.374 131.261C232.977 132.17 233.279 133.21 233.279 134.384C233.279 135.152 233.126 135.911 232.821 136.661C232.523 137.41 231.989 138.241 231.22 139.156C230.451 140.064 229.368 141.155 227.969 142.428L224.996 145.341V145.48H233.547V149H219.03ZM245.771 149.447C244.061 149.441 242.589 149.02 241.356 148.185C240.13 147.349 239.185 146.14 238.522 144.555C237.866 142.971 237.541 141.065 237.548 138.838C237.548 136.617 237.876 134.725 238.532 133.161C239.195 131.596 240.14 130.406 241.366 129.591C242.599 128.769 244.067 128.358 245.771 128.358C247.475 128.358 248.94 128.769 250.166 129.591C251.399 130.413 252.347 131.606 253.01 133.17C253.673 134.728 254.001 136.617 253.994 138.838C253.994 141.072 253.663 142.981 253 144.565C252.343 146.15 251.402 147.359 250.176 148.195C248.95 149.03 247.481 149.447 245.771 149.447ZM245.771 145.878C246.938 145.878 247.869 145.291 248.565 144.118C249.261 142.945 249.606 141.185 249.599 138.838C249.599 137.294 249.44 136.008 249.122 134.98C248.81 133.953 248.366 133.18 247.79 132.663C247.219 132.146 246.547 131.888 245.771 131.888C244.611 131.888 243.683 132.468 242.987 133.628C242.291 134.788 241.94 136.525 241.933 138.838C241.933 140.402 242.089 141.708 242.4 142.756C242.718 143.796 243.166 144.579 243.743 145.102C244.319 145.619 244.995 145.878 245.771 145.878ZM267.043 128.636V149H262.738V132.723H262.619L257.955 135.646V131.828L262.997 128.636H267.043ZM280.441 149.278C279.035 149.278 277.783 149.02 276.682 148.503C275.588 147.986 274.72 147.273 274.077 146.365C273.434 145.457 273.099 144.416 273.073 143.243H277.249C277.295 144.032 277.627 144.671 278.243 145.162C278.86 145.652 279.592 145.898 280.441 145.898C281.117 145.898 281.713 145.749 282.231 145.45C282.754 145.145 283.162 144.724 283.454 144.188C283.752 143.644 283.901 143.021 283.901 142.318C283.901 141.602 283.748 140.973 283.444 140.429C283.145 139.885 282.731 139.461 282.201 139.156C281.67 138.851 281.064 138.696 280.381 138.689C279.784 138.689 279.204 138.812 278.641 139.057C278.084 139.302 277.65 139.637 277.338 140.061L273.51 139.375L274.475 128.636H286.924V132.156H278.025L277.498 137.257H277.617C277.975 136.753 278.515 136.336 279.238 136.004C279.96 135.673 280.769 135.507 281.664 135.507C282.89 135.507 283.984 135.795 284.945 136.372C285.906 136.949 286.665 137.741 287.222 138.749C287.779 139.75 288.054 140.903 288.047 142.209C288.054 143.581 287.736 144.801 287.093 145.868C286.456 146.929 285.565 147.764 284.418 148.374C283.278 148.977 281.952 149.278 280.441 149.278ZM32.662 162.636V183H28.3566V162.636H32.662ZM48.3711 168.493C48.2916 167.691 47.9502 167.068 47.347 166.624C46.7438 166.179 45.9251 165.957 44.891 165.957C44.1884 165.957 43.5951 166.057 43.1112 166.256C42.6273 166.448 42.2561 166.716 41.9976 167.061C41.7457 167.406 41.6197 167.797 41.6197 168.234C41.6065 168.599 41.6827 168.917 41.8484 169.189C42.0208 169.461 42.2561 169.696 42.5544 169.895C42.8527 170.087 43.1974 170.256 43.5885 170.402C43.9796 170.541 44.3972 170.661 44.8413 170.76L46.6709 171.197C47.5591 171.396 48.3745 171.661 49.1169 171.993C49.8593 172.324 50.5023 172.732 51.0459 173.216C51.5894 173.7 52.0104 174.27 52.3086 174.926C52.6136 175.582 52.7693 176.335 52.776 177.183C52.7693 178.429 52.4512 179.51 51.8214 180.425C51.1983 181.333 50.2968 182.039 49.1169 182.543C47.9436 183.04 46.5283 183.288 44.8711 183.288C43.2272 183.288 41.7954 183.036 40.5757 182.533C39.3626 182.029 38.4147 181.283 37.7319 180.295C37.0558 179.301 36.7012 178.071 36.668 176.607H40.8342C40.8806 177.289 41.0762 177.859 41.4209 178.317C41.7722 178.768 42.2395 179.109 42.8229 179.341C43.4128 179.566 44.079 179.679 44.8214 179.679C45.5506 179.679 46.1836 179.573 46.7206 179.361C47.2641 179.149 47.6851 178.854 47.9834 178.476C48.2817 178.098 48.4308 177.664 48.4308 177.173C48.4308 176.716 48.2949 176.331 48.0231 176.02C47.758 175.708 47.3669 175.443 46.8498 175.224C46.3394 175.006 45.713 174.807 44.9706 174.628L42.7533 174.071C41.0364 173.653 39.6808 173 38.6865 172.112C37.6922 171.224 37.1983 170.027 37.205 168.523C37.1983 167.29 37.5265 166.213 38.1893 165.291C38.8588 164.37 39.7769 163.651 40.9436 163.134C42.1103 162.616 43.436 162.358 44.9209 162.358C46.4322 162.358 47.7514 162.616 48.8783 163.134C50.0118 163.651 50.8934 164.37 51.5231 165.291C52.1529 166.213 52.4777 167.28 52.4976 168.493H48.3711ZM75.505 172.818C75.505 175.039 75.0841 176.928 74.2422 178.486C73.407 180.044 72.2668 181.233 70.8218 182.055C69.3833 182.871 67.7659 183.278 65.9695 183.278C64.1598 183.278 62.5358 182.867 61.0973 182.045C59.6589 181.223 58.522 180.034 57.6868 178.476C56.8516 176.918 56.434 175.032 56.434 172.818C56.434 170.598 56.8516 168.708 57.6868 167.151C58.522 165.593 59.6589 164.406 61.0973 163.591C62.5358 162.769 64.1598 162.358 65.9695 162.358C67.7659 162.358 69.3833 162.769 70.8218 163.591C72.2668 164.406 73.407 165.593 74.2422 167.151C75.0841 168.708 75.505 170.598 75.505 172.818ZM71.1399 172.818C71.1399 171.38 70.9245 170.167 70.4936 169.179C70.0694 168.191 69.4695 167.442 68.6939 166.932C67.9183 166.421 67.0102 166.166 65.9695 166.166C64.9288 166.166 64.0206 166.421 63.2451 166.932C62.4695 167.442 61.8663 168.191 61.4354 169.179C61.0112 170.167 60.799 171.38 60.799 172.818C60.799 174.257 61.0112 175.47 61.4354 176.457C61.8663 177.445 62.4695 178.194 63.2451 178.705C64.0206 179.215 64.9288 179.47 65.9695 179.47C67.0102 179.47 67.9183 179.215 68.6939 178.705C69.4695 178.194 70.0694 177.445 70.4936 176.457C70.9245 175.47 71.1399 174.257 71.1399 172.818ZM87.2954 183V179.898L94.544 173.186C95.1605 172.589 95.6775 172.053 96.0951 171.575C96.5194 171.098 96.8409 170.631 97.0596 170.173C97.2784 169.709 97.3877 169.209 97.3877 168.672C97.3877 168.075 97.2519 167.562 96.9801 167.131C96.7083 166.693 96.3371 166.358 95.8664 166.126C95.3958 165.888 94.8622 165.768 94.2656 165.768C93.6425 165.768 93.0989 165.894 92.6349 166.146C92.1709 166.398 91.8129 166.759 91.561 167.23C91.3092 167.701 91.1832 168.261 91.1832 168.911H87.0966C87.0966 167.578 87.3982 166.421 88.0014 165.44C88.6046 164.459 89.4498 163.7 90.5369 163.163C91.624 162.626 92.8769 162.358 94.2954 162.358C95.7538 162.358 97.0232 162.616 98.1037 163.134C99.1908 163.644 100.036 164.353 100.639 165.261C101.242 166.17 101.544 167.21 101.544 168.384C101.544 169.152 101.392 169.911 101.087 170.661C100.788 171.41 100.255 172.241 99.4858 173.156C98.7168 174.064 97.633 175.155 96.2343 176.428L93.2613 179.341V179.48H101.812V183H87.2954ZM114.037 183.447C112.326 183.441 110.855 183.02 109.622 182.185C108.395 181.349 107.451 180.14 106.788 178.555C106.132 176.971 105.807 175.065 105.814 172.838C105.814 170.617 106.142 168.725 106.798 167.161C107.461 165.596 108.405 164.406 109.632 163.591C110.865 162.769 112.333 162.358 114.037 162.358C115.74 162.358 117.205 162.769 118.431 163.591C119.664 164.413 120.612 165.606 121.275 167.17C121.938 168.728 122.266 170.617 122.26 172.838C122.26 175.072 121.928 176.981 121.265 178.565C120.609 180.15 119.668 181.359 118.441 182.195C117.215 183.03 115.747 183.447 114.037 183.447ZM114.037 179.878C115.203 179.878 116.135 179.291 116.831 178.118C117.527 176.945 117.871 175.185 117.865 172.838C117.865 171.294 117.706 170.008 117.387 168.98C117.076 167.953 116.632 167.18 116.055 166.663C115.485 166.146 114.812 165.888 114.037 165.888C112.876 165.888 111.948 166.468 111.252 167.628C110.556 168.788 110.205 170.525 110.198 172.838C110.198 174.402 110.354 175.708 110.666 176.756C110.984 177.796 111.431 178.579 112.008 179.102C112.585 179.619 113.261 179.878 114.037 179.878ZM134.434 183.447C132.724 183.441 131.252 183.02 130.019 182.185C128.793 181.349 127.848 180.14 127.185 178.555C126.529 176.971 126.204 175.065 126.211 172.838C126.211 170.617 126.539 168.725 127.195 167.161C127.858 165.596 128.803 164.406 130.029 163.591C131.262 162.769 132.73 162.358 134.434 162.358C136.137 162.358 137.602 162.769 138.829 163.591C140.062 164.413 141.01 165.606 141.673 167.17C142.335 168.728 142.664 170.617 142.657 172.838C142.657 175.072 142.325 176.981 141.663 178.565C141.006 180.15 140.065 181.359 138.839 182.195C137.612 183.03 136.144 183.447 134.434 183.447ZM134.434 179.878C135.601 179.878 136.532 179.291 137.228 178.118C137.924 176.945 138.269 175.185 138.262 172.838C138.262 171.294 138.103 170.008 137.785 168.98C137.473 167.953 137.029 167.18 136.452 166.663C135.882 166.146 135.209 165.888 134.434 165.888C133.274 165.888 132.346 166.468 131.65 167.628C130.954 168.788 130.602 170.525 130.596 172.838C130.596 174.402 130.752 175.708 131.063 176.756C131.381 177.796 131.829 178.579 132.405 179.102C132.982 179.619 133.658 179.878 134.434 179.878ZM154.831 183.447C153.121 183.441 151.649 183.02 150.416 182.185C149.19 181.349 148.246 180.14 147.583 178.555C146.926 176.971 146.602 175.065 146.608 172.838C146.608 170.617 146.936 168.725 147.593 167.161C148.255 165.596 149.2 164.406 150.426 163.591C151.659 162.769 153.128 162.358 154.831 162.358C156.535 162.358 158 162.769 159.226 163.591C160.459 164.413 161.407 165.606 162.07 167.17C162.733 168.728 163.061 170.617 163.054 172.838C163.054 175.072 162.723 176.981 162.06 178.565C161.404 180.15 160.462 181.359 159.236 182.195C158.01 183.03 156.541 183.447 154.831 183.447ZM154.831 179.878C155.998 179.878 156.929 179.291 157.625 178.118C158.321 176.945 158.666 175.185 158.659 172.838C158.659 171.294 158.5 170.008 158.182 168.98C157.871 167.953 157.426 167.18 156.85 166.663C156.28 166.146 155.607 165.888 154.831 165.888C153.671 165.888 152.743 166.468 152.047 167.628C151.351 168.788 151 170.525 150.993 172.838C150.993 174.402 151.149 175.708 151.46 176.756C151.779 177.796 152.226 178.579 152.803 179.102C153.379 179.619 154.056 179.878 154.831 179.878ZM175.229 183.447C173.518 183.441 172.047 183.02 170.814 182.185C169.587 181.349 168.643 180.14 167.98 178.555C167.324 176.971 166.999 175.065 167.006 172.838C167.006 170.617 167.334 168.725 167.99 167.161C168.653 165.596 169.597 164.406 170.824 163.591C172.057 162.769 173.525 162.358 175.229 162.358C176.932 162.358 178.397 162.769 179.623 163.591C180.856 164.413 181.804 165.606 182.467 167.17C183.13 168.728 183.458 170.617 183.452 172.838C183.452 175.072 183.12 176.981 182.457 178.565C181.801 180.15 180.86 181.359 179.633 182.195C178.407 183.03 176.939 183.447 175.229 183.447ZM175.229 179.878C176.395 179.878 177.327 179.291 178.023 178.118C178.719 176.945 179.063 175.185 179.057 172.838C179.057 171.294 178.898 170.008 178.579 168.98C178.268 167.953 177.824 167.18 177.247 166.663C176.677 166.146 176.004 165.888 175.229 165.888C174.069 165.888 173.14 166.468 172.444 167.628C171.748 168.788 171.397 170.525 171.39 172.838C171.39 174.402 171.546 175.708 171.858 176.756C172.176 177.796 172.623 178.579 173.2 179.102C173.777 179.619 174.453 179.878 175.229 179.878ZM197.197 171.138V174.499H187.91V171.138H197.197ZM210.746 162.636V183H206.44V166.723H206.321L201.658 169.646V165.828L206.699 162.636H210.746ZM219.221 180.634C218.565 180.634 218.002 180.402 217.531 179.938C217.067 179.473 216.835 178.91 216.835 178.247C216.835 177.598 217.067 177.041 217.531 176.577C218.002 176.113 218.565 175.881 219.221 175.881C219.858 175.881 220.415 176.113 220.892 176.577C221.369 177.041 221.608 177.598 221.608 178.247C221.608 178.685 221.495 179.086 221.27 179.45C221.051 179.808 220.763 180.097 220.405 180.315C220.047 180.527 219.652 180.634 219.221 180.634ZM219.221 170.641C218.565 170.641 218.002 170.409 217.531 169.945C217.067 169.481 216.835 168.917 216.835 168.254C216.835 167.605 217.067 167.051 217.531 166.594C218.002 166.13 218.565 165.898 219.221 165.898C219.858 165.898 220.415 166.13 220.892 166.594C221.369 167.051 221.608 167.605 221.608 168.254C221.608 168.698 221.495 169.103 221.27 169.467C221.051 169.825 220.763 170.11 220.405 170.322C220.047 170.535 219.652 170.641 219.221 170.641ZM226.166 183V179.898L233.414 173.186C234.031 172.589 234.548 172.053 234.965 171.575C235.39 171.098 235.711 170.631 235.93 170.173C236.149 169.709 236.258 169.209 236.258 168.672C236.258 168.075 236.122 167.562 235.85 167.131C235.578 166.693 235.207 166.358 234.737 166.126C234.266 165.888 233.732 165.768 233.136 165.768C232.513 165.768 231.969 165.894 231.505 166.146C231.041 166.398 230.683 166.759 230.431 167.23C230.179 167.701 230.053 168.261 230.053 168.911H225.967C225.967 167.578 226.268 166.421 226.872 165.44C227.475 164.459 228.32 163.7 229.407 163.163C230.494 162.626 231.747 162.358 233.166 162.358C234.624 162.358 235.893 162.616 236.974 163.134C238.061 163.644 238.906 164.353 239.509 165.261C240.113 166.17 240.414 167.21 240.414 168.384C240.414 169.152 240.262 169.911 239.957 170.661C239.658 171.41 239.125 172.241 238.356 173.156C237.587 174.064 236.503 175.155 235.105 176.428L232.131 179.341V179.48H240.683V183H226.166ZM252.907 183.447C251.196 183.441 249.725 183.02 248.492 182.185C247.266 181.349 246.321 180.14 245.658 178.555C245.002 176.971 244.677 175.065 244.684 172.838C244.684 170.617 245.012 168.725 245.668 167.161C246.331 165.596 247.276 164.406 248.502 163.591C249.735 162.769 251.203 162.358 252.907 162.358C254.61 162.358 256.075 162.769 257.302 163.591C258.535 164.413 259.482 165.606 260.145 167.17C260.808 168.728 261.136 170.617 261.13 172.838C261.13 175.072 260.798 176.981 260.135 178.565C259.479 180.15 258.538 181.359 257.312 182.195C256.085 183.03 254.617 183.447 252.907 183.447ZM252.907 179.878C254.073 179.878 255.005 179.291 255.701 178.118C256.397 176.945 256.741 175.185 256.735 172.838C256.735 171.294 256.576 170.008 256.258 168.98C255.946 167.953 255.502 167.18 254.925 166.663C254.355 166.146 253.682 165.888 252.907 165.888C251.747 165.888 250.819 166.468 250.123 167.628C249.427 168.788 249.075 170.525 249.069 172.838C249.069 174.402 249.224 175.708 249.536 176.756C249.854 177.796 250.302 178.579 250.878 179.102C251.455 179.619 252.131 179.878 252.907 179.878ZM274.179 162.636V183H269.874V166.723H269.754L265.091 169.646V165.828L270.132 162.636H274.179ZM287.735 183.278C286.204 183.278 284.842 183.03 283.649 182.533C282.462 182.029 281.531 181.343 280.855 180.474C280.179 179.606 279.841 178.622 279.841 177.521C279.841 176.673 280.033 175.894 280.417 175.185C280.808 174.469 281.339 173.875 282.008 173.405C282.678 172.928 283.427 172.623 284.255 172.49V172.351C283.168 172.132 282.287 171.605 281.61 170.77C280.934 169.928 280.596 168.95 280.596 167.837C280.596 166.783 280.904 165.845 281.521 165.023C282.137 164.194 282.983 163.545 284.056 163.074C285.137 162.597 286.363 162.358 287.735 162.358C289.108 162.358 290.331 162.597 291.404 163.074C292.485 163.551 293.333 164.204 293.95 165.033C294.566 165.855 294.878 166.789 294.885 167.837C294.878 168.957 294.533 169.935 293.85 170.77C293.168 171.605 292.293 172.132 291.225 172.351V172.49C292.041 172.623 292.78 172.928 293.443 173.405C294.112 173.875 294.643 174.469 295.034 175.185C295.431 175.894 295.634 176.673 295.64 177.521C295.634 178.622 295.292 179.606 294.616 180.474C293.94 181.343 293.005 182.029 291.812 182.533C290.626 183.03 289.267 183.278 287.735 183.278ZM287.735 180.116C288.418 180.116 289.015 179.994 289.525 179.749C290.036 179.497 290.433 179.152 290.718 178.714C291.01 178.27 291.156 177.76 291.156 177.183C291.156 176.593 291.007 176.073 290.708 175.622C290.41 175.165 290.006 174.807 289.495 174.548C288.985 174.283 288.398 174.151 287.735 174.151C287.079 174.151 286.493 174.283 285.975 174.548C285.458 174.807 285.051 175.165 284.752 175.622C284.461 176.073 284.315 176.593 284.315 177.183C284.315 177.76 284.458 178.27 284.743 178.714C285.028 179.152 285.429 179.497 285.946 179.749C286.463 179.994 287.059 180.116 287.735 180.116ZM287.735 171.018C288.306 171.018 288.813 170.902 289.257 170.67C289.701 170.438 290.049 170.117 290.301 169.706C290.553 169.295 290.679 168.821 290.679 168.284C290.679 167.754 290.553 167.29 290.301 166.892C290.049 166.488 289.704 166.173 289.267 165.947C288.829 165.715 288.319 165.599 287.735 165.599C287.159 165.599 286.648 165.715 286.204 165.947C285.76 166.173 285.412 166.488 285.16 166.892C284.915 167.29 284.792 167.754 284.792 168.284C284.792 168.821 284.918 169.295 285.17 169.706C285.422 170.117 285.77 170.438 286.214 170.67C286.658 170.902 287.165 171.018 287.735 171.018ZM66.1844 196.636V217H61.879V196.636H66.1844ZM81.8935 202.493C81.8139 201.691 81.4726 201.068 80.8693 200.624C80.2661 200.179 79.4475 199.957 78.4134 199.957C77.7107 199.957 77.1174 200.057 76.6335 200.256C76.1496 200.448 75.7784 200.716 75.5199 201.061C75.268 201.406 75.1421 201.797 75.1421 202.234C75.1288 202.599 75.205 202.917 75.3708 203.189C75.5431 203.461 75.7784 203.696 76.0767 203.895C76.375 204.087 76.7197 204.256 77.1108 204.402C77.5019 204.541 77.9195 204.661 78.3637 204.76L80.1932 205.197C81.0815 205.396 81.8968 205.661 82.6392 205.993C83.3817 206.324 84.0246 206.732 84.5682 207.216C85.1118 207.7 85.5327 208.27 85.831 208.926C86.1359 209.582 86.2917 210.335 86.2983 211.183C86.2917 212.429 85.9735 213.51 85.3438 214.425C84.7207 215.333 83.8192 216.039 82.6392 216.543C81.4659 217.04 80.0507 217.288 78.3935 217.288C76.7496 217.288 75.3177 217.036 74.098 216.533C72.885 216.029 71.9371 215.283 71.2543 214.295C70.5781 213.301 70.2235 212.071 70.1904 210.607H74.3566C74.403 211.289 74.5985 211.859 74.9432 212.317C75.2945 212.768 75.7619 213.109 76.3452 213.341C76.9352 213.566 77.6014 213.679 78.3438 213.679C79.0729 213.679 79.706 213.573 80.2429 213.361C80.7865 213.149 81.2074 212.854 81.5057 212.476C81.804 212.098 81.9532 211.664 81.9532 211.173C81.9532 210.716 81.8173 210.331 81.5455 210.02C81.2803 209.708 80.8892 209.443 80.3722 209.224C79.8618 209.006 79.2353 208.807 78.4929 208.628L76.2756 208.071C74.5587 207.653 73.2031 207 72.2088 206.112C71.2145 205.224 70.7207 204.027 70.7273 202.523C70.7207 201.29 71.0488 200.213 71.7117 199.291C72.3812 198.37 73.2993 197.651 74.4659 197.134C75.6326 196.616 76.9584 196.358 78.4432 196.358C79.9546 196.358 81.2737 196.616 82.4006 197.134C83.5341 197.651 84.4157 198.37 85.0455 199.291C85.6752 200.213 86 201.28 86.0199 202.493H81.8935ZM109.027 206.818C109.027 209.039 108.606 210.928 107.765 212.486C106.929 214.044 105.789 215.233 104.344 216.055C102.906 216.871 101.288 217.278 99.4918 217.278C97.6822 217.278 96.0581 216.867 94.6197 216.045C93.1812 215.223 92.0444 214.034 91.2092 212.476C90.3739 210.918 89.9563 209.032 89.9563 206.818C89.9563 204.598 90.3739 202.708 91.2092 201.151C92.0444 199.593 93.1812 198.406 94.6197 197.591C96.0581 196.769 97.6822 196.358 99.4918 196.358C101.288 196.358 102.906 196.769 104.344 197.591C105.789 198.406 106.929 199.593 107.765 201.151C108.606 202.708 109.027 204.598 109.027 206.818ZM104.662 206.818C104.662 205.38 104.447 204.167 104.016 203.179C103.592 202.191 102.992 201.442 102.216 200.932C101.441 200.421 100.533 200.166 99.4918 200.166C98.4511 200.166 97.543 200.421 96.7674 200.932C95.9918 201.442 95.3886 202.191 94.9577 203.179C94.5335 204.167 94.3214 205.38 94.3214 206.818C94.3214 208.257 94.5335 209.47 94.9577 210.457C95.3886 211.445 95.9918 212.194 96.7674 212.705C97.543 213.215 98.4511 213.47 99.4918 213.47C100.533 213.47 101.441 213.215 102.216 212.705C102.992 212.194 103.592 211.445 104.016 210.457C104.447 209.47 104.662 208.257 104.662 206.818ZM120.818 217V213.898L128.066 207.186C128.683 206.589 129.2 206.053 129.617 205.575C130.042 205.098 130.363 204.631 130.582 204.173C130.801 203.709 130.91 203.209 130.91 202.672C130.91 202.075 130.774 201.562 130.502 201.131C130.231 200.693 129.859 200.358 129.389 200.126C128.918 199.888 128.385 199.768 127.788 199.768C127.165 199.768 126.621 199.894 126.157 200.146C125.693 200.398 125.335 200.759 125.083 201.23C124.831 201.701 124.706 202.261 124.706 202.911H120.619C120.619 201.578 120.921 200.421 121.524 199.44C122.127 198.459 122.972 197.7 124.059 197.163C125.146 196.626 126.399 196.358 127.818 196.358C129.276 196.358 130.546 196.616 131.626 197.134C132.713 197.644 133.558 198.353 134.162 199.261C134.765 200.17 135.066 201.21 135.066 202.384C135.066 203.152 134.914 203.911 134.609 204.661C134.311 205.41 133.777 206.241 133.008 207.156C132.239 208.064 131.155 209.155 129.757 210.428L126.784 213.341V213.48H135.335V217H120.818ZM140.38 217L148.822 200.295V200.156H138.988V196.636H153.276V200.206L144.824 217H140.38ZM164.894 217.447C163.183 217.441 161.712 217.02 160.479 216.185C159.253 215.349 158.308 214.14 157.645 212.555C156.989 210.971 156.664 209.065 156.671 206.838C156.671 204.617 156.999 202.725 157.655 201.161C158.318 199.596 159.263 198.406 160.489 197.591C161.722 196.769 163.19 196.358 164.894 196.358C166.597 196.358 168.062 196.769 169.289 197.591C170.522 198.413 171.469 199.606 172.132 201.17C172.795 202.728 173.123 204.617 173.117 206.838C173.117 209.072 172.785 210.981 172.122 212.565C171.466 214.15 170.525 215.359 169.299 216.195C168.072 217.03 166.604 217.447 164.894 217.447ZM164.894 213.878C166.06 213.878 166.992 213.291 167.688 212.118C168.384 210.945 168.728 209.185 168.722 206.838C168.722 205.294 168.563 204.008 168.245 202.98C167.933 201.953 167.489 201.18 166.912 200.663C166.342 200.146 165.669 199.888 164.894 199.888C163.734 199.888 162.806 200.468 162.11 201.628C161.414 202.788 161.062 204.525 161.056 206.838C161.056 208.402 161.211 209.708 161.523 210.756C161.841 211.796 162.289 212.579 162.865 213.102C163.442 213.619 164.118 213.878 164.894 213.878ZM185.291 217.447C183.581 217.441 182.109 217.02 180.876 216.185C179.65 215.349 178.705 214.14 178.042 212.555C177.386 210.971 177.061 209.065 177.068 206.838C177.068 204.617 177.396 202.725 178.052 201.161C178.715 199.596 179.66 198.406 180.886 197.591C182.119 196.769 183.587 196.358 185.291 196.358C186.995 196.358 188.46 196.769 189.686 197.591C190.919 198.413 191.867 199.606 192.53 201.17C193.193 202.728 193.521 204.617 193.514 206.838C193.514 209.072 193.183 210.981 192.52 212.565C191.863 214.15 190.922 215.359 189.696 216.195C188.47 217.03 187.001 217.447 185.291 217.447ZM185.291 213.878C186.458 213.878 187.389 213.291 188.085 212.118C188.781 210.945 189.126 209.185 189.119 206.838C189.119 205.294 188.96 204.008 188.642 202.98C188.33 201.953 187.886 201.18 187.31 200.663C186.739 200.146 186.067 199.888 185.291 199.888C184.131 199.888 183.203 200.468 182.507 201.628C181.811 202.788 181.46 204.525 181.453 206.838C181.453 208.402 181.609 209.708 181.92 210.756C182.238 211.796 182.686 212.579 183.263 213.102C183.839 213.619 184.515 213.878 185.291 213.878ZM206.563 196.636V217H202.258V200.723H202.139L197.475 203.646V199.828L202.517 196.636H206.563ZM215.039 214.634C214.383 214.634 213.819 214.402 213.349 213.938C212.885 213.473 212.652 212.91 212.652 212.247C212.652 211.598 212.885 211.041 213.349 210.577C213.819 210.113 214.383 209.881 215.039 209.881C215.675 209.881 216.232 210.113 216.709 210.577C217.187 211.041 217.425 211.598 217.425 212.247C217.425 212.685 217.313 213.086 217.087 213.45C216.868 213.808 216.58 214.097 216.222 214.315C215.864 214.527 215.47 214.634 215.039 214.634ZM215.039 204.641C214.383 204.641 213.819 204.409 213.349 203.945C212.885 203.481 212.652 202.917 212.652 202.254C212.652 201.605 212.885 201.051 213.349 200.594C213.819 200.13 214.383 199.898 215.039 199.898C215.675 199.898 216.232 200.13 216.709 200.594C217.187 201.051 217.425 201.605 217.425 202.254C217.425 202.698 217.313 203.103 217.087 203.467C216.868 203.825 216.58 204.11 216.222 204.322C215.864 204.535 215.47 204.641 215.039 204.641ZM221.983 217V213.898L229.232 207.186C229.848 206.589 230.365 206.053 230.783 205.575C231.207 205.098 231.529 204.631 231.747 204.173C231.966 203.709 232.075 203.209 232.075 202.672C232.075 202.075 231.94 201.562 231.668 201.131C231.396 200.693 231.025 200.358 230.554 200.126C230.083 199.888 229.55 199.768 228.953 199.768C228.33 199.768 227.787 199.894 227.323 200.146C226.859 200.398 226.501 200.759 226.249 201.23C225.997 201.701 225.871 202.261 225.871 202.911H221.784C221.784 201.578 222.086 200.421 222.689 199.44C223.292 198.459 224.137 197.7 225.225 197.163C226.312 196.626 227.565 196.358 228.983 196.358C230.441 196.358 231.711 196.616 232.791 197.134C233.878 197.644 234.724 198.353 235.327 199.261C235.93 200.17 236.232 201.21 236.232 202.384C236.232 203.152 236.079 203.911 235.774 204.661C235.476 205.41 234.942 206.241 234.173 207.156C233.404 208.064 232.321 209.155 230.922 210.428L227.949 213.341V213.48H236.5V217H221.983ZM248.724 217.447C247.014 217.441 245.542 217.02 244.309 216.185C243.083 215.349 242.138 214.14 241.476 212.555C240.819 210.971 240.495 209.065 240.501 206.838C240.501 204.617 240.829 202.725 241.486 201.161C242.148 199.596 243.093 198.406 244.319 197.591C245.552 196.769 247.021 196.358 248.724 196.358C250.428 196.358 251.893 196.769 253.119 197.591C254.352 198.413 255.3 199.606 255.963 201.17C256.626 202.728 256.954 204.617 256.947 206.838C256.947 209.072 256.616 210.981 255.953 212.565C255.297 214.15 254.355 215.359 253.129 216.195C251.903 217.03 250.434 217.447 248.724 217.447ZM248.724 213.878C249.891 213.878 250.822 213.291 251.518 212.118C252.214 210.945 252.559 209.185 252.552 206.838C252.552 205.294 252.393 204.008 252.075 202.98C251.763 201.953 251.319 201.18 250.743 200.663C250.173 200.146 249.5 199.888 248.724 199.888C247.564 199.888 246.636 200.468 245.94 201.628C245.244 202.788 244.893 204.525 244.886 206.838C244.886 208.402 245.042 209.708 245.353 210.756C245.672 211.796 246.119 212.579 246.696 213.102C247.272 213.619 247.949 213.878 248.724 213.878ZM261.137 217V213.898L268.386 207.186C269.002 206.589 269.519 206.053 269.937 205.575C270.361 205.098 270.683 204.631 270.901 204.173C271.12 203.709 271.229 203.209 271.229 202.672C271.229 202.075 271.094 201.562 270.822 201.131C270.55 200.693 270.179 200.358 269.708 200.126C269.238 199.888 268.704 199.768 268.107 199.768C267.484 199.768 266.941 199.894 266.477 200.146C266.013 200.398 265.655 200.759 265.403 201.23C265.151 201.701 265.025 202.261 265.025 202.911H260.938C260.938 201.578 261.24 200.421 261.843 199.44C262.446 198.459 263.291 197.7 264.379 197.163C265.466 196.626 266.719 196.358 268.137 196.358C269.595 196.358 270.865 196.616 271.945 197.134C273.033 197.644 273.878 198.353 274.481 199.261C275.084 200.17 275.386 201.21 275.386 202.384C275.386 203.152 275.233 203.911 274.928 204.661C274.63 205.41 274.096 206.241 273.327 207.156C272.559 208.064 271.475 209.155 270.076 210.428L267.103 213.341V213.48H275.654V217H261.137ZM279.894 217V213.898L287.142 207.186C287.759 206.589 288.276 206.053 288.694 205.575C289.118 205.098 289.439 204.631 289.658 204.173C289.877 203.709 289.986 203.209 289.986 202.672C289.986 202.075 289.85 201.562 289.579 201.131C289.307 200.693 288.936 200.358 288.465 200.126C287.994 199.888 287.461 199.768 286.864 199.768C286.241 199.768 285.697 199.894 285.233 200.146C284.769 200.398 284.411 200.759 284.159 201.23C283.908 201.701 283.782 202.261 283.782 202.911H279.695C279.695 201.578 279.997 200.421 280.6 199.44C281.203 198.459 282.048 197.7 283.135 197.163C284.222 196.626 285.475 196.358 286.894 196.358C288.352 196.358 289.622 196.616 290.702 197.134C291.789 197.644 292.634 198.353 293.238 199.261C293.841 200.17 294.142 201.21 294.142 202.384C294.142 203.152 293.99 203.911 293.685 204.661C293.387 205.41 292.853 206.241 292.084 207.156C291.315 208.064 290.231 209.155 288.833 210.428L285.86 213.341V213.48H294.411V217H279.894ZM40.0871 230.636H45.3967L51.0047 244.318H51.2433L56.8513 230.636H62.1609V251H57.9848V237.746H57.8158L52.5459 250.901H49.7021L44.4323 237.696H44.2632V251H40.0871V230.636ZM77.8751 236.493C77.7955 235.691 77.4541 235.068 76.8509 234.624C76.2477 234.179 75.429 233.957 74.3949 233.957C73.6923 233.957 73.099 234.057 72.6151 234.256C72.1312 234.448 71.76 234.716 71.5015 235.061C71.2496 235.406 71.1236 235.797 71.1236 236.234C71.1104 236.599 71.1866 236.917 71.3523 237.189C71.5247 237.461 71.76 237.696 72.0583 237.895C72.3566 238.087 72.7013 238.256 73.0924 238.402C73.4835 238.541 73.9011 238.661 74.3452 238.76L76.1748 239.197C77.063 239.396 77.8784 239.661 78.6208 239.993C79.3632 240.324 80.0062 240.732 80.5498 241.216C81.0933 241.7 81.5143 242.27 81.8126 242.926C82.1175 243.582 82.2733 244.335 82.2799 245.183C82.2733 246.429 81.9551 247.51 81.3253 248.425C80.7022 249.333 79.8007 250.039 78.6208 250.543C77.4475 251.04 76.0323 251.288 74.3751 251.288C72.7311 251.288 71.2993 251.036 70.0796 250.533C68.8665 250.029 67.9186 249.283 67.2359 248.295C66.5597 247.301 66.2051 246.071 66.1719 244.607H70.3381C70.3845 245.289 70.5801 245.859 70.9248 246.317C71.2761 246.768 71.7434 247.109 72.3268 247.341C72.9167 247.566 73.5829 247.679 74.3253 247.679C75.0545 247.679 75.6876 247.573 76.2245 247.361C76.7681 247.149 77.189 246.854 77.4873 246.476C77.7856 246.098 77.9347 245.664 77.9347 245.173C77.9347 244.716 77.7988 244.331 77.527 244.02C77.2619 243.708 76.8708 243.443 76.3538 243.224C75.8433 243.006 75.2169 242.807 74.4745 242.628L72.2572 242.071C70.5403 241.653 69.1847 241 68.1904 240.112C67.1961 239.224 66.7022 238.027 66.7089 236.523C66.7022 235.29 67.0304 234.213 67.6932 233.291C68.3627 232.37 69.2808 231.651 70.4475 231.134C71.6142 230.616 72.9399 230.358 74.4248 230.358C75.9361 230.358 77.2553 230.616 78.3822 231.134C79.5157 231.651 80.3973 232.37 81.027 233.291C81.6568 234.213 81.9816 235.28 82.0015 236.493H77.8751ZM86.2958 230.636H91.6055L97.2135 244.318H97.4521L103.06 230.636H108.37V251H104.194V237.746H104.025L98.7546 250.901H95.9109L90.641 237.696H90.472V251H86.2958V230.636ZM113.037 251V230.636H126.759V234.186H117.342V239.038H126.053V242.588H117.342V247.45H126.798V251H113.037ZM138.902 251V230.636H146.936C148.474 230.636 149.786 230.911 150.874 231.462C151.967 232.005 152.799 232.777 153.369 233.778C153.946 234.773 154.234 235.943 154.234 237.288C154.234 238.641 153.943 239.804 153.359 240.778C152.776 241.746 151.931 242.489 150.824 243.006C149.723 243.523 148.391 243.781 146.827 243.781H141.447V240.321H146.131C146.953 240.321 147.635 240.208 148.179 239.983C148.722 239.758 149.127 239.42 149.392 238.969C149.664 238.518 149.8 237.958 149.8 237.288C149.8 236.612 149.664 236.042 149.392 235.578C149.127 235.114 148.719 234.763 148.169 234.524C147.625 234.279 146.939 234.156 146.111 234.156H143.207V251H138.902ZM149.899 241.733L154.96 251H150.207L145.256 241.733H149.899ZM165.032 251.298C163.46 251.298 162.108 250.98 160.975 250.344C159.848 249.701 158.979 248.793 158.37 247.619C157.76 246.439 157.455 245.044 157.455 243.433C157.455 241.862 157.76 240.483 158.37 239.297C158.979 238.11 159.838 237.186 160.945 236.523C162.059 235.86 163.364 235.528 164.862 235.528C165.87 235.528 166.808 235.691 167.676 236.016C168.551 236.334 169.314 236.814 169.963 237.457C170.62 238.1 171.13 238.909 171.495 239.884C171.859 240.851 172.041 241.985 172.041 243.284V244.447H159.145V241.822H168.054C168.054 241.213 167.922 240.672 167.657 240.202C167.391 239.731 167.023 239.363 166.553 239.098C166.089 238.826 165.549 238.69 164.932 238.69C164.289 238.69 163.719 238.839 163.222 239.138C162.731 239.429 162.347 239.824 162.068 240.321C161.79 240.812 161.648 241.358 161.641 241.962V244.457C161.641 245.213 161.78 245.866 162.059 246.416C162.344 246.966 162.745 247.391 163.262 247.689C163.779 247.987 164.392 248.136 165.101 248.136C165.572 248.136 166.003 248.07 166.394 247.938C166.785 247.805 167.12 247.606 167.398 247.341C167.676 247.076 167.889 246.751 168.034 246.366L171.952 246.625C171.753 247.566 171.345 248.388 170.729 249.091C170.119 249.787 169.33 250.33 168.362 250.722C167.401 251.106 166.291 251.298 165.032 251.298ZM182.806 257.045C181.434 257.045 180.258 256.857 179.277 256.479C178.302 256.107 177.527 255.6 176.95 254.957C176.373 254.314 175.999 253.592 175.826 252.79L179.744 252.263C179.863 252.568 180.052 252.853 180.311 253.118C180.569 253.383 180.911 253.595 181.335 253.754C181.766 253.92 182.289 254.003 182.906 254.003C183.827 254.003 184.586 253.777 185.183 253.327C185.786 252.883 186.088 252.137 186.088 251.089V248.295H185.909C185.723 248.72 185.445 249.121 185.073 249.499C184.702 249.876 184.225 250.185 183.642 250.423C183.058 250.662 182.362 250.781 181.554 250.781C180.407 250.781 179.363 250.516 178.421 249.986C177.487 249.449 176.741 248.63 176.184 247.53C175.634 246.423 175.359 245.024 175.359 243.334C175.359 241.604 175.641 240.159 176.204 238.999C176.768 237.839 177.517 236.97 178.451 236.393C179.393 235.817 180.423 235.528 181.544 235.528C182.399 235.528 183.115 235.674 183.691 235.966C184.268 236.251 184.732 236.609 185.083 237.04C185.441 237.464 185.716 237.882 185.909 238.293H186.068V235.727H190.274V251.149C190.274 252.448 189.955 253.536 189.319 254.411C188.683 255.286 187.801 255.942 186.674 256.379C185.554 256.823 184.265 257.045 182.806 257.045ZM182.896 247.599C183.579 247.599 184.155 247.43 184.626 247.092C185.103 246.748 185.468 246.257 185.72 245.621C185.978 244.978 186.107 244.209 186.107 243.314C186.107 242.419 185.982 241.643 185.73 240.987C185.478 240.324 185.113 239.811 184.636 239.446C184.159 239.081 183.579 238.899 182.896 238.899C182.2 238.899 181.613 239.088 181.136 239.466C180.659 239.837 180.297 240.354 180.052 241.017C179.807 241.68 179.684 242.446 179.684 243.314C179.684 244.196 179.807 244.958 180.052 245.601C180.304 246.237 180.665 246.731 181.136 247.082C181.613 247.427 182.2 247.599 182.896 247.599ZM194.764 251V235.727H199V251H194.764ZM196.892 233.759C196.263 233.759 195.722 233.55 195.272 233.132C194.827 232.708 194.605 232.201 194.605 231.611C194.605 231.027 194.827 230.527 195.272 230.109C195.722 229.685 196.263 229.473 196.892 229.473C197.522 229.473 198.059 229.685 198.503 230.109C198.954 230.527 199.179 231.027 199.179 231.611C199.179 232.201 198.954 232.708 198.503 233.132C198.059 233.55 197.522 233.759 196.892 233.759ZM216.221 240.082L212.343 240.321C212.277 239.99 212.134 239.691 211.915 239.426C211.697 239.154 211.408 238.939 211.05 238.78C210.699 238.614 210.278 238.531 209.787 238.531C209.131 238.531 208.578 238.67 208.127 238.949C207.676 239.221 207.451 239.585 207.451 240.043C207.451 240.407 207.597 240.715 207.888 240.967C208.18 241.219 208.68 241.421 209.39 241.574L212.154 242.131C213.639 242.436 214.746 242.926 215.475 243.602C216.204 244.278 216.569 245.167 216.569 246.267C216.569 247.268 216.274 248.146 215.684 248.902C215.1 249.658 214.298 250.248 213.278 250.672C212.263 251.089 211.093 251.298 209.768 251.298C207.746 251.298 206.135 250.877 204.935 250.036C203.742 249.187 203.043 248.034 202.837 246.575L207.003 246.357C207.129 246.973 207.434 247.444 207.918 247.768C208.402 248.087 209.022 248.246 209.778 248.246C210.52 248.246 211.117 248.103 211.567 247.818C212.025 247.527 212.257 247.152 212.263 246.695C212.257 246.31 212.094 245.995 211.776 245.75C211.458 245.498 210.967 245.306 210.305 245.173L207.66 244.646C206.168 244.348 205.058 243.831 204.329 243.095C203.606 242.359 203.245 241.421 203.245 240.281C203.245 239.3 203.51 238.455 204.04 237.746C204.577 237.036 205.33 236.49 206.297 236.105C207.272 235.721 208.412 235.528 209.718 235.528C211.647 235.528 213.165 235.936 214.272 236.751C215.385 237.567 216.035 238.677 216.221 240.082ZM228.48 235.727V238.909H219.282V235.727H228.48ZM221.37 232.068H225.606V246.307C225.606 246.698 225.666 247.003 225.785 247.222C225.904 247.434 226.07 247.583 226.282 247.669C226.501 247.755 226.753 247.798 227.038 247.798C227.237 247.798 227.436 247.782 227.634 247.749C227.833 247.709 227.986 247.679 228.092 247.659L228.758 250.811C228.546 250.877 228.248 250.954 227.863 251.04C227.479 251.133 227.011 251.189 226.461 251.209C225.44 251.249 224.545 251.113 223.776 250.801C223.014 250.49 222.421 250.006 221.997 249.349C221.572 248.693 221.364 247.865 221.37 246.864V232.068ZM239.155 251.298C237.584 251.298 236.232 250.98 235.098 250.344C233.971 249.701 233.103 248.793 232.493 247.619C231.883 246.439 231.578 245.044 231.578 243.433C231.578 241.862 231.883 240.483 232.493 239.297C233.103 238.11 233.961 237.186 235.068 236.523C236.182 235.86 237.488 235.528 238.986 235.528C239.994 235.528 240.931 235.691 241.8 236.016C242.675 236.334 243.437 236.814 244.087 237.457C244.743 238.1 245.253 238.909 245.618 239.884C245.983 240.851 246.165 241.985 246.165 243.284V244.447H233.269V241.822H242.178C242.178 241.213 242.045 240.672 241.78 240.202C241.515 239.731 241.147 239.363 240.676 239.098C240.212 238.826 239.672 238.69 239.056 238.69C238.413 238.69 237.842 238.839 237.345 239.138C236.855 239.429 236.47 239.824 236.192 240.321C235.913 240.812 235.771 241.358 235.764 241.962V244.457C235.764 245.213 235.904 245.866 236.182 246.416C236.467 246.966 236.868 247.391 237.385 247.689C237.902 247.987 238.515 248.136 239.225 248.136C239.695 248.136 240.126 248.07 240.517 247.938C240.908 247.805 241.243 247.606 241.521 247.341C241.8 247.076 242.012 246.751 242.158 246.366L246.075 246.625C245.877 247.566 245.469 248.388 244.852 249.091C244.243 249.787 243.454 250.33 242.486 250.722C241.525 251.106 240.414 251.298 239.155 251.298ZM250.049 251V235.727H254.156V238.392H254.315C254.593 237.444 255.06 236.728 255.717 236.244C256.373 235.754 257.129 235.509 257.984 235.509C258.196 235.509 258.425 235.522 258.67 235.548C258.915 235.575 259.131 235.611 259.316 235.658V239.416C259.117 239.357 258.842 239.304 258.491 239.257C258.14 239.211 257.818 239.188 257.526 239.188C256.903 239.188 256.346 239.323 255.856 239.595C255.372 239.86 254.988 240.232 254.703 240.709C254.424 241.186 254.285 241.736 254.285 242.359V251H250.049ZM268.875 251.298C267.304 251.298 265.952 250.98 264.819 250.344C263.692 249.701 262.823 248.793 262.213 247.619C261.604 246.439 261.299 245.044 261.299 243.433C261.299 241.862 261.604 240.483 262.213 239.297C262.823 238.11 263.682 237.186 264.789 236.523C265.902 235.86 267.208 235.528 268.706 235.528C269.714 235.528 270.652 235.691 271.52 236.016C272.395 236.334 273.158 236.814 273.807 237.457C274.463 238.1 274.974 238.909 275.338 239.884C275.703 240.851 275.885 241.985 275.885 243.284V244.447H262.989V241.822H271.898C271.898 241.213 271.766 240.672 271.5 240.202C271.235 239.731 270.867 239.363 270.397 239.098C269.933 238.826 269.392 238.69 268.776 238.69C268.133 238.69 267.563 238.839 267.066 239.138C266.575 239.429 266.191 239.824 265.912 240.321C265.634 240.812 265.491 241.358 265.485 241.962V244.457C265.485 245.213 265.624 245.866 265.902 246.416C266.187 246.966 266.588 247.391 267.106 247.689C267.623 247.987 268.236 248.136 268.945 248.136C269.416 248.136 269.847 248.07 270.238 247.938C270.629 247.805 270.963 247.606 271.242 247.341C271.52 247.076 271.732 246.751 271.878 246.366L275.796 246.625C275.597 247.566 275.189 248.388 274.573 249.091C273.963 249.787 273.174 250.33 272.206 250.722C271.245 251.106 270.135 251.298 268.875 251.298ZM285.397 251.249C284.237 251.249 283.187 250.95 282.245 250.354C281.311 249.75 280.568 248.866 280.018 247.699C279.475 246.526 279.203 245.087 279.203 243.384C279.203 241.634 279.485 240.179 280.048 239.018C280.611 237.852 281.36 236.98 282.295 236.403C283.236 235.82 284.267 235.528 285.387 235.528C286.243 235.528 286.955 235.674 287.525 235.966C288.102 236.251 288.566 236.609 288.917 237.04C289.275 237.464 289.547 237.882 289.733 238.293H289.862V230.636H294.088V251H289.912V248.554H289.733C289.534 248.978 289.252 249.399 288.887 249.817C288.53 250.228 288.062 250.569 287.485 250.841C286.915 251.113 286.219 251.249 285.397 251.249ZM286.74 247.878C287.423 247.878 287.999 247.692 288.47 247.321C288.947 246.943 289.312 246.416 289.564 245.74C289.822 245.064 289.951 244.272 289.951 243.364C289.951 242.455 289.825 241.667 289.574 240.997C289.322 240.328 288.957 239.811 288.48 239.446C288.003 239.081 287.423 238.899 286.74 238.899C286.044 238.899 285.457 239.088 284.98 239.466C284.503 239.844 284.141 240.367 283.896 241.037C283.651 241.706 283.528 242.482 283.528 243.364C283.528 244.252 283.651 245.037 283.896 245.72C284.148 246.396 284.509 246.927 284.98 247.311C285.457 247.689 286.044 247.878 286.74 247.878ZM179.013 271.766H174.658C174.579 271.202 174.416 270.702 174.171 270.264C173.926 269.82 173.611 269.442 173.226 269.131C172.842 268.819 172.398 268.58 171.894 268.415C171.397 268.249 170.857 268.166 170.273 268.166C169.219 268.166 168.301 268.428 167.519 268.952C166.737 269.469 166.13 270.224 165.699 271.219C165.269 272.206 165.053 273.406 165.053 274.818C165.053 276.27 165.269 277.49 165.699 278.477C166.137 279.465 166.747 280.211 167.529 280.714C168.311 281.218 169.216 281.47 170.243 281.47C170.82 281.47 171.354 281.394 171.844 281.241C172.341 281.089 172.782 280.867 173.167 280.575C173.551 280.277 173.869 279.916 174.121 279.491C174.38 279.067 174.559 278.583 174.658 278.04L179.013 278.06C178.901 278.994 178.619 279.896 178.168 280.764C177.724 281.626 177.124 282.398 176.368 283.081C175.619 283.757 174.724 284.294 173.684 284.692C172.65 285.083 171.48 285.278 170.174 285.278C168.358 285.278 166.733 284.867 165.302 284.045C163.876 283.223 162.75 282.034 161.921 280.476C161.099 278.918 160.688 277.032 160.688 274.818C160.688 272.598 161.106 270.708 161.941 269.151C162.776 267.593 163.91 266.406 165.341 265.591C166.773 264.769 168.384 264.358 170.174 264.358C171.354 264.358 172.447 264.524 173.455 264.855C174.469 265.187 175.367 265.67 176.15 266.307C176.932 266.937 177.568 267.709 178.059 268.624C178.556 269.538 178.874 270.586 179.013 271.766ZM190.042 285.298C188.497 285.298 187.161 284.97 186.035 284.314C184.914 283.651 184.049 282.73 183.439 281.55C182.83 280.363 182.525 278.988 182.525 277.423C182.525 275.846 182.83 274.467 183.439 273.287C184.049 272.1 184.914 271.179 186.035 270.523C187.161 269.86 188.497 269.528 190.042 269.528C191.586 269.528 192.919 269.86 194.039 270.523C195.166 271.179 196.034 272.1 196.644 273.287C197.254 274.467 197.559 275.846 197.559 277.423C197.559 278.988 197.254 280.363 196.644 281.55C196.034 282.73 195.166 283.651 194.039 284.314C192.919 284.97 191.586 285.298 190.042 285.298ZM190.062 282.017C190.764 282.017 191.351 281.818 191.822 281.42C192.292 281.016 192.647 280.466 192.885 279.77C193.131 279.074 193.253 278.282 193.253 277.393C193.253 276.505 193.131 275.713 192.885 275.017C192.647 274.321 192.292 273.771 191.822 273.366C191.351 272.962 190.764 272.76 190.062 272.76C189.352 272.76 188.756 272.962 188.272 273.366C187.795 273.771 187.433 274.321 187.188 275.017C186.949 275.713 186.83 276.505 186.83 277.393C186.83 278.282 186.949 279.074 187.188 279.77C187.433 280.466 187.795 281.016 188.272 281.42C188.756 281.818 189.352 282.017 190.062 282.017ZM201.433 285V269.727H205.47V272.422H205.649C205.967 271.527 206.497 270.821 207.24 270.304C207.982 269.787 208.871 269.528 209.905 269.528C210.952 269.528 211.844 269.79 212.579 270.314C213.315 270.831 213.806 271.534 214.051 272.422H214.21C214.522 271.547 215.085 270.848 215.9 270.324C216.722 269.794 217.693 269.528 218.814 269.528C220.239 269.528 221.396 269.982 222.284 270.891C223.179 271.792 223.626 273.071 223.626 274.729V285H219.4V275.564C219.4 274.715 219.175 274.079 218.724 273.655C218.273 273.231 217.71 273.018 217.034 273.018C216.265 273.018 215.665 273.264 215.234 273.754C214.803 274.238 214.588 274.878 214.588 275.673V285H210.481V275.474C210.481 274.725 210.266 274.129 209.835 273.685C209.411 273.241 208.851 273.018 208.155 273.018C207.684 273.018 207.26 273.138 206.882 273.376C206.511 273.608 206.216 273.937 205.997 274.361C205.778 274.778 205.669 275.269 205.669 275.832V285H201.433ZM228.092 290.727V269.727H232.268V272.293H232.457C232.643 271.882 232.911 271.464 233.263 271.04C233.62 270.609 234.084 270.251 234.655 269.966C235.231 269.674 235.947 269.528 236.802 269.528C237.916 269.528 238.943 269.82 239.885 270.403C240.826 270.98 241.578 271.852 242.142 273.018C242.705 274.179 242.987 275.634 242.987 277.384C242.987 279.087 242.712 280.526 242.162 281.699C241.618 282.866 240.876 283.75 239.934 284.354C239 284.95 237.952 285.249 236.792 285.249C235.97 285.249 235.271 285.113 234.694 284.841C234.124 284.569 233.657 284.228 233.292 283.817C232.928 283.399 232.649 282.978 232.457 282.554H232.328V290.727H228.092ZM232.238 277.364C232.238 278.272 232.364 279.064 232.616 279.74C232.868 280.416 233.233 280.943 233.71 281.321C234.187 281.692 234.767 281.878 235.45 281.878C236.139 281.878 236.723 281.689 237.2 281.311C237.677 280.927 238.039 280.396 238.284 279.72C238.536 279.037 238.662 278.252 238.662 277.364C238.662 276.482 238.539 275.706 238.294 275.037C238.048 274.367 237.687 273.844 237.21 273.466C236.733 273.088 236.146 272.899 235.45 272.899C234.761 272.899 234.177 273.081 233.7 273.446C233.229 273.811 232.868 274.328 232.616 274.997C232.364 275.667 232.238 276.455 232.238 277.364ZM251.286 285.288C250.312 285.288 249.443 285.119 248.681 284.781C247.919 284.437 247.315 283.929 246.871 283.26C246.434 282.584 246.215 281.742 246.215 280.734C246.215 279.886 246.371 279.173 246.682 278.597C246.994 278.02 247.418 277.556 247.955 277.205C248.492 276.853 249.102 276.588 249.785 276.409C250.474 276.23 251.196 276.104 251.952 276.031C252.84 275.938 253.556 275.852 254.1 275.773C254.643 275.687 255.038 275.561 255.283 275.395C255.528 275.229 255.651 274.984 255.651 274.659V274.599C255.651 273.97 255.452 273.482 255.054 273.138C254.663 272.793 254.106 272.621 253.384 272.621C252.622 272.621 252.015 272.79 251.564 273.128C251.114 273.459 250.815 273.877 250.669 274.381L246.752 274.062C246.951 273.134 247.342 272.332 247.925 271.656C248.508 270.973 249.261 270.45 250.182 270.085C251.11 269.714 252.184 269.528 253.404 269.528C254.252 269.528 255.064 269.628 255.84 269.827C256.622 270.026 257.315 270.334 257.918 270.751C258.528 271.169 259.008 271.706 259.36 272.362C259.711 273.012 259.887 273.791 259.887 274.699V285H255.87V282.882H255.75C255.505 283.359 255.177 283.78 254.766 284.145C254.355 284.503 253.861 284.785 253.285 284.99C252.708 285.189 252.042 285.288 251.286 285.288ZM252.499 282.365C253.122 282.365 253.672 282.242 254.15 281.997C254.627 281.745 255.001 281.407 255.273 280.983C255.545 280.559 255.681 280.078 255.681 279.541V277.92C255.548 278.007 255.366 278.086 255.134 278.159C254.909 278.225 254.653 278.288 254.368 278.348C254.083 278.401 253.798 278.451 253.513 278.497C253.228 278.537 252.97 278.573 252.738 278.607C252.24 278.679 251.806 278.795 251.435 278.955C251.064 279.114 250.776 279.329 250.57 279.601C250.365 279.866 250.262 280.197 250.262 280.595C250.262 281.172 250.471 281.613 250.888 281.918C251.312 282.216 251.849 282.365 252.499 282.365ZM268.529 276.17V285H264.293V269.727H268.33V272.422H268.509C268.847 271.534 269.414 270.831 270.209 270.314C271.005 269.79 271.969 269.528 273.103 269.528C274.163 269.528 275.088 269.76 275.877 270.224C276.666 270.688 277.279 271.351 277.716 272.213C278.154 273.068 278.373 274.089 278.373 275.276V285H274.137V276.031C274.143 275.097 273.905 274.367 273.421 273.844C272.937 273.313 272.271 273.048 271.422 273.048C270.852 273.048 270.348 273.171 269.911 273.416C269.48 273.661 269.142 274.019 268.897 274.49C268.658 274.954 268.535 275.514 268.529 276.17ZM284.899 290.727C284.362 290.727 283.858 290.684 283.388 290.598C282.924 290.518 282.539 290.416 282.234 290.29L283.189 287.128C283.686 287.28 284.134 287.363 284.531 287.376C284.936 287.39 285.284 287.297 285.575 287.098C285.874 286.899 286.116 286.561 286.301 286.084L286.55 285.438L281.071 269.727H285.526L288.688 280.943H288.847L292.038 269.727H296.523L290.587 286.651C290.302 287.473 289.914 288.188 289.423 288.798C288.939 289.415 288.326 289.889 287.584 290.22C286.841 290.558 285.946 290.727 284.899 290.727Z" fill="#07547D"/>
<path d="M572.964 79.9401C566.402 72.4401 556.912 66.44 553.686 64.4401C543.187 59.44 524.984 54.1207 499.187 57.44C485.465 59.9401 471.965 62.9395 455.965 69.9401C439.965 76.9407 434.465 79.9401 420.464 88.4401C406.129 98.0667 389.412 110.297 374.465 122.941C362.949 132.682 352.483 142.298 344.965 153.441L382.965 126.441C391.249 121.707 403.454 114.192 407.465 111.941C413.622 108.485 414.5 108 423.965 102.941C433.43 97.8813 471.514 82.7287 493.186 79.9401C503.573 78.6037 511.186 78.4401 520.686 79.4403C530.169 80.8505 535.5 80.916 548.221 87.464C564.686 95.94 570.687 101.44 582.686 116.94C582.686 116.94 583.471 107.455 582.686 101.44C581.903 95.4396 579.527 87.4401 572.964 79.9401Z" fill="url(#paint0_linear_85_363)" fill-opacity="0.8"/>
<path d="M334.84 284.806C340.417 293.357 349.177 300.808 352.161 303.301C362.09 309.883 379.785 317.898 406.427 318.245C420.703 317.684 434.827 316.585 452.061 311.788C469.296 306.991 475.306 304.741 490.728 298.135C506.653 290.435 525.368 280.438 542.347 269.766C555.428 261.544 567.427 253.297 576.655 243.079L534.23 264.993C525.147 268.601 511.687 274.467 507.295 276.172C500.554 278.79 499.593 279.156 489.265 282.925C478.938 286.694 438.133 296.58 415.751 296.289C405.025 296.149 397.279 295.219 387.788 292.837C378.374 290.042 372.977 289.209 361.018 280.737C345.539 269.77 340.245 263.329 330.306 245.881C330.306 245.881 328.145 255.388 328.075 261.602C328.005 267.8 329.264 276.255 334.84 284.806Z" fill="url(#paint1_linear_85_363)" fill-opacity="0.8"/>
<path d="M377.246 203.279C376.874 205.111 376.424 207.673 375.896 210.964C375.368 214.224 375.011 216.755 374.825 218.556C368.182 219.519 362.254 220 357.039 220C352.01 220 347.323 219.379 342.978 218.137C338.663 216.864 334.69 214.799 331.058 211.942C327.457 209.054 324.881 205.67 323.329 201.788C321.777 197.907 321.001 193.56 321.001 188.747C321.001 183.126 322.041 178.08 324.121 173.609C326.231 169.107 329.242 165.365 333.153 162.384C337.095 159.372 341.41 157.229 346.097 155.956C350.784 154.652 355.627 154 360.624 154C365.218 154 370.898 154.59 377.665 155.77L377.758 159.682C377.82 161.39 377.914 163.269 378.038 165.318L378.364 170.628C374.732 169.759 371.783 169.169 369.517 168.858C367.282 168.548 365.202 168.392 363.278 168.392C359.088 168.392 355.316 169.231 351.964 170.908C348.611 172.584 345.973 175.022 344.048 178.22C342.124 181.418 341.162 184.958 341.162 188.84C341.162 192.38 341.969 195.423 343.583 197.969C345.197 200.484 347.37 202.44 350.101 203.838C352.864 205.204 356.263 205.887 360.298 205.887C362.502 205.887 364.892 205.716 367.468 205.375C370.076 205.002 373.335 204.303 377.246 203.279Z" fill="#07547D"/>
<path d="M388.929 218.789L390.093 209.38L392.98 176.73L394.423 155.211C400.135 155.273 404.62 155.304 407.879 155.304C410.58 155.304 414.708 155.273 420.264 155.211C420.668 157.881 421.009 159.915 421.289 161.313C421.568 162.679 422.251 165.38 423.337 169.417C424.455 173.423 425.34 176.9 425.991 179.85C426.674 182.769 427.683 187.784 429.018 194.895C430.384 190.02 431.625 185.828 432.743 182.319C433.86 178.81 435.257 174.82 436.933 170.349C438.609 165.877 439.665 162.958 440.099 161.592C440.565 160.195 441.186 158.068 441.962 155.211C446.618 155.273 451.181 155.304 455.65 155.304C458.692 155.304 462.914 155.273 468.315 155.211C467.725 165.675 467.337 174.665 467.151 182.179C466.747 196.898 466.546 207.02 466.546 212.548C466.546 213.697 466.577 215.777 466.639 218.789C462.541 218.727 459.67 218.696 458.025 218.696C455.635 218.696 452.702 218.727 449.225 218.789C449.473 215.994 449.784 209.349 450.156 198.854C450.529 188.327 450.715 181.605 450.715 178.686C450.715 177.413 450.684 175.643 450.622 173.376L444.522 192.333L435.769 218.789C431.734 218.727 428.956 218.696 427.435 218.696C425.51 218.696 422.561 218.727 418.588 218.789L412.861 193.171L409.509 179.524C409.385 178.996 409.245 178.344 409.09 177.568C408.935 176.792 408.686 175.426 408.345 173.469L407.181 186.371L405.644 212.827L405.505 218.789C401.221 218.727 398.49 218.696 397.31 218.696C395.696 218.696 392.902 218.727 388.929 218.789Z" fill="#07547D"/>
<path d="M480.557 218.789L481.721 209.38L484.607 176.73L486.051 155.211C491.762 155.273 496.248 155.304 499.507 155.304C502.207 155.304 506.336 155.273 511.892 155.211C512.295 157.881 512.637 159.915 512.916 161.313C513.196 162.679 513.879 165.38 514.965 169.417C516.082 173.423 516.967 176.9 517.619 179.85C518.302 182.769 519.311 187.784 520.645 194.895C522.011 190.02 523.253 185.828 524.37 182.319C525.488 178.81 526.884 174.82 528.561 170.349C530.237 165.877 531.292 162.958 531.727 161.592C532.192 160.195 532.813 158.068 533.589 155.211C538.245 155.273 542.808 155.304 547.278 155.304C550.32 155.304 554.541 155.273 559.942 155.211C559.353 165.675 558.965 174.665 558.778 182.179C558.375 196.898 558.173 207.02 558.173 212.548C558.173 213.697 558.204 215.777 558.266 218.789C554.169 218.727 551.298 218.696 549.653 218.696C547.262 218.696 544.329 218.727 540.853 218.789C541.101 215.994 541.411 209.349 541.784 198.854C542.156 188.327 542.343 181.605 542.343 178.686C542.343 177.413 542.312 175.643 542.249 173.376L536.15 192.333L527.397 218.789C523.361 218.727 520.583 218.696 519.062 218.696C517.138 218.696 514.189 218.727 510.216 218.789L504.489 193.171L501.136 179.524C501.012 178.996 500.873 178.344 500.717 177.568C500.562 176.792 500.314 175.426 499.972 173.469L498.808 186.371L497.272 212.827L497.132 218.789C492.849 218.727 490.117 218.696 488.938 218.696C487.323 218.696 484.53 218.727 480.557 218.789Z" fill="#07547D"/>
<path d="M573.441 218.789C575.242 193.855 576.095 168.656 576.095 155.211C581.527 155.273 585.159 155.304 586.99 155.304C587.829 155.304 591.165 155.273 597.001 155.211C596.442 162.198 595.992 168.812 595.651 175.053C595.216 183.747 594.906 191.883 594.72 199.459C594.533 207.005 594.44 213.448 594.44 218.789L584.895 218.696C583.033 218.696 579.215 218.727 573.441 218.789Z" fill="#07547D"/>
<circle cx="587" cy="138" r="13" fill="url(#paint2_radial_85_363)"/>
<path d="M532.67 242C532.865 238.992 533.056 235.428 533.241 231.307C533.368 228.309 533.461 225.208 533.52 222.005L534.882 222.02C535.165 222.02 535.6 222.015 536.186 222.005L535.731 230.604L535.409 239.305L535.351 242C534.774 241.98 534.345 241.971 534.062 241.971C533.944 241.971 533.48 241.98 532.67 242ZM552.737 239.671C552.62 240.208 552.503 240.892 552.386 241.722C551.448 241.956 550.633 242.112 549.939 242.19C549.256 242.278 548.572 242.322 547.888 242.322C546.668 242.322 545.569 242.176 544.593 241.883C543.626 241.59 542.796 241.082 542.102 240.359C541.409 239.627 540.911 238.792 540.608 237.854C540.305 236.917 540.154 235.926 540.154 234.881C540.154 233.426 540.432 232.078 540.989 230.838C541.546 229.588 542.381 228.606 543.494 227.894C544.617 227.181 546.038 226.824 547.757 226.824C548.645 226.824 549.495 226.956 550.305 227.22C551.116 227.474 551.79 227.864 552.327 228.392C552.864 228.919 553.279 229.573 553.572 230.354C553.865 231.126 554.012 231.971 554.012 232.889C554.012 233.24 553.982 233.582 553.924 233.914H542.747C542.708 234.451 542.688 234.861 542.688 235.145C542.688 236.17 542.903 237.117 543.333 237.986C543.762 238.846 544.397 239.5 545.237 239.949C546.077 240.389 547.044 240.608 548.137 240.608C549.397 240.608 550.93 240.296 552.737 239.671ZM542.864 232.698H551.595C551.585 232.083 551.546 231.604 551.477 231.263C551.409 230.921 551.282 230.569 551.096 230.208C550.911 229.837 550.657 229.52 550.335 229.256C550.022 228.982 549.641 228.777 549.192 228.641C548.753 228.494 548.274 228.421 547.757 228.421C547.2 228.421 546.668 228.499 546.16 228.655C545.662 228.812 545.218 229.026 544.827 229.3C544.446 229.573 544.119 229.896 543.846 230.267C543.582 230.628 543.382 230.979 543.245 231.321C543.118 231.663 542.991 232.122 542.864 232.698ZM561.686 242L561.188 240.521C561.022 240.042 560.631 238.953 560.016 237.254L556.339 227.161C556.935 227.171 557.404 227.176 557.746 227.176C558.117 227.176 558.556 227.171 559.064 227.161L559.372 228.187C559.46 228.479 559.611 228.948 559.826 229.593L563.268 239.803L567.926 228.611L568.483 227.161C569.059 227.171 569.518 227.176 569.86 227.176C570.202 227.176 570.661 227.171 571.237 227.161L569.333 231.248L565.509 239.773L564.572 242C563.966 241.98 563.493 241.971 563.151 241.971C562.799 241.971 562.311 241.98 561.686 242ZM585.84 239.671C585.723 240.208 585.606 240.892 585.489 241.722C584.551 241.956 583.736 242.112 583.042 242.19C582.359 242.278 581.675 242.322 580.992 242.322C579.771 242.322 578.672 242.176 577.696 241.883C576.729 241.59 575.899 241.082 575.205 240.359C574.512 239.627 574.014 238.792 573.711 237.854C573.409 236.917 573.257 235.926 573.257 234.881C573.257 233.426 573.536 232.078 574.092 230.838C574.649 229.588 575.484 228.606 576.597 227.894C577.72 227.181 579.141 226.824 580.86 226.824C581.748 226.824 582.598 226.956 583.409 227.22C584.219 227.474 584.893 227.864 585.43 228.392C585.967 228.919 586.382 229.573 586.675 230.354C586.968 231.126 587.115 231.971 587.115 232.889C587.115 233.24 587.085 233.582 587.027 233.914H575.85C575.811 234.451 575.791 234.861 575.791 235.145C575.791 236.17 576.006 237.117 576.436 237.986C576.866 238.846 577.5 239.5 578.34 239.949C579.18 240.389 580.147 240.608 581.241 240.608C582.5 240.608 584.034 240.296 585.84 239.671ZM575.967 232.698H584.698C584.688 232.083 584.649 231.604 584.58 231.263C584.512 230.921 584.385 230.569 584.2 230.208C584.014 229.837 583.76 229.52 583.438 229.256C583.125 228.982 582.745 228.777 582.295 228.641C581.856 228.494 581.377 228.421 580.86 228.421C580.303 228.421 579.771 228.499 579.263 228.655C578.765 228.812 578.321 229.026 577.93 229.3C577.549 229.573 577.222 229.896 576.949 230.267C576.685 230.628 576.485 230.979 576.348 231.321C576.221 231.663 576.094 232.122 575.967 232.698ZM590.849 242C591.044 238.992 591.235 235.428 591.42 231.307C591.547 228.309 591.64 225.208 591.698 222.005L593.061 222.02C593.344 222.02 593.779 222.015 594.364 222.005L593.91 230.604L593.588 239.305L593.529 242C592.953 241.98 592.524 241.971 592.24 241.971C592.123 241.971 591.659 241.98 590.849 242Z" fill="#07547D"/>
<path d="M570.046 262L570.283 258.941L570.459 255.118L570.573 251.312C570.579 251.148 570.582 250.712 570.582 250.003C571.232 250.015 571.845 250.021 572.419 250.021C572.847 250.021 573.409 250.012 574.106 249.994C574.81 249.977 575.416 249.968 575.926 249.968C576.617 249.968 577.256 250.009 577.842 250.091C578.434 250.173 578.949 250.328 579.389 250.557C579.828 250.779 580.209 251.061 580.531 251.4C580.854 251.74 581.117 252.118 581.322 252.534C581.527 252.944 581.683 253.404 581.788 253.914C581.899 254.418 581.955 254.934 581.955 255.461C581.955 256.469 581.779 257.43 581.428 258.344C581.082 259.252 580.563 260.005 579.872 260.603C579.181 261.194 578.413 261.575 577.569 261.745C576.731 261.915 575.779 262 574.713 262L571.725 261.982C571.537 261.982 570.978 261.988 570.046 262ZM572.744 260.128C573.225 260.151 573.699 260.163 574.168 260.163C574.701 260.163 575.193 260.137 575.645 260.084C576.102 260.031 576.494 259.949 576.822 259.838C577.15 259.721 577.479 259.519 577.807 259.231C578.141 258.944 578.413 258.613 578.624 258.238C578.835 257.857 578.996 257.436 579.107 256.973C579.219 256.51 579.274 256.038 579.274 255.558C579.274 254.679 579.125 253.958 578.826 253.396C578.527 252.827 578.132 252.42 577.64 252.174C577.153 251.922 576.4 251.796 575.381 251.796C574.719 251.796 573.96 251.808 573.104 251.831L572.744 260.128ZM584.336 262L584.591 258.634L584.776 254.74L584.89 251.198V250.003C586.337 250.015 587.846 250.021 589.416 250.021L591.104 250.012L593.644 250.003L593.538 251.901L592.703 251.857C592.475 251.846 592.158 251.837 591.754 251.831C591.35 251.825 590.937 251.822 590.515 251.822C589.601 251.822 589.009 251.825 588.74 251.831C588.476 251.831 588.074 251.84 587.535 251.857L587.395 254.978C588.198 254.995 589.006 255.004 589.821 255.004C590.383 255.004 591.332 254.986 592.668 254.951C592.621 255.484 592.58 256.123 592.545 256.867C590.981 256.85 590.084 256.841 589.856 256.841C589.164 256.841 588.303 256.858 587.272 256.894L587.131 260.181L588.098 260.189C588.379 260.189 589.024 260.184 590.032 260.172L591.939 260.137L593.213 260.075C593.155 260.755 593.114 261.396 593.09 262C591.567 261.988 590.193 261.982 588.968 261.982L586.076 261.991L584.336 262ZM599.365 262L599.031 260.893C598.984 260.746 598.791 260.187 598.451 259.214L596.746 254.362L595.181 250.003C595.785 250.015 596.286 250.021 596.684 250.021C596.93 250.021 597.361 250.015 597.976 250.003L598.249 250.979C598.307 251.178 598.392 251.447 598.503 251.787L600.63 258.229C600.759 258.646 600.926 259.193 601.131 259.873L601.606 258.801C601.723 258.537 601.966 258.021 602.336 257.254L605.104 251.471C605.186 251.301 605.268 251.122 605.35 250.935C605.432 250.741 605.561 250.431 605.737 250.003C606.376 250.015 606.862 250.021 607.196 250.021C607.395 250.021 607.855 250.015 608.576 250.003L607.82 251.409L603.012 260.901L602.503 262C601.741 261.988 601.231 261.982 600.973 261.982C600.745 261.982 600.209 261.988 599.365 262ZM614.621 262C614.639 261.777 614.648 261.599 614.648 261.464L614.7 260.181C615.433 259.524 616.101 258.892 616.704 258.282C617.314 257.667 617.935 257.011 618.568 256.313C619.2 255.61 619.678 255.045 620 254.617C620.264 254.271 620.44 254.014 620.527 253.844C620.615 253.668 620.674 253.521 620.703 253.404C620.733 253.281 620.747 253.158 620.747 253.035C620.747 252.713 620.651 252.452 620.457 252.253C620.264 252.048 619.997 251.89 619.657 251.778C619.323 251.661 618.934 251.603 618.488 251.603C618.078 251.603 617.633 251.641 617.152 251.717C616.672 251.787 616.054 251.919 615.298 252.112L615.465 251.225C615.5 251.014 615.553 250.659 615.623 250.161C616.977 249.915 618.277 249.792 619.526 249.792C620.094 249.792 620.642 249.848 621.169 249.959C621.696 250.064 622.165 250.249 622.575 250.513C622.991 250.771 623.293 251.072 623.481 251.418C623.674 251.758 623.771 252.115 623.771 252.49C623.771 252.713 623.747 252.936 623.7 253.158C623.659 253.375 623.598 253.574 623.516 253.756C623.358 254.119 623.155 254.485 622.909 254.854C622.669 255.224 622.288 255.716 621.767 256.331C621.251 256.946 620.686 257.576 620.07 258.221C619.461 258.865 618.781 259.542 618.031 260.251H618.831L620.791 260.242C621.442 260.242 621.919 260.236 622.224 260.225C622.528 260.207 622.895 260.178 623.322 260.137C623.311 260.318 623.29 260.556 623.261 260.849C623.237 261.136 623.208 261.52 623.173 262C621.843 261.988 620.46 261.982 619.025 261.982C617.267 261.982 615.799 261.988 614.621 262ZM626.407 262C626.43 261.578 626.462 260.79 626.503 259.636L627.839 259.653C627.956 259.653 628.34 259.647 628.991 259.636C628.961 260.063 628.938 260.494 628.92 260.928L628.868 262L627.716 261.982C627.669 261.982 627.233 261.988 626.407 262ZM636.689 249.792C637.615 249.792 638.406 249.991 639.062 250.39C639.724 250.788 640.237 251.424 640.6 252.297C640.964 253.17 641.145 254.189 641.145 255.355C641.145 256.275 641.034 257.192 640.811 258.106C640.589 259.021 640.281 259.771 639.888 260.356C639.496 260.942 638.957 261.399 638.271 261.728C637.591 262.05 636.862 262.211 636.083 262.211C635.333 262.211 634.662 262.067 634.07 261.78C633.484 261.487 633.007 261.08 632.637 260.559C632.268 260.031 632.01 259.442 631.864 258.792C631.717 258.136 631.644 257.462 631.644 256.771C631.644 255.815 631.756 254.875 631.978 253.949C632.201 253.023 632.52 252.253 632.936 251.638C633.358 251.017 633.903 250.554 634.571 250.249C635.239 249.944 635.945 249.792 636.689 249.792ZM636.619 251.62C636.396 251.62 636.176 251.664 635.96 251.752C635.749 251.84 635.541 251.986 635.336 252.191C635.136 252.391 634.969 252.625 634.835 252.895C634.706 253.164 634.586 253.492 634.474 253.879C634.369 254.26 634.284 254.717 634.219 255.25C634.161 255.777 634.132 256.316 634.132 256.867C634.132 257.664 634.211 258.314 634.369 258.818C634.533 259.316 634.773 259.703 635.09 259.979C635.412 260.254 635.781 260.392 636.197 260.392C636.425 260.392 636.648 260.348 636.865 260.26C637.082 260.166 637.301 259.993 637.524 259.741C637.753 259.489 637.955 259.123 638.131 258.643C638.312 258.156 638.444 257.626 638.526 257.052C638.608 256.472 638.649 255.886 638.649 255.294C638.649 254.479 638.57 253.809 638.412 253.281C638.259 252.754 638.028 252.347 637.717 252.06C637.407 251.767 637.041 251.62 636.619 251.62Z" fill="#07547D"/>
<path d="M607.926 236.209C607.672 232.244 607.418 229.09 607.164 226.746C611.52 228.211 615.455 228.943 618.971 228.943C621.139 228.943 622.887 228.514 624.215 227.654C625.562 226.775 626.236 225.604 626.236 224.139C626.236 222.713 625.553 221.668 624.186 221.004C622.838 220.34 620.729 220.008 617.857 220.008C616.002 220.008 614.303 220.115 612.76 220.33C613.033 217.283 613.258 214.285 613.434 211.336C614.84 211.59 616.314 211.717 617.857 211.717C619.615 211.717 621.07 211.609 622.223 211.395C623.395 211.16 624.283 210.721 624.889 210.076C625.494 209.412 625.797 208.699 625.797 207.938C625.797 207.254 625.553 206.639 625.064 206.092C624.596 205.545 623.883 205.164 622.926 204.949C621.969 204.715 620.777 204.598 619.352 204.598C618.121 204.598 616.812 204.666 615.426 204.803C614.039 204.939 612.154 205.252 609.771 205.74L611.236 198.943C611.354 198.338 611.471 197.693 611.588 197.01C615.826 196.502 619.713 196.248 623.248 196.248C625.553 196.248 627.77 196.404 629.898 196.717C632.027 197.029 633.844 197.605 635.348 198.445C636.871 199.266 637.984 200.34 638.688 201.668C639.41 202.996 639.771 204.49 639.771 206.15C639.771 207.146 639.635 208.104 639.361 209.021C639.107 209.939 638.707 210.799 638.16 211.6C637.613 212.381 636.969 213.074 636.227 213.68C635.484 214.285 634.762 214.773 634.059 215.145C633.355 215.516 632.418 215.936 631.246 216.404C632.477 216.658 633.434 216.922 634.117 217.195C634.82 217.469 635.523 217.869 636.227 218.396C636.93 218.904 637.525 219.51 638.014 220.213C638.502 220.896 638.863 221.668 639.098 222.527C639.332 223.387 639.449 224.305 639.449 225.281C639.449 227.215 639 229.002 638.102 230.643C637.223 232.283 635.914 233.65 634.176 234.744C632.457 235.818 630.475 236.59 628.229 237.059C626.002 237.527 623.756 237.762 621.49 237.762C619.283 237.762 617.174 237.645 615.162 237.41C613.17 237.195 610.758 236.795 607.926 236.209Z" fill="#07547D"/>
<defs>
<linearGradient id="paint0_linear_85_363" x1="583.5" y1="116.5" x2="356.5" y2="146" gradientUnits="userSpaceOnUse">
<stop stop-color="#3BB7F9" stop-opacity="0.03"/>
<stop offset="0.435" stop-color="#2F94C9"/>
<stop offset="1" stop-color="#06547D"/>
</linearGradient>
<linearGradient id="paint1_linear_85_363" x1="329.417" y1="246.211" x2="563.886" y2="248.965" gradientUnits="userSpaceOnUse">
<stop stop-color="#3BB7F9" stop-opacity="0.03"/>
<stop offset="0.435" stop-color="#2F94C9"/>
<stop offset="1" stop-color="#06547D"/>
</linearGradient>
<radialGradient id="paint2_radial_85_363" cx="0" cy="0" r="1" gradientUnits="userSpaceOnUse" gradientTransform="translate(587 138) rotate(90) scale(13)">
<stop offset="0.544" stop-color="#0871BE" stop-opacity="0.44"/>
<stop offset="1" stop-color="#3BB7F9" stop-opacity="0.13"/>
</radialGradient>
</defs>
</svg>
