<svg width="265" height="217" viewBox="0 0 265 217" fill="none" xmlns="http://www.w3.org/2000/svg">
<path d="M208.563 19.5025C203.131 13.2868 195.276 8.31418 192.606 6.65669C183.915 2.51285 168.848 -1.89559 147.494 0.85534C136.136 2.92729 124.961 5.41306 111.717 11.2149C98.4732 17.0167 93.9206 19.5025 82.3316 26.547C70.4653 34.5251 56.628 44.6611 44.2553 55.1397C34.7231 63.2127 26.0604 71.1825 19.8373 80.4169L51.2915 58.0404C58.1485 54.1173 68.2511 47.8889 71.5712 46.0233C76.6675 43.1597 77.3946 42.7575 85.2292 38.5645C93.0638 34.3715 124.588 21.8136 142.527 19.5025C151.124 18.395 157.427 18.2593 165.29 19.0883C173.14 20.257 177.552 20.3113 188.082 25.738C201.711 32.7626 206.678 37.3209 216.61 50.1669C216.61 50.1669 217.26 42.3057 216.61 37.3209C215.963 32.3479 213.995 25.7182 208.563 19.5025Z" fill="url(#paint0_linear_280_1178)" fill-opacity="0.8"/>
<path d="M11.4565 189.287C16.0722 196.374 23.3237 202.549 25.7937 204.615C34.0123 210.07 48.6597 216.713 70.712 217C82.5294 216.535 94.2202 215.625 108.486 211.649C122.752 207.674 127.727 205.809 140.493 200.334C153.674 193.953 169.165 185.667 183.22 176.823C194.048 170.009 203.979 163.174 211.618 154.706L176.501 172.867C168.983 175.858 157.841 180.718 154.206 182.132C148.625 184.302 147.83 184.605 139.282 187.729C130.733 190.852 96.9565 199.045 78.4299 198.804C69.5515 198.688 63.1402 197.918 55.2841 195.944C47.4913 193.627 43.024 192.936 33.1252 185.915C20.3119 176.827 15.9302 171.488 7.70333 157.028C7.70333 157.028 5.91459 164.907 5.85661 170.057C5.79876 175.193 6.84074 182.201 11.4565 189.287Z" fill="url(#paint1_linear_280_1178)" fill-opacity="0.8"/>
<path d="M46.5569 121.721C46.2486 123.239 45.876 125.362 45.4393 128.09C45.0025 130.792 44.707 132.889 44.5528 134.382C39.0544 135.18 34.1469 135.579 29.8303 135.579C25.668 135.579 21.7882 135.064 18.1911 134.035C14.6197 132.98 11.3309 131.268 8.32475 128.901C5.34428 126.507 3.21171 123.702 1.92703 120.486C0.642342 117.269 0 113.666 0 109.677C0 105.019 0.860738 100.837 2.58221 97.1316C4.32938 93.4002 6.82167 90.2992 10.0591 87.8287C13.3222 85.3325 16.8936 83.5568 20.7733 82.5017C24.6531 81.4209 28.6613 80.8805 32.798 80.8805C36.6006 80.8805 41.3026 81.3694 46.9038 82.3473L46.9809 85.5898C47.0323 87.0052 47.1093 88.5621 47.2121 90.2606L47.4819 94.6612C44.4757 93.9406 42.0348 93.4516 40.1592 93.1943C38.3093 92.937 36.5878 92.8083 34.9948 92.8083C31.5261 92.8083 28.4044 93.5031 25.6294 94.8928C22.8545 96.2824 20.6706 98.3026 19.0775 100.953C17.4845 103.604 16.688 106.538 16.688 109.754C16.688 112.688 17.3561 115.21 18.6921 117.32C20.0282 119.405 21.8268 121.026 24.0878 122.184C26.3746 123.316 29.188 123.882 32.5282 123.882C34.3524 123.882 36.3308 123.741 38.4634 123.458C40.6217 123.149 43.3195 122.57 46.5569 121.721Z" fill="black"/>
<path d="M56.2275 134.575L57.191 126.778L59.5805 99.7179L60.7753 81.8841C65.5029 81.9356 69.2157 81.9613 71.9135 81.9613C74.1488 81.9613 77.5661 81.9356 82.1653 81.8841C82.4993 84.0972 82.7819 85.7828 83.0132 86.9409C83.2444 88.0732 83.8097 90.3121 84.7089 93.6575C85.6339 96.9772 86.3662 99.8595 86.9058 102.304C87.471 104.723 88.3061 108.879 89.4109 114.772C90.5414 110.732 91.5692 107.258 92.4941 104.35C93.4191 101.442 94.5753 98.1353 95.9628 94.4296C97.3502 90.7238 98.2238 88.3048 98.5835 87.1725C98.9689 86.0144 99.4828 84.2516 100.125 81.8841C103.979 81.9356 107.756 81.9613 111.456 81.9613C113.974 81.9613 117.468 81.9356 121.939 81.8841C121.451 90.5565 121.13 98.0066 120.976 104.234C120.642 116.432 120.475 124.822 120.475 129.402C120.475 130.355 120.5 132.079 120.552 134.575C117.16 134.524 114.783 134.498 113.422 134.498C111.443 134.498 109.015 134.524 106.137 134.575C106.343 132.259 106.6 126.752 106.908 118.054C107.217 109.33 107.371 103.758 107.371 101.339C107.371 100.284 107.345 98.8172 107.294 96.9386L102.245 112.649L94.9993 134.575C91.6591 134.524 89.3595 134.498 88.1005 134.498C86.5075 134.498 84.0666 134.524 80.7778 134.575L76.0373 113.344L73.2624 102.034C73.1596 101.597 73.044 101.056 72.9156 100.413C72.7871 99.7694 72.5815 98.6371 72.2989 97.0158L71.3354 107.708L70.0636 129.634L69.9479 134.575C66.4022 134.524 64.1412 134.498 63.1648 134.498C61.8287 134.498 59.5163 134.524 56.2275 134.575Z" fill="black"/>
<path d="M132.072 134.575L133.036 126.778L135.425 99.7179L136.62 81.8841C141.348 81.9356 145.06 81.9613 147.758 81.9613C149.993 81.9613 153.411 81.9356 158.01 81.8841C158.344 84.0972 158.627 85.7828 158.858 86.9409C159.089 88.0732 159.654 90.3121 160.554 93.6575C161.479 96.9772 162.211 99.8595 162.75 102.304C163.316 104.723 164.151 108.879 165.256 114.772C166.386 110.732 167.414 107.258 168.339 104.35C169.264 101.442 170.42 98.1353 171.807 94.4296C173.195 90.7238 174.068 88.3048 174.428 87.1725C174.814 86.0144 175.327 84.2516 175.97 81.8841C179.824 81.9356 183.601 81.9613 187.301 81.9613C189.819 81.9613 193.313 81.9356 197.784 81.8841C197.296 90.5565 196.974 98.0066 196.82 104.234C196.486 116.432 196.319 124.822 196.319 129.402C196.319 130.355 196.345 132.079 196.396 134.575C193.005 134.524 190.628 134.498 189.266 134.498C187.288 134.498 184.86 134.524 181.982 134.575C182.188 132.259 182.445 126.752 182.753 118.054C183.061 109.33 183.215 103.758 183.215 101.339C183.215 100.284 183.19 98.8172 183.138 96.9386L178.09 112.649L170.844 134.575C167.504 134.524 165.204 134.498 163.945 134.498C162.352 134.498 159.911 134.524 156.622 134.575L151.882 113.344L149.107 102.034C149.004 101.597 148.889 101.056 148.76 100.413C148.632 99.7694 148.426 98.6371 148.144 97.0158L147.18 107.708L145.908 129.634L145.793 134.575C142.247 134.524 139.986 134.498 139.009 134.498C137.673 134.498 135.361 134.524 132.072 134.575Z" fill="black"/>
<path d="M208.957 134.575C210.448 113.91 211.154 93.027 211.154 81.8841C215.651 81.9356 218.657 81.9613 220.173 81.9613C220.866 81.9613 223.628 81.9356 228.459 81.8841C227.996 87.6743 227.624 93.1557 227.341 98.3283C226.981 105.534 226.725 112.276 226.57 118.555C226.416 124.809 226.339 130.149 226.339 134.575L218.438 134.498C216.897 134.498 213.736 134.524 208.957 134.575Z" fill="black"/>
<path d="M230.942 65.9628C230.942 71.913 226.124 76.7366 220.181 76.7366C214.238 76.7366 209.421 71.913 209.421 65.9628C209.421 60.0125 214.238 55.1889 220.181 55.1889C226.124 55.1889 230.942 60.0125 230.942 65.9628Z" fill="url(#paint2_radial_280_1178)"/>
<path d="M175.21 153.811C175.371 151.319 175.529 148.365 175.683 144.949C175.788 142.464 175.864 139.895 175.913 137.24L177.041 137.252C177.275 137.252 177.635 137.248 178.12 137.24L177.744 144.366L177.477 151.578L177.429 153.811C176.952 153.795 176.596 153.787 176.362 153.787C176.265 153.787 175.881 153.795 175.21 153.811Z" fill="black"/>
<path d="M191.82 151.881C191.723 152.326 191.626 152.893 191.529 153.581C190.753 153.775 190.078 153.904 189.504 153.969C188.938 154.042 188.373 154.078 187.807 154.078C186.796 154.078 185.887 153.957 185.079 153.714C184.278 153.471 183.591 153.051 183.017 152.452C182.443 151.845 182.031 151.153 181.781 150.376C181.53 149.599 181.405 148.777 181.405 147.911C181.405 146.705 181.635 145.589 182.096 144.561C182.557 143.525 183.248 142.711 184.169 142.121C185.099 141.53 186.275 141.234 187.698 141.234C188.433 141.234 189.137 141.344 189.807 141.562C190.478 141.773 191.036 142.096 191.481 142.533C191.925 142.97 192.269 143.513 192.511 144.16C192.754 144.799 192.875 145.5 192.875 146.26C192.875 146.552 192.851 146.835 192.802 147.11H183.551C183.519 147.555 183.502 147.895 183.502 148.13C183.502 148.98 183.68 149.765 184.036 150.485C184.392 151.197 184.917 151.74 185.612 152.112C186.307 152.476 187.108 152.658 188.013 152.658C189.056 152.658 190.325 152.399 191.82 151.881ZM183.648 146.102H190.874C190.866 145.593 190.834 145.196 190.777 144.913C190.721 144.629 190.616 144.338 190.462 144.039C190.309 143.731 190.098 143.468 189.832 143.25C189.573 143.023 189.258 142.853 188.886 142.74C188.522 142.618 188.126 142.558 187.698 142.558C187.237 142.558 186.796 142.622 186.376 142.752C185.964 142.881 185.596 143.059 185.273 143.286C184.957 143.513 184.687 143.78 184.46 144.087C184.242 144.387 184.076 144.678 183.963 144.961C183.858 145.245 183.753 145.625 183.648 146.102Z" fill="black"/>
<path d="M199.228 153.811L198.816 152.585C198.678 152.189 198.355 151.286 197.846 149.878L194.802 141.514C195.295 141.522 195.683 141.526 195.966 141.526C196.273 141.526 196.637 141.522 197.057 141.514L197.312 142.363C197.385 142.606 197.51 142.995 197.688 143.529L200.537 151.99L204.393 142.715L204.854 141.514C205.331 141.522 205.711 141.526 205.994 141.526C206.277 141.526 206.657 141.522 207.133 141.514L205.557 144.901L202.392 151.966L201.616 153.811C201.115 153.795 200.723 153.787 200.44 153.787C200.149 153.787 199.745 153.795 199.228 153.811Z" fill="black"/>
<path d="M219.221 151.881C219.124 152.326 219.027 152.893 218.93 153.581C218.154 153.775 217.479 153.904 216.905 153.969C216.34 154.042 215.774 154.078 215.208 154.078C214.197 154.078 213.288 153.957 212.48 153.714C211.679 153.471 210.992 153.051 210.418 152.452C209.844 151.845 209.432 151.153 209.182 150.376C208.931 149.599 208.806 148.777 208.806 147.911C208.806 146.705 209.036 145.589 209.497 144.561C209.958 143.525 210.649 142.711 211.57 142.121C212.5 141.53 213.676 141.234 215.099 141.234C215.834 141.234 216.538 141.344 217.209 141.562C217.879 141.773 218.437 142.096 218.882 142.533C219.326 142.97 219.67 143.513 219.912 144.16C220.155 144.799 220.276 145.5 220.276 146.26C220.276 146.552 220.252 146.835 220.203 147.11H210.952C210.92 147.555 210.903 147.895 210.903 148.13C210.903 148.98 211.081 149.765 211.437 150.485C211.793 151.197 212.318 151.74 213.013 152.112C213.708 152.476 214.509 152.658 215.414 152.658C216.457 152.658 217.726 152.399 219.221 151.881ZM211.049 146.102H218.276C218.268 145.593 218.235 145.196 218.179 144.913C218.122 144.629 218.017 144.338 217.863 144.039C217.71 143.731 217.5 143.468 217.233 143.25C216.974 143.023 216.659 142.853 216.287 142.74C215.923 142.618 215.527 142.558 215.099 142.558C214.638 142.558 214.197 142.622 213.777 142.752C213.365 142.881 212.997 143.059 212.674 143.286C212.358 143.513 212.088 143.78 211.861 144.087C211.643 144.387 211.477 144.678 211.364 144.961C211.259 145.245 211.154 145.625 211.049 146.102Z" fill="black"/>
<path d="M223.367 153.811C223.529 151.319 223.687 148.365 223.84 144.949C223.945 142.464 224.022 139.895 224.07 137.24L225.198 137.252C225.433 137.252 225.792 137.248 226.277 137.24L225.901 144.366L225.635 151.578L225.586 153.811C225.109 153.795 224.754 153.787 224.519 153.787C224.422 153.787 224.038 153.795 223.367 153.811Z" fill="black"/>
<path d="M206.148 170.387L206.344 167.852L206.49 164.683L206.584 161.529C206.589 161.393 206.591 161.031 206.591 160.444C207.13 160.454 207.637 160.458 208.112 160.458C208.466 160.458 208.932 160.451 209.509 160.437C210.091 160.422 210.593 160.415 211.015 160.415C211.587 160.415 212.116 160.449 212.601 160.517C213.091 160.585 213.517 160.713 213.881 160.903C214.245 161.087 214.56 161.32 214.827 161.602C215.094 161.884 215.312 162.197 215.482 162.542C215.651 162.882 215.78 163.263 215.867 163.685C215.959 164.103 216.005 164.53 216.005 164.967C216.005 165.803 215.86 166.599 215.569 167.356C215.283 168.109 214.854 168.733 214.281 169.228C213.709 169.719 213.074 170.035 212.375 170.175C211.682 170.316 210.893 170.387 210.011 170.387L207.537 170.372C207.382 170.372 206.919 170.377 206.148 170.387ZM208.381 168.835C208.779 168.855 209.172 168.864 209.56 168.864C210.001 168.864 210.408 168.842 210.782 168.799C211.16 168.755 211.485 168.687 211.757 168.595C212.028 168.498 212.3 168.33 212.572 168.092C212.848 167.854 213.074 167.58 213.248 167.269C213.423 166.953 213.556 166.604 213.648 166.22C213.74 165.837 213.787 165.446 213.787 165.047C213.787 164.319 213.663 163.722 213.415 163.256C213.168 162.785 212.841 162.447 212.433 162.243C212.031 162.034 211.408 161.93 210.564 161.93C210.016 161.93 209.387 161.94 208.679 161.959L208.381 168.835Z" fill="black"/>
<path d="M217.976 170.387L218.187 167.597L218.34 164.37L218.435 161.435V160.444C219.633 160.454 220.882 160.458 222.181 160.458L223.578 160.451L225.681 160.444L225.593 162.017L224.902 161.981C224.713 161.971 224.451 161.964 224.117 161.959C223.782 161.954 223.44 161.952 223.091 161.952C222.334 161.952 221.844 161.954 221.621 161.959C221.403 161.959 221.071 161.966 220.625 161.981L220.508 164.567C221.173 164.581 221.842 164.589 222.516 164.589C222.982 164.589 223.767 164.574 224.873 164.545C224.834 164.987 224.8 165.516 224.771 166.133C223.476 166.118 222.734 166.111 222.545 166.111C221.973 166.111 221.26 166.125 220.406 166.155L220.29 168.879L221.09 168.886C221.323 168.886 221.856 168.881 222.691 168.872L224.269 168.842L225.324 168.791C225.276 169.355 225.242 169.886 225.222 170.387C223.961 170.377 222.824 170.372 221.81 170.372L219.417 170.379L217.976 170.387Z" fill="black"/>
<path d="M230.416 170.387L230.14 169.469C230.101 169.347 229.941 168.884 229.66 168.078L228.248 164.057L226.953 160.444C227.453 160.454 227.868 160.458 228.197 160.458C228.401 160.458 228.758 160.454 229.267 160.444L229.492 161.252C229.541 161.418 229.611 161.641 229.703 161.923L231.464 167.262C231.571 167.607 231.709 168.061 231.879 168.624L232.271 167.735C232.368 167.517 232.57 167.089 232.875 166.453L235.167 161.66C235.235 161.52 235.303 161.371 235.371 161.216C235.439 161.056 235.545 160.798 235.691 160.444C236.219 160.454 236.622 160.458 236.898 160.458C237.063 160.458 237.444 160.454 238.041 160.444L237.415 161.609L233.435 169.476L233.014 170.387C232.383 170.377 231.961 170.372 231.748 170.372C231.559 170.372 231.115 170.377 230.416 170.387Z" fill="black"/>
<path d="M243.045 170.387C243.059 170.202 243.067 170.054 243.067 169.942L243.11 168.879C243.717 168.335 244.269 167.811 244.769 167.305C245.273 166.796 245.788 166.252 246.311 165.674C246.835 165.091 247.23 164.623 247.497 164.268C247.715 163.982 247.861 163.768 247.934 163.627C248.006 163.481 248.055 163.36 248.079 163.263C248.103 163.161 248.116 163.059 248.116 162.957C248.116 162.69 248.036 162.474 247.875 162.309C247.715 162.139 247.495 162.008 247.213 161.915C246.937 161.818 246.614 161.77 246.246 161.77C245.906 161.77 245.538 161.801 245.14 161.864C244.742 161.923 244.231 162.032 243.605 162.192L243.743 161.456C243.772 161.282 243.816 160.988 243.874 160.575C244.995 160.371 246.071 160.269 247.104 160.269C247.575 160.269 248.028 160.315 248.465 160.407C248.901 160.495 249.289 160.648 249.629 160.866C249.973 161.08 250.223 161.33 250.378 161.617C250.538 161.898 250.618 162.195 250.618 162.505C250.618 162.69 250.599 162.874 250.56 163.059C250.526 163.239 250.475 163.404 250.407 163.554C250.276 163.855 250.109 164.159 249.905 164.465C249.706 164.771 249.391 165.179 248.959 165.688C248.533 166.198 248.065 166.72 247.555 167.254C247.051 167.789 246.488 168.35 245.868 168.937H246.53L248.152 168.93C248.69 168.93 249.086 168.925 249.338 168.915C249.59 168.901 249.893 168.876 250.247 168.842C250.237 168.993 250.221 169.19 250.196 169.432C250.177 169.67 250.153 169.988 250.124 170.387C249.023 170.377 247.878 170.372 246.69 170.372C245.235 170.372 244.02 170.377 243.045 170.387Z" fill="black"/>
<path d="M252.8 170.387C252.82 170.037 252.846 169.384 252.88 168.427L253.986 168.442C254.083 168.442 254.401 168.437 254.939 168.427C254.915 168.782 254.895 169.139 254.881 169.498L254.837 170.387L253.884 170.372C253.845 170.372 253.484 170.377 252.8 170.387Z" fill="black"/>
<path d="M261.311 160.269C262.078 160.269 262.733 160.434 263.276 160.764C263.824 161.095 264.248 161.621 264.549 162.345C264.85 163.069 265 163.914 265 164.88C265 165.642 264.908 166.402 264.724 167.16C264.539 167.917 264.285 168.539 263.96 169.025C263.635 169.51 263.189 169.889 262.621 170.161C262.058 170.428 261.455 170.561 260.81 170.561C260.189 170.561 259.633 170.442 259.144 170.205C258.659 169.962 258.263 169.624 257.958 169.192C257.652 168.755 257.439 168.267 257.317 167.728C257.196 167.184 257.136 166.626 257.136 166.053C257.136 165.261 257.228 164.482 257.412 163.714C257.596 162.947 257.861 162.309 258.205 161.799C258.554 161.284 259.005 160.9 259.558 160.648C260.111 160.395 260.696 160.269 261.311 160.269ZM261.253 161.784C261.069 161.784 260.887 161.821 260.708 161.893C260.533 161.966 260.361 162.088 260.191 162.258C260.026 162.423 259.888 162.617 259.776 162.84C259.67 163.064 259.57 163.336 259.478 163.656C259.391 163.972 259.321 164.351 259.267 164.792C259.219 165.23 259.194 165.676 259.194 166.133C259.194 166.793 259.26 167.332 259.391 167.75C259.527 168.163 259.726 168.483 259.987 168.711C260.254 168.94 260.56 169.054 260.904 169.054C261.093 169.054 261.278 169.017 261.457 168.944C261.636 168.867 261.818 168.723 262.003 168.515C262.192 168.306 262.359 168.002 262.505 167.604C262.655 167.201 262.764 166.762 262.832 166.286C262.9 165.805 262.934 165.319 262.934 164.829C262.934 164.154 262.868 163.598 262.737 163.161C262.611 162.724 262.42 162.386 262.163 162.148C261.906 161.906 261.603 161.784 261.253 161.784Z" fill="black"/>
<path d="M237.503 149.012C237.292 145.726 237.082 143.112 236.872 141.17C240.477 142.384 243.735 142.991 246.645 142.991C248.44 142.991 249.887 142.634 250.986 141.922C252.101 141.194 252.659 140.223 252.659 139.009C252.659 137.827 252.093 136.961 250.962 136.411C249.846 135.86 248.1 135.585 245.724 135.585C244.188 135.585 242.781 135.674 241.504 135.852C241.73 133.327 241.916 130.842 242.062 128.398C243.226 128.609 244.446 128.714 245.724 128.714C247.179 128.714 248.383 128.625 249.337 128.447C250.307 128.253 251.043 127.888 251.544 127.354C252.045 126.804 252.295 126.213 252.295 125.582C252.295 125.015 252.093 124.505 251.689 124.052C251.301 123.599 250.711 123.283 249.919 123.105C249.127 122.911 248.141 122.814 246.96 122.814C245.942 122.814 244.859 122.87 243.711 122.984C242.563 123.097 241.003 123.356 239.03 123.761L240.243 118.128C240.34 117.626 240.437 117.092 240.534 116.525C244.042 116.104 247.259 115.894 250.186 115.894C252.093 115.894 253.928 116.023 255.691 116.282C257.453 116.541 258.956 117.019 260.201 117.715C261.462 118.395 262.384 119.285 262.966 120.386C263.564 121.486 263.863 122.725 263.863 124.101C263.863 124.926 263.75 125.719 263.523 126.48C263.313 127.241 262.982 127.953 262.529 128.617C262.076 129.264 261.543 129.839 260.929 130.341C260.314 130.842 259.716 131.247 259.134 131.555C258.552 131.862 257.776 132.21 256.806 132.599C257.825 132.809 258.617 133.028 259.183 133.254C259.765 133.481 260.347 133.813 260.929 134.25C261.511 134.671 262.004 135.172 262.408 135.755C262.812 136.322 263.111 136.961 263.305 137.673C263.499 138.385 263.596 139.146 263.596 139.956C263.596 141.558 263.224 143.039 262.481 144.399C261.753 145.758 260.67 146.892 259.231 147.798C257.808 148.688 256.167 149.328 254.308 149.716C252.465 150.105 250.606 150.299 248.731 150.299C246.904 150.299 245.158 150.202 243.493 150.008C241.844 149.829 239.847 149.498 237.503 149.012Z" fill="#07547D"/>
<defs>
<linearGradient id="paint0_linear_280_1178" x1="265.51" y1="19.9755" x2="149.534" y2="269.09" gradientUnits="userSpaceOnUse">
<stop stop-color="#3BB7F9" stop-opacity="0.03"/>
<stop offset="0.435" stop-color="#2F94C9"/>
<stop offset="1" stop-color="#06547D"/>
</linearGradient>
<linearGradient id="paint1_linear_280_1178" x1="265.51" y1="19.9755" x2="149.534" y2="269.09" gradientUnits="userSpaceOnUse">
<stop stop-color="#3BB7F9" stop-opacity="0.03"/>
<stop offset="0.435" stop-color="#2F94C9"/>
<stop offset="1" stop-color="#06547D"/>
</linearGradient>
<radialGradient id="paint2_radial_280_1178" cx="0" cy="0" r="1" gradientUnits="userSpaceOnUse" gradientTransform="translate(132.5 108.5) rotate(90) scale(108.5 132.5)">
<stop offset="0.544" stop-color="#0871BE" stop-opacity="0.44"/>
<stop offset="1" stop-color="#3BB7F9" stop-opacity="0.13"/>
</radialGradient>
</defs>
</svg>
