<svg width="334" height="243" viewBox="0 0 334 243" fill="none" xmlns="http://www.w3.org/2000/svg">
<rect width="334" height="243" rx="25" fill="white"/>
<path d="M150.07 96.8066C147.163 99.2386 138.157 100.949 129.702 122.286L117.257 111.095C111.513 114.01 107.062 118.962 104.774 124.984L123.489 141.801C125.657 143.742 128.507 144.744 131.412 144.587C134.318 144.431 137.043 143.128 138.989 140.965L146.744 132.332L143.663 152.764L131.047 166.824C134.213 172.382 139.092 176.767 144.955 179.324L158.312 164.466C160.29 162.267 161.687 159.609 162.378 156.733C165.285 144.533 164.297 123.008 166.178 104.464C158.639 103.058 155.846 101.348 150.07 96.8066Z" fill="#D9EFFE"/>
<path d="M253.039 97.6616L231.379 120.519L239.967 82.7086L261.627 59.8516L253.039 97.6616Z" fill="#38A1FF"/>
<path d="M184.368 89.2815C184.083 89.0915 183.589 89.2625 182.943 89.7185L184.443 90.9535C184.691 90.0795 184.691 89.4715 184.368 89.2815Z" fill="#E9E9E9"/>
<path d="M170.954 100.966C170.554 101.992 170.607 102.854 170.916 103.056C171.225 103.258 172.116 103.056 172.716 102.277L170.954 100.966Z" fill="#E9E9E9"/>
<path d="M179.603 90.1179C179.318 89.9279 178.824 90.099 178.178 90.555L179.678 91.79C179.923 90.935 179.903 90.3269 179.603 90.1179Z" fill="#E9E9E9"/>
<path d="M135.158 162.146L130.958 166.82C134.124 172.378 139.003 176.763 144.866 179.32L149.255 174.437C143.484 171.762 138.594 167.499 135.158 162.146Z" fill="#E9E9E9"/>
<path d="M159.327 93.2329L166.357 104.158L168.219 100.776L159.327 93.2329Z" fill="#E9E9E9"/>
<path d="M166.528 65.6851L167.497 67.7751L168.029 66.3501L166.528 65.6851Z" fill="#E9E9E9"/>
<path d="M161.493 115.92L146.73 132.336L145.229 142.406L161.493 115.92Z" fill="#E9E9E9"/>
<path d="M125.622 179.056C124.387 180.386 123.114 181.716 121.803 183.084C120.758 189.259 121.252 203.433 123.247 210.026C128.547 201.21 130.467 195.626 133.147 186.542C130.26 184.459 127.72 181.932 125.622 179.056Z" fill="#38A1FF"/>
<path d="M104.703 106.193C103.791 105.281 102.745 104.16 101.358 102.659C90.6025 104.179 78.7665 107.77 73.7505 110.145C81.4011 113.038 89.5963 114.206 97.7505 113.565L98.1685 113.945C99.9619 111.06 102.163 108.449 104.703 106.193Z" fill="#38A1FF"/>
<path d="M121.365 114.684L117.265 110.984C111.525 113.905 107.076 118.855 104.782 124.873L108.943 128.616C111.822 122.984 116.099 118.187 121.365 114.684Z" fill="#E9E9E9"/>
<path d="M174.888 53.3151C174.969 52.8548 174.883 52.3807 174.646 51.9777C174.41 51.5747 174.037 51.269 173.596 51.1151C173.88 50.8526 174.081 50.5128 174.175 50.1374C174.269 49.7621 174.251 49.3676 174.123 49.0023C173.996 48.6371 173.764 48.317 173.458 48.0814C173.151 47.8458 172.782 47.7049 172.396 47.6761C172.553 47.3412 172.615 46.9692 172.573 46.6015C172.532 46.2338 172.389 45.8848 172.161 45.5934C171.933 45.302 171.629 45.0795 171.282 44.9508C170.935 44.822 170.559 44.792 170.196 44.8641C170.243 44.4954 170.185 44.1209 170.029 43.7834C169.873 43.4459 169.626 43.1589 169.315 42.955C169.004 42.7511 168.642 42.6386 168.271 42.6301C167.899 42.6216 167.533 42.7176 167.213 42.9071C167.145 42.5284 166.97 42.1772 166.708 41.8957C166.446 41.6142 166.108 41.4144 165.735 41.3201C165.362 41.2258 164.969 41.2412 164.605 41.3643C164.24 41.4874 163.919 41.713 163.679 42.0141C163.498 41.6514 163.215 41.3493 162.865 41.1447C162.515 40.9401 162.113 40.8419 161.708 40.862C161.303 40.8822 160.912 41.0198 160.584 41.2582C160.256 41.4965 160.005 41.8252 159.86 42.2041C159.631 41.9621 159.344 41.7817 159.026 41.6796C158.709 41.5776 158.371 41.557 158.043 41.62C157.715 41.683 157.409 41.8273 157.152 42.0399C156.894 42.2524 156.695 42.5262 156.571 42.8361C156.604 42.361 156.5 41.8865 156.272 41.4684C156.045 41.0502 155.702 40.7059 155.285 40.4758C154.868 40.2458 154.394 40.1396 153.919 40.1697C153.444 40.1999 152.987 40.3652 152.602 40.6461C152.392 40.1602 152.038 39.7501 151.588 39.4707C151.138 39.1914 150.614 39.0561 150.085 39.0829C149.556 39.1098 149.048 39.2975 148.628 39.621C148.209 39.9445 147.899 40.3883 147.738 40.8931C147.303 40.6301 146.798 40.5066 146.291 40.5393C145.784 40.572 145.299 40.7593 144.902 41.0759C144.504 41.3926 144.213 41.8235 144.068 42.3106C143.923 42.7976 143.93 43.3175 144.089 43.8001C143.581 43.8577 143.102 44.0707 142.719 44.4102C142.335 44.7496 142.066 45.1989 141.947 45.697C141.829 46.195 141.866 46.7175 142.055 47.1934C142.244 47.6692 142.575 48.0752 143.003 48.3561C142.603 48.6807 142.312 49.1216 142.173 49.6181C142.033 50.1146 142.051 50.6422 142.224 51.128C142.397 51.6139 142.717 52.034 143.139 52.3305C143.561 52.627 144.065 52.7851 144.58 52.7831C144.477 53.2785 144.527 53.7937 144.724 54.2597C144.922 54.7258 145.256 55.1205 145.684 55.3911C146.112 55.6618 146.612 55.7954 147.117 55.7741C147.623 55.7528 148.11 55.5777 148.513 55.2721C148.673 55.682 148.942 56.0403 149.29 56.3086C149.639 56.5768 150.054 56.7447 150.491 56.7941C150.411 57.0778 150.395 57.3759 150.444 57.6666C150.493 57.9574 150.606 58.2336 150.775 58.4752C150.944 58.7169 151.164 58.918 151.421 59.064C151.677 59.2099 151.962 59.2971 152.256 59.3191C152.098 59.6551 152.036 60.0288 152.079 60.398C152.122 60.7671 152.267 61.1169 152.498 61.4076C152.73 61.6984 153.038 61.9185 153.388 62.043C153.738 62.1675 154.116 62.1915 154.479 62.1121C154.436 62.4815 154.497 62.8558 154.655 63.1923C154.813 63.5289 155.063 63.8143 155.375 64.0161C155.688 64.218 156.051 64.3281 156.422 64.3342C156.794 64.3402 157.161 64.2418 157.479 64.0501C157.547 64.4292 157.723 64.7805 157.987 65.0616C158.25 65.3427 158.589 65.5415 158.963 65.6339C159.337 65.7264 159.729 65.7085 160.093 65.5826C160.457 65.4566 160.777 65.2279 161.013 64.9241C161.253 65.2677 161.564 65.5557 161.924 65.7688C162.285 65.9818 162.687 66.115 163.103 66.1591C163.74 65.0093 164.171 63.7572 164.376 62.4591C164.588 61.1374 164.341 59.7831 163.676 58.6211C160.845 57.6901 162.118 54.3651 164.037 55.6571C164.949 56.2841 165.295 56.2441 165.367 55.6381C165.373 55.463 165.425 55.2927 165.52 55.1451C165.614 54.9975 165.747 54.8783 165.903 54.8001C166.072 55.1565 166.343 55.4549 166.681 55.6579C167.018 55.861 167.409 55.9595 167.803 55.9413C168.197 55.923 168.577 55.7887 168.894 55.5552C169.212 55.3218 169.454 54.9996 169.589 54.6291C169.773 54.8235 169.994 54.979 170.239 55.0864C170.484 55.1939 170.748 55.251 171.015 55.2546C171.283 55.2581 171.548 55.208 171.796 55.107C172.044 55.0061 172.269 54.8566 172.458 54.6671C172.928 55.7745 173.285 56.9268 173.522 58.1061C173.807 57.9454 174.049 57.7171 174.225 57.4412C174.402 57.1653 174.508 56.8503 174.534 56.5239C174.56 56.1974 174.506 55.8695 174.376 55.569C174.246 55.2684 174.044 55.0044 173.788 54.8001C174.074 54.655 174.322 54.4453 174.513 54.1875C174.704 53.9298 174.833 53.6311 174.888 53.3151Z" fill="#38A1FF"/>
<path d="M216.384 47.881C216.256 47.1107 215.903 46.3956 215.369 45.8261C214.834 45.2566 214.143 44.8583 213.383 44.6816C212.622 44.5049 211.826 44.5576 211.096 44.8332C210.365 45.1088 209.733 45.5948 209.278 46.2299C208.824 46.8649 208.568 47.6204 208.543 48.4008C208.518 49.1812 208.725 49.9515 209.138 50.6143C209.551 51.2771 210.151 51.8026 210.862 52.1243C211.574 52.4461 212.365 52.5497 213.135 52.422C214.167 52.2494 215.089 51.6745 215.698 50.8232C216.307 49.9719 216.554 48.9138 216.384 47.881Z" fill="#E9E9E9"/>
<path d="M98.4325 136.459L89.5215 139.327L93.2035 161.064L98.4325 136.459Z" fill="#0886E3"/>
<path d="M214.123 108.402L214.117 108.384L214.123 108.402Z" fill="#E9E9E9"/>
<path d="M222.178 98.8777L217.067 103.571C218.86 103.95 220.602 104.543 222.254 105.338C222.954 105.636 223.597 106.054 224.154 106.573C224.933 107.466 220.754 106.193 218.701 105.965H218.682C219.097 106.183 219.475 106.465 219.803 106.801C220.477 107.572 215.322 105.827 214.863 106.155C216.839 107.048 219.898 108.739 220.639 110.055C221.513 111.632 217.029 108.496 214.122 108.401C215.965 109.256 217.979 110.454 218.701 111.784C219.689 113.584 216.117 110.284 211.861 110.15H211.842C215.908 112.62 217.808 114.65 212.032 112.145C210.973 111.671 209.843 111.376 208.688 111.271L197.079 121.887L231.355 120.557L236.39 98.3647L222.178 98.8777Z" fill="#38A1FF"/>
<path d="M253.038 97.6616L231.378 120.519L239.966 82.7086L261.626 59.8516L253.038 97.6616Z" stroke="black" stroke-width="0.564931" stroke-linejoin="round"/>
<path d="M222.179 98.8777L217.068 103.571C218.861 103.95 220.603 104.543 222.255 105.338C222.955 105.636 223.598 106.054 224.155 106.573C224.934 107.466 220.755 106.193 218.702 105.965H218.683C219.098 106.183 219.476 106.465 219.804 106.801C220.478 107.572 215.323 105.827 214.864 106.155C216.84 107.048 219.899 108.739 220.64 110.055C221.514 111.632 217.03 108.496 214.123 108.401C215.966 109.256 217.98 110.454 218.702 111.784C219.69 113.584 216.118 110.284 211.862 110.15H211.843C215.909 112.62 217.809 114.65 212.033 112.145C210.974 111.671 209.844 111.376 208.689 111.271L197.08 121.887L231.356 120.557L236.391 98.3647L222.179 98.8777Z" stroke="black" stroke-width="0.564931" stroke-linejoin="round"/>
<path d="M174.886 53.3137C174.967 52.8534 174.881 52.3793 174.644 51.9763C174.408 51.5733 174.035 51.2676 173.594 51.1137C173.878 50.8512 174.079 50.5114 174.173 50.136C174.267 49.7607 174.249 49.3662 174.121 49.0009C173.994 48.6357 173.762 48.3156 173.456 48.08C173.149 47.8444 172.78 47.7035 172.394 47.6747C172.551 47.3398 172.613 46.9678 172.571 46.6001C172.53 46.2324 172.387 45.8834 172.159 45.592C171.931 45.3006 171.627 45.0781 171.28 44.9494C170.933 44.8206 170.557 44.7906 170.194 44.8627C170.241 44.494 170.183 44.1195 170.027 43.782C169.871 43.4445 169.624 43.1575 169.313 42.9536C169.002 42.7497 168.64 42.6372 168.269 42.6287C167.897 42.6202 167.531 42.7162 167.211 42.9057C167.143 42.527 166.968 42.1758 166.705 41.8943C166.443 41.6128 166.105 41.413 165.732 41.3187C165.359 41.2244 164.967 41.2398 164.602 41.3629C164.238 41.486 163.916 41.7116 163.677 42.0127C163.496 41.65 163.213 41.3479 162.863 41.1433C162.512 40.9387 162.11 40.8405 161.705 40.8606C161.3 40.8808 160.91 41.0184 160.582 41.2568C160.254 41.4951 160.002 41.8238 159.858 42.2027C159.628 41.9607 159.341 41.7803 159.024 41.6782C158.706 41.5762 158.368 41.5556 158.04 41.6186C157.713 41.6816 157.406 41.8259 157.149 42.0385C156.892 42.251 156.692 42.5248 156.569 42.8347C156.602 42.3596 156.498 41.8851 156.27 41.467C156.042 41.0488 155.699 40.7045 155.283 40.4744C154.866 40.2444 154.392 40.1382 153.916 40.1683C153.441 40.1985 152.984 40.3638 152.6 40.6447C152.389 40.1588 152.035 39.7487 151.586 39.4693C151.136 39.19 150.611 39.0547 150.082 39.0815C149.553 39.1084 149.045 39.2961 148.626 39.6196C148.207 39.9431 147.896 40.3869 147.736 40.8917C147.301 40.6287 146.796 40.5052 146.289 40.5379C145.782 40.5706 145.297 40.7579 144.899 41.0745C144.502 41.3912 144.211 41.8221 144.065 42.3092C143.92 42.7962 143.928 43.3161 144.087 43.7987C143.578 43.8563 143.1 44.0693 142.716 44.4088C142.333 44.7482 142.064 45.1975 141.945 45.6956C141.826 46.1936 141.864 46.7161 142.053 47.192C142.242 47.6678 142.573 48.0738 143.001 48.3547C142.6 48.6793 142.31 49.1202 142.17 49.6167C142.031 50.1132 142.049 50.6408 142.222 51.1266C142.395 51.6125 142.714 52.0326 143.136 52.3291C143.558 52.6256 144.062 52.7837 144.578 52.7817C144.474 53.2771 144.525 53.7923 144.722 54.2583C144.919 54.7244 145.254 55.1191 145.681 55.3897C146.109 55.6604 146.609 55.794 147.115 55.7727C147.62 55.7514 148.107 55.5763 148.511 55.2707C148.671 55.6806 148.939 56.0389 149.288 56.3072C149.637 56.5754 150.052 56.7433 150.489 56.7927C150.409 57.0764 150.392 57.3745 150.441 57.6652C150.49 57.956 150.604 58.2322 150.773 58.4738C150.941 58.7155 151.162 58.9166 151.418 59.0626C151.674 59.2085 151.96 59.2957 152.254 59.3177C152.095 59.6537 152.034 60.0274 152.076 60.3966C152.119 60.7657 152.264 61.1155 152.496 61.4062C152.727 61.697 153.036 61.9171 153.386 62.0416C153.736 62.1661 154.114 62.1901 154.477 62.1107C154.433 62.4801 154.494 62.8544 154.652 63.1909C154.811 63.5275 155.06 63.8129 155.373 64.0147C155.685 64.2166 156.048 64.3267 156.42 64.3328C156.792 64.3388 157.158 64.2404 157.477 64.0487C157.545 64.4278 157.721 64.7791 157.984 65.0602C158.247 65.3413 158.586 65.5401 158.96 65.6325C159.334 65.725 159.727 65.7071 160.091 65.5812C160.455 65.4552 160.774 65.2265 161.011 64.9227C161.25 65.2663 161.561 65.5543 161.922 65.7674C162.282 65.9804 162.684 66.1136 163.101 66.1577C163.737 65.0079 164.168 63.7558 164.374 62.4577C164.585 61.136 164.338 59.7817 163.674 58.6197C160.843 57.6887 162.116 54.3637 164.035 55.6557C164.947 56.2827 165.293 56.2427 165.365 55.6367C165.37 55.4616 165.423 55.2913 165.517 55.1437C165.612 54.9961 165.744 54.8769 165.901 54.7987C166.07 55.1551 166.34 55.4535 166.678 55.6565C167.016 55.8596 167.407 55.9581 167.801 55.9399C168.195 55.9216 168.575 55.7873 168.892 55.5538C169.21 55.3204 169.452 54.9982 169.587 54.6277C169.771 54.8221 169.992 54.9776 170.237 55.085C170.482 55.1925 170.746 55.2496 171.013 55.2532C171.281 55.2567 171.546 55.2066 171.794 55.1056C172.042 55.0047 172.267 54.8552 172.456 54.6657C172.926 55.7731 173.283 56.9254 173.52 58.1047C173.805 57.944 174.047 57.7157 174.223 57.4398C174.4 57.1639 174.506 56.8489 174.532 56.5225C174.558 56.196 174.504 55.8681 174.374 55.5676C174.244 55.267 174.042 55.003 173.786 54.7987C174.072 54.6536 174.32 54.4439 174.511 54.1861C174.702 53.9284 174.831 53.6297 174.886 53.3137Z" stroke="black" stroke-width="0.564931" stroke-linejoin="round"/>
<path d="M173.159 65.0746L229.874 55.5366" stroke="black" stroke-width="0.564931" stroke-linecap="round" stroke-linejoin="round"/>
<path d="M80.0962 80.6942L162.746 66.8242" stroke="black" stroke-width="0.564931" stroke-linecap="round" stroke-linejoin="round"/>
<path d="M167.382 74.0073L184.387 89.2833" stroke="black" stroke-width="0.564931" stroke-linecap="round" stroke-linejoin="round"/>
<path d="M184.463 90.9539C184.691 90.0989 184.692 89.4889 184.387 89.2819C184.103 89.0899 183.587 89.2599 182.943 89.7189C181.978 90.4808 181.105 91.3535 180.343 92.3189" stroke="black" stroke-width="0.564931" stroke-linecap="round" stroke-linejoin="round"/>
<path d="M113.403 113.468C106.981 108.357 106.449 108.205 101.357 102.638C90.603 104.158 78.767 107.749 73.751 110.124C81.4073 113.017 89.6075 114.184 97.767 113.544L106.488 121.391" stroke="black" stroke-width="0.564931" stroke-linecap="round" stroke-linejoin="round"/>
<path d="M161.702 74.0435L179.619 90.1175" stroke="black" stroke-width="0.564931" stroke-linecap="round" stroke-linejoin="round"/>
<path d="M170.916 103.056L159.326 93.2329L166.345 104.155" stroke="black" stroke-width="0.564931" stroke-linecap="round" stroke-linejoin="round"/>
<path d="M212.279 105.2C212.979 105.352 219.389 107.592 220.734 109.988C221.634 111.583 217.086 108.411 214.141 108.316" stroke="black" stroke-width="0.564931" stroke-linecap="round" stroke-linejoin="round"/>
<path d="M211.651 107.293C213.437 107.939 217.67 109.727 218.776 111.739C219.776 113.565 216.176 110.219 211.86 110.086" stroke="black" stroke-width="0.564931" stroke-linecap="round" stroke-linejoin="round"/>
<path d="M211.158 109.687C215.68 112.328 218.172 114.773 212.032 112.119C208.86 110.748 185.732 110.048 185.732 110.048C183.702 109.838 181.764 109.097 180.112 107.899L170.954 100.945" stroke="black" stroke-width="0.564931" stroke-linecap="round" stroke-linejoin="round"/>
<path d="M178.173 90.5542L187.483 98.8192C187.483 98.8192 210.815 103.189 212.601 103.699C214.387 104.209 218.664 105.293 219.916 106.72C220.582 107.479 216.916 106.169 214.691 106.055" stroke="black" stroke-width="0.564931" stroke-linecap="round" stroke-linejoin="round"/>
<path d="M179.695 91.7897C179.923 90.9347 179.924 90.3247 179.619 90.1177C179.335 89.9257 178.819 90.0967 178.175 90.5547C175.546 92.4257 171.639 98.2257 170.822 101.404C170.622 102.184 170.658 102.887 170.917 103.057C171.217 103.257 172.076 103.019 172.717 102.297" stroke="black" stroke-width="0.564931" stroke-linecap="round" stroke-linejoin="round"/>
<path d="M141.884 109.251C146.471 109.444 150.983 108.041 154.652 105.28" stroke="black" stroke-width="0.564931" stroke-linecap="round" stroke-linejoin="round"/>
<path d="M166.187 104.443L168.22 100.776" stroke="black" stroke-width="0.564931" stroke-linecap="round" stroke-linejoin="round"/>
<path d="M167.079 72.199C165.825 74.023 163.526 73.225 160.353 70.166" stroke="black" stroke-width="0.564931" stroke-linecap="round" stroke-linejoin="round"/>
<path d="M146.727 132.357L161.493 115.92L145.229 142.406" stroke="black" stroke-width="0.564931" stroke-linecap="round" stroke-linejoin="round"/>
<path d="M123.493 141.779C124.566 142.742 125.818 143.485 127.177 143.964C128.537 144.443 129.977 144.65 131.417 144.572C132.856 144.495 134.266 144.134 135.566 143.512C136.866 142.889 138.031 142.016 138.993 140.943L146.723 132.357L143.667 152.757L131.051 166.817C134.217 172.375 139.096 176.76 144.959 179.317L158.316 164.44C160.294 162.241 161.691 159.583 162.382 156.707C165.29 144.507 164.301 122.963 166.182 104.438C158.62 103.032 155.827 101.322 150.07 96.7808C146.35 99.4998 138.047 101.518 129.703 122.266L117.261 111.075C111.521 113.995 107.072 118.946 104.778 124.964L123.493 141.779Z" stroke="black" stroke-width="0.564931" stroke-linecap="round" stroke-linejoin="round"/>
<path d="M168.001 66.3186C167.498 66.131 167.007 65.9126 166.531 65.6646L167.496 67.7645" stroke="black" stroke-width="0.564931" stroke-linecap="round" stroke-linejoin="round"/>
<path d="M150.067 96.7677C150.876 94.227 151.423 91.6105 151.701 88.9587C152.185 84.8789 153.369 80.9131 155.201 77.2357C156.991 73.4747 161.101 70.0067 163.201 66.0067C163.831 64.9078 164.23 63.6926 164.376 62.4347C164.588 61.113 164.341 59.7586 163.676 58.5967C160.845 57.6657 162.124 54.3327 164.037 55.6327C164.952 56.2557 165.31 56.2217 165.367 55.6137C165.419 55.294 165.483 54.9898 165.559 54.7017M168.787 80.4087C167.387 76.3687 166.225 70.1917 167.996 66.3187C175.19 68.9577 174.581 59.6307 172.473 54.7017L168.787 80.4087Z" stroke="black" stroke-width="0.564931" stroke-linecap="round" stroke-linejoin="round"/>
<path d="M135.254 162.146C138.69 167.5 143.581 171.764 149.354 174.439" stroke="black" stroke-width="0.564931" stroke-linecap="round" stroke-linejoin="round"/>
<path d="M108.918 128.631C112.11 122.831 116.1 118.067 121.344 114.761" stroke="black" stroke-width="0.564931" stroke-linecap="round" stroke-linejoin="round"/>
<path d="M133.315 170.259C129.301 175.159 125.71 179.005 121.801 183.084C120.756 189.259 121.25 203.433 123.245 210.026C128.545 201.21 130.465 195.605 133.145 186.526L141.277 177.482" stroke="black" stroke-width="0.564931" stroke-linecap="round" stroke-linejoin="round"/>
<path d="M98.1841 113.926C99.9777 111.046 102.179 108.442 104.72 106.193" stroke="black" stroke-width="0.564931" stroke-linecap="round" stroke-linejoin="round"/>
<path d="M218.778 105.888C220.849 106.097 225.063 107.388 224.288 106.496C223.725 105.971 223.076 105.547 222.369 105.242C219.689 103.932 217.125 103.513 214.275 102.734L192.175 97.376L182.953 89.71" stroke="black" stroke-width="0.564931" stroke-linecap="round" stroke-linejoin="round"/>
<path d="M148.097 108.509L131.054 133.551L114.581 120.498" stroke="black" stroke-width="0.564931" stroke-linecap="round" stroke-linejoin="round"/>
<path d="M194.685 51.4899C194.813 52.2602 194.709 53.0511 194.387 53.7626C194.066 54.474 193.54 55.0741 192.877 55.4869C192.215 55.8997 191.444 56.1067 190.664 56.0817C189.883 56.0567 189.128 55.8009 188.493 55.3465C187.858 54.8922 187.372 54.2597 187.096 53.5291C186.821 52.7986 186.768 52.0027 186.945 51.2421C187.121 50.4816 187.52 49.7905 188.089 49.2563C188.659 48.7221 189.374 48.3687 190.144 48.2409C191.177 48.0701 192.236 48.3164 193.087 48.9256C193.938 49.5348 194.513 50.4571 194.685 51.4899Z" stroke="black" stroke-width="0.564931" stroke-linecap="round" stroke-linejoin="round"/>
<path d="M205.439 49.7038C205.567 50.4741 205.463 51.265 205.141 51.9765C204.82 52.6879 204.294 53.288 203.631 53.7008C202.969 54.1136 202.198 54.3206 201.418 54.2956C200.637 54.2706 199.882 54.0147 199.247 53.5604C198.612 53.1061 198.126 52.4736 197.85 51.743C197.575 51.0125 197.522 50.2166 197.699 49.456C197.875 48.6955 198.274 48.0044 198.843 47.4702C199.413 46.936 200.128 46.5826 200.898 46.4548C201.931 46.284 202.989 46.5302 203.841 47.1395C204.692 47.7487 205.267 48.671 205.439 49.7038Z" stroke="black" stroke-width="0.564931" stroke-linecap="round" stroke-linejoin="round"/>
<path d="M216.384 47.8802C216.512 48.6505 216.408 49.4414 216.086 50.1529C215.765 50.8643 215.239 51.4644 214.576 51.8772C213.914 52.29 213.143 52.4969 212.363 52.472C211.582 52.447 210.827 52.1911 210.192 51.7368C209.557 51.2824 209.071 50.65 208.795 49.9194C208.52 49.1889 208.467 48.393 208.644 47.6324C208.82 46.8718 209.219 46.1808 209.788 45.6466C210.358 45.1124 211.073 44.759 211.843 44.6312C212.876 44.4601 213.935 44.7063 214.786 45.3155C215.638 45.9248 216.213 46.8473 216.384 47.8802Z" stroke="black" stroke-width="0.564931" stroke-linecap="round" stroke-linejoin="round"/>
<path d="M103.295 33.9727L96.0366 44.1947" stroke="black" stroke-width="0.564931" stroke-linecap="round" stroke-linejoin="round"/>
<path d="M104.777 42.7116L94.5737 35.4536" stroke="black" stroke-width="0.564931" stroke-linecap="round" stroke-linejoin="round"/>
<path d="M74.4724 144.154L74.2444 144.23L81.2554 150.443L72.0024 160.608L76.9614 165.035L86.2144 154.851L93.2054 161.065L98.4314 136.46L74.4724 144.154Z" fill="#0886E3" stroke="black" stroke-width="0.564931" stroke-linecap="round" stroke-linejoin="round"/>
<path d="M196.833 158.177L182.127 153.617L194.496 145.029" stroke="black" stroke-width="0.564931" stroke-linecap="round" stroke-linejoin="round"/>
<path d="M208.917 156.237L221.191 147.155L206.58 143.07" stroke="black" stroke-width="0.564931" stroke-linecap="round" stroke-linejoin="round"/>
<path d="M204.318 137.655L198.941 163.837" stroke="black" stroke-width="0.564931" stroke-linecap="round" stroke-linejoin="round"/>
<path d="M85.3633 113.118L95.2198 173.889C95.572 175.962 96.3292 177.945 97.4481 179.724C98.5671 181.504 100.026 183.046 101.741 184.262C103.456 185.477 105.394 186.343 107.444 186.81C109.494 187.276 111.615 187.334 113.688 186.98L121.59 185.651" stroke="black" stroke-width="0.564931" stroke-linecap="round" stroke-linejoin="round"/>
<path d="M239.089 112.454L244.959 148.637C245.313 150.709 245.255 152.831 244.789 154.881C244.322 156.931 243.456 158.869 242.241 160.584C241.025 162.299 239.483 163.758 237.703 164.877C235.923 165.996 233.941 166.753 231.868 167.105L136.179 183.197" stroke="black" stroke-width="0.564931" stroke-linecap="round" stroke-linejoin="round"/>
<path d="M142.247 49.4775L92.484 57.8379C90.4114 58.1902 88.4285 58.9474 86.6487 60.0663C84.8689 61.1852 83.3271 62.6439 82.1113 64.3591C80.8956 66.0742 80.0297 68.0121 79.5633 70.062C79.0969 72.1119 79.039 74.2337 79.393 76.3059L84.2674 106.36" stroke="black" stroke-width="0.564931" stroke-linecap="round" stroke-linejoin="round"/>
<path d="M170.213 44.7785L210.664 37.9824C212.736 37.6284 214.858 37.6863 216.908 38.1527C218.958 38.6191 220.896 39.485 222.611 40.7007C224.326 41.9165 225.785 43.4583 226.904 45.2381C228.023 47.0179 228.78 49.0008 229.132 51.0734L236.633 97.3158" stroke="black" stroke-width="0.564931" stroke-linecap="round" stroke-linejoin="round"/>
<path d="M125.62 179.057C127.712 181.932 130.253 184.453 133.144 186.524" stroke="black" stroke-width="0.564931" stroke-linecap="round" stroke-linejoin="round"/>
</svg>
