<svg width="271" height="195" viewBox="0 0 271 195" fill="none" xmlns="http://www.w3.org/2000/svg">
<rect width="271" height="195" rx="25" fill="white"/>
<path d="M130.089 101.062C130.089 158.666 130.336 156.12 129.511 158.421C128.974 160.083 127.98 161.561 126.643 162.687C125.154 164.026 123.375 165.003 121.445 165.539C121.005 165.642 97.5311 169.813 73.7026 173.147C64.7382 174.402 58.8056 173.956 59.5027 162.129C59.5077 162.046 57.2546 53.3024 57.2505 53.219C57.0039 45.1529 57.213 37.0792 57.8767 29.0366C58.3222 24.0759 62.4059 22.0959 67.2907 21.3707C71.3473 20.7701 116.204 28.7033 121.461 30.9061C123.333 31.792 124.905 33.2068 125.982 34.9758C130.252 41.1584 129.022 49.6839 129.09 55.0571C129.2 63.7196 129.217 53.8089 130.227 101.052C130.181 101.061 130.135 101.065 130.089 101.062V101.062ZM60.9259 156.992C60.9646 165.965 59.2618 172.964 69.4844 172.132C82.163 171.1 108.404 165.966 117.567 165.136C124.069 164.547 129.424 161.089 129.365 154.665C128.899 102.967 129.53 114.21 128.615 69.3948C128.503 63.8756 128.351 58.3555 128.249 52.8362C128.12 45.8237 129.054 40.7855 125.226 35.1507C122.603 31.2905 118.631 30.2873 112.391 29.3394C86.802 25.452 73.1697 22.2485 68.4284 22.6668C65.0459 22.9655 59.3839 25.0659 59.1059 28.2182C57.4559 46.7675 60.9209 155.694 60.9259 156.992Z" fill="#191919"/>
<path d="M140.729 100.813C142.306 44.4375 141.827 64.3587 141.792 48.1937C141.778 41.9666 143.185 34.9326 148.411 31.56C153.055 28.5645 199.733 20.835 203.686 21.3713C207.608 21.9059 212.382 23.8191 212.903 27.7238C213.199 29.9513 213.493 32.1862 213.572 34.4286C214.329 55.8926 213.462 52.9614 213.365 59.5086C213.282 64.8711 213.526 84.728 213.117 102.39C212.738 118.725 211.679 146.249 211.401 157.161C211.319 160.508 212.046 163.567 210.929 168.371C210.078 172.03 207.237 173.787 203.63 173.656C198.158 173.345 192.71 172.702 187.316 171.733C165.858 168.343 183.846 171.345 160.152 167.325C149.583 165.53 149.371 165.788 146.797 164.381C145.281 163.645 143.967 162.55 142.968 161.193C141.97 159.835 141.317 158.255 141.065 156.588C140.928 155.68 140.97 159.696 140.97 100.823C140.883 100.819 140.809 100.819 140.729 100.813ZM211.948 98.0559C211.916 98.0567 211.884 98.055 211.852 98.0509C211.926 92.8872 212.071 87.7285 212.059 82.5648C211.967 39.6978 213.146 61.1148 212.038 29.3292C212.028 28.46 211.793 27.6082 211.357 26.8566C210.92 26.1049 210.297 25.4788 209.547 25.0392C206.374 22.9846 202.558 22.1661 198.822 22.7391C192.423 23.4816 183.95 25.1358 174.825 26.6991C157.922 29.6015 156.032 29.4538 152.279 30.7738C147.989 32.2819 146.733 32.8363 144.401 37.6799C142.298 42.0524 142.827 45.9744 142.648 57.1928C141.592 123.193 141.968 76.0655 141.681 154.697C141.619 156.123 141.904 157.543 142.513 158.834C143.122 160.125 144.036 161.249 145.176 162.108C147.206 163.737 149.656 164.757 152.242 165.051C164.391 166.34 156.055 165.685 190.275 170.751C194.755 171.52 199.28 172.006 203.821 172.207C207.102 172.276 209.565 170.025 209.798 167.813C210.473 161.423 210.051 158.019 210.091 152.11C210.112 149.334 209.713 163.525 211.948 98.0559Z" fill="#191919"/>
<path d="M66.449 158.289C66.0876 153.554 65.5877 142.595 64.9029 132.205C63.8552 116.301 64.1819 108.887 63.5829 58.8133C63.4683 49.3299 64.2339 42.0147 64.4005 39.147C74.6198 41.3745 92.307 42.4032 123.223 45.9945C124.403 46.1314 124.371 46.1644 124.44 47.3706C125.528 66.537 125.265 85.7265 125.481 104.909C125.63 118.044 125.837 148.423 125.837 150.278C115.59 151.629 117.449 151.242 105.624 152.562C71.0352 156.422 69.8389 158.477 66.449 158.289ZM121.229 112.525L121.101 110.788C122.27 111.165 123.433 111.534 124.655 111.927C124.655 111.844 124.343 63.7971 123.678 47.689C123.657 47.1742 123.503 47.0084 123.004 46.9614C101.966 44.9814 77.4949 42.8628 65.4961 40.3366C65.4136 40.6765 65.0085 51.7893 65.0127 56.2212C65.0193 63.4935 65.5596 74.9792 65.5596 119.416C65.94 119.525 65.5596 119.553 67.2649 118.528C68.8811 117.557 70.503 116.598 72.1184 115.631C73.2181 115.886 74.3145 116.133 75.4184 116.388C72.2037 117.643 69.1335 119.24 66.2609 121.153C66.0932 121.238 65.957 121.375 65.8722 121.543C65.7873 121.71 65.7582 121.901 65.789 122.087C65.9845 125.354 66.1347 128.622 66.3153 131.883C67.8474 159.534 67.585 153.657 67.585 156.862C101.832 150.819 100.485 152.12 124.906 149.366C124.906 134.307 125.004 146.204 124.688 114.187C124.684 113.762 124.63 113.495 124.135 113.375C123.158 113.135 122.195 112.817 121.229 112.525Z" fill="#191919"/>
<path d="M90.3949 163.339C88.8274 162.465 89.1574 158.727 92.8336 158.419C95.5801 158.19 98.3323 158 101.084 157.792C103.913 157.58 104.365 160.592 102.359 161.91C100.354 163.228 91.9641 164.212 90.3949 163.339ZM94.6717 162.718C97.07 162.394 99.9179 162.168 102.109 161.262C102.334 161.188 102.537 161.058 102.698 160.885C102.859 160.712 102.974 160.5 103.032 160.271C103.089 160.041 103.088 159.801 103.028 159.572C102.967 159.343 102.85 159.133 102.687 158.961C101.901 158.161 101.573 158.423 92.7866 159.1C90.2118 159.298 89.2259 162.549 91.7884 162.712C92.6373 162.766 93.487 162.718 94.6717 162.718V162.718Z" fill="#191919"/>
<path d="M93.1455 34.5299C93.1455 34.3649 93.1571 31.9048 95.6139 31.9048C99.1325 31.9048 100.14 38.3497 96.4694 38.3497C95.736 38.3489 93.1455 38.141 93.1455 34.5299ZM95.9068 32.705C95.3679 32.7578 94.8675 33.0079 94.5019 33.4074C94.1364 33.8069 93.9315 34.3275 93.9268 34.869C93.9268 34.9284 93.9779 37.6427 96.3638 37.6427C99.272 37.6427 98.3298 32.705 95.9068 32.705Z" fill="#191919"/>
<path d="M204.569 158.277C204.18 158.306 203.789 158.302 203.4 158.267C196.222 157.024 189.078 155.595 181.867 154.575C171.74 153.141 166.023 152.925 146.624 150.458C145.206 150.277 145.213 150.229 145.217 148.79C145.293 120.301 145.943 47.0987 146.778 46.1599C147.026 45.8835 147.693 45.985 148.176 45.9313C174.89 42.9531 176.601 43.0884 197.958 40.6134C200.338 40.3378 202.698 39.8709 205.061 39.4815C205.571 39.399 206.07 39.2587 206.645 39.1309C206.687 39.7265 206.713 40.2034 206.761 40.6769C207.994 52.8531 207.22 65.0449 207.122 77.2318C206.875 107.839 207.513 111.403 205.789 137.804C205.196 146.919 204.835 156.283 204.569 158.277ZM146.654 120.492C146.413 120.775 146.274 121.13 146.26 121.501C146.255 122.721 146.076 146.591 146.138 147.83C148.948 145.057 151.583 142.273 155.02 140.429C153.888 138.333 152.615 136.62 153.687 131.887C156.264 120.514 162.175 110.437 161.906 110.303C161.905 110.471 154.633 111.615 146.653 120.491L146.654 120.492ZM174.847 77.9224C174.671 77.8148 174.465 77.765 174.26 77.7798C174.054 77.7946 173.858 77.8733 173.699 78.0049C172.586 78.7416 171.448 78.8175 170.719 78.0478C170.473 77.8143 170.174 77.6433 169.847 77.549C169.521 77.4547 169.177 77.4399 168.844 77.5057C169.256 78.7432 168.919 79.2341 167.601 79.3653C167.497 79.3969 167.403 79.451 167.323 79.5236C167.243 79.5962 167.18 79.6855 167.139 79.7852C166.814 80.6102 166.39 81.5053 165.443 81.4352C164.766 81.4161 164.109 81.6665 163.616 82.1315C163.414 82.2742 163.143 82.3229 162.936 82.4615C162.793 82.5572 162.606 82.7486 162.612 82.8864C162.959 90.1645 162.409 95.5089 166.979 98.431C168.264 99.1659 169.595 99.8171 170.963 100.381C171.43 100.599 171.831 100.847 171.824 101.432C171.803 103.127 171.785 104.827 171.717 106.522C171.666 107.823 168.141 108.674 167.165 108.981C168.32 109.667 169.095 110.851 172.966 110.961C175.267 111.017 177.555 110.605 179.692 109.75C180.802 109.314 181.859 108.746 182.937 108.235C182.863 107.963 179.499 107.069 179.415 107.046C179.196 106.999 179.003 106.871 178.875 106.687C178.747 106.503 178.693 106.278 178.725 106.056C178.785 100.535 178.737 102.379 178.826 100.776C176.217 101.653 175.773 101.701 175.176 101.106C175.506 100.926 175.803 100.74 176.121 100.602C176.864 100.279 177.619 100.011 178.342 99.6562C182.732 97.5013 184.017 94.7573 185.107 89.95C185.989 90.3749 186.802 90.7841 187.7 90.2099C187.659 90.1564 187.625 90.0976 187.599 90.035C187.1 89.1481 187.681 89.0632 188.241 89.3074C188.52 89.3445 188.635 89.8238 189.182 89.3816C191.598 87.428 189.15 83.9985 186.802 85.4348C186.654 85.5325 186.488 85.5984 186.314 85.6286C186.139 85.6587 185.961 85.6523 185.789 85.6098C185.617 85.5673 185.456 85.4896 185.316 85.3817C185.176 85.2738 185.059 85.1379 184.974 84.9827C184.817 84.6185 184.703 84.2369 184.634 83.8459C183.057 84.0158 182.706 83.6545 182.407 81.4344C181.475 81.4344 180.521 81.4831 179.713 80.6424C178.789 79.6796 178.971 78.6624 179.081 77.4925C177.81 78.3802 176.639 78.862 174.846 77.9215L174.847 77.9224ZM205.552 40.2883C204.516 40.5358 203.559 40.851 202.581 40.9846C184.851 43.4077 194.397 42.3187 148.193 46.9345C147.615 46.9923 147.374 47.1309 147.358 47.795C147.236 52.8473 146.996 57.8996 146.928 62.9569C146.928 63.0394 146.213 118.196 146.317 118.928C146.745 119.166 150.087 113.361 159.37 109.818C166.093 107.251 167.225 108.278 170.361 106.344C170.45 106.269 170.522 106.177 170.573 106.073C170.623 105.968 170.651 105.854 170.653 105.738C170.653 104.526 170.542 103.315 170.6 102.108C170.633 101.448 170.372 101.243 169.836 101.029C168.049 100.469 166.392 99.5609 164.958 98.3568C164.869 98.2983 164.769 98.2583 164.664 98.2392C164.559 98.22 164.452 98.2222 164.348 98.2454C163.534 98.3491 162.708 98.2351 161.952 97.9149C161.197 97.5947 160.541 97.0799 160.049 96.423C159.332 95.3604 159.048 94.0641 159.254 92.7987C159.46 91.5334 160.141 90.3944 161.158 89.6143C161.351 89.4236 161.465 89.1678 161.478 88.8973C161.52 86.8835 161.528 84.8647 161.525 82.8517C161.524 82.7492 161.501 82.6481 161.458 82.5548C161.416 82.4615 161.354 82.3781 161.278 82.3097C159.616 81.1432 160.607 80.1573 160.535 79.3034C160.431 78.638 160.364 77.9674 160.333 77.2945C160.315 75.5196 160.68 73.7617 161.406 72.1416C160.945 72.1433 160.497 71.9856 160.139 71.6953C159.781 71.4051 159.534 70.9999 159.44 70.5485C159.248 69.4645 160.11 68.9596 160.832 68.434C159.45 65.7883 160.327 63.9502 162.001 63.3289C161.787 62.5687 161.773 61.7662 161.961 60.9992C162.149 60.2322 162.532 59.5268 163.073 58.9515C163.517 58.2968 164.152 57.7956 164.893 57.5169C165.633 57.2381 166.441 57.1954 167.206 57.3947C167.784 55.2002 169.443 54.4033 171.377 54.1483C172.319 54.0659 173.269 54.1851 174.162 54.4981C175.055 54.811 175.871 55.3105 176.556 55.9633C177.82 54.4783 178.93 54.3018 180.556 55.2827C181.718 55.914 182.644 56.9037 183.196 58.1042C184.673 57.1852 185.919 57.3733 187.228 58.6933C188.019 59.5078 188.518 60.5615 188.647 61.6897C188.812 62.8793 188.137 63.7406 187.34 64.6382C187.855 64.4687 188.41 64.4629 188.929 64.6217C189.447 64.7805 189.904 65.0961 190.235 65.5251C190.595 65.9212 190.796 66.4362 190.8 66.9713C190.804 67.5065 190.611 68.0244 190.257 68.4258C190.659 68.6043 191.017 68.8692 191.305 69.2017C191.594 69.5341 191.805 69.9261 191.925 70.3495C192.045 70.773 192.069 71.2176 191.998 71.6518C191.926 72.086 191.76 72.4991 191.511 72.8618C191.898 73.1648 192.187 73.5758 192.341 74.0428C192.495 74.5099 192.507 75.0121 192.376 75.4861C192.257 75.9435 191.973 76.3408 191.579 76.6016C191.185 76.8625 190.709 76.9685 190.241 76.8994C190.241 79.8537 188.746 80.083 188.839 80.5294C189.08 81.8026 188.947 83.1186 188.456 84.3178C191.531 85.0776 192.015 87.824 189.556 90.4162C190.019 91.0828 190.308 91.8543 190.398 92.661C190.488 93.4676 190.375 94.284 190.07 95.0362C189.823 95.8589 189.282 96.5624 188.551 97.0136C187.82 97.4648 186.949 97.6324 186.102 97.4848C185.314 97.2438 184.55 96.9326 183.818 96.555C182.8 97.9487 181.521 99.1307 180.052 100.035C179.639 100.282 179.811 100.898 179.855 104.928C179.866 105.932 179.844 105.964 180.845 106.198C190.588 108.472 194.001 108.537 205.533 115.325C205.533 109.587 205.741 79.3546 205.899 66.3864C206.07 52.6551 206.221 54.0757 205.552 40.2883ZM194.323 111.361C193.154 110.857 195.375 111.587 185.903 108.822C183.627 108.157 185.161 109.06 181.127 110.793C178.027 112.237 174.576 112.756 171.188 112.285C166.3 111.508 166.308 109.092 165.567 109.21C164.379 109.399 163.316 109.693 162.773 111.005C161.023 115.235 157.163 122.525 154.964 132.345C154.651 133.484 154.57 134.674 154.728 135.844C154.886 137.014 155.279 138.141 155.883 139.156C158.327 143.149 158.468 144.969 159.198 150.258C159.394 151.679 159.096 149.53 194.956 155.274C196.736 150.241 197.829 145.079 199.253 140.048C197.598 139.307 196.094 138.266 194.817 136.978C190.752 132.731 190.288 126.297 190.876 120.478C191.1 117.165 192.3 113.993 194.323 111.361V111.361ZM199.004 138.513C198.206 137.086 197.884 136.698 197.527 135.973C197.436 135.788 197.575 135.49 197.609 135.241C197.838 135.294 198.125 135.277 198.289 135.411C198.606 135.662 198.878 135.965 199.092 136.308C203.382 143.475 202.6 142.298 203.84 144.909C204.01 143.873 203.658 147.56 205.45 117.662C205.471 117.485 205.438 117.307 205.354 117.15C205.271 116.993 205.141 116.866 204.983 116.785C202.172 115.001 199.23 113.435 196.18 112.1C196.013 111.995 195.811 111.96 195.617 112.001C195.424 112.043 195.254 112.158 195.144 112.322C192.213 115.558 191.873 121.736 192.1 126.114C192.152 129.316 193.14 132.433 194.942 135.081C195.882 136.64 197.309 137.847 199.002 138.515L199.004 138.513ZM203.365 156.862C203.704 148.655 203.765 148.827 203.552 148.25C202.702 145.696 201.628 143.221 200.342 140.856C199.142 145.913 198.115 150.817 196.231 155.513C198.598 155.967 200.946 156.406 203.363 156.865L203.365 156.862ZM158.05 150.7C157.53 147.464 157.39 144.245 155.57 141.46C152.298 143.79 149.286 146.465 146.586 149.439C150.483 149.868 154.239 150.282 158.048 150.702L158.05 150.7ZM184.501 70.8909C184.311 71.1641 184.084 71.4091 183.826 71.6185C183.634 71.7265 183.482 71.8934 183.393 72.0945C183.304 72.2957 183.282 72.5202 183.331 72.7348C183.408 73.6983 183.113 74.6548 182.506 75.4069C182.228 75.7022 181.924 75.9722 181.598 76.2138C184.34 78.2012 186.439 80.5277 187.456 83.8376C187.573 83.5686 187.674 83.2932 187.759 83.0126C187.956 82.2613 187.994 81.4772 187.871 80.7102C187.749 79.9433 187.468 79.2102 187.047 78.5576C186.913 78.3186 186.795 78.0705 186.696 77.8151C187.754 77.8737 187.961 78.7771 188.486 79.3504C189.39 77.8366 189.495 76.7929 188.734 75.5678C187.816 74.1059 186.805 72.0088 184.498 70.8934L184.501 70.8909ZM175.266 77.2368C175.685 77.2739 176.078 77.3424 176.466 77.3424C176.844 77.3719 177.224 77.3134 177.575 77.1715C177.927 77.0297 178.241 76.8082 178.493 76.5247C178.744 76.2411 178.927 75.903 179.026 75.5371C179.125 75.1711 179.138 74.7871 179.064 74.4153C178.803 72.4353 177.921 70.5856 176.025 69.9108C174.128 69.2359 173.065 69.6501 173.162 71.9403C173.172 72.345 173.279 72.7413 173.475 73.0953C175.106 75.7939 176.13 75.7155 175.266 77.2368ZM181.258 65.4797L181.386 65.3048C178.122 62.6128 171.76 61.8646 171.127 65.5523C171.064 66.0562 171.054 66.5651 171.095 67.0711C171.118 67.6561 172.259 68.2129 172.699 67.8367C174.825 66.0217 177.365 66.5827 177.799 66.2907C178.828 65.6387 180.046 65.353 181.258 65.4797V65.4797ZM173.332 68.3433C173.73 68.9117 173.735 68.9497 174.395 68.8218C177.051 68.3053 180.484 71.5765 179.988 75.7757C180.42 75.6041 180.811 75.3443 181.137 75.0129C181.463 74.6816 181.717 74.2859 181.881 73.8512C182.045 73.4165 182.118 72.9523 182.093 72.4882C182.068 72.0241 181.946 71.5703 181.736 71.1557C180.255 67.7765 176.971 66.5852 173.332 68.3433ZM165.262 72.3223C165.158 72.8168 165.168 73.3284 165.291 73.8186C165.413 74.3088 165.645 74.7649 165.97 75.1525C166.294 75.54 166.702 75.8491 167.163 76.0563C167.623 76.2636 168.125 76.3637 168.63 76.3491C170.421 76.4316 171.657 76.4638 172.822 75.1116C172.934 74.9814 173.015 74.8275 173.058 74.6615C173.102 74.4956 173.107 74.3219 173.074 74.1535C173.041 73.9852 172.97 73.8266 172.866 73.6898C172.763 73.5529 172.629 73.4413 172.476 73.3634C171.851 73.0714 171.173 72.9082 170.483 72.8837C169.793 72.8592 169.105 72.9738 168.46 73.2207C168.192 73.375 167.874 73.4207 167.573 73.3484C167.272 73.2762 167.009 73.0914 166.84 72.8321C166.51 72.4559 166.21 72.5038 165.262 72.3223V72.3223ZM185.722 91.591C185.481 93.0241 185.053 94.4192 184.446 95.7399C186.519 96.8231 188.217 96.2596 188.952 94.2549C189.114 93.7921 189.173 93.2996 189.125 92.8116C189.077 92.3236 188.924 91.8519 188.675 91.4293C188.6 91.3486 188.507 91.2865 188.404 91.2477C188.301 91.2089 188.19 91.1945 188.08 91.2057C187.324 91.2948 186.576 91.4474 185.726 91.591H185.722ZM170.357 67.6156C170.106 66.9412 170.014 66.2177 170.09 65.5019C170.165 64.7861 170.406 64.0977 170.793 63.4906C169.277 64.0056 167.918 64.9 166.845 66.0886C166.336 66.5878 165.95 67.1986 165.718 67.8725C165.486 68.5464 165.414 69.2651 165.507 69.9718C165.51 70.2711 165.58 70.5659 165.713 70.8344C165.845 71.1028 166.036 71.3381 166.272 71.5228C166.426 69.3531 167.223 67.8491 170.357 67.6156ZM172.344 72.1309C172.257 71.6084 172.291 71.0731 172.443 70.5659C172.595 70.0586 172.861 69.5927 173.221 69.2038C172.21 68.7331 171.083 68.5707 169.98 68.7368C169.359 68.809 168.76 69.0157 168.227 69.3424C167.251 70.0923 167.143 71.2704 167.748 72.6308C169.124 71.2118 170.713 71.6375 172.344 72.1309ZM164.836 75.3822C164.81 75.3244 164.73 75.1751 164.66 75.0208C164.409 74.5753 164.268 74.0755 164.252 73.5641C164.235 73.0527 164.342 72.5448 164.565 72.0838C164.679 71.9065 164.729 71.6958 164.708 71.486C164.687 71.2763 164.595 71.0799 164.448 70.9288C164.264 71.1053 164.057 71.2555 163.832 71.3752C163.191 71.6081 162.637 72.0328 162.245 72.5916C161.853 73.1504 161.643 73.8162 161.643 74.4986C161.529 75.6404 161.42 76.7773 161.293 78.0156C162.569 77.0668 163.679 76.2377 164.832 75.3822H164.836ZM161.628 90.4376C160.289 92.0472 160.019 93.6675 160.841 95.3629C161.418 96.5467 162.519 96.9188 163.885 97.0681C162.271 95.0972 162.066 92.7649 161.624 90.4376H161.628ZM183.036 70.9627C183.421 70.5406 183.642 69.9958 183.662 69.4254C183.681 68.8551 183.497 68.2964 183.143 67.8491C182.688 67.2651 182.053 66.8483 181.337 66.6638C180.62 66.4793 179.863 66.5375 179.183 66.8294C180.067 67.2286 180.862 67.7996 181.523 68.5092C182.184 69.2188 182.697 70.0528 183.032 70.9627H183.036ZM171.156 77.4067C171.812 77.5338 172.49 77.4524 173.097 77.1741C173.704 76.8958 174.208 76.4345 174.539 75.8549C174.305 75.6074 174.072 75.3508 173.817 75.0794C173.315 76.2806 172.992 76.5619 171.154 77.4067H171.156Z" fill="#191919"/>
<path d="M179.079 163.775C174.532 163.104 168.881 163.54 167.626 160.636C167.474 160.34 167.401 160.011 167.414 159.679C167.427 159.347 167.525 159.025 167.7 158.742C167.874 158.459 168.118 158.227 168.409 158.066C168.699 157.906 169.026 157.823 169.358 157.826C170.618 157.813 169.389 157.849 178.054 158.403C181.844 158.646 182.262 162.37 180.674 163.312C180.166 163.538 179.629 163.694 179.079 163.775V163.775ZM170.133 158.426C167.633 158.269 167.474 160.456 168.784 161.194C169.194 161.411 169.63 161.577 170.08 161.689C173.08 162.46 176.174 162.809 179.271 162.725C180.848 162.71 180.829 161.643 180.545 160.621C180.411 160.137 179.72 159.205 177.979 159.065C170.914 158.495 170.535 158.5 170.133 158.426Z" fill="#191919"/>
<path d="M175.415 31.8789C176.761 31.8789 178.049 32.9605 177.907 34.1889C177.824 38.5301 174.879 38.3741 174.772 38.3741C174.209 38.3741 172.277 38.3527 172.277 35.6657C172.276 33.3887 174 31.8789 175.415 31.8789ZM174.692 37.6481C176.638 37.6481 177.095 35.8331 177.095 34.8596C177.117 34.3174 176.925 33.7882 176.56 33.3861C176.196 32.9839 175.688 32.741 175.146 32.7097C172.66 32.7097 171.832 37.6481 174.689 37.6481H174.692Z" fill="#191919"/>
<path d="M79.3497 44.486C78.1568 44.1758 69.2616 43.3987 69.1709 43.3921C68.6874 43.3549 68.812 45.5866 68.8046 58.6117C68.8046 59.6371 68.7988 59.6685 69.8028 59.6479C72.9642 59.5827 76.1248 59.4985 79.2903 59.4193C80.1401 59.3979 80.2663 59.308 80.2729 58.4739C80.3054 54.2295 80.3301 49.9849 80.3472 45.74C80.3472 44.8053 80.2589 44.7228 79.3497 44.486ZM70.0157 58.9359C70.0157 55.5163 69.6156 55.4107 71.6038 54.0436C71.783 53.9358 71.9736 53.8484 72.1722 53.7829C72.206 53.7688 72.2436 53.767 72.2785 53.7777C72.3135 53.7884 72.3436 53.811 72.3636 53.8415C72.6077 54.2711 72.7325 54.7582 72.7251 55.2522C72.7177 55.7462 72.5784 56.2293 72.3216 56.6515C72.1681 56.8396 71.6805 56.9229 71.7795 56.9229C71.8109 56.7529 71.8488 56.583 71.8802 56.413C71.7152 56.4601 71.4677 56.4601 71.4025 56.5723C71.0535 57.1918 70.17 58.7717 70.0157 58.9359ZM71.886 58.8088C71.4659 58.8547 71.0438 58.8795 70.6212 58.8831C70.8009 58.4798 71.0159 58.0933 71.2639 57.7281C71.2639 57.7281 71.9016 58.7767 71.886 58.8097V58.8088ZM76.7147 58.3303C76.6602 58.4854 76.9176 58.346 72.2201 58.6438C72.187 58.6461 72.1541 58.6375 72.1264 58.6193C72.0987 58.6011 72.0777 58.5744 72.0666 58.5432C71.9016 58.0597 71.8332 57.9913 71.9495 57.9005C73.5459 56.6506 73.7876 55.6582 73.0385 53.2805C73.3685 53.198 73.5335 53.0602 73.814 53.198C74.7363 53.6419 75.7263 53.8456 76.5555 53.1023C76.6776 53.3894 76.7848 53.5973 76.8582 53.83C77.0232 54.334 77.1214 54.8563 77.3153 55.3496C77.4775 55.6959 77.5386 56.0809 77.4916 56.4604C77.4446 56.8399 77.2914 57.1984 77.0496 57.4946C76.8967 57.7548 76.7837 58.0365 76.7147 58.3303V58.3303ZM72.9857 49.3733C73.0592 49.3381 73.1415 49.326 73.222 49.3383C73.3025 49.3507 73.3774 49.387 73.437 49.4426C73.5094 49.5237 73.5994 49.5873 73.7001 49.6284C73.8008 49.6696 73.9096 49.6873 74.0181 49.6801C74.1267 49.6729 74.2322 49.6411 74.3266 49.5871C74.421 49.5331 74.5019 49.4583 74.5631 49.3684C74.7561 49.0384 75.2231 48.8734 75.5531 48.6407C75.7288 48.8263 75.8402 49.0532 76.0052 49.0978C76.1952 49.119 76.3701 49.2112 76.4951 49.3559C76.6201 49.5006 76.6858 49.6871 76.6792 49.8782C76.713 50.4838 76.8599 51.0728 76.2667 51.4086C75.7511 51.6998 75.6067 51.9292 75.789 52.7286C76.0365 53.8283 74.4336 53.1007 74.4336 53.1007C74.3016 53.1114 74.3593 52.1387 74.3593 52.1387C74.3753 52.087 74.3808 52.0326 74.3754 51.9788C74.37 51.9249 74.3539 51.8727 74.328 51.8252C74.1036 51.5447 74.1885 51.6454 73.9295 51.3261C73.7609 51.0091 73.6342 50.6716 73.5525 50.3221C73.5145 50.2396 73.0311 50.1843 72.9197 50.0086C72.7613 49.7569 72.8364 49.3898 72.9857 49.3733ZM72.7679 48.9963C72.7469 48.7295 72.7398 48.4619 72.7464 48.1944C73.0781 48.2975 73.43 48.317 73.771 48.2512C74.112 48.1854 74.4314 48.0364 74.7009 47.8174C74.8386 47.6922 75.015 47.6182 75.2008 47.6075C75.3865 47.5968 75.5703 47.6502 75.7214 47.7588C76.1207 48.0063 76.6239 47.7175 76.9218 47.7588C77.2773 47.8083 77.0595 48.6514 77.0389 48.6349C76.7166 48.442 76.3309 48.3847 75.9664 48.4757C75.793 48.5542 75.605 48.5953 75.4147 48.5963C75.2244 48.5973 75.0359 48.5582 74.8617 48.4815C74.8131 48.4543 72.8256 49.0285 72.7679 48.9963ZM78.5759 58.591L77.5859 58.5003C77.5624 58.4978 77.5398 58.4901 77.5197 58.4777C77.4996 58.4653 77.4825 58.4485 77.4697 58.4286C77.457 58.4088 77.4489 58.3863 77.446 58.3628C77.4431 58.3394 77.4455 58.3156 77.4531 58.2932L77.7187 57.5548C77.7279 57.5297 77.7433 57.5074 77.7635 57.49C77.7837 57.4726 77.8081 57.4607 77.8343 57.4554C77.8604 57.4501 77.8875 57.4516 77.9129 57.4598C77.9384 57.4679 77.9612 57.4825 77.9794 57.502L78.7021 58.327C78.7239 58.35 78.7382 58.3791 78.7431 58.4104C78.748 58.4417 78.7434 58.4738 78.7297 58.5024C78.716 58.531 78.694 58.5547 78.6665 58.5706C78.6391 58.5864 78.6075 58.5935 78.5759 58.591V58.591ZM79.1286 57.7248C78.6609 57.2677 78.1172 57.0557 78.1832 56.2324C78.1158 55.6045 77.9396 54.9931 77.6626 54.4256C77.5884 54.1864 77.5191 53.9479 77.4151 53.6006C79.3877 54.4438 79.1319 55.5278 79.1319 57.7248H79.1286ZM79.3464 46.4833C79.3291 47.3141 79.2029 52.8589 79.1179 54.0115C77.4258 52.2575 75.8946 52.6461 75.9194 52.2534C75.9343 52.1208 75.9992 51.999 76.1009 51.9127C76.2444 51.7999 76.3954 51.6971 76.553 51.6049C76.6588 51.5435 76.7513 51.4615 76.8251 51.3639C76.8989 51.2664 76.9525 51.155 76.9828 51.0365C77.0341 50.6095 77.0149 50.1769 76.9259 49.7561C76.85 49.3791 77.0249 49.5086 77.128 49.1506C77.2686 48.6458 77.2825 48.1141 77.1686 47.6027C77.0546 47.0913 76.8162 46.6158 76.4746 46.2185C76.2139 45.9207 75.8847 46.3835 75.7519 46.136C75.7056 46.0265 75.6301 45.9319 75.5336 45.8625C75.4372 45.7931 75.3234 45.7516 75.2049 45.7425C74.4501 45.8035 74.6093 46.0123 74.2488 46.0882C73.9509 46.1509 73.6523 45.8902 73.4147 46.0667C73.1317 46.2771 73.1614 46.7902 72.9948 47.0707C72.4032 48.069 72.5971 48.2051 72.5913 48.5557C72.5949 48.8093 72.6529 49.0591 72.7613 49.2883C72.8166 49.4113 72.3554 49.9434 73.2018 50.3938C73.4246 50.5118 73.4056 51.0085 73.5318 51.2188C73.7052 51.4456 73.8934 51.6606 74.0953 51.8623C74.2694 52.0966 74.0796 52.4035 74.0367 52.5529C72.6334 52.7727 71.3135 53.3612 70.212 54.2581C70.1106 54.3481 70.0528 44.6155 70.0528 44.6155C70.0522 44.5933 70.0564 44.5712 70.0653 44.5508C70.0742 44.5305 70.0875 44.5123 70.1042 44.4976C70.1209 44.483 70.1406 44.4722 70.162 44.4661C70.1833 44.4599 70.2058 44.4585 70.2277 44.4621C79.3184 45.8572 79.3885 44.6056 79.3497 46.4833H79.3464Z" fill="#191919"/>
<path d="M116.813 63.4514C116.249 64.1361 115.623 64.7631 115.007 65.4058C114.512 65.9214 114.017 65.4965 114.406 64.9438C115.042 64.0975 115.734 63.2954 116.478 62.543C116.743 62.171 118.289 61.2841 116.813 63.4514Z" fill="#191919"/>
<path d="M117.859 71.3863C117.224 71.357 116.593 71.2717 115.973 71.1314C115.607 71.0299 115.166 70.2915 116.074 70.2915C116.754 70.3031 117.431 70.376 118.098 70.5093C119.958 70.6157 119.484 71.5364 117.859 71.3863Z" fill="#191919"/>
<path d="M117.779 67.5193C116.994 67.6523 116.223 67.8623 115.479 68.1463C115.166 68.3113 114.79 67.936 115.128 67.5688C115.22 67.4538 115.341 67.3655 115.479 67.3131C116.25 67.125 117.042 67.0186 117.806 66.7925C119.161 66.3982 118.82 67.4236 117.779 67.5193Z" fill="#191919"/>
<path d="M113.599 143.727C113.447 147.822 110.404 149.384 108.281 147.687C107.219 146.711 106.585 145.355 106.519 143.914C106.452 142.473 106.958 141.064 107.925 139.994C110.163 137.85 113.446 139.788 113.599 143.727ZM109.152 143.732C109.11 143.716 109.062 143.7 109.019 143.684C109.067 143.467 109.089 143.067 109.158 143.057C109.688 142.969 110.227 142.948 110.763 142.993C111.24 143.047 111.135 143.488 111.097 143.818C110.985 144.791 111.886 144.47 112.366 144.444C112.802 144.422 112.927 144.189 112.808 143.802C112.531 142.894 112.054 142.142 111.038 142.017C110.327 141.929 109.609 141.926 108.897 142.006C108.513 142.059 108.159 142.242 107.893 142.524C107.628 142.806 107.467 143.171 107.437 143.557C107.384 143.829 107.479 144.359 107.612 144.396C108.019 144.499 108.445 144.495 108.849 144.387C108.993 144.361 109.052 143.966 109.152 143.732Z" fill="#38A1FF"/>
<path d="M85.0866 151.606C83.564 151.536 82.1273 150.88 81.0771 149.776C80.0269 148.671 79.4447 147.203 79.4522 145.679C79.4598 144.155 80.0566 142.692 81.1177 141.598C82.1788 140.504 83.622 139.862 85.1452 139.808C85.91 139.834 86.6622 140.011 87.3583 140.329C88.0544 140.646 88.6808 141.099 89.2013 141.66C89.7217 142.221 90.1261 142.879 90.3909 143.597C90.6558 144.315 90.7759 145.078 90.7445 145.843C90.7557 147.357 90.1666 148.813 89.1061 149.893C88.0456 150.973 86.6002 151.589 85.0866 151.606V151.606ZM89.8716 145.793C89.8439 144.866 89.5441 143.968 89.0094 143.21C88.4747 142.452 87.7289 141.868 86.8648 141.531C86.0007 141.194 85.0565 141.119 84.1499 141.315C83.2433 141.51 82.4143 141.969 81.7662 142.632C81.1181 143.296 80.6796 144.135 80.5052 145.046C80.3308 145.957 80.4283 146.899 80.7855 147.755C81.1428 148.611 81.744 149.343 82.5142 149.86C83.2844 150.376 84.1897 150.655 85.1172 150.661C85.7489 150.654 86.373 150.522 86.9538 150.274C87.5347 150.025 88.0608 149.665 88.502 149.212C88.9433 148.76 89.2912 148.226 89.5256 147.639C89.76 147.052 89.8765 146.425 89.8683 145.793H89.8716Z" fill="#191919"/>
<path d="M103.675 144.614C103.52 149.033 99.2925 151.076 96.5403 148.518C95.5082 147.492 94.891 146.122 94.8068 144.669C94.7226 143.216 95.1774 141.784 96.084 140.645C96.4968 140.134 97.0281 139.731 97.6317 139.471C98.2354 139.212 98.8933 139.103 99.5484 139.155C100.204 139.207 100.836 139.417 101.391 139.769C101.947 140.12 102.408 140.602 102.735 141.172C103.386 142.199 103.714 143.398 103.675 144.614V144.614ZM103.006 144.656C103.024 140.449 99.2232 138.716 96.8703 141.055C96.0791 141.923 95.6248 143.046 95.5897 144.22C95.5546 145.394 95.941 146.542 96.6789 147.457C96.995 147.872 97.4042 148.207 97.8736 148.435C98.3429 148.663 98.8592 148.777 99.3809 148.769C99.9027 148.761 100.415 148.631 100.877 148.388C101.339 148.146 101.738 147.799 102.041 147.374C102.647 146.596 102.986 145.643 103.006 144.656V144.656Z" fill="#191919"/>
<path d="M203.411 55.0956C203.393 55.961 203.281 56.8281 203.193 57.6927C203.16 58.0169 203.049 58.2809 202.63 58.3362C194.95 59.3377 195.633 59.4804 193.689 59.1323C193.561 59.0891 193.446 59.0152 193.353 58.9171C193.26 58.819 193.193 58.6997 193.158 58.5696C192.274 49.9071 192.481 52.4869 192.881 44.6139C192.872 44.3991 192.944 44.1887 193.085 44.0257C193.225 43.8627 193.422 43.7594 193.636 43.737C196.282 43.2296 198.916 42.6645 201.573 42.2338C203.235 41.9665 203.481 42.2124 203.522 43.8838C203.572 45.8605 203.445 53.335 203.411 55.0956ZM201.831 51.3426C201.953 48.6977 202.07 46.0783 202.192 43.4226C199.47 43.8269 196.811 44.2196 194.059 44.6238V52.6453C194.308 52.4261 194.581 52.2355 194.872 52.0769C195.708 51.7304 195.621 52.4176 195.26 52.6717C194.447 53.2434 193.863 53.8036 194.08 54.9817C194.184 56.0217 194.196 57.0688 194.117 58.1109L201.911 56.979C201.911 55.5287 201.89 54.2004 201.921 52.873C201.942 52.675 201.899 52.4755 201.797 52.3042C201.696 52.1329 201.542 51.9988 201.358 51.9218C200.569 51.4953 200.533 51.1892 201.831 51.3426Z" fill="#191919"/>
<path d="M183.309 145.9C183.351 144.859 183.699 143.853 184.309 143.008C184.919 142.164 185.765 141.518 186.74 141.151C187.715 140.784 188.777 140.713 189.792 140.946C190.808 141.179 191.732 141.706 192.45 142.462C193.168 143.217 193.647 144.168 193.827 145.194C194.008 146.22 193.882 147.277 193.466 148.232C193.049 149.187 192.361 149.998 191.486 150.564C190.611 151.13 189.589 151.426 188.547 151.414C187.841 151.397 187.145 151.24 186.499 150.953C185.854 150.666 185.271 150.255 184.785 149.743C184.298 149.231 183.917 148.628 183.664 147.968C183.411 147.309 183.29 146.606 183.309 145.9V145.9ZM192.478 146.048C192.311 145.506 191.995 145.022 191.566 144.652C191.136 144.282 190.611 144.04 190.05 143.955C189.005 143.801 187.951 143.714 186.894 143.695C186.422 143.678 185.955 143.804 185.556 144.057C185.157 144.311 184.844 144.679 184.658 145.114C184.111 146.269 184.553 146.382 185.668 146.532C186.73 146.674 186.796 146.632 186.783 145.554C186.776 145.018 187.012 144.779 187.49 144.826C188.196 144.897 188.898 145.021 189.599 145.161C189.966 145.235 190.019 145.501 189.934 145.852C189.686 146.872 189.757 146.978 190.794 147.068C192.113 147.183 192.943 147.2 192.478 146.048V146.048Z" fill="#38A1FF"/>
<path d="M172.338 140.592C172.788 140.291 173.294 140.082 173.826 139.977C174.358 139.872 174.905 139.874 175.436 139.982C175.967 140.091 176.471 140.303 176.92 140.607C177.368 140.912 177.752 141.302 178.049 141.756C178.792 142.84 179.133 144.15 179.011 145.459C178.89 146.768 178.314 147.993 177.384 148.922C176.926 149.393 176.362 149.746 175.738 149.953C175.115 150.16 174.451 150.214 173.802 150.111C173.154 150.008 172.539 149.751 172.011 149.361C171.482 148.971 171.055 148.46 170.765 147.87C170.078 146.678 169.858 145.273 170.149 143.928C170.44 142.583 171.22 141.394 172.338 140.592V140.592ZM175.153 140.794C174.513 140.661 173.847 140.718 173.239 140.959C172.631 141.2 172.107 141.613 171.732 142.149C171.077 142.954 170.712 143.957 170.697 144.995C170.682 146.034 171.018 147.047 171.65 147.87C171.922 148.252 172.27 148.572 172.673 148.813C173.075 149.053 173.522 149.208 173.987 149.267C174.452 149.326 174.924 149.289 175.373 149.157C175.823 149.026 176.24 148.803 176.6 148.502C179.276 146.311 178.565 141.51 175.153 140.794Z" fill="#191919"/>
<path d="M165.98 141.48C166.548 142.506 166.778 143.684 166.638 144.849C166.499 146.013 165.996 147.104 165.201 147.967C163.304 149.848 160.378 149.098 159.458 146.463C157.539 140.974 163.316 137.145 165.98 141.48ZM165.549 142.207C165.388 141.772 165.12 141.383 164.77 141.078C164.419 140.772 163.998 140.559 163.545 140.457C163.091 140.356 162.62 140.37 162.173 140.497C161.726 140.625 161.318 140.862 160.986 141.188C160.264 141.926 159.811 142.886 159.7 143.913C159.59 144.94 159.827 145.975 160.375 146.85C162.829 150.352 167.516 146.655 165.549 142.207Z" fill="#191919"/>
<path d="M172.972 84.2641C173.025 85.5805 172.934 86.8987 172.7 88.1953C172.351 90.6356 170.652 91.7378 172.69 92.5249C173.439 92.8144 173.747 93.5322 172.839 93.6617C172.505 93.6829 172.172 93.6293 171.862 93.5047C171.552 93.3801 171.274 93.1877 171.048 92.9416C170.823 92.6955 170.655 92.402 170.557 92.0827C170.46 91.7633 170.435 91.4262 170.485 91.096C170.531 90.7792 170.634 90.4733 170.788 90.1926C171.695 88.7076 171.549 87.0353 172.1 83.1694C172.139 82.8979 172.703 80.8057 172.972 84.2641Z" fill="#191919"/>
<path d="M177.784 94.7249C176.293 97.4252 171.879 96.5837 172.504 95.4155C172.719 95.0129 175.337 96.9491 177.537 93.5295C177.784 93.216 178.82 92.1699 177.784 94.7249Z" fill="#191919"/>
<path d="M179.882 81.9957C179.914 82.0883 179.909 82.1897 179.868 82.2786C179.826 82.3675 179.753 82.4371 179.661 82.4728C179.57 82.5085 179.469 82.5075 179.378 82.4701C179.288 82.4327 179.215 82.3618 179.176 82.2721C178.377 81.5577 177.554 80.3507 176.434 80.896C175.755 81.226 175.436 80.5454 176.126 80.2113C177.823 79.3871 179.526 80.7912 179.882 81.9957Z" fill="#191919"/>
<path d="M177.257 83.999C177.55 84.0401 177.821 84.1797 178.025 84.395C178.228 84.6102 178.353 84.8884 178.378 85.1837C178.381 85.4834 178.267 85.7724 178.059 85.9885C177.851 86.2045 177.567 86.3303 177.267 86.3387C175.969 86.3247 175.919 84.0246 177.257 83.999Z" fill="#191919"/>
<path d="M170.293 80.63C169.527 80.6928 168.814 81.0471 168.302 81.62C167.898 82.4912 167.564 81.9549 167.712 81.2429C167.941 80.1383 169.821 79.4469 170.868 79.8883C171.554 79.9609 172.057 80.8692 170.293 80.63Z" fill="#191919"/>
<path d="M170.069 85.3537C170.088 85.4837 170.08 85.6163 170.044 85.7426C170.008 85.869 169.945 85.9861 169.86 86.0862C169.774 86.1863 169.669 86.2669 169.55 86.3227C169.431 86.3785 169.301 86.4082 169.17 86.4097C169.039 86.4113 168.908 86.3847 168.788 86.3317C168.668 86.2787 168.56 86.2005 168.473 86.1025C168.385 86.0045 168.32 85.8889 168.281 85.7634C168.242 85.6379 168.23 85.5056 168.246 85.3752C168.248 83.7409 170.076 83.8885 170.069 85.3537Z" fill="#191919"/>
<path d="M99.3356 93.7632C98.6453 93.8854 97.9342 93.798 97.294 93.5121C96.6539 93.2262 96.1141 92.7551 95.7444 92.1594C95.0889 91.2925 94.65 90.2816 94.464 89.2108C94.1422 87.0658 96.1965 88.2959 98.6022 88.8602C99.6532 89.1077 100.717 89.295 101.784 89.4658C102.714 89.6143 103.045 90.0383 102.709 90.9161C102.377 91.5999 101.905 92.2065 101.324 92.6969C100.743 93.1872 100.066 93.5505 99.3356 93.7632V93.7632ZM95.7601 89.4501C95.8536 90.0973 96.1327 90.7035 96.5637 91.1953C96.9946 91.6871 97.5588 92.0435 98.188 92.2213C98.6944 92.2781 99.2065 92.1905 99.6652 91.9686C100.124 91.7467 100.51 91.3996 100.78 90.9673C99.1187 90.4649 97.4282 89.9542 95.7601 89.4501V89.4501Z" fill="#191919"/>
<path d="M102.448 86.9307C101.529 87.5239 100.756 87.2054 101.541 86.1503C101.849 85.6988 102.044 85.1792 102.108 84.6361C102.172 84.093 102.103 83.5425 101.907 83.0318C100.759 79.1543 99.3497 75.0293 99.2779 74.5475C99.2515 74.3775 99.3464 74.0747 99.4635 74.0269C99.5608 74.0061 99.6619 74.0108 99.7569 74.0406C99.8518 74.0704 99.9375 74.1242 100.006 74.1968C101.235 76.9468 102.309 79.7633 103.223 82.6333C103.555 83.3415 103.659 84.1355 103.52 84.9054C103.382 85.6753 103.007 86.3831 102.448 86.9307V86.9307Z" fill="#191919"/>
<path d="M106.193 74.9203C106.305 75.9194 105.711 75.6381 105.471 75.3188C105.336 75.1406 103.691 73.9378 102.84 74.2884C102.251 74.5912 101.656 74.0021 102.246 73.3322C103.594 71.8018 106.055 73.6828 106.193 74.9203Z" fill="#191919"/>
<path d="M95.6818 80.7748C94.8617 80.7748 94.4492 79.8962 94.4492 79.2898C94.4492 78.6108 94.6769 77.6299 95.3724 77.6299C97.2575 77.6332 97.4687 80.7748 95.6818 80.7748Z" fill="#191919"/>
<path d="M104.377 80.28C102.919 80.2527 102.856 77.5773 104.25 77.4271C105.755 77.2654 105.906 80.3097 104.377 80.28Z" fill="#191919"/>
<path d="M95.8016 74.1402C95.2999 74.1518 94.8095 74.2916 94.3772 74.5463C93.9448 74.8011 93.5848 75.1623 93.3316 75.5955C92.8803 76.456 92.5891 75.4891 92.6303 75.3777C92.6826 74.8729 92.9049 74.4007 93.2606 74.0388C93.6374 73.6611 94.1105 73.394 94.6285 73.2665C95.1465 73.1391 95.6895 73.1562 96.1985 73.3161C97.1299 73.5182 97.1084 74.1345 95.8016 74.1402Z" fill="#191919"/>
<path d="M86.108 147.504C84.9975 147.504 83.8805 147.512 82.7552 147.504C82.6111 147.518 82.4658 147.501 82.3288 147.454C82.1918 147.408 82.0661 147.333 81.9598 147.235C81.8536 147.137 81.7692 147.017 81.7123 146.884C81.6553 146.751 81.6269 146.608 81.629 146.463C81.5804 145.874 81.5762 145.273 81.5762 144.684C81.565 144.555 81.581 144.425 81.623 144.303C81.6651 144.18 81.7324 144.068 81.8205 143.974C81.9086 143.879 82.0155 143.804 82.1345 143.753C82.2534 143.703 82.3817 143.678 82.511 143.68C83.675 143.634 84.8383 143.664 86.108 143.664V147.504Z" fill="#191919"/>
<path d="M88.508 147.121C88.1153 146.908 87.7374 146.67 87.334 146.499C87.1516 146.398 86.9974 146.254 86.8853 146.078C86.7733 145.903 86.7072 145.702 86.6929 145.494C86.6786 145.287 86.7167 145.079 86.8036 144.89C86.8905 144.7 87.0235 144.536 87.1904 144.412C87.6029 144.17 87.9874 143.88 88.5104 143.524L88.508 147.121Z" fill="#191919"/>
<path d="M100.005 146.388H100.674V147.248C99.9355 147.28 99.2029 147.312 98.4323 147.35V146.537L99.3299 146.435C99.1335 146.138 99.0057 145.931 98.8679 145.724C97.6774 143.938 97.8779 144.486 98.2079 143.763C98.3622 143.896 98.6064 143.998 98.66 144.162C98.8019 144.598 98.9941 144.98 99.4941 144.987C100.025 144.998 100.154 144.566 100.285 144.142C100.338 143.977 100.533 143.861 100.668 143.729C100.985 144.313 101.223 143.925 100.28 145.588C100.153 145.812 99.9825 146.013 99.834 146.226C99.8876 146.281 99.9437 146.335 100.005 146.388Z" fill="#191919"/>
<path d="M100.068 142.765C100.101 143.165 100.093 143.567 100.047 143.965C99.9987 144.199 99.7281 144.39 99.5631 144.597C99.3453 144.412 98.96 144.241 98.9369 144.035C98.8376 143.153 98.8001 142.265 98.8247 141.378C98.8305 141.187 99.2372 140.836 99.3931 140.868C99.532 140.91 99.6591 140.983 99.7643 141.083C99.8695 141.182 99.9498 141.305 99.9987 141.442C100.056 141.879 100.065 142.322 100.026 142.762L100.068 142.765Z" fill="#191919"/>
<path d="M196.122 52.0551C195.562 51.7094 196.08 50.0371 196.17 48.4804C196.305 46.1596 199.114 45.7579 199.618 47.3749C199.983 48.5422 200.336 49.7137 200.643 50.8976C200.67 51.0489 200.666 51.204 200.631 51.3536C200.596 51.5033 200.532 51.6445 200.442 51.7688C200.197 52.1465 199.85 52.4465 199.441 52.6337C199.032 52.8208 198.578 52.8875 198.132 52.8256C197.43 52.6608 196.754 52.4016 196.122 52.0551V52.0551ZM198.119 47.671C197.225 47.6083 197.085 48.487 197.226 49.392C197.309 49.9076 197.556 50.3383 198.13 50.3911C198.542 50.4282 198.946 49.8647 199.001 49.2856C199.073 48.4672 198.944 47.7304 198.119 47.671ZM197.885 51.9049C197.39 51.4372 196.998 51.0601 196.541 50.6245C196.457 51.4446 196.93 51.9066 197.881 51.9066L197.885 51.9049ZM199.973 51.5436C199.89 51.4537 199.795 51.358 199.71 51.2672C199.463 51.5147 199.221 51.7564 198.983 52.0006C199.051 52.0749 199.12 52.1549 199.195 52.2292C199.445 52.0023 199.709 51.7738 199.969 51.5485L199.973 51.5436Z" fill="#38A1FF"/>
<path d="M175.462 147.972C174.655 147.902 173.906 147.839 173.152 147.77V146.963H174.087C173.906 146.643 173.791 146.431 173.675 146.214C172.72 144.453 172.908 144.962 173.239 144.301C173.377 144.45 173.595 144.578 173.652 144.753C173.894 145.549 174.37 145.844 174.9 145.438C175.065 145.311 175.122 145.044 175.266 144.875C175.416 144.729 175.58 144.599 175.755 144.487C176.008 145.208 176.37 144.71 174.543 146.983C174.98 147.053 175.207 147.09 175.516 147.138C175.495 147.393 175.478 147.653 175.462 147.972Z" fill="#191919"/>
<path d="M175.116 144.539C175.085 144.937 174.852 145.291 174.442 145.187C174.302 145.123 174.18 145.026 174.087 144.904C173.993 144.781 173.931 144.638 173.905 144.486C173.876 143.706 173.924 142.924 174.049 142.154C174.103 142.01 174.191 141.881 174.306 141.779C174.421 141.678 174.559 141.606 174.709 141.57C175.107 141.52 175.262 141.872 175.234 142.265C175.085 144.354 175.15 144.118 175.116 144.539Z" fill="#191919"/>
<path d="M163.447 142.629C163.372 143.718 163.309 144.68 163.245 145.681C162.469 145.623 161.752 145.575 161.04 145.516C160.944 145.516 160.848 145.496 160.76 145.457C160.672 145.418 160.593 145.36 160.528 145.289C160.464 145.217 160.415 145.133 160.385 145.041C160.355 144.949 160.345 144.852 160.355 144.756C160.311 142.285 160.342 142.629 163.447 142.629Z" fill="#191919"/>
<path d="M164.954 145.613C164.465 145.225 163.659 145.183 163.694 144.349C163.728 143.563 163.822 143.446 165.118 142.83C165.062 143.784 165.003 144.7 164.954 145.613Z" fill="#191919"/>
<path d="M197.881 51.9054C196.93 51.9054 196.458 51.4434 196.538 50.625C196.994 51.0606 197.387 51.4327 197.881 51.9054Z" fill="#191919"/>
<path d="M199.969 51.5483C199.709 51.7769 199.452 52.0054 199.191 52.2339C199.122 52.1597 199.053 52.0796 198.979 52.0054C199.227 51.7579 199.467 51.517 199.707 51.272C199.797 51.3594 199.879 51.4493 199.969 51.5483Z" fill="#191919"/>
<path d="M104.833 60.7518C104.524 60.4737 104.196 60.2181 103.85 59.987C101.913 58.8335 99.6231 58.4231 97.4061 58.832C85.5929 60.8945 79.3295 74.7059 80.5976 85.963C80.8574 88.273 81.6404 85.256 81.873 82.1804C82.0474 78.6339 82.8776 75.1505 84.3216 71.9066C86.2868 67.7519 88.789 64.0427 93.0443 61.8763C96.808 59.959 100.662 59.0152 104.833 60.7518ZM114.013 93.5777C113.864 91.5722 113.105 91.9525 112.916 92.4491C112.631 93.204 112.415 93.9787 112.161 94.7435C110.649 99.3016 106.875 106.101 102.87 109.422C100.35 111.512 97.779 112.868 97.2098 113.69C97.4515 113.824 97.5761 114.128 98.6123 113.794C101.527 112.822 104.127 111.084 106.14 108.762C108.851 105.656 111.053 102.139 112.664 98.3438C113.457 96.873 113.917 95.246 114.013 93.5777V93.5777ZM100.768 116.952C100.784 117 100.792 117.046 100.808 117.098C102.275 117.133 103.72 116.734 104.962 115.951C108.979 113.57 112.321 110.204 114.673 106.171C114.828 105.828 114.867 105.444 114.785 105.077C114.75 104.952 114.686 104.837 114.599 104.742C114.511 104.647 114.402 104.574 114.281 104.53C112.844 104.2 113.184 108.05 103.863 114.842C102.855 115.581 101.799 116.251 100.768 116.952ZM112.504 74.9096C111.887 75.0639 112.587 74.2109 111.392 83.7289C111.144 85.6627 110.673 87.5643 110.355 89.4923C110.171 90.6086 109.665 91.6761 109.86 92.8608C109.951 93.4078 110.152 93.3921 110.524 93.1636C110.827 92.946 111.083 92.6703 111.277 92.3528C111.472 92.0352 111.601 91.6821 111.658 91.3139C113.316 84.8039 113.15 82.5104 112.9 76.3064C112.825 75.8265 112.692 75.3575 112.504 74.9096ZM97.7831 106.514C97.7831 106.439 97.7831 106.359 97.7889 106.285C96.1846 105.777 94.614 105.169 93.0864 104.463C90.3921 103.11 88.2167 100.909 86.8948 98.1994C86.5557 97.4767 86.38 96.6756 86.0525 95.9414C85.701 95.1551 85.2101 95.0693 84.9263 96.0239C84.7681 96.7328 84.8678 97.4749 85.2077 98.1169C86.4353 101.031 88.5706 103.472 91.2962 105.076C93.9659 106.71 95.9475 106.881 97.7831 106.514ZM86.4806 115.879C86.1357 115.451 85.7457 115.061 85.3174 114.716C83.3403 113.55 81.1161 112.868 78.8255 112.724C78.1092 112.667 77.3952 112.857 76.8009 113.261C75.8109 113.863 76.5534 114.452 77.1466 114.408C81.5768 114.077 85.8223 117.003 86.4839 115.879H86.4806Z" fill="#191919"/>
<path d="M112.488 68.0351C113.885 71.7955 113.566 74.0626 113.838 74.7391C115.138 77.9822 115.34 83.4329 115.206 86.6108C115.034 90.5898 116.691 89.1857 117.171 95.3072C117.357 97.701 117.119 100.109 116.469 102.42C116.312 103.42 116.284 104.436 116.387 105.443C116.387 105.845 117.038 106.214 118.921 108.243C119.606 108.986 119.972 109.481 121.104 110.785L121.232 112.522C121.071 112.768 120.924 113.023 120.791 113.285C120.11 115.004 119.105 116.576 117.832 117.917C116.213 119.479 114.395 120.821 112.424 121.907C107.114 124.921 102.642 123.622 101.242 123.899C98.6594 124.41 94.9378 126.203 90.0167 124.685C84.8093 123.078 83.0611 119.433 81.3096 118.044C79.6085 116.696 77.5377 116.414 75.4282 116.387C74.3285 116.139 73.2213 115.885 72.1216 115.63C73.7666 113.252 75.3713 114.398 76.5815 111.037C78.3965 106.005 76.1806 104.408 75.2269 83.8644C74.9488 80.687 75.1168 77.4863 75.726 74.3555C77.1879 68.1556 80.3262 63.0818 85.8776 59.7191C95.0021 54.1925 108.656 57.7177 112.488 68.0351ZM108.408 82.3307C108.031 78.426 107.935 75.5311 106.187 73.4059C104.516 71.2664 102.619 69.3126 100.53 67.5781C99.8028 67.0006 98.3846 67.5847 97.5654 68.0137C94.244 69.622 91.4084 72.0821 89.3476 75.1433C88.3717 76.436 87.716 77.9415 87.4344 79.5365C87.2379 81.0935 87.1686 82.664 87.2273 84.2324C87.6605 91.0436 91.1585 94.6851 96.7264 98.2145C97.1255 98.4575 97.6009 98.5428 98.0596 98.4537C98.9541 98.2644 99.8107 97.927 100.594 97.4555C106.074 93.7355 108.358 88.9926 108.408 82.3307ZM104.833 60.7512C104.524 60.4731 104.196 60.2175 103.85 59.9864C101.913 58.8329 99.6232 58.4225 97.4062 58.8314C85.593 60.8939 79.3296 74.7053 80.5976 85.9624C80.8575 88.2724 81.6404 85.2554 81.8731 82.1798C82.0475 78.6333 82.8777 75.1499 84.3217 71.906C86.2868 67.7513 88.7891 64.0421 93.0444 61.8757C96.8081 59.9584 100.662 59.0146 104.833 60.7512ZM114.013 93.5771C113.864 91.5716 113.105 91.9519 112.916 92.4485C112.632 93.2034 112.415 93.9781 112.161 94.7429C110.649 99.301 106.875 106.101 102.87 109.421C100.35 111.511 97.7791 112.867 97.2098 113.69C97.4516 113.823 97.5761 114.128 98.6123 113.794C101.527 112.821 104.127 111.083 106.14 108.761C108.851 105.655 111.053 102.139 112.664 98.3432C113.457 96.8724 113.917 95.2454 114.013 93.5771V93.5771ZM100.768 116.952C100.784 117 100.792 117.045 100.808 117.098C102.275 117.133 103.721 116.733 104.962 115.95C108.979 113.57 112.321 110.203 114.673 106.17C114.828 105.827 114.867 105.443 114.785 105.076C114.75 104.951 114.687 104.837 114.599 104.742C114.511 104.646 114.402 104.574 114.281 104.529C112.844 104.199 113.184 108.049 103.863 114.842C102.855 115.581 101.799 116.251 100.768 116.952ZM112.505 74.909C111.887 75.0633 112.587 74.2103 111.392 83.7283C111.144 85.6621 110.673 87.5637 110.355 89.4917C110.171 90.608 109.665 91.6755 109.86 92.8602C109.951 93.4072 110.152 93.3915 110.525 93.163C110.827 92.9454 111.083 92.6698 111.277 92.3522C111.472 92.0346 111.601 91.6815 111.658 91.3133C113.316 84.8033 113.15 82.5098 112.901 76.3058C112.825 75.8259 112.692 75.3569 112.505 74.909ZM97.7832 106.513C97.7832 106.439 97.7832 106.359 97.789 106.285C96.1847 105.777 94.6141 105.168 93.0865 104.462C90.3922 103.109 88.2168 100.909 86.8949 98.1988C86.5558 97.4761 86.3801 96.675 86.0525 95.9408C85.7011 95.1545 85.2102 95.0687 84.9264 96.0233C84.7682 96.7322 84.8679 97.4743 85.2077 98.1163C86.4354 101.031 88.5707 103.471 91.2962 105.075C93.9659 106.709 95.9476 106.88 97.7832 106.513ZM86.4807 115.879C86.1357 115.45 85.7458 115.06 85.3175 114.715C83.3404 113.55 81.1161 112.867 78.8255 112.723C78.1093 112.667 77.3953 112.856 76.801 113.26C75.811 113.862 76.5535 114.451 77.1467 114.408C81.5769 114.076 85.8224 117.002 86.484 115.879H86.4807Z" fill="#38A1FF"/>
</svg>
