<svg width="367" height="395" viewBox="0 0 367 395" fill="none" xmlns="http://www.w3.org/2000/svg">
<rect width="367" height="395" rx="25" fill="white"/>
<path d="M111.037 173.489C103.295 179.553 103.54 164.753 107.166 166.049C107.989 166.349 110.996 169.349 111.59 167.426C111.849 166.593 109.655 157.226 108.826 155.3C114.776 150.739 119.209 144.495 121.544 137.385C121.544 136.559 119.334 137.661 119.334 137.661C119.785 136.523 119.974 135.298 119.886 134.078C119.838 134.014 119.775 133.962 119.703 133.926C119.631 133.89 119.552 133.872 119.471 133.872C119.391 133.872 119.312 133.89 119.24 133.926C119.168 133.962 119.105 134.014 119.057 134.078C117.674 136.835 114.357 137.378 111.59 137.661C108.279 137.661 96.6578 136.011 92.51 137.937C90.5746 138.764 88.3622 141.519 89.199 146.487C89.199 147.039 90.0282 150.347 90.5806 150.621C92.7207 150.613 94.8229 151.183 96.6638 152.271C96.9407 152.546 96.6638 152.822 96.3884 152.822C95.2822 152.822 94.4514 152.546 93.6222 152.546C89.7513 152.271 84.2204 152.271 83.6681 157.232C83.1143 161.09 84.4974 164.949 85.8805 168.257C87.536 172.389 96.6638 185.895 97.77 186.446C98.1573 186.453 98.5434 186.4 98.9138 186.287C99.2012 189.188 99.7295 192.077 100.259 194.714C100.535 196.364 102.195 196.643 101.915 194.714C101.128 191.837 100.589 188.96 99.8273 186.083C103.766 185.165 112.111 182.816 113.806 181.761C114.357 181.482 111.861 172.662 111.037 173.489ZM114.08 141.795C114.222 141.806 114.356 141.868 114.458 141.969C114.559 142.07 114.621 142.203 114.632 142.346C114.632 144.045 109.313 145.046 109.101 145.103C108.826 145.103 108.549 144.551 108.826 144.551C109.133 144.243 113.321 141.543 114.08 141.795V141.795ZM99.9718 175.97C99.9726 176.006 99.966 176.042 99.9524 176.076C99.9387 176.11 99.9184 176.141 99.8925 176.167C99.8666 176.192 99.8358 176.213 99.8018 176.226C99.7678 176.24 99.7315 176.246 99.6949 176.246C98.8656 176.522 98.0394 175.694 97.7594 175.143C97.1671 174.439 96.6144 173.703 96.1039 172.938C96.2283 175.14 96.7911 177.294 97.7594 179.277C97.8361 179.461 97.8508 179.665 97.8012 179.857C97.7517 180.05 97.6406 180.222 97.4847 180.346C97.3287 180.471 97.1365 180.541 96.9368 180.547C96.7372 180.553 96.541 180.494 96.3778 180.38C94.4985 178.412 92.9149 176.184 91.6762 173.765C90.3488 171.255 88.9115 168.804 89.1885 165.773C89.1885 165.497 89.7408 165.221 89.7408 165.773C90.3874 168.346 91.5103 170.776 93.0518 172.938C93.6025 174.01 94.2568 175.025 95.0053 175.97C94.4925 174.177 94.3978 172.292 94.7284 170.457C94.7349 170.295 94.796 170.14 94.9018 170.017C95.0076 169.893 95.1519 169.809 95.3115 169.777C95.4711 169.746 95.6368 169.768 95.7819 169.842C95.927 169.915 96.0431 170.035 96.1115 170.183C97.3636 172.692 100.337 174.53 99.9718 175.97ZM94.17 141.243C93.8841 141.378 93.6463 141.203 93.8931 140.969C94.9193 140.121 96.1202 139.508 97.4105 139.175C98.7009 138.841 100.049 138.795 101.359 139.04C103.555 139.38 105.773 139.564 107.995 139.59C108.145 139.59 112.083 139.1 110.484 140.693C108.609 142.094 104.409 141.411 102.189 140.969C99.5551 140.203 96.7447 140.299 94.17 141.243V141.243Z" fill="#191919"/>
<path d="M125.694 167.425C126.396 166.864 126.96 166.15 127.343 165.338C127.726 164.526 127.918 163.637 127.904 162.74C127.904 159.035 124.894 156.721 122.375 153.644C121.008 151.978 119.333 150.613 117.673 148.96C117.396 148.684 116.844 148.96 117.121 149.51C118.227 150.889 119.333 152.543 120.432 153.92C123.686 157.97 125.549 159.92 125.961 162.188C125.978 163.641 125.596 165.071 124.855 166.322C124.786 165.908 124.594 165.524 124.303 165.22C124.026 164.945 123.657 164.965 123.749 165.496C124.473 169.649 125.405 174.316 124.026 178.724C123.623 180.256 122.865 181.672 121.814 182.858C120.707 184.237 119.049 184.789 117.666 185.891C117.389 186.166 117.389 186.718 117.943 186.718C119.878 186.992 121.537 185.615 122.92 184.513C124.288 183.101 125.329 181.407 125.969 179.551C127.126 175.576 127.029 171.343 125.694 167.425V167.425Z" fill="#191919"/>
<path d="M171.595 196.088C176.226 194.768 179.08 192.908 188.186 188.371C191.662 187.216 193.316 186.53 194.821 183.41C207.578 156.952 209.185 139.637 210.588 135.451C210.907 133.818 211.09 132.163 211.137 130.501C211.137 129.673 210.031 129.673 209.754 130.225C209.043 133.133 208.491 136.077 208.098 139.045C205.488 151.893 201.597 164.449 196.484 176.527C195.13 179.572 194.272 183.967 191.23 185.621C188.193 187.287 185.053 188.76 181.829 190.031C178.48 191.623 175.192 193.613 171.595 195.268C170.764 195.536 171.041 196.088 171.595 196.088Z" fill="#191919"/>
<path d="M209.204 126.083C207.549 124.705 205.869 123.625 203.95 122.225C202.843 121.63 201.895 120.779 201.184 119.744C200.843 119.108 200.665 118.398 200.665 117.677C200.665 116.956 200.843 116.246 201.184 115.61C201.712 114.092 202.36 112.618 203.119 111.2C203.673 109.823 204.502 108.445 205.056 107.066C205.332 106.516 204.502 105.964 203.95 106.516C202.96 107.792 202.125 109.179 201.461 110.65C200.355 113.129 198.637 116.168 198.972 118.918C199.173 119.847 199.573 120.722 200.145 121.483C200.716 122.244 201.445 122.873 202.283 123.328C204.239 124.678 206.43 126.083 208.366 127.186C209.204 127.186 209.756 126.634 209.204 126.083Z" fill="#191919"/>
<path d="M206.716 112.305C207.626 107.314 207.851 101.664 208.371 98.5244C208.648 96.8744 208.648 95.2244 208.925 93.5639C209.202 92.4614 209.478 93.8399 209.754 94.1159C210.031 95.2184 210.575 96.3224 210.861 97.6979C211.664 101.562 211.967 105.691 212.516 109.548C212.534 109.718 212.615 109.876 212.742 109.991C212.87 110.105 213.036 110.169 213.208 110.169C213.38 110.169 213.545 110.105 213.673 109.991C213.801 109.876 213.881 109.718 213.899 109.548C214.094 103.817 213.154 98.1047 211.135 92.7359C211.043 92.2853 210.802 91.8783 210.451 91.5793C210.101 91.2804 209.66 91.1068 209.199 91.0859C207.264 91.0859 207.544 94.3859 207.264 95.4944C206.704 100.897 206.426 106.325 206.433 111.756C205.887 112.581 206.439 112.581 206.716 112.305Z" fill="#191919"/>
<path d="M221.37 103.76C222.454 104.704 223.225 105.954 223.582 107.343C223.859 108.708 223.859 110.113 223.582 111.477C223.444 111.681 223.37 111.921 223.37 112.167C223.37 112.412 223.444 112.652 223.582 112.856C223.859 113.13 224.135 112.856 224.412 112.58C225.495 111.5 225.345 108.585 224.965 107.067C224.738 106.183 224.325 105.357 223.753 104.644C223.181 103.931 222.463 103.348 221.647 102.933C221.253 102.794 221.093 103.485 221.37 103.76Z" fill="#191919"/>
<path d="M227.732 124.706C228.65 122.782 229.302 120.743 229.667 118.643C230.17 115.054 230.221 110.375 227.732 107.344C227.455 106.792 226.626 107.344 226.902 107.894C228.281 111.211 228.572 114.877 227.732 118.367C227.178 121.667 225.173 124.4 223.861 127.463C223.275 128.828 225.253 143.998 225.796 151.715C226.359 159.707 226.349 167.701 226.349 175.693C226.349 183.41 225.805 191.128 225.242 199.12C225.022 202.947 224.373 206.737 223.307 210.419C222.372 213.165 220.755 215.63 218.607 217.585C215.89 220.359 212.822 222.768 209.481 224.75C207.551 225.862 205.887 226.955 203.951 228.05C202.007 229.083 200.156 230.282 198.42 231.634C197.867 231.908 198.42 232.736 198.973 232.46C202.697 231.197 206.232 229.435 209.481 227.224C212.516 225.359 215.386 223.238 218.059 220.885C220.345 218.906 222.305 216.581 223.867 213.995C225.46 210.716 226.399 207.159 226.632 203.522C229.655 181.67 228.388 150.623 224.976 128.833C226.349 128.29 227.455 125.533 227.732 124.706Z" fill="#191919"/>
<path d="M46.8845 275.463C46.4932 281.313 43.2996 295.925 41.9075 301.644C40.6644 306.752 40.5244 306.452 40.5244 307.709C40.5244 308.259 41.0767 308.535 41.6306 307.983C42.6404 306.495 43.3019 304.8 43.566 303.023C44.3712 299.369 47.9907 281.225 47.9907 275.463C47.7138 274.635 46.8845 274.635 46.8845 275.463Z" fill="#191919"/>
<path d="M214.457 101.831C215.009 102.658 215.839 103.21 216.112 104.036C216.902 105.765 217.28 107.651 217.219 109.549C217.219 111.464 219.381 109.699 218.602 106.249C218.324 104.862 217.76 103.549 216.946 102.391C216.333 101.692 215.579 101.13 214.734 100.741C214.457 101.005 214.18 101.551 214.457 101.831Z" fill="#191919"/>
<path d="M142.008 258.375C141.454 258.651 141.175 257.817 141.731 257.549C145.854 255.563 197.313 236.879 197.868 236.603C195.657 230.814 179.064 187.821 178.512 185.616C178.462 185.486 178.386 185.367 178.288 185.267C178.19 185.168 178.072 185.089 177.942 185.038C177.812 184.986 177.673 184.961 177.533 184.966C177.393 184.971 177.255 185.004 177.129 185.064C171.046 189.198 134.268 202.152 133.439 202.428C124.311 192.782 96.6611 191.402 85.044 196.64C84.8658 196.693 84.7096 196.802 84.5985 196.951C84.4874 197.099 84.4274 197.28 84.4274 197.465C84.4274 197.65 84.4874 197.831 84.5985 197.979C84.7096 198.128 84.8658 198.237 85.044 198.29C87.7892 199.136 89.6493 202.878 90.0226 203.25C80.067 206.55 70.8534 212.003 64.5881 220.337C56.5183 231.065 55.7086 237.998 43.0199 278.765C43.0013 278.915 43.0164 279.067 43.064 279.21C43.1117 279.353 43.1907 279.484 43.2953 279.593C49.3801 280.695 55.7387 280.97 61.8234 282.072C61.3418 268.655 61.5826 253.463 65.1344 240.456C66.5715 234.491 68.8037 228.745 71.7714 223.37C72.0484 223.094 72.6007 223.37 72.3253 223.644C70.7181 226.887 69.5108 230.312 68.7298 233.844C62.1003 253.665 64.421 281.835 64.859 302.744C64.9222 305.775 65.1344 308.808 65.4113 311.84C68.4539 312.785 71.6262 313.25 74.8131 313.217C77.5792 313.217 95.5459 312.038 101.912 311.567C115.174 310.58 154.452 308.811 161.089 309.362C161.304 309.348 161.507 309.257 161.66 309.105C161.812 308.952 161.904 308.75 161.918 308.535C162.056 301.365 164.96 255.62 164.96 252.585C157.194 254.028 149.528 255.962 142.008 258.375V258.375ZM122.096 231.09C123.132 236.83 125.194 242.338 128.182 247.352C128.29 247.445 128.372 247.566 128.418 247.701C128.465 247.836 128.474 247.981 128.446 248.121C128.418 248.261 128.353 248.391 128.258 248.498C128.163 248.605 128.041 248.684 127.905 248.729C127.353 248.729 126.799 247.626 126.523 247.352C125.417 245.702 124.311 243.768 123.205 241.839C121.54 237.875 120.426 233.702 119.894 229.437C118.876 221.351 121.7 213.315 124.871 209.594C125.124 209.294 128.743 206.01 128.466 207.113C128.189 207.939 127.058 208.742 126.531 209.318C125.196 210.961 124.166 212.827 123.489 214.83C121.602 220.035 121.122 225.642 122.096 231.09V231.09ZM113.517 202.152C115.298 202.306 116.965 203.088 118.219 204.357C118.271 204.426 118.305 204.506 118.319 204.591C118.333 204.675 118.326 204.762 118.299 204.843C118.272 204.925 118.225 204.998 118.163 205.058C118.1 205.117 118.025 205.16 117.942 205.184C113.741 205.184 114.202 202.979 96.6491 202.979C96.0968 202.979 96.3737 202.428 96.6491 202.428C100.505 202.133 109.562 201.494 113.526 202.152H113.517Z" fill="#38A1FF"/>
<path d="M233.536 83.0899C227.379 83.0899 193.574 82.5109 188.187 83.0899C185.15 83.4169 181.827 83.9164 179.609 86.3899C178.384 87.6734 177.608 89.317 177.396 91.0759C177.107 94.6526 177.107 98.2466 177.396 101.823C177.652 104.858 177.637 107.922 180.161 110.373C185.072 115.128 193.431 112.716 199.518 112.854C199.629 112.854 199.734 112.811 199.812 112.733C199.89 112.655 199.934 112.55 199.934 112.44C199.934 112.331 199.89 112.225 199.812 112.148C199.734 112.07 199.629 112.026 199.518 112.026C197.029 112.026 194.264 111.752 191.775 111.752C186.896 111.752 182.312 111.627 180.161 107.342C178.779 104.586 179.055 101.003 179.055 97.9714C179.055 95.2159 178.779 91.3564 180.161 88.8769C181.543 86.3974 184.592 85.3519 187.352 85.0174C191.116 84.6067 194.902 84.4228 198.689 84.4669C240.614 84.4669 243.225 84.3454 244.315 84.4669C245.703 84.709 247.028 85.2235 248.215 85.9805C249.402 86.7376 250.425 87.7221 251.227 88.8769C252.84 91.6179 253.427 94.8401 252.883 97.9714C252.815 98.3794 252.5 104.742 250.947 107.342C248.547 111.357 239.533 111.485 237.402 111.752H232.424C232.148 111.752 231.042 111.752 231.318 112.302H231.594C235.734 112.681 239.899 112.681 244.038 112.302C246.804 112.026 249.569 111.476 251.227 109.271C252.883 107.342 253.125 104.856 253.44 102.381C253.746 100.465 253.931 98.532 253.993 96.5929C254.132 94.8501 254.132 93.0991 253.993 91.3564C253.634 89.8393 252.955 88.4159 252.001 87.1805C251.048 85.945 249.842 84.926 248.462 84.1909C247.141 83.5309 242.766 83.0899 233.536 83.0899Z" fill="#191919"/>
<path d="M280.545 170.181C286.612 170.754 292.715 170.846 298.796 170.455C301.055 170.468 303.3 170.095 305.433 169.353C306.551 168.895 307.566 168.221 308.421 167.37C309.275 166.518 309.951 165.506 310.41 164.392C310.857 162.967 311.044 161.474 310.962 159.982C310.962 156.666 311.041 156.082 310.687 155.022C310.687 154.746 310.133 154.746 310.133 155.022C309.757 156.272 309.662 157.589 309.856 158.88C309.825 160.274 309.64 161.66 309.304 163.014C309.037 164.101 308.525 165.113 307.806 165.973C307.087 166.833 306.181 167.518 305.156 167.976C303.091 168.609 300.954 168.98 298.796 169.078C296.584 169.078 294.094 169.353 291.884 169.353C288.288 169.353 284.417 169.353 280.822 169.629C280.271 169.905 280.271 170.181 280.545 170.181Z" fill="#191919"/>
<path d="M216.116 228.056C226.404 228.28 255.332 228.977 261.742 228.332C264.782 228.032 267.86 227.831 270.32 226.127C273.407 223.985 273.916 220.615 273.916 217.307C274.586 206.617 274.718 199.046 263.96 198.292C258.437 197.903 252.9 198.292 247.092 198.292C232.455 198.292 233.397 198.566 230.778 198.566C230.668 198.566 230.562 198.61 230.484 198.688C230.406 198.765 230.363 198.871 230.363 198.98C230.363 199.09 230.406 199.195 230.484 199.273C230.562 199.351 230.668 199.394 230.778 199.394C231.884 199.394 233.82 199.646 235.203 199.669C243.501 199.807 251.792 199.135 260.089 199.669C264.513 199.954 270.373 199.928 271.979 205.181C273.407 209.852 273.079 216.205 272.254 220.891C271.141 227.228 261.469 226.903 256.492 226.954C242.947 227.092 229.67 226.678 216.121 227.23C215.839 227.506 215.839 228.05 216.116 228.056Z" fill="#191919"/>
<path d="M317.047 205.734C310.908 205.124 277.164 205.625 276.398 206.01C275.846 206.286 276.675 222.546 277.229 222.546C284.152 222.053 317.413 221.769 320.09 221.169C323.427 220.419 325.342 216.759 325.342 213.452C325.619 209.042 321.196 206.286 317.047 205.734Z" fill="#38A1FF"/>
<path d="M202.29 148.41C194.574 147.628 186.815 147.351 179.062 147.582C175.191 147.582 171.32 147.582 167.449 147.858C165.509 147.812 163.569 147.904 161.642 148.134C159.794 148.076 157.944 148.168 156.111 148.408C154.572 148.759 153.152 149.503 151.988 150.566C150.825 151.629 149.959 152.975 149.475 154.473C148.369 157.228 149.76 160.251 151.963 162.189C154.456 164.191 157.619 165.177 160.812 164.946C174.887 164.946 184.084 165.04 198.419 164.118C198.972 164.118 198.972 163.015 198.419 163.291C187.462 163.938 176.479 164.03 165.512 163.567C162.471 163.567 158.89 163.801 155.835 162.741C153.358 161.88 150.581 159.441 150.581 156.402C150.71 154.973 151.289 153.623 152.237 152.544C153.114 151.153 154.505 150.163 156.109 149.787C159.474 149.229 162.957 149.796 166.894 149.236C173.704 149.236 161.759 148.96 202.563 148.96C202.567 148.81 202.567 148.684 202.29 148.41Z" fill="#191919"/>
<path d="M322.025 91.0824C319.274 89.3994 315.941 89.6994 312.63 89.6994C258.877 89.6994 256.219 89.9079 256.219 91.0779C256.218 95.8669 255.941 100.652 255.388 105.409C255.283 105.477 255.201 105.576 255.155 105.693C255.108 105.809 255.1 105.937 255.13 106.059C255.161 106.181 255.229 106.29 255.325 106.371C255.421 106.452 255.54 106.501 255.665 106.511C271.18 107.395 290.706 106.57 314.842 106.235C317.33 106.201 320.096 106.235 322.307 104.585C327.759 101.564 328.062 94.7664 322.025 91.0824Z" fill="#38A1FF"/>
<path d="M323.683 150.887C321.196 148.408 312.069 147.856 312.069 148.958C312.069 153.368 312.069 163.565 312.623 164.116C313.361 164.587 314.242 164.782 315.111 164.668C316.88 164.745 318.651 164.559 320.365 164.116C321.753 163.735 323.018 163.002 324.036 161.987C325.054 160.973 325.791 159.712 326.173 158.329C326.336 156.982 326.198 155.616 325.768 154.329C325.337 153.042 324.625 151.867 323.683 150.887V150.887Z" fill="#38A1FF"/>
<path d="M309.857 146.206C305.342 139.456 295.953 140.969 289.672 140.969C286.076 140.969 282.205 140.969 278.61 140.693C255.628 140.693 244.747 139.514 240.174 141.796C239.218 142.117 238.335 142.624 237.576 143.286C236.817 143.948 236.196 144.752 235.749 145.654C235.334 146.424 235.045 147.255 234.891 148.115C231.104 148.108 229.223 148.024 228.836 148.415V149.242C229.215 149.586 229.707 149.782 230.22 149.792C232.92 149.792 234.071 149.873 234.671 149.882C234.578 151.298 234.643 152.711 234.643 153.932C234.424 157.353 234.692 160.787 235.437 164.132C230.758 164.132 230.381 164.051 229.666 164.408L229.703 165.511C229.854 165.661 229.008 165.511 235.951 165.511C236.346 166.443 236.923 167.289 237.648 167.998C238.373 168.708 239.231 169.267 240.174 169.645C243.16 170.636 245.069 170.471 257.871 170.471C268.773 170.471 275.931 170.171 277.504 170.197C277.614 170.197 277.719 170.153 277.797 170.075C277.875 169.998 277.919 169.893 277.919 169.783C277.919 169.673 277.875 169.568 277.797 169.49C277.719 169.412 277.614 169.369 277.504 169.369C275.848 169.369 273.91 169.094 272.25 169.094H255.106C250.405 169.094 244.044 170.197 239.897 167.992C238.733 167.27 237.785 166.249 237.153 165.037C236.521 163.824 236.227 162.465 236.303 161.101C236.026 156.967 235.473 151.456 236.578 147.32C236.961 146.244 237.631 145.291 238.515 144.565C242.243 140.849 250.305 141.809 296.307 141.809C299.903 141.809 303.496 141.809 306.263 143.738C307.584 144.637 308.623 145.891 309.259 147.354C309.896 148.817 310.103 150.43 309.857 152.006C310.134 152.282 310.134 152.282 310.41 152.006C310.806 151.069 310.963 150.049 310.866 149.036C310.77 148.024 310.423 147.052 309.857 146.206Z" fill="#191919"/>
<path d="M250.129 150.338C247.871 157.069 250.681 163.621 250.681 161.086C251.02 160.073 251.349 147.901 250.129 150.338Z" fill="#191919"/>
<path d="M260.635 149.511C260.11 151.346 260.36 152.559 260.36 158.607C260.36 160.302 260.486 161.087 261.741 161.087C262.516 160.572 262.295 160.152 262.295 155.576C262.295 146.679 260.304 149.511 260.635 149.511Z" fill="#191919"/>
<path d="M273.356 161.085C273.844 160.357 273.228 145.908 271.421 149.509C271.571 149.509 270.941 163.5 273.356 161.085Z" fill="#191919"/>
<path d="M282.203 149.785C281.899 152.807 281.806 155.846 281.926 158.88C281.926 159.708 281.926 161.085 282.48 161.637C282.755 161.913 283.233 161.901 283.309 161.637C283.551 160.645 283.644 159.624 283.585 158.605C283.701 155.563 283.516 152.516 283.032 149.509C283.032 149.235 282.203 149.235 282.203 149.785Z" fill="#191919"/>
<path d="M294.095 150.063C294.095 150.213 293.218 159.963 294.926 161.362C296.936 163.005 295.963 153.901 295.779 152.775C294.995 147.957 294.118 149.463 294.095 150.063Z" fill="#191919"/>
<path d="M192.058 92.7357C191.045 95.7657 191.866 95.7102 191.229 98.2482C191.229 99.8982 190.952 102.106 191.781 103.485C192.058 104.035 192.612 103.759 192.612 103.485C192.96 102.444 192.887 101.985 192.887 95.4912C192.887 94.6647 192.612 93.8412 192.612 92.7357C192.887 92.4597 192.335 92.1837 192.058 92.7357Z" fill="#191919"/>
<path d="M202.567 91.9095C201.992 94.9048 201.806 97.9615 202.014 101.004C202.014 101.831 202.014 103.209 202.844 103.485H203.396C204.225 102.933 203.95 101.835 203.95 101.004C204.153 97.9614 203.967 94.9054 203.396 91.9095C203.119 91.6335 202.567 91.3575 202.567 91.9095Z" fill="#191919"/>
<path d="M224.135 92.1839C223.832 95.2059 223.74 98.2452 223.86 101.28C223.86 102.106 223.86 103.485 224.412 104.035C224.689 104.311 225.222 104.335 225.303 104.067C225.524 103.062 225.596 102.03 225.519 101.004C225.635 97.9617 225.45 94.9155 224.966 91.9094C224.966 91.6334 224.135 91.6334 224.135 92.1839Z" fill="#191919"/>
<path d="M236.025 92.4613C236.025 92.6113 235.058 106.378 237.68 103.761C238.607 102.378 237.328 94.0243 236.851 92.1853C236.724 91.6813 236.025 91.9108 236.025 92.4613Z" fill="#191919"/>
<path d="M237.41 207.664C237.194 209.176 237.318 218.443 238.516 219.239C238.565 219.303 238.628 219.355 238.699 219.391C238.771 219.426 238.851 219.445 238.931 219.445C239.011 219.445 239.091 219.426 239.163 219.391C239.235 219.355 239.297 219.303 239.346 219.239C240.223 217.927 238.786 208.606 238.516 207.664C238.516 207.112 237.681 207.112 237.41 207.664Z" fill="#191919"/>
<path d="M248.193 208.215C247.889 211.236 247.797 214.275 247.917 217.309C247.917 218.137 247.917 219.514 248.47 220.066C248.746 220.341 249.299 220.341 249.299 220.066C249.853 219.24 249.576 218.137 249.576 217.035C249.692 213.992 249.507 210.946 249.023 207.939C249.023 207.388 248.193 207.664 248.193 208.215Z" fill="#191919"/>
<path d="M262.018 216.481C261.938 213.601 261.568 210.737 260.912 207.931C260.738 207.367 260.224 207.607 260.083 208.207C259.864 209.202 259.771 210.221 259.806 211.239C259.806 214.171 259.619 215.836 259.806 216.939C259.814 217.418 259.916 217.891 260.107 218.332C260.298 218.772 260.574 219.17 260.92 219.504C260.968 219.568 261.031 219.62 261.103 219.656C261.175 219.692 261.254 219.711 261.334 219.711C261.415 219.711 261.494 219.692 261.566 219.656C261.638 219.62 261.701 219.568 261.749 219.504C262.295 218.686 262.018 217.584 262.018 216.481Z" fill="#191919"/>
<path d="M227.454 211.523C227.454 212.901 227.177 214.278 227.177 215.657V218.688C227.177 219.24 227.731 219.515 228.283 219.515C230.268 219.515 228.743 214.623 228.283 211.799C228.143 210.938 227.454 211.247 227.454 211.523Z" fill="#191919"/>
<path d="M176.576 90.5298C175.396 90.2737 174.186 90.1808 172.98 90.2538C167.169 90.3918 161.091 89.7033 155.283 90.5298C153.368 90.8865 151.621 91.8536 150.306 93.2853C149.173 94.7457 148.559 96.5394 148.559 98.3853C148.559 100.231 149.173 102.025 150.306 103.485C153.725 107.885 161.217 106.241 169.109 106.241C171.32 106.103 173.536 106.103 175.746 106.241C175.917 106.223 176.076 106.143 176.191 106.015C176.306 105.888 176.369 105.723 176.369 105.552C176.369 105.38 176.306 105.215 176.191 105.088C176.076 104.96 175.917 104.88 175.746 104.862C174.089 104.734 172.425 104.734 170.768 104.862C168.835 105.162 166.62 105.138 164.685 105.414C158.847 105.414 155.793 105.707 153.347 104.312C151.871 103.375 150.816 101.904 150.403 100.209C149.991 98.5132 150.253 96.7244 151.135 95.2173C152.791 92.4603 156.112 91.9098 159.155 91.9098C163.855 91.6338 168.557 92.1843 173.257 91.9098C174.462 91.9553 175.669 91.8627 176.853 91.6338C176.85 91.0818 176.85 90.8058 176.576 90.5298Z" fill="#191919"/>
<path d="M214.025 92.1208C213.961 92.5075 213.921 92.8978 213.906 93.2893C213.906 95.8153 213.818 96.2338 214.183 96.5968C214.691 97.1038 215.289 95.8468 215.289 95.4943C215.386 94.3754 215.326 93.2484 215.108 92.1463C215.009 91.8148 214.098 91.7098 214.025 92.1208Z" fill="#191919"/>
<path d="M119.332 171.285C119.611 171.691 119.981 172.027 120.413 172.266C120.845 172.505 121.327 172.641 121.82 172.662C123.203 172.662 123.476 173.488 122.65 174.04C122.023 174.353 121.3 174.414 120.63 174.208C119.961 174.003 119.397 173.548 119.056 172.938C118.101 171.451 118.226 170.182 119.332 171.285Z" fill="#191919"/>
<path d="M116.016 154.201C115.579 154.144 115.135 154.218 114.741 154.415C114.347 154.611 114.02 154.921 113.804 155.304C112.975 156.406 112.283 156.156 112.421 155.028C112.46 154.334 112.773 153.684 113.291 153.219C113.809 152.755 114.491 152.513 115.187 152.548C117.13 152.544 117.398 153.921 116.016 154.201Z" fill="#191919"/>
<path d="M117.122 159.709C118.343 159.709 119.334 159.092 119.334 158.331C119.334 157.569 118.343 156.952 117.122 156.952C115.9 156.952 114.909 157.569 114.909 158.331C114.909 159.092 115.9 159.709 117.122 159.709Z" fill="#191919"/>
</svg>
