<svg width="389" height="298" viewBox="0 0 389 298" fill="none" xmlns="http://www.w3.org/2000/svg">
<rect y="3" width="389" height="295" rx="25" fill="white"/>
<path d="M203.953 186.072C228.334 184.835 250.67 184.275 254.271 186.294C256.126 187.337 259.013 201.045 260.339 210.213C267.827 209.319 277.238 208.496 286.64 207.855C285.244 200.802 284.383 196.382 281.215 189.567C280.735 188.535 282.05 188.117 282.584 189.061C285.758 194.871 287.89 201.193 288.883 207.739C301.612 206.903 314.171 206.398 322.043 206.398C321.149 198.695 316.197 180.943 307.321 171.841C300.479 164.824 287.206 158.58 275.459 157.102C275.276 158.73 274.648 160.276 273.644 161.57C272.64 162.865 271.299 163.858 269.767 164.44C263.492 166.906 252.036 167.554 241.818 161.941C231.038 165.016 211.282 176.749 203.953 186.072Z" fill="#38A1FF"/>
<path d="M335.368 240.903C271.085 242.111 207.093 241.873 142.844 241.946C141.544 241.946 141.251 243.977 142.595 244.001C206.699 245.185 271.568 243.791 335.662 243.005C337.031 242.994 336.73 240.878 335.368 240.903Z" fill="#38A1FF"/>
<path d="M177.091 113.891C183.69 114.015 215.851 113.416 219.271 113.268C220.302 113.223 220.275 111.444 219.271 111.444C214.68 111.444 184.478 112.027 177.091 112.414C176.912 112.438 176.748 112.527 176.629 112.662C176.511 112.798 176.445 112.972 176.445 113.153C176.445 113.333 176.511 113.507 176.629 113.643C176.748 113.779 176.912 113.867 177.091 113.891Z" fill="#38A1FF"/>
<path d="M150.747 105.653C150.267 105.904 141.969 115.878 145.793 114.692C146.335 114.523 151.753 107.659 152.019 106.428C152.051 106.269 152.034 106.103 151.968 105.954C151.903 105.805 151.793 105.68 151.655 105.595C151.516 105.511 151.354 105.471 151.192 105.481C151.029 105.492 150.874 105.552 150.747 105.653V105.653Z" fill="#38A1FF"/>
<path d="M132.666 82.9928C135.334 83.1179 189.673 82.9823 192.912 82.6635C193.372 82.6025 193.793 82.3729 194.094 82.0192C194.394 81.6655 194.552 81.2129 194.538 80.7491C194.524 80.2853 194.338 79.8433 194.016 79.5088C193.695 79.1743 193.26 78.971 192.798 78.9385C177.676 79.1262 146.24 79.2037 132.751 79.4987C130.727 79.5449 130.557 82.8974 132.666 82.9928Z" fill="#38A1FF"/>
<path d="M208.73 140.334C205.233 140.334 178.644 140.036 176.76 140.574C176.119 140.759 175.866 141.796 176.635 142.015C178.644 142.592 205.094 142.3 208.746 142.3C212.398 142.3 215.943 142.431 219.519 142.3C220.612 142.259 220.532 140.427 219.447 140.379C215.889 140.221 212.295 140.334 208.73 140.334Z" fill="#38A1FF"/>
<path d="M176.342 154.258C176.116 154.325 175.926 154.478 175.813 154.685C175.7 154.891 175.672 155.134 175.737 155.36C176.044 156.403 174.666 156.046 219.981 156.801C220.231 156.776 220.463 156.658 220.631 156.472C220.8 156.285 220.893 156.043 220.893 155.792C220.893 155.54 220.8 155.298 220.631 155.112C220.463 154.925 220.231 154.808 219.981 154.782C176.509 154.08 179.207 154.036 176.342 154.258Z" fill="#38A1FF"/>
<path d="M219.012 128.423C219.255 128.406 219.482 128.301 219.651 128.126C219.82 127.951 219.917 127.72 219.925 127.477C219.933 127.234 219.85 126.997 219.692 126.812C219.535 126.627 219.314 126.507 219.073 126.475C212.607 126.296 182.515 126.046 177.055 127.134C176.161 127.311 176.361 128.613 177.215 128.689C181.832 129.105 188.892 127.554 219.012 128.423Z" fill="#38A1FF"/>
<path d="M258.756 101.953C258.836 89.1179 259.432 73.1064 258.355 60.6529C258.325 60.4659 258.228 60.2965 258.08 60.1774C257.933 60.0583 257.747 59.9979 257.558 60.0079C257.369 60.0179 257.19 60.0976 257.057 60.2316C256.923 60.3655 256.843 60.5443 256.834 60.7334C256.484 66.7083 256.813 94.47 256.834 102.096C256.837 103.349 258.748 103.207 258.756 101.953Z" fill="#38A1FF"/>
<path d="M146.313 161.415C148.159 163.438 150.123 165.351 152.192 167.144C153.086 167.986 154.463 166.643 153.563 165.803C151.634 163.862 149.606 162.022 147.487 160.29C146.842 159.877 145.815 160.722 146.313 161.415Z" fill="#38A1FF"/>
<path d="M63.7302 60.6545C63.7302 59.534 61.966 59.3299 61.9511 60.4772C61.3641 107.943 62.1478 163.152 64.4156 210.371C64.4782 211.679 66.5016 211.359 66.4345 210.06C64.0386 160.111 63.6617 110.646 63.7302 60.6545Z" fill="#38A1FF"/>
<path d="M86.1447 166.566C85.6441 167.311 86.8048 168.259 87.3904 167.563C88.1458 166.669 92.5264 161.592 92.3074 160.5C91.7039 157.607 87 165.301 86.1447 166.566Z" fill="#38A1FF"/>
<path d="M118.926 142.489C118.161 142.347 113.313 146.651 112.334 147.585C103.181 141.599 104.091 143.073 104.205 146.691C104.239 149.165 104.411 151.636 104.72 154.092C104.832 154.868 106.012 154.732 106.061 153.977C106.247 151.21 105.891 148.452 105.847 145.687C113.906 150.604 111.415 150.455 118.941 144.289C119.835 145.277 124.092 149.419 125.381 149.263C126.424 149.133 129.935 144.414 130.771 143.408C130.771 145.544 130.84 151.638 131.473 153.363C131.801 154.257 132.665 153.941 132.71 153.052C132.82 151.156 132.591 146.664 132.595 144.477C132.595 141.985 132.588 141.348 131.545 139.858C129.28 136.621 123.543 128.693 120.043 124.39C116.961 120.598 116.825 120.516 114.661 123.865C111.328 129.034 105.733 139.064 104.878 140.971C104.516 141.774 105.754 142.152 106.185 141.558C107.618 139.578 110.863 133.756 112.358 131.195C115.718 131.329 119.083 131.272 122.436 131.025C125.203 134.303 127.818 137.688 130.333 141.157L125.202 147.384C124.503 146.829 119.699 142.632 118.926 142.489Z" fill="#38A1FF"/>
<path d="M144.594 209.197C136.589 208.75 71.3967 209.101 68.8532 209.495C68.6651 209.556 68.5025 209.677 68.3907 209.84C68.2789 210.003 68.2242 210.199 68.2353 210.396C68.2464 210.594 68.3225 210.782 68.4518 210.931C68.5812 211.081 68.7564 211.183 68.9501 211.222C93.5992 211.292 119.759 211.097 144.451 211.124C145.652 211.124 145.858 209.272 144.594 209.197Z" fill="#38A1FF"/>
<path d="M89.2867 116.941C90.1688 117.925 91.5217 116.692 90.7887 115.856C89.0096 113.837 85.1982 109.252 83.4415 107.709C82.7456 107.096 81.8025 108.054 82.2942 108.784C83.5577 110.669 87.5449 114.998 89.2867 116.941Z" fill="#38A1FF"/>
<path d="M117.967 108.174C118.079 104.306 117.85 100.437 117.283 96.6098C117.205 96.4721 117.088 96.3602 116.947 96.2875C116.806 96.2149 116.648 96.1846 116.49 96.2004C116.332 96.2161 116.182 96.2773 116.059 96.3764C115.935 96.4755 115.843 96.6083 115.793 96.7588C115.673 100.622 115.86 104.488 116.354 108.321C116.398 108.513 116.511 108.683 116.671 108.798C116.831 108.914 117.028 108.968 117.225 108.95C117.421 108.932 117.605 108.843 117.741 108.701C117.878 108.558 117.958 108.371 117.967 108.174V108.174Z" fill="#38A1FF"/>
<path d="M119.272 165.864C119.272 167.1 118.942 175.31 119.387 176.387C119.465 176.523 119.578 176.636 119.714 176.714C119.85 176.793 120.004 176.834 120.161 176.834C120.317 176.834 120.472 176.793 120.607 176.714C120.743 176.636 120.856 176.523 120.935 176.387C121.398 175.204 120.872 167.492 120.811 165.864C120.73 164.992 119.272 164.974 119.272 165.864Z" fill="#38A1FF"/>
<path d="M81.9913 138.929C100.087 104.896 141.336 108.472 156.506 136.171C138.584 163.523 103.474 167.664 81.9093 141.365C81.2358 140.546 80.4029 141.593 81.0153 142.451C99.9741 168.824 140.483 165.383 157.209 138.726C157.754 138.049 158.072 137.217 158.119 136.349C158.165 135.481 157.937 134.62 157.467 133.888C139.073 102.387 93.0053 108.053 80.7456 138.123C80.3806 139.017 81.5547 139.752 81.9913 138.929Z" fill="#38A1FF"/>
<path fill-rule="evenodd" clip-rule="evenodd" d="M246.932 104.362C242.271 105.256 238.16 115.437 243.302 120.204C246.451 123.123 260.95 123.247 269.739 122.873C269.803 123.948 270.033 125.007 270.423 126.012C270.773 126.906 271.822 127.189 271.562 125.577C271.419 124.659 271.354 123.73 271.366 122.801C273.146 122.713 274.551 122.606 275.458 122.503C275.221 124.488 274.88 126.46 274.436 128.409C274.19 129.478 275.389 129.677 275.796 128.658C277.044 125.435 277.548 121.972 277.273 118.526C276.742 110.932 255.446 102.726 246.932 104.362ZM248.4 108.373C246.256 108.864 245.749 112.121 245.554 113.863C245.218 116.843 243.319 114.757 243.775 112.136C244.123 110.16 245.811 106.941 248.274 107.262C248.417 107.254 248.557 107.301 248.666 107.394C248.776 107.486 248.845 107.617 248.861 107.759C248.877 107.901 248.838 108.043 248.752 108.158C248.667 108.272 248.54 108.349 248.4 108.373V108.373Z" fill="#191919"/>
<path fill-rule="evenodd" clip-rule="evenodd" d="M264.36 135.026C265.548 133.014 266.364 130.806 266.771 128.505C268.772 128.868 270.681 129.628 272.384 130.74C273.397 131.177 273.781 129.846 273.278 129.434C271.449 127.943 269.214 127.038 266.863 126.837C265.779 124.782 257.533 124.303 256.26 126.471C255.949 126.297 255.604 126.19 255.248 126.158C254.893 126.126 254.534 126.169 254.197 126.285C253.549 124.506 246.236 124.061 244.413 126.115C242.314 125.884 241.442 127.823 244.217 127.805C244.319 129.731 244.676 131.634 245.276 133.467C245.994 134.936 251.159 134.914 252.187 134.17C253.41 133.287 253.966 129.429 254.313 127.944C254.817 127.785 255.361 127.817 255.843 128.033C255.832 130.025 256.059 132.01 256.518 133.948C257.308 135.519 263.214 136.378 264.36 135.026ZM251.622 132.463C251.379 133.048 251.16 133.188 249.202 133.111C245.894 132.981 246.587 133.698 245.574 127.036C247.904 126.245 250.43 126.245 252.76 127.036C252.728 128.901 252.342 130.742 251.622 132.463ZM257.849 133.138C257.48 131.306 257.348 129.435 257.457 127.57C260.012 126.657 262.817 126.743 265.312 127.809C265.172 129.275 264.797 130.708 264.199 132.053C263.353 133.905 263.213 134.148 260.544 133.93C259.263 133.826 258.029 133.541 257.849 133.139V133.138Z" fill="#191919"/>
<path fill-rule="evenodd" clip-rule="evenodd" d="M259.112 131.946C259.391 132.95 261.347 133.068 260.891 130.167C260.63 128.516 258.303 129.035 259.112 131.946Z" fill="#191919"/>
<path fill-rule="evenodd" clip-rule="evenodd" d="M276.01 130.745C270.905 131.172 268.385 140.524 265.673 141.419C263.778 142.046 259.527 139.32 255.232 139.026C250.936 138.733 248.489 140.547 247.688 140.164C246.886 139.782 247.439 136.429 247.439 135.647C247.439 134.865 247.013 134.437 246.256 136.162C245.499 137.888 238.117 154.451 241.328 158.907C245.918 165.275 264.645 166.624 270.459 162.243C277.748 156.751 271.546 139.113 273.341 134.517C273.679 133.861 274.217 133.329 274.878 132.999C275.539 132.669 276.288 132.559 277.015 132.685C279.471 133.749 278.796 141.029 274.871 139.889C273.885 139.604 273.661 140.844 274.573 141.322C277.239 142.724 279.855 140.538 280.204 136.875C280.465 134.1 279.523 130.451 276.01 130.745ZM255.685 147.284C251.985 147.284 251.237 145.816 250.925 143.41C254.128 144.098 257.446 144.04 260.622 143.241C260.284 145.441 259.815 147.29 255.685 147.29V147.284Z" fill="#191919"/>
<path fill-rule="evenodd" clip-rule="evenodd" d="M253.916 131.653C253.231 133.232 252.718 134.881 252.386 136.57C252.018 138.574 254.684 138.58 256.186 138.349C257.08 138.212 257.243 137.193 256.265 137.121C255.545 137.068 254.131 137.032 253.997 136.783C254.12 135.121 254.439 133.479 254.949 131.891C255.156 131.236 254.199 130.979 253.916 131.653Z" fill="#191919"/>
<path fill-rule="evenodd" clip-rule="evenodd" d="M249.682 132.013C250.51 131.697 250.576 129.466 249.868 129.051C248.082 127.99 247.833 132.71 249.682 132.013Z" fill="#191919"/>
<path fill-rule="evenodd" clip-rule="evenodd" d="M264.26 53.5366C195.351 53.5903 122.198 53.4308 54.3373 54.009C53.181 54.0179 53.1542 56.9889 54.2657 56.9964C122.962 57.427 195.315 56.8906 264.189 56.837C265.426 56.8355 265.452 53.5366 264.26 53.5366Z" fill="#191919"/>
<path fill-rule="evenodd" clip-rule="evenodd" d="M185.753 212.154C173.982 211.453 155.749 209.15 144.764 204.434C143.352 203.826 136.374 204.966 128.452 201.305C127.623 200.923 127.294 202.09 128.069 202.568C132.117 205.063 137.231 205.727 141.901 205.878C143.156 205.845 144.399 206.123 145.521 206.687C158.464 211.328 172.093 213.764 185.842 213.891C186.972 213.907 186.936 212.225 185.753 212.154Z" fill="#191919"/>
<path fill-rule="evenodd" clip-rule="evenodd" d="M319.58 208.773C319.351 207.518 317.66 207.961 317.871 209.208C318.599 213.685 318.31 218.268 317.026 222.618C313.985 233.216 305.036 231.516 296.078 231.103C286.677 230.671 273.728 229.77 265.605 229.396C265.426 229.372 265.244 229.419 265.099 229.527C264.954 229.636 264.857 229.796 264.828 229.975C264.799 230.153 264.842 230.336 264.946 230.484C265.05 230.632 265.208 230.733 265.386 230.767C273.201 232.008 289.895 232.742 296.399 233.051C305.294 233.474 315.217 234.66 318.53 224.361C320.159 219.331 320.52 213.976 319.58 208.773V208.773Z" fill="#191919"/>
<path fill-rule="evenodd" clip-rule="evenodd" d="M261.272 214.084C272.784 212.253 284.38 211.004 296.017 210.34C296.206 210.323 296.38 210.234 296.504 210.091C296.628 209.949 296.692 209.764 296.682 209.575C296.673 209.387 296.591 209.209 296.454 209.079C296.317 208.949 296.135 208.878 295.946 208.879C284.229 209.36 272.552 210.548 260.979 212.438C260.76 212.477 260.567 212.602 260.44 212.784C260.314 212.966 260.265 213.191 260.304 213.41C260.344 213.628 260.469 213.822 260.651 213.948C260.833 214.075 261.058 214.123 261.277 214.084H261.272Z" fill="#191919"/>
<path fill-rule="evenodd" clip-rule="evenodd" d="M138.717 201.197C138.841 201.196 138.964 201.17 139.078 201.121C139.191 201.071 139.294 201 139.379 200.91C139.465 200.82 139.531 200.714 139.575 200.598C139.618 200.482 139.638 200.358 139.632 200.234C139.627 200.11 139.596 199.989 139.543 199.877C139.49 199.765 139.414 199.665 139.321 199.583C139.228 199.501 139.12 199.439 139.002 199.399C138.885 199.36 138.76 199.345 138.637 199.355C133.106 199.532 130.315 197.962 126.665 195.369C126.087 194.959 125.473 195.682 125.92 196.263C128.518 199.698 134.581 201.358 138.717 201.197Z" fill="#191919"/>
<path fill-rule="evenodd" clip-rule="evenodd" d="M147.918 191.763C148.592 192.931 150.004 193.089 151.262 193.374C158.689 195.062 175.686 194.499 183.569 194.406C184.69 194.393 184.463 192.945 183.312 192.955C177.556 193.013 160.184 193.177 151.564 191.586C149.973 191.288 150.055 191.523 149.243 190.245C147.708 187.822 145.419 184.858 142.644 184.809C141.815 184.794 141.75 185.593 142.456 185.948C144.908 187.178 146.844 189.239 147.918 191.763Z" fill="#191919"/>
<path fill-rule="evenodd" clip-rule="evenodd" d="M143.001 192.095C139.154 190.966 133.717 189.154 130.727 185.291C129.833 184.131 129.073 185.033 129.517 185.967C131.379 189.889 138.197 193.417 142.112 193.566C144.277 193.657 143.675 192.292 143.001 192.095Z" fill="#191919"/>
<path fill-rule="evenodd" clip-rule="evenodd" d="M127.419 189.054C127.296 188.904 127.12 188.807 126.928 188.783C126.736 188.759 126.542 188.809 126.386 188.924C126.23 189.038 126.124 189.208 126.089 189.399C126.055 189.589 126.094 189.786 126.2 189.948C127.62 191.985 129.465 193.691 131.607 194.949C133.749 196.206 136.137 196.985 138.609 197.232C138.803 197.239 138.995 197.182 139.154 197.07C139.314 196.958 139.432 196.797 139.491 196.611C139.551 196.426 139.548 196.226 139.483 196.042C139.419 195.858 139.296 195.701 139.133 195.593C137.826 195.03 132.272 194.668 127.419 189.054Z" fill="#191919"/>
<path fill-rule="evenodd" clip-rule="evenodd" d="M298.95 234.64C296.282 234.292 265.327 234.978 263.894 234.391C262.46 233.804 255.046 191.579 253.109 188.804C251.172 186.03 190.158 187.79 187.384 189.391C184.609 190.993 193.771 239.224 196.145 240.2C198.262 241.069 295.769 239.862 298.955 239.694C302.141 239.525 301.619 234.987 298.95 234.64ZM222.078 220.763C213.754 221.456 211.145 207.8 219.463 206.443C223.412 205.798 226.891 209.299 227.629 213.611C227.782 214.452 227.756 215.315 227.554 216.145C227.351 216.975 226.975 217.752 226.451 218.427C225.928 219.102 225.267 219.659 224.514 220.062C223.76 220.464 222.931 220.703 222.078 220.763V220.763Z" fill="#191919"/>
</svg>
