<svg width="33" height="33" viewBox="0 0 33 33" fill="none" xmlns="http://www.w3.org/2000/svg">
<path d="M28.0679 5.36232L5.68152 14.0606L12.3214 16.8188C14.2622 17.6239 15.8042 19.1663 16.6087 21.1074L19.3669 27.7459L28.0679 5.36232ZM30.6075 6.30007L21.9065 28.6864C21.3565 30.1027 19.7739 30.8273 18.3714 30.3089C18.0297 30.1827 17.7177 29.9873 17.455 29.7348C17.1924 29.4823 16.9848 29.1783 16.8452 28.8418L14.0855 22.2006C13.5487 20.9071 12.5206 19.8795 11.2269 19.3433L4.5884 16.5851C3.2079 16.0117 2.57815 14.4181 3.18177 13.0238C3.33007 12.683 3.5443 12.3749 3.81213 12.1172C4.07997 11.8595 4.39612 11.6573 4.7424 11.5223L27.1288 2.82132C27.6151 2.62587 28.1481 2.57763 28.6616 2.6826C29.1752 2.78757 29.6465 3.04111 30.0171 3.41173C30.3877 3.78234 30.6413 4.25369 30.7462 4.7672C30.8512 5.28071 30.803 5.81374 30.6075 6.30007Z" fill="black"/>
</svg>
