<svg width="71" height="71" viewBox="0 0 71 71" fill="none" xmlns="http://www.w3.org/2000/svg">
<g filter="url(#filter0_di_1_9098)">
<rect x="1" y="2" width="61" height="61" rx="8" fill="url(#paint0_linear_1_9098)"/>
<rect x="0.75" y="1.75" width="61.5" height="61.5" rx="8.25" stroke="#1B83CE" stroke-width="0.5"/>
<path fill-rule="evenodd" clip-rule="evenodd" d="M17 11.5C15.5413 11.5 14.1424 12.0795 13.1109 13.1109C12.0795 14.1424 11.5 15.5413 11.5 17C11.5 18.4587 12.0795 19.8576 13.1109 20.8891C14.1424 21.9205 15.5413 22.5 17 22.5C18.4587 22.5 19.8576 21.9205 20.8891 20.8891C21.9205 19.8576 22.5 18.4587 22.5 17C22.5 15.5413 21.9205 14.1424 20.8891 13.1109C19.8576 12.0795 18.4587 11.5 17 11.5ZM14.5 17C14.5 16.337 14.7634 15.7011 15.2322 15.2322C15.7011 14.7634 16.337 14.5 17 14.5C17.663 14.5 18.2989 14.7634 18.7678 15.2322C19.2366 15.7011 19.5 16.337 19.5 17C19.5 17.663 19.2366 18.2989 18.7678 18.7678C18.2989 19.2366 17.663 19.5 17 19.5C16.337 19.5 15.7011 19.2366 15.2322 18.7678C14.7634 18.2989 14.5 17.663 14.5 17ZM11.5 25C11.5 24.6022 11.658 24.2206 11.9393 23.9393C12.2206 23.658 12.6022 23.5 13 23.5H21C21.3978 23.5 21.7794 23.658 22.0607 23.9393C22.342 24.2206 22.5 24.6022 22.5 25V51C22.5 51.3978 22.342 51.7794 22.0607 52.0607C21.7794 52.342 21.3978 52.5 21 52.5H13C12.6022 52.5 12.2206 52.342 11.9393 52.0607C11.658 51.7794 11.5 51.3978 11.5 51V25ZM14.5 26.5V49.5H19.5V26.5H14.5ZM25.5 25C25.5 24.6022 25.658 24.2206 25.9393 23.9393C26.2206 23.658 26.6022 23.5 27 23.5H35C35.3978 23.5 35.7794 23.658 36.0607 23.9393C36.342 24.2206 36.5 24.6022 36.5 25V25.868L37.37 25.494C38.87 24.853 40.4614 24.4514 42.086 24.304C47.636 23.8 52.5 28.16 52.5 33.76V51C52.5 51.3978 52.342 51.7794 52.0607 52.0607C51.7794 52.342 51.3978 52.5 51 52.5H43C42.6022 52.5 42.2206 52.342 41.9393 52.0607C41.658 51.7794 41.5 51.3978 41.5 51V37C41.5 36.337 41.2366 35.7011 40.7678 35.2322C40.2989 34.7634 39.663 34.5 39 34.5C38.337 34.5 37.7011 34.7634 37.2322 35.2322C36.7634 35.7011 36.5 36.337 36.5 37V51C36.5 51.3978 36.342 51.7794 36.0607 52.0607C35.7794 52.342 35.3978 52.5 35 52.5H27C26.6022 52.5 26.2206 52.342 25.9393 52.0607C25.658 51.7794 25.5 51.3978 25.5 51V25ZM28.5 26.5V49.5H33.5V37C33.5 35.5413 34.0795 34.1424 35.1109 33.1109C36.1424 32.0795 37.5413 31.5 39 31.5C40.4587 31.5 41.8576 32.0795 42.8891 33.1109C43.9205 34.1424 44.5 35.5413 44.5 37V49.5H49.5V33.76C49.5 29.952 46.178 26.944 42.36 27.292C41.0483 27.4113 39.7635 27.7353 38.552 28.252L35.592 29.522C35.3637 29.6201 35.1146 29.6599 34.8671 29.6379C34.6196 29.6158 34.3814 29.5327 34.174 29.3959C33.9666 29.2591 33.7964 29.0728 33.6788 28.854C33.5611 28.6351 33.4997 28.3905 33.5 28.142V26.5H28.5Z" fill="#F8F8F8"/>
</g>
<defs>
<filter id="filter0_di_1_9098" x="-1.5" y="-1.5" width="72" height="72" filterUnits="userSpaceOnUse" color-interpolation-filters="sRGB">
<feFlood flood-opacity="0" result="BackgroundImageFix"/>
<feColorMatrix in="SourceAlpha" type="matrix" values="0 0 0 0 0 0 0 0 0 0 0 0 0 0 0 0 0 0 127 0" result="hardAlpha"/>
<feOffset dx="4" dy="3"/>
<feGaussianBlur stdDeviation="2"/>
<feComposite in2="hardAlpha" operator="out"/>
<feColorMatrix type="matrix" values="0 0 0 0 0 0 0 0 0 0 0 0 0 0 0 0 0 0 0.25 0"/>
<feBlend mode="normal" in2="BackgroundImageFix" result="effect1_dropShadow_1_9098"/>
<feBlend mode="normal" in="SourceGraphic" in2="effect1_dropShadow_1_9098" result="shape"/>
<feColorMatrix in="SourceAlpha" type="matrix" values="0 0 0 0 0 0 0 0 0 0 0 0 0 0 0 0 0 0 127 0" result="hardAlpha"/>
<feOffset dx="-2" dy="-3"/>
<feGaussianBlur stdDeviation="2"/>
<feComposite in2="hardAlpha" operator="arithmetic" k2="-1" k3="1"/>
<feColorMatrix type="matrix" values="0 0 0 0 0 0 0 0 0 0 0 0 0 0 0 0 0 0 0.25 0"/>
<feBlend mode="normal" in2="shape" result="effect2_innerShadow_1_9098"/>
</filter>
<linearGradient id="paint0_linear_1_9098" x1="31.5" y1="2" x2="31.5" y2="63" gradientUnits="userSpaceOnUse">
<stop stop-color="#008AD3"/>
<stop offset="1" stop-color="#A3D1EB"/>
</linearGradient>
</defs>
</svg>
