<svg width="38" height="38" viewBox="0 0 38 38" fill="none" xmlns="http://www.w3.org/2000/svg">
<g id="material-symbols:mail-outline">
<path id="Vector" d="M6.2 31C5.32 31 4.56693 30.6943 3.9408 30.0828C3.31467 29.4714 3.00107 28.7354 3 27.875V9.125C3 8.26562 3.3136 7.53021 3.9408 6.91875C4.568 6.30729 5.32107 6.00104 6.2 6H31.8C32.68 6 33.4336 6.30625 34.0608 6.91875C34.688 7.53125 35.0011 8.26667 35 9.125V27.875C35 28.7344 34.6869 29.4703 34.0608 30.0828C33.4347 30.6953 32.6811 31.001 31.8 31H6.2ZM19 20.0625L6.2 12.25V27.875H31.8V12.25L19 20.0625ZM19 16.9375L31.8 9.125H6.2L19 16.9375ZM6.2 12.25V9.125V27.875V12.25Z" fill="black"/>
</g>
</svg>
