<svg width="29" height="30" viewBox="0 0 29 30" fill="none" xmlns="http://www.w3.org/2000/svg">
<path id="Vector" d="M27.0606 29.093C24.006 29.093 20.874 28.326 17.6646 26.7921C14.4553 25.257 11.4743 23.1033 8.72175 20.3312C5.96675 17.5578 3.82437 14.5681 2.29462 11.3622C0.764875 8.15623 0 5.02177 0 1.95881C0 1.40389 0.18125 0.941653 0.54375 0.57211C0.90625 0.200144 1.35938 0.0141602 1.90313 0.0141602H6.38544C6.87844 0.0141602 7.3086 0.169853 7.67594 0.481239C8.04327 0.792624 8.29158 1.19125 8.42087 1.6771L9.31987 6.01167C9.40446 6.52054 9.38935 6.9646 9.27456 7.34384C9.16098 7.72307 8.9604 8.03385 8.67281 8.27618L4.69438 11.9946C5.43871 13.3492 6.26098 14.6069 7.16119 15.7676C8.0614 16.9295 9.02202 18.0303 10.0431 19.0699C11.0943 20.124 12.2265 21.1054 13.4397 22.0141C14.6529 22.9216 15.9844 23.7782 17.4344 24.5839L21.3114 20.6274C21.6062 20.3087 21.9379 20.0985 22.3064 19.9968C22.675 19.8962 23.0822 19.8762 23.5281 19.9368L27.3416 20.7183C27.8334 20.8394 28.2327 21.0878 28.5396 21.4634C28.8465 21.8402 29 22.2722 29 22.7592V27.1847C29 27.7299 28.8151 28.1843 28.4454 28.5477C28.0768 28.9112 27.614 29.093 27.0606 29.093ZM3.8425 10.2899L7.3225 7.08031C7.4385 6.98823 7.51342 6.8604 7.54725 6.69683C7.5835 6.53327 7.57746 6.38181 7.52913 6.24248L6.72619 2.38954C6.67906 2.20416 6.5975 2.06482 6.4815 1.97153C6.3655 1.87823 6.21506 1.83159 6.03019 1.83159H2.31094C2.17198 1.83159 2.05598 1.87823 1.96294 1.97153C1.8699 2.06482 1.82338 2.18114 1.82338 2.32047C1.85842 3.56238 2.05175 4.85881 2.40338 6.20976C2.75742 7.56193 3.23592 8.92197 3.8425 10.2899ZM19.1599 25.4363C20.3852 26.0445 21.6902 26.4947 23.0749 26.7867C24.4621 27.0774 25.6704 27.2331 26.6999 27.2537C26.8389 27.2537 26.9549 27.2077 27.0479 27.1156C27.141 27.0223 27.1875 26.9054 27.1875 26.7648V23.1173C27.1875 22.9307 27.141 22.7792 27.0479 22.6629C26.9549 22.5454 26.8159 22.4636 26.6311 22.4176L23.2779 21.7288C23.1378 21.6827 23.0151 21.6767 22.91 21.7106C22.8061 21.7469 22.6961 21.8227 22.5801 21.9378L19.1599 25.4363Z" fill="black"/>
</svg>
