<svg width="75" height="63" viewBox="0 0 75 63" fill="none" xmlns="http://www.w3.org/2000/svg">
<path d="M42.3733 1.01789L42.4697 17.939C42.5203 26.808 43.612 34.0761 45.7449 39.7434C47.9557 45.4103 51.6397 50.2129 56.797 54.1514C61.9543 58.0898 67.8042 60.7017 74.3468 61.987L74.2696 48.4502C69.6645 45.8312 67.0381 42.3062 66.3904 37.8753L74.2091 37.8307L73.9983 0.83765L42.3733 1.01789ZM0.12887 1.25865L0.225308 18.1798C0.275855 27.0488 1.36759 34.3169 3.50051 39.9842C5.71123 45.6511 9.39523 50.4537 14.5525 54.3922C19.7876 58.3302 25.6376 60.942 32.1024 62.2278L32.0252 48.6909C27.42 46.0719 24.7936 42.547 24.146 38.116L31.9647 38.0715L31.7538 1.07841L0.12887 1.25865Z" fill="#0871BE"/>
</svg>
